<svg width="180" height="180" viewBox="0 0 180 180" fill="none" xmlns="http://www.w3.org/2000/svg">
<path fill-rule="evenodd" clip-rule="evenodd" d="M131.353 54.305C123.991 50.8924 116.118 48.4122 107.887 47C106.876 48.8104 105.695 51.2455 104.881 53.1825C96.1312 51.8791 87.4621 51.8791 78.8733 53.1825C78.0593 51.2455 76.8516 48.8104 75.8317 47C67.5922 48.4122 59.7101 50.9015 52.3472 54.323C37.496 76.5545 33.4701 98.2338 35.483 119.605C36.092 120.056 36.6997 120.495 37.3064 120.924C37.4343 121.014 37.8146 121.368 38.3643 121.902C44.9071 128.258 47.9049 134.948 44.2644 143.311C41.9267 148.682 45.9187 156.309 48.8164 151.218C49.0257 150.851 49.2395 150.471 49.4661 150.078C50.1654 148.864 50.5757 147.498 50.5757 146.097V144.459C50.5757 139.746 51.3654 135.066 52.912 130.614L53.1209 130.013C56.8658 131.703 60.5773 133.077 64.2639 134.215C66.581 131.056 68.6476 127.698 70.4279 124.158C67.0374 122.882 63.7897 121.307 60.7211 119.478C61.5352 118.881 62.3315 118.256 63.1008 117.614C81.8168 126.286 102.152 126.286 120.645 117.614C121.423 118.256 122.219 118.881 123.024 119.478C119.947 121.316 116.69 122.891 113.3 124.167C115.08 127.698 117.138 131.065 119.464 134.224C128.858 131.327 138.412 126.901 148.262 119.605C150.624 94.8302 144.227 73.3501 131.353 54.305ZM62.7519 94.9389C62.7519 101.266 67.3595 106.462 72.9776 106.462C78.6945 106.462 83.2124 101.266 83.2037 94.9389C83.3018 88.6024 78.6945 83.4067 72.9776 83.4067C67.261 83.4067 62.7519 88.6114 62.7519 94.9389ZM100.542 94.9389C100.542 101.266 105.149 106.462 110.768 106.462C116.484 106.462 120.993 101.266 120.993 94.9389C121.092 88.6024 116.484 83.4067 110.768 83.4067C105.051 83.4067 100.542 88.6114 100.542 94.9389Z" fill="#4E5AF0"/>
<path d="M87.6498 33.1739C87.3498 34.0239 87.7498 34.9739 88.4998 34.9739C89.0998 34.9739 89.0998 33.1239 88.4498 32.7239C88.1498 32.5739 87.7998 32.7739 87.6498 33.1739Z" fill="#4E5AF0"/>
<path d="M94.2498 33.7238C94.0998 34.1738 94.2998 34.6238 94.7498 34.8238C95.6998 35.1738 96.1498 34.7238 95.7998 33.7238C95.3998 32.7738 94.6498 32.7738 94.2498 33.7238Z" fill="#4E5AF0"/>
<path d="M38.9897 47.6694C38.9897 48.1194 39.2397 48.4194 39.5397 48.3194C39.8397 48.2194 40.0897 47.9194 40.0897 47.6694C40.0897 47.4194 39.8397 47.1194 39.5397 47.0194C39.2397 46.9194 38.9897 47.2194 38.9897 47.6694Z" fill="#4E5AF0"/>
<path d="M75.4498 34.2238C75.4498 34.6738 75.6998 34.9738 75.9998 34.8738C76.2998 34.7738 76.5498 34.4738 76.5498 34.2238C76.5498 33.9738 76.2998 33.6738 75.9998 33.5738C75.6998 33.4738 75.4498 33.7738 75.4498 34.2238Z" fill="#4E5AF0"/>
<path d="M96.7498 34.2737C96.5498 34.7237 96.5498 35.2237 96.6498 35.3237C97.0498 35.7237 97.9498 34.9237 97.9498 34.1737C97.9498 33.2237 97.1498 33.2737 96.7498 34.2737Z" fill="#4E5AF0"/>
<path d="M100.7 35.4238C100.55 35.6738 100.65 36.0238 100.95 36.2238C101.55 36.5738 102.45 36.1238 102.45 35.4238C102.45 34.8238 101.1 34.8238 100.7 35.4238Z" fill="#4E5AF0"/>
<path d="M143.05 36.5237C143.15 36.8237 143.45 37.0237 143.7 37.0237C143.95 37.0237 144.25 36.8237 144.35 36.5237C144.45 36.2237 144.15 35.9737 143.7 35.9737C143.25 35.9737 142.95 36.2237 143.05 36.5237Z" fill="#4E5AF0"/>
<path d="M69.0498 37.0238C69.1498 37.3738 69.5498 37.7738 69.8998 37.8738C70.2998 38.0238 70.4998 37.8238 70.3498 37.4238C70.2498 37.0738 69.8498 36.6738 69.4998 36.5738C69.0998 36.4238 68.8998 36.6238 69.0498 37.0238Z" fill="#4E5AF0"/>
<path d="M37.048 46.4999C37.148 46.8499 37.548 47.2499 37.898 47.3499C38.298 47.4999 38.498 47.2999 38.348 46.8999C38.248 46.5499 37.848 46.1499 37.498 46.0499C37.098 45.8999 36.898 46.0999 37.048 46.4999Z" fill="#4E5AF0"/>
<path d="M102.05 38.0739C102.35 38.9739 103.45 39.1239 103.45 38.2739C103.45 37.8239 103.1 37.4739 102.65 37.4739C102.2 37.4739 101.95 37.7239 102.05 38.0739Z" fill="#4E5AF0"/>
<path d="M97.4998 38.6239C97.0498 39.1739 97.0998 39.4739 97.6998 39.9739C98.2998 40.4739 98.4998 40.4239 98.7498 39.7239C99.1998 38.5739 98.2498 37.7239 97.4998 38.6239Z" fill="#4E5AF0"/>
<path d="M90.9498 40.2738C90.9498 41.8238 91.0998 42.0238 92.0498 41.8738C93.4998 41.6738 93.7998 40.1238 92.5998 39.2238C91.1998 38.1238 90.9498 38.3238 90.9498 40.2738Z" fill="#4E5AF0"/>
<path d="M105.05 39.5237C105.15 39.8237 105.45 40.0237 105.7 40.0237C105.95 40.0237 106.25 39.8237 106.35 39.5237C106.45 39.2237 106.15 38.9737 105.7 38.9737C105.25 38.9737 104.95 39.2237 105.05 39.5237Z" fill="#4E5AF0"/>
<path d="M77.4498 40.1238C77.4498 40.5238 76.9998 40.9738 76.4498 41.1238C75.2998 41.4238 75.1498 42.8738 76.0998 44.1738C77.0998 45.5238 78.4498 44.6738 78.5498 42.6738C78.5498 41.7238 78.5998 40.7238 78.6498 40.3738C78.6998 40.0738 78.3998 39.7238 78.0998 39.5738C77.7498 39.4738 77.4498 39.7238 77.4498 40.1238Z" fill="#4E5AF0"/>
<path d="M52.7478 48.8998C52.5978 49.1498 52.7978 49.5998 53.1478 49.8998C53.9478 50.5498 54.7478 49.7998 54.1978 48.9498C53.7978 48.3498 53.0978 48.2998 52.7478 48.8998Z" fill="#4E5AF0"/>
<path d="M118.7 40.4737C118.3 41.1237 118.9 42.0737 119.5 41.7237C120.1 41.3237 120.1 39.9737 119.5 39.9737C119.2 39.9737 118.85 40.1737 118.7 40.4737Z" fill="#4E5AF0"/>
<path d="M141.3 40.2739C140.9 40.6739 141.35 41.4739 142 41.4739C142.25 41.4739 142.45 41.1239 142.45 40.7239C142.45 39.9739 141.85 39.7239 141.3 40.2739Z" fill="#4E5AF0"/>
<path d="M63.2998 41.2239C62.8998 42.1239 63.8498 42.7739 64.5498 42.0739C65.0998 41.5239 64.6998 40.4739 63.9498 40.4739C63.7498 40.4739 63.4498 40.8239 63.2998 41.2239Z" fill="#4E5AF0"/>
<path d="M139.25 41.7239C139.05 42.3239 139.2 42.5239 139.8 42.3739C140.7 42.2239 140.85 41.3739 140.05 41.0739C139.8 41.0239 139.45 41.2739 139.25 41.7239Z" fill="#4E5AF0"/>
<path d="M50.098 51.2499C49.698 52.2999 50.748 53.3499 51.498 52.5999C52.148 51.9499 51.748 50.4499 50.948 50.4499C50.648 50.4499 50.298 50.7999 50.098 51.2499Z" fill="#4E5AF0"/>
<path d="M96.1498 42.7239C95.7998 43.6239 96.2998 44.4739 97.2498 44.4739C97.6498 44.4739 97.9498 43.9739 97.9498 43.2239C97.9498 41.8739 96.5998 41.4739 96.1498 42.7239Z" fill="#4E5AF0"/>
<path d="M80.9498 43.2739C80.9498 43.7239 81.1998 43.9739 81.5498 43.8739C82.4498 43.5739 82.5998 42.4739 81.7498 42.4739C81.2998 42.4739 80.9498 42.8239 80.9498 43.2739Z" fill="#4E5AF0"/>
<path d="M114.95 43.7238C114.95 44.1738 115.2 44.4738 115.5 44.3738C115.8 44.2738 116.05 43.9738 116.05 43.7238C116.05 43.4738 115.8 43.1738 115.5 43.0738C115.2 42.9738 114.95 43.2738 114.95 43.7238Z" fill="#4E5AF0"/>
<path d="M133.05 43.5739C132.05 44.5739 132.35 45.4739 133.65 45.4739C135.15 45.4739 135.75 44.6739 134.95 43.7239C134.2 42.8239 133.85 42.7739 133.05 43.5739Z" fill="#4E5AF0"/>
<path d="M46.4514 52.6991C46.4514 53.1491 46.7014 53.4491 47.0014 53.3491C47.3014 53.2491 47.5514 52.9491 47.5514 52.6991C47.5514 52.4491 47.3014 52.1491 47.0014 52.0491C46.7014 51.9491 46.4514 52.2491 46.4514 52.6991Z" fill="#4E5AF0"/>
<path d="M56.1998 44.3739C55.4998 44.8739 54.3498 47.0239 54.5998 47.2739C54.8998 47.6239 57.4498 46.9239 57.4498 46.5239C57.4498 46.3739 57.5998 45.7239 57.7498 45.0739C58.0498 43.9739 57.2498 43.5739 56.1998 44.3739Z" fill="#4E5AF0"/>
<path d="M81.6998 45.4739C81.5498 46.0239 81.0998 46.4739 80.7498 46.4739C79.8498 46.4739 78.9998 47.5239 79.2998 48.2739C79.8998 49.9239 82.0498 48.3739 82.6498 45.8239C82.9998 44.2739 82.1998 43.9239 81.6998 45.4739Z" fill="#4E5AF0"/>
<path d="M114.45 46.0238C114.45 46.9238 114.55 46.9738 115.2 46.4738C115.95 45.8738 115.8 44.9738 114.9 44.9738C114.65 44.9738 114.45 45.4738 114.45 46.0238Z" fill="#4E5AF0"/>
<path d="M46.5514 54.6493C46.6014 55.1493 46.9514 55.4993 47.2014 55.4993C47.9514 55.4493 47.8014 54.2993 47.0514 54.0493C46.6014 53.8993 46.4014 54.1493 46.5514 54.6493Z" fill="#4E5AF0"/>
<path d="M85.9498 46.2239C85.9498 46.6239 86.2998 46.9739 86.6998 46.9739C87.0998 46.9739 87.4498 46.6239 87.4498 46.2239C87.4498 45.8239 87.0998 45.4739 86.6998 45.4739C86.2998 45.4739 85.9498 45.8239 85.9498 46.2239Z" fill="#4E5AF0"/>
<path d="M123.45 45.9739C122.8 46.3739 122.8 46.5239 123.55 47.2739C124.35 48.1239 124.45 48.1239 124.75 47.2739C125.2 46.1239 124.4 45.3739 123.45 45.9739Z" fill="#4E5AF0"/>
<path d="M129.15 46.0238C129 46.3238 129.1 46.8238 129.4 47.1238C129.7 47.4238 129.95 48.1738 129.95 48.7738C129.95 50.2238 130.4 50.4738 131.95 49.8738L133.2 49.4238L132.05 48.4738C131 47.6238 131 47.5238 131.8 47.0238C132.6 46.5738 132.6 46.4238 131.95 45.9738C130.95 45.3238 129.6 45.3238 129.15 46.0238Z" fill="#4E5AF0"/>
<path d="M94.4498 46.7239C94.4498 47.1239 94.7998 47.4739 95.1998 47.4739C95.5998 47.4739 95.9498 47.1239 95.9498 46.7239C95.9498 46.3239 95.5998 45.9739 95.1998 45.9739C94.7998 45.9739 94.4498 46.3239 94.4498 46.7239Z" fill="#4E5AF0"/>
<path d="M97.9498 46.7739C97.9498 47.2239 98.1998 47.4739 98.5498 47.3739C99.4498 47.0739 99.5998 45.9739 98.7498 45.9739C98.2998 45.9739 97.9498 46.3239 97.9498 46.7739Z" fill="#4E5AF0"/>
<path d="M119.5 47.8238C119.5 48.1238 119.3 48.8238 119.15 49.3238C118.9 50.0238 118.95 50.0738 119.4 49.6738C119.75 49.3238 119.95 48.6738 119.8 48.1738C119.65 47.6238 119.55 47.4738 119.5 47.8238Z" fill="#4E5AF0"/>
<path d="M134.45 48.7739C134.45 49.2239 134.8 49.4739 135.3 49.3739C136.55 49.1239 136.7 47.9739 135.5 47.9739C134.9 47.9739 134.45 48.2739 134.45 48.7739Z" fill="#4E5AF0"/>
<path d="M41.4514 58.3995C41.4514 58.9995 41.7014 59.4495 41.9514 59.4495C42.2514 59.4495 42.4514 59.1495 42.4514 58.7495C42.4514 58.3495 42.2514 57.8495 41.9514 57.6995C41.7014 57.5495 41.4514 57.8495 41.4514 58.3995Z" fill="#4E5AF0"/>
<path d="M125.7 49.4739C125.3 50.1739 125.85 50.9739 126.75 50.9739C127.15 50.9739 127.45 50.5239 127.45 49.9739C127.45 48.9239 126.25 48.5739 125.7 49.4739Z" fill="#4E5AF0"/>
<path d="M48.0487 58.9993C48.1487 59.2993 48.4487 59.4993 48.6987 59.4993C48.9487 59.4993 49.2487 59.2993 49.3487 58.9993C49.4487 58.6993 49.1487 58.4493 48.6987 58.4493C48.2487 58.4493 47.9487 58.6993 48.0487 58.9993Z" fill="#4E5AF0"/>
<path d="M137.45 50.4739C137.45 50.7239 137.8 50.9739 138.2 50.9739C138.6 50.9739 138.95 50.7239 138.95 50.4739C138.95 50.1739 138.6 49.9739 138.2 49.9739C137.8 49.9739 137.45 50.1739 137.45 50.4739Z" fill="#4E5AF0"/>
<path d="M135.45 50.9739C135.45 51.2239 135.8 51.4739 136.2 51.4739C136.6 51.4739 136.95 51.2239 136.95 50.9739C136.95 50.6739 136.6 50.4739 136.2 50.4739C135.8 50.4739 135.45 50.6739 135.45 50.9739Z" fill="#4E5AF0"/>
<path d="M132.15 51.5237C131.75 52.2237 132.7 53.1737 133.4 52.7737C133.7 52.5737 133.95 52.0737 133.95 51.6737C133.95 50.8737 132.65 50.7237 132.15 51.5237Z" fill="#4E5AF0"/>
<path d="M149.05 52.0739C149.35 52.9739 150.45 53.1239 150.45 52.2739C150.45 51.8239 150.1 51.4739 149.65 51.4739C149.2 51.4739 148.95 51.7239 149.05 52.0739Z" fill="#4E5AF0"/>
<path d="M128.95 52.7239C128.95 53.1239 129.2 53.4739 129.45 53.4739C129.75 53.4739 129.95 53.1239 129.95 52.7239C129.95 52.3239 129.75 51.9739 129.45 51.9739C129.2 51.9739 128.95 52.3239 128.95 52.7239Z" fill="#4E5AF0"/>
<path d="M152.05 52.7737C152.25 53.8237 153.15 53.9237 153.35 52.8237C153.45 52.3237 153.2 51.9737 152.7 51.9737C152.2 51.9737 151.95 52.2737 152.05 52.7737Z" fill="#4E5AF0"/>
<path d="M140.2 53.4737C139.8 54.1237 140.4 55.0737 141 54.7237C141.6 54.3237 141.6 52.9737 141 52.9737C140.7 52.9737 140.35 53.1737 140.2 53.4737Z" fill="#4E5AF0"/>
<path d="M137.5 53.9239C137.1 54.1739 136.95 54.7239 137.1 55.2239C137.3 55.6739 137.65 55.8739 137.95 55.7239C138.2 55.5739 138.45 55.6739 138.45 55.9239C138.45 56.2239 138.9 56.4739 139.5 56.4739C140.15 56.4739 140.45 56.2239 140.35 55.6739C140.25 55.2739 140.05 54.9739 139.85 55.0739C139.65 55.1739 139.2 54.8239 138.85 54.3739C138.4 53.7739 137.95 53.6239 137.5 53.9239Z" fill="#4E5AF0"/>
<path d="M135.95 56.7239C135.95 57.1239 136.2 57.4739 136.45 57.4739C136.75 57.4739 136.95 57.1239 136.95 56.7239C136.95 56.3239 136.75 55.9739 136.45 55.9739C136.2 55.9739 135.95 56.3239 135.95 56.7239Z" fill="#4E5AF0"/>
<path d="M149.05 56.8239C149.15 57.3239 149.55 57.7239 149.95 57.7239C150.35 57.7239 150.75 57.3239 150.85 56.8239C150.95 56.2239 150.7 55.9739 149.95 55.9739C149.2 55.9739 148.95 56.2239 149.05 56.8239Z" fill="#4E5AF0"/>
<path d="M154.45 56.4739C154.05 56.7239 153.9 57.0739 154.1 57.2739C154.3 57.4739 154.75 57.3739 155.05 57.0739C155.8 56.3239 155.4 55.8739 154.45 56.4739Z" fill="#4E5AF0"/>
<path d="M138.45 57.7239C138.45 58.1239 138.8 58.4739 139.2 58.4739C139.6 58.4739 139.95 58.1239 139.95 57.7239C139.95 57.3239 139.6 56.9739 139.2 56.9739C138.8 56.9739 138.45 57.3239 138.45 57.7239Z" fill="#4E5AF0"/>
<path d="M141.95 57.9739C141.95 58.2239 142.3 58.4739 142.7 58.4739C143.1 58.4739 143.45 58.2239 143.45 57.9739C143.45 57.6739 143.1 57.4739 142.7 57.4739C142.3 57.4739 141.95 57.6739 141.95 57.9739Z" fill="#4E5AF0"/>
<path d="M145.5 57.9237C144.55 58.5237 145.2 60.0737 146.3 59.8737C146.8 59.7737 147.2 59.2737 147.2 58.7737C147.2 57.6737 146.5 57.3237 145.5 57.9237Z" fill="#4E5AF0"/>
<path d="M39.4474 63.75C39.4474 64.15 39.7974 64.5 40.1974 64.5C40.5974 64.5 40.9474 64.15 40.9474 63.75C40.9474 63.35 40.5974 63 40.1974 63C39.7974 63 39.4474 63.35 39.4474 63.75Z" fill="#4E5AF0"/>
<path d="M154.55 58.8239C154.65 59.3239 155.05 59.7239 155.45 59.7239C155.85 59.7239 156.25 59.3239 156.35 58.8239C156.45 58.2239 156.2 57.9739 155.45 57.9739C154.7 57.9739 154.45 58.2239 154.55 58.8239Z" fill="#4E5AF0"/>
<path d="M136.95 59.7239C136.95 60.1239 137.2 60.4739 137.45 60.4739C137.75 60.4739 137.95 60.1239 137.95 59.7239C137.95 59.3239 137.75 58.9739 137.45 58.9739C137.2 58.9739 136.95 59.3239 136.95 59.7239Z" fill="#4E5AF0"/>
<path d="M142.7 60.9737C142.3 61.6237 142.9 62.5737 143.5 62.2237C144.1 61.8237 144.1 60.4737 143.5 60.4737C143.2 60.4737 142.85 60.6737 142.7 60.9737Z" fill="#4E5AF0"/>
<path d="M36.548 67.0504C36.648 67.4004 37.048 67.8004 37.398 67.9004C37.798 68.0504 37.998 67.8504 37.848 67.4504C37.748 67.1004 37.348 66.7004 36.998 66.6004C36.598 66.4504 36.398 66.6504 36.548 67.0504Z" fill="#4E5AF0"/>
<path d="M138.45 62.4739C138.45 62.7239 138.65 62.9739 138.95 62.9739C139.2 62.9739 139.3 63.3239 139.15 63.7239C138.95 64.2239 139.15 64.4739 139.8 64.4739C141.2 64.4739 141.5 64.0239 140.8 62.9239C140.2 61.9239 138.45 61.6239 138.45 62.4739Z" fill="#4E5AF0"/>
<path d="M148.55 63.0739C148.65 63.9739 149 64.2239 150.15 64.1239C150.95 64.0739 151.7 63.9239 151.85 63.7739C152.35 63.2239 150.8 61.9739 149.6 61.9739C148.6 61.9739 148.4 62.1739 148.55 63.0739Z" fill="#4E5AF0"/>
<path d="M39.2977 68.3C38.8977 68.7 39.3477 69.5 39.9977 69.5C40.2477 69.5 40.4477 69.15 40.4477 68.75C40.4477 68 39.8477 67.75 39.2977 68.3Z" fill="#4E5AF0"/>
<path d="M29.0014 70.4874C29.0014 70.7374 29.3014 70.9874 29.7014 70.9874C30.0514 70.9874 30.5014 71.4374 30.6514 71.9874C30.8014 72.5374 31.3514 72.9874 31.8514 72.9874C32.3514 72.9874 33.1014 73.2874 33.4514 73.5874C34.0014 74.1374 34.1014 74.0374 33.8014 72.9874C33.6514 72.2874 33.5014 71.4874 33.5014 71.1874C33.5014 70.3374 32.0014 69.8874 31.2514 70.4874C30.8014 70.8874 30.5014 70.8874 30.2514 70.4874C29.8514 69.8374 29.0014 69.8374 29.0014 70.4874Z" fill="#4E5AF0"/>
<path d="M134.7 64.4239C134.4 64.9739 135.15 65.5739 135.65 65.1239C136.1 64.6739 136 63.9739 135.5 63.9739C135.2 63.9739 134.9 64.1739 134.7 64.4239Z" fill="#4E5AF0"/>
<path d="M156.55 64.8239C155.7 65.1739 156.3 65.9739 157.5 65.9739C158 65.9739 158.45 65.6239 158.45 65.2239C158.45 64.4739 157.75 64.3239 156.55 64.8239Z" fill="#4E5AF0"/>
<path d="M32.4498 66.6739C32.4498 67.1239 32.7998 67.4739 33.2498 67.4739C34.0998 67.4739 33.9498 66.3739 33.0498 66.0739C32.6998 65.9739 32.4498 66.2239 32.4498 66.6739Z" fill="#4E5AF0"/>
<path d="M136.7 66.5238C136.2 67.2738 136.85 67.7738 137.5 67.1238C137.85 66.7738 137.85 66.4738 137.55 66.2738C137.25 66.1238 136.85 66.2238 136.7 66.5238Z" fill="#4E5AF0"/>
<path d="M37.0475 74.1005C37.3475 75.0005 38.4475 75.1505 38.4475 74.3005C38.4475 73.8505 38.0975 73.5005 37.6475 73.5005C37.1975 73.5005 36.9475 73.7505 37.0475 74.1005Z" fill="#4E5AF0"/>
<path d="M25.048 74.5504C25.148 74.9004 25.548 75.3004 25.898 75.4004C26.298 75.5504 26.498 75.3504 26.348 74.9504C26.248 74.6004 25.848 74.2004 25.498 74.1004C25.098 73.9504 24.898 74.1504 25.048 74.5504Z" fill="#4E5AF0"/>
<path d="M144.55 69.5738C144.9 70.5238 146.45 70.6738 146.45 69.7738C146.45 69.2738 146 68.9738 145.4 68.9738C144.8 68.9738 144.45 69.2238 144.55 69.5738Z" fill="#4E5AF0"/>
<path d="M139.45 70.2238C139.45 70.6738 139.7 70.9738 140 70.8738C140.3 70.7738 140.55 70.4738 140.55 70.2238C140.55 69.9738 140.3 69.6738 140 69.5738C139.7 69.4738 139.45 69.7738 139.45 70.2238Z" fill="#4E5AF0"/>
<path d="M29.0473 76.3006C29.2473 77.3506 30.1473 77.4506 30.3473 76.3506C30.4473 75.8506 30.1973 75.5006 29.6973 75.5006C29.1973 75.5006 28.9473 75.8006 29.0473 76.3006Z" fill="#4E5AF0"/>
<path d="M37.9474 76C37.9474 76.25 38.2974 76.5 38.6974 76.5C39.0974 76.5 39.4474 76.25 39.4474 76C39.4474 75.7 39.0974 75.5 38.6974 75.5C38.2974 75.5 37.9474 75.7 37.9474 76Z" fill="#4E5AF0"/>
<path d="M140.25 71.8739C139.75 72.7239 140.6 74.4739 141.5 74.4739C142.65 74.4739 143.6 72.4239 142.75 71.8739C142 71.3739 140.55 71.3739 140.25 71.8739Z" fill="#4E5AF0"/>
<path d="M136.95 73.7239C136.95 74.1239 137.2 74.4739 137.45 74.4739C137.75 74.4739 137.95 74.1239 137.95 73.7239C137.95 73.3239 137.75 72.9739 137.45 72.9739C137.2 72.9739 136.95 73.3239 136.95 73.7239Z" fill="#4E5AF0"/>
<path d="M146.4 73.3238C146 73.4238 145.25 74.1738 144.8 74.9238C144.05 76.1738 144.05 76.4238 144.7 76.9738C145.55 77.6738 146.45 77.2238 146.45 76.0238C146.45 75.5238 146.8 74.8238 147.2 74.4738C148 73.8238 148.2 72.9238 147.6 73.0238C147.35 73.0738 146.85 73.1738 146.4 73.3238Z" fill="#4E5AF0"/>
<path d="M148.8 73.6739C148.65 74.0739 148.65 74.4739 148.8 74.6239C149.25 75.1239 150.45 74.3739 150.45 73.6739C150.45 72.7739 149.15 72.7739 148.8 73.6739Z" fill="#4E5AF0"/>
<path d="M157.45 73.7238C157.45 74.1738 157.7 74.4738 158 74.3738C158.3 74.2738 158.55 73.9738 158.55 73.7238C158.55 73.4738 158.3 73.1738 158 73.0738C157.7 72.9738 157.45 73.2738 157.45 73.7238Z" fill="#4E5AF0"/>
<path d="M31.6465 81.8003C31.7965 82.2503 31.9465 82.7003 31.9465 82.8003C31.9465 82.9503 32.1465 82.9503 32.4465 82.7503C32.9965 82.4003 32.5465 81.0003 31.8465 81.0003C31.5465 81.0003 31.4965 81.3503 31.6465 81.8003Z" fill="#4E5AF0"/>
<path d="M152.2 76.4738C152.05 76.7238 151.35 76.9738 150.7 76.9738C149.6 76.9738 148.45 78.6238 149.1 79.2738C149.8 80.0238 152.1 79.6238 152.65 78.7238C152.95 78.1738 153.4 77.5738 153.65 77.4238C154.15 77.0238 153.6 75.9738 152.95 75.9738C152.7 75.9738 152.35 76.1738 152.2 76.4738Z" fill="#4E5AF0"/>
<path d="M36.4474 82C36.4474 82.25 36.7974 82.5 37.1974 82.5C37.5974 82.5 37.9474 82.25 37.9474 82C37.9474 81.7 37.5974 81.5 37.1974 81.5C36.7974 81.5 36.4474 81.7 36.4474 82Z" fill="#4E5AF0"/>
<path d="M158.95 77.2239C158.95 77.6239 159.2 77.9739 159.45 77.9739C159.75 77.9739 159.95 77.6239 159.95 77.2239C159.95 76.8239 159.75 76.4739 159.45 76.4739C159.2 76.4739 158.95 76.8239 158.95 77.2239Z" fill="#4E5AF0"/>
<path d="M38.5487 83.5498C38.6487 83.8498 38.9487 84.0498 39.1987 84.0498C39.4487 84.0498 39.7487 83.8498 39.8487 83.5498C39.9487 83.2498 39.6487 82.9998 39.1987 82.9998C38.7487 82.9998 38.4487 83.2498 38.5487 83.5498Z" fill="#4E5AF0"/>
<path d="M160.05 80.9238C160.05 81.8238 160.3 82.5238 160.8 82.6738C162.5 83.3238 163.1 81.3238 161.6 80.1738C160.3 79.2238 160.1 79.3238 160.05 80.9238Z" fill="#4E5AF0"/>
<path d="M30.7468 88.9503C30.3968 89.5003 31.6468 90.6003 32.0968 90.1503C32.2968 90.0003 32.4468 89.5503 32.4468 89.1503C32.4468 88.4003 31.1468 88.2503 30.7468 88.9503Z" fill="#4E5AF0"/>
<path d="M146.55 84.3737C145.7 85.0237 145.55 85.3737 146 85.8237C146.4 86.2237 146.8 86.1237 147.5 85.4237C149.25 83.6737 148.55 82.8237 146.55 84.3737Z" fill="#4E5AF0"/>
<path d="M23.6998 86.9739C23.2498 87.7239 23.8998 88.4739 25.0498 88.4739C25.7498 88.4739 25.9498 88.2239 25.7498 87.6739C25.5998 87.2239 25.4498 86.7739 25.4498 86.6739C25.4498 86.2739 23.9998 86.4739 23.6998 86.9739Z" fill="#4E5AF0"/>
<path d="M146 89.4239C145.05 90.0239 145.7 91.4739 146.95 91.4739C147.75 91.4739 148 91.2239 147.85 90.3739C147.7 89.1239 147 88.7739 146 89.4239Z" fill="#4E5AF0"/>
<path d="M154.05 90.5738C154.4 91.5238 155.95 91.6738 155.95 90.7738C155.95 90.2738 155.5 89.9738 154.9 89.9738C154.3 89.9738 153.95 90.2238 154.05 90.5738Z" fill="#4E5AF0"/>
<path d="M148.45 91.9238C148.45 92.5738 148.2 92.8738 147.75 92.6738C147.35 92.5238 146.9 92.6738 146.7 92.9738C146.2 93.7738 146.75 94.1738 147.8 93.6738C148.3 93.4738 149.15 93.2738 149.7 93.2738C151.15 93.2238 151.05 91.2738 149.6 91.0738C148.7 90.9238 148.45 91.1738 148.45 91.9238Z" fill="#4E5AF0"/>
<path d="M143.95 93.9739C143.95 94.2239 144.3 94.4739 144.7 94.4739C145.1 94.4739 145.45 94.2239 145.45 93.9739C145.45 93.6739 145.1 93.4739 144.7 93.4739C144.3 93.4739 143.95 93.6739 143.95 93.9739Z" fill="#4E5AF0"/>
<path d="M150 94.4238C149.55 94.7238 149.5 94.9738 149.9 95.1738C150.55 95.5738 151.45 95.1238 151.45 94.4238C151.45 93.8738 150.9 93.8738 150 94.4238Z" fill="#4E5AF0"/>
<path d="M159.1 95.2739C158.7 96.3739 160 97.1239 160.9 96.2739C161.25 95.8739 161.4 95.3239 161.25 95.0239C160.75 94.2239 159.45 94.3739 159.1 95.2739Z" fill="#4E5AF0"/>
<path d="M163.45 96.7239C163.45 97.1239 163.7 97.4739 163.95 97.4739C164.25 97.4739 164.45 97.1239 164.45 96.7239C164.45 96.3239 164.25 95.9739 163.95 95.9739C163.7 95.9739 163.45 96.3239 163.45 96.7239Z" fill="#4E5AF0"/>
<path d="M147.55 97.0238C147.65 97.3738 148.05 97.7738 148.4 97.8738C148.8 98.0238 149 97.8238 148.85 97.4238C148.75 97.0738 148.35 96.6738 148 96.5738C147.6 96.4238 147.4 96.6238 147.55 97.0238Z" fill="#4E5AF0"/>
<path d="M152.35 97.6238C151.25 98.4738 150.5 101.224 151.5 100.774C151.9 100.624 152.6 100.324 153.1 100.174C153.6 99.9738 153.9 99.5238 153.75 99.1738C153.6 98.8238 153.7 98.3738 154 98.2238C154.5 97.8738 154.15 96.9738 153.55 96.9738C153.35 96.9738 152.8 97.2738 152.35 97.6238Z" fill="#4E5AF0"/>
<path d="M157.8 103.274C157.15 103.924 157.45 104.474 158.5 104.474C159.05 104.474 159.45 104.224 159.35 103.874C159.1 103.174 158.25 102.824 157.8 103.274Z" fill="#4E5AF0"/>
<path d="M24.7998 105.274C24.3998 105.674 24.8498 106.474 25.4998 106.474C25.7498 106.474 25.9498 106.124 25.9498 105.724C25.9498 104.974 25.3498 104.724 24.7998 105.274Z" fill="#4E5AF0"/>
<path d="M155.9 106.274C155.45 106.824 155.45 107.174 155.85 107.574C156.55 108.274 157.95 107.724 157.95 106.774C157.95 105.774 156.6 105.424 155.9 106.274Z" fill="#4E5AF0"/>
<path d="M147.45 108.174C147.45 108.624 147.8 108.974 148.25 108.974C149.1 108.974 148.95 107.874 148.05 107.574C147.7 107.474 147.45 107.724 147.45 108.174Z" fill="#4E5AF0"/>
<path d="M149.45 110.724C149.45 111.174 149.7 111.474 150 111.374C150.3 111.274 150.55 110.974 150.55 110.724C150.55 110.474 150.3 110.174 150 110.074C149.7 109.974 149.45 110.274 149.45 110.724Z" fill="#4E5AF0"/>
<path d="M155.95 110.674C155.95 111.124 156.3 111.474 156.75 111.474C157.6 111.474 157.45 110.374 156.55 110.074C156.2 109.974 155.95 110.224 155.95 110.674Z" fill="#4E5AF0"/>
<path d="M153.7 110.924C153.35 111.524 154.3 112.124 154.95 111.724C155.5 111.374 155.15 110.474 154.45 110.474C154.2 110.474 153.9 110.674 153.7 110.924Z" fill="#4E5AF0"/>
<path d="M151.45 116.974C151.45 117.224 151.8 117.474 152.2 117.474C152.6 117.474 152.95 117.224 152.95 116.974C152.95 116.674 152.6 116.474 152.2 116.474C151.8 116.474 151.45 116.674 151.45 116.974Z" fill="#4E5AF0"/>
<path d="M28.7498 119.924C28.5998 120.174 28.7998 120.474 29.1998 120.674C29.9498 120.974 30.6498 120.324 30.0998 119.774C29.6498 119.324 29.0498 119.374 28.7498 119.924Z" fill="#4E5AF0"/>
<path d="M144.45 125.224C143.95 125.874 144 125.974 144.9 125.974C145.5 125.974 145.95 125.674 145.95 125.224C145.95 124.824 145.75 124.474 145.5 124.474C145.25 124.474 144.8 124.824 144.45 125.224Z" fill="#4E5AF0"/>
<path d="M136.45 126.224C136.45 126.624 136.7 126.974 136.95 126.974C137.25 126.974 137.45 126.624 137.45 126.224C137.45 125.824 137.25 125.474 136.95 125.474C136.7 125.474 136.45 125.824 136.45 126.224Z" fill="#4E5AF0"/>
<path d="M139.8 126.324C139.2 126.874 139.4 127.474 140.2 127.474C140.6 127.474 140.95 127.124 140.95 126.724C140.95 125.924 140.35 125.724 139.8 126.324Z" fill="#4E5AF0"/>
<path d="M33.9498 127.174C33.9498 127.574 34.1998 128.074 34.4498 128.224C34.7498 128.374 34.9498 128.074 34.9498 127.524C34.9498 126.924 34.7498 126.474 34.4498 126.474C34.1998 126.474 33.9498 126.774 33.9498 127.174Z" fill="#4E5AF0"/>
<path d="M141.55 129.074C141.85 129.974 142.95 130.124 142.95 129.274C142.95 128.824 142.6 128.474 142.15 128.474C141.7 128.474 141.45 128.724 141.55 129.074Z" fill="#4E5AF0"/>
<path d="M132.95 129.724C132.95 130.124 133.2 130.474 133.45 130.474C133.75 130.474 133.95 130.124 133.95 129.724C133.95 129.324 133.75 128.974 133.45 128.974C133.2 128.974 132.95 129.324 132.95 129.724Z" fill="#4E5AF0"/>
<path d="M134.95 129.724C134.45 130.324 134.45 130.474 135.15 130.474C135.6 130.474 135.95 130.124 135.95 129.724C135.95 129.324 135.85 128.974 135.75 128.974C135.65 128.974 135.3 129.324 134.95 129.724Z" fill="#4E5AF0"/>
<path d="M137.4 129.524C137 129.774 136.95 129.974 137.2 129.974C137.5 129.974 137.95 130.474 138.2 131.074C138.9 132.674 140.7 132.624 140.7 131.024C140.7 130.124 140.35 129.724 139.4 129.424C138.65 129.274 137.75 129.274 137.4 129.524Z" fill="#4E5AF0"/>
<path d="M105 121.75C105 122.15 105.35 122.5 105.75 122.5C106.15 122.5 106.5 122.15 106.5 121.75C106.5 121.35 106.15 121 105.75 121C105.35 121 105 121.35 105 121.75Z" fill="#4E5AF0"/>
<path d="M125.3 130.274C124.9 130.674 125.35 131.474 126 131.474C126.25 131.474 126.45 131.124 126.45 130.724C126.45 129.974 125.85 129.724 125.3 130.274Z" fill="#4E5AF0"/>
<path d="M82.1992 124.601C81.6992 125.801 81.1992 126.901 81.0992 127.101C80.6492 128.051 82.5492 127.951 83.4492 127.051C84.5992 125.901 84.8492 124.201 83.8992 123.851C83.3992 123.651 83.3992 123.551 83.8992 123.551C84.7492 123.501 84.6492 122.501 83.7992 122.501C83.3992 122.501 82.6992 123.451 82.1992 124.601Z" fill="#4E5AF0"/>
<path d="M104 123.25C104 123.7 104.25 124 104.55 123.9C104.85 123.8 105.1 123.5 105.1 123.25C105.1 123 104.85 122.7 104.55 122.6C104.25 122.5 104 122.8 104 123.25Z" fill="#4E5AF0"/>
<path d="M109.55 131.924C109.65 132.274 109.9 132.524 110.1 132.524C110.7 132.474 110.55 131.774 109.95 131.524C109.6 131.424 109.4 131.624 109.55 131.924Z" fill="#4E5AF0"/>
<path d="M127.25 131.874C127.1 132.174 127.2 132.574 127.5 132.724C128.25 133.224 128.75 132.574 128.1 131.924C127.75 131.574 127.45 131.574 127.25 131.874Z" fill="#4E5AF0"/>
<path d="M121.348 131.433C121.348 132.033 122.798 133.483 123.398 133.483C123.648 133.483 123.848 133.233 123.848 132.983C123.848 132.683 123.598 132.483 123.298 132.483C123.048 132.483 122.898 132.283 123.048 132.033C123.198 131.783 122.998 131.433 122.548 131.283C121.498 130.883 121.348 130.883 121.348 131.433Z" fill="#4E5AF0"/>
<path d="M101 124C101 124.25 101.3 124.5 101.7 124.5C102.1 124.5 102.6 124.25 102.75 124C102.9 123.7 102.6 123.5 102.05 123.5C101.45 123.5 101 123.7 101 124Z" fill="#4E5AF0"/>
<path d="M140.45 132.974C140.45 133.224 140.8 133.474 141.2 133.474C141.6 133.474 141.95 133.224 141.95 132.974C141.95 132.674 141.6 132.474 141.2 132.474C140.8 132.474 140.45 132.674 140.45 132.974Z" fill="#4E5AF0"/>
<path d="M68.0498 134.224C68.1998 135.574 69.1998 136.274 69.7498 135.374C69.9498 135.024 69.8498 134.674 69.5498 134.574C69.2498 134.474 69.1498 134.074 69.2998 133.674C69.4498 133.274 69.2498 132.974 68.7498 132.974C68.1998 132.974 67.9998 133.374 68.0498 134.224Z" fill="#4E5AF0"/>
<path d="M92.1987 124.75C91.7987 125.8 92.2987 127 93.1487 127C94.1487 127 95.1487 125.65 94.7987 124.75C94.4487 123.8 92.5487 123.75 92.1987 124.75Z" fill="#4E5AF0"/>
<path d="M96 125C96 125.25 96.35 125.5 96.75 125.5C97.15 125.5 97.5 125.25 97.5 125C97.5 124.7 97.15 124.5 96.75 124.5C96.35 124.5 96 124.7 96 125Z" fill="#4E5AF0"/>
<path d="M57.2998 134.274C56.8998 134.674 57.3498 135.474 57.9998 135.474C58.2498 135.474 58.4498 135.124 58.4498 134.724C58.4498 133.974 57.8498 133.724 57.2998 134.274Z" fill="#4E5AF0"/>
<path d="M118.348 134.483C118.348 135.133 118.698 135.483 119.348 135.483C119.998 135.483 120.348 135.133 120.348 134.483C120.348 133.833 119.998 133.483 119.348 133.483C118.698 133.483 118.348 133.833 118.348 134.483Z" fill="#4E5AF0"/>
<path d="M106.45 135.724C106.45 136.124 106.7 136.474 106.95 136.474C107.25 136.474 107.45 136.124 107.45 135.724C107.45 135.324 107.25 134.974 106.95 134.974C106.7 134.974 106.45 135.324 106.45 135.724Z" fill="#4E5AF0"/>
<path d="M95.7497 127.05C95.5497 127.35 95.4997 127.65 95.6497 127.8C95.9997 128.15 97.4997 127.45 97.4997 126.95C97.4997 126.3 96.1497 126.4 95.7497 127.05Z" fill="#4E5AF0"/>
<path d="M100.85 126.85C100.15 127.5 100.55 128.5 101.5 128.5C102.15 128.5 102.5 128.15 102.5 127.5C102.5 126.55 101.5 126.15 100.85 126.85Z" fill="#4E5AF0"/>
<path d="M143.198 134.783C142.798 135.183 143.248 135.983 143.898 135.983C144.148 135.983 144.348 135.633 144.348 135.233C144.348 134.483 143.748 134.233 143.198 134.783Z" fill="#4E5AF0"/>
<path d="M78.85 127.95C78.7 128.65 78.3 128.8 77.3 128.65C76.45 128.45 76 128.6 76 129C76 129.35 76.4 129.5 77 129.35C77.7 129.15 78.2 129.55 78.95 130.8C80.15 132.75 80.65 132.9 81.7 131.45C82.55 130.2 82.25 129.1 80.8 127.9C79.45 126.8 79.15 126.8 78.85 127.95Z" fill="#4E5AF0"/>
<path d="M103.802 127.75C103.602 128.25 103.852 128.5 104.502 128.5C105.052 128.5 105.502 128.15 105.502 127.75C105.502 127.35 105.202 127 104.802 127C104.402 127 104.002 127.35 103.802 127.75Z" fill="#4E5AF0"/>
<path d="M73.0998 137.374C72.8998 138.224 72.6998 138.374 72.3998 137.924C72.1998 137.524 71.8498 137.424 71.5998 137.624C71.1998 138.024 72.2998 138.974 73.1998 138.974C73.4998 138.974 74.0498 138.724 74.4498 138.474C75.0998 138.074 75.0998 137.874 74.2998 137.124C73.4498 136.274 73.3998 136.274 73.0998 137.374Z" fill="#4E5AF0"/>
<path d="M132.097 135.933C131.997 136.183 132.297 136.483 132.847 136.633C133.397 136.783 133.847 136.733 133.847 136.483C133.847 135.883 132.447 135.433 132.097 135.933Z" fill="#4E5AF0"/>
<path d="M53.7998 137.324C52.9498 138.124 53.5498 138.974 54.9498 138.974C56.3498 138.974 56.3998 138.874 55.8498 137.974C55.1998 136.974 54.3998 136.674 53.7998 137.324Z" fill="#4E5AF0"/>
<path d="M94.9992 129.8C94.3992 131.35 94.3492 132 94.9492 132C95.4492 132 96.9992 129.75 96.9992 129C96.9992 127.95 95.4492 128.55 94.9992 129.8Z" fill="#4E5AF0"/>
<path d="M97.5996 129.35C97.7996 130.45 101.5 130.85 101.5 129.8C101.5 129.1 100.05 128.5 98.3496 128.5C97.7496 128.5 97.4996 128.8 97.5996 129.35Z" fill="#4E5AF0"/>
<path d="M138.048 137.034C137.548 137.884 138.698 138.834 139.398 138.134C139.998 137.534 139.598 136.484 138.848 136.484C138.598 136.484 138.248 136.734 138.048 137.034Z" fill="#4E5AF0"/>
<path d="M85.2497 129.55C85.0497 129.85 84.9997 130.2 85.1497 130.35C85.4997 130.7 86.4997 130.05 86.4997 129.45C86.4997 128.85 85.6497 128.85 85.2497 129.55Z" fill="#4E5AF0"/>
<path d="M121.45 137.783C121.55 138.333 122 138.783 122.55 138.883C123.2 139.033 123.4 138.833 123.25 138.183C123.15 137.633 122.7 137.183 122.15 137.083C121.5 136.933 121.3 137.133 121.45 137.783Z" fill="#4E5AF0"/>
<path d="M92 130.25C92 131.1 92.1 131.15 93.2 130.7C94.1 130.35 93.8 129.5 92.7 129.5C92.3 129.5 92 129.85 92 130.25Z" fill="#4E5AF0"/>
<path d="M124.848 138.184C124.848 138.584 125.048 139.034 125.248 139.184C125.898 139.584 126.998 138.634 126.648 138.034C126.148 137.234 124.848 137.334 124.848 138.184Z" fill="#4E5AF0"/>
<path d="M73.7998 139.974C73.6498 140.524 73.6498 140.974 73.7998 140.974C74.2998 140.974 75.3998 139.574 75.0998 139.274C74.5498 138.724 74.0498 138.974 73.7998 139.974Z" fill="#4E5AF0"/>
<path d="M102.85 130.3C102.2 130.95 102.5 131.5 103.55 131.5C104.1 131.5 104.5 131.25 104.4 130.9C104.15 130.2 103.3 129.85 102.85 130.3Z" fill="#4E5AF0"/>
<path d="M66.2998 139.774C65.8998 140.174 66.4498 141.474 66.9998 141.474C67.2498 141.474 67.4498 141.024 67.4498 140.474C67.4498 139.524 66.8998 139.174 66.2998 139.774Z" fill="#4E5AF0"/>
<path d="M68.5498 141.074C68.8498 141.974 69.9498 142.124 69.9498 141.274C69.9498 140.824 69.5998 140.474 69.1498 140.474C68.6998 140.474 68.4498 140.724 68.5498 141.074Z" fill="#4E5AF0"/>
<path d="M52.0498 141.574C52.3498 142.474 53.4498 142.624 53.4498 141.774C53.4498 141.324 53.0998 140.974 52.6498 140.974C52.1998 140.974 51.9498 141.224 52.0498 141.574Z" fill="#4E5AF0"/>
<path d="M99.5 133.25C99.5 133.65 99.85 134 100.25 134C100.7 134 100.85 133.7 100.7 133.25C100.5 132.85 100.2 132.5 99.95 132.5C99.7 132.5 99.5 132.85 99.5 133.25Z" fill="#4E5AF0"/>
<path d="M120.348 141.933C120.348 142.533 120.648 142.983 121.048 142.983C121.898 142.983 121.798 141.383 120.948 141.083C120.598 140.983 120.348 141.383 120.348 141.933Z" fill="#4E5AF0"/>
<path d="M66.8498 142.724C66.6498 142.924 66.6498 143.374 66.7998 143.774C66.9498 144.224 66.6998 144.374 65.9998 144.224C65.4498 144.124 64.8498 144.224 64.6998 144.524C64.3998 144.974 64.7498 145.124 66.0998 145.074C67.1498 145.074 68.9498 144.374 68.7498 144.024C68.5998 143.824 69.3998 143.774 70.4998 143.824C71.5998 143.874 72.3498 143.724 72.1998 143.474C72.0498 143.224 70.8998 143.074 69.6998 143.124C68.4498 143.174 67.3998 143.024 67.2998 142.824C67.2498 142.574 67.0498 142.574 66.8498 142.724Z" fill="#4E5AF0"/>
<path d="M116.649 142.234C116.499 142.634 116.649 142.984 116.949 142.984C117.249 142.984 117.399 143.134 117.249 143.284C117.049 143.434 116.349 143.184 115.649 142.734C114.949 142.234 114.349 141.934 114.299 142.034C113.849 144.334 113.899 144.684 114.499 143.934C114.999 143.234 115.199 143.234 115.749 143.784C116.599 144.734 117.849 144.084 117.849 142.684C117.849 141.334 117.099 141.084 116.649 142.234Z" fill="#4E5AF0"/>
<path d="M47.1498 146.224C46.6498 146.624 46.2998 146.974 46.4498 146.974C48.1998 147.374 48.4498 147.324 48.4498 146.424C48.4498 145.274 48.3998 145.274 47.1498 146.224Z" fill="#4E5AF0"/>
</svg>
