<svg width="180" height="180" viewBox="0 0 180 180" fill="none" xmlns="http://www.w3.org/2000/svg">
<path fill-rule="evenodd" clip-rule="evenodd" d="M67.7025 62.6304L67.7558 62.6932H67.7025V62.6304ZM110.016 122.313C109.715 122.121 109.398 121.924 109.064 121.72L107.938 120.581C108.265 121.015 108.64 121.395 109.064 121.72C109.358 121.945 109.676 122.143 110.016 122.313Z" fill="#EEF4F8"/>
<path fill-rule="evenodd" clip-rule="evenodd" d="M109.064 121.72C109.358 121.945 109.676 122.143 110.016 122.313C109.715 122.121 109.398 121.924 109.064 121.72Z" fill="#EEF4F8"/>
<path d="M67.7558 62.6932C70.1955 65.5737 73.0344 69.1365 71.5681 77.7487L67.7969 98.1162L68.4568 114.46C68.5825 120.369 71.4737 122.915 76.3449 122.915H88.79C92.6555 122.915 94.3526 119.898 95.8924 116.158L105.321 92.93L106.326 115.152C106.384 117.391 106.926 119.239 107.938 120.581L109.064 121.72C109.398 121.924 109.715 122.121 110.016 122.313C112.284 123.756 113.634 124.884 114.55 126.378C115.212 127.458 115.491 128.717 115.739 129.959L116.205 132.289C116.36 133.065 116.403 133.86 116.331 134.648L115.685 141.758C115.524 143.531 117.082 144.978 118.838 144.685V144.685C120.426 144.421 121.437 142.842 121.014 141.289L119.138 134.413C118.775 133.079 118.717 131.68 118.972 130.321L119.303 128.549C119.493 127.532 119.535 126.493 119.672 125.467C119.861 124.055 120.417 123.397 121.805 123.041H127.539C131.531 123.041 133.196 120.59 134.988 116.283L153.089 71.8397C155.069 67.2822 153.875 62.7246 148.972 62.7246H139.953C136.622 62.7246 134.296 63.8562 132.945 67.0622L120.72 96.7961L119.588 70.2367C119.368 64.5791 116.697 62.6932 113.46 62.6932H104.252C100.575 62.6932 98.4695 64.139 97.3695 66.905L85.1445 96.9218L84.0131 69.5766C83.8874 64.4534 82.1275 62.6932 78.0106 62.6932H70.1539H67.7558Z" fill="#EEF4F8"/>
<path d="M69.4689 57.7996C69.695 58.9664 70.5675 59.1123 71.8787 58.194C73.3153 57.1935 73.2879 57.1517 71.6555 56.6666C70.1616 56.2105 69.2283 56.7021 69.4689 57.7996Z" fill="#EEF4F8"/>
<path d="M150.603 74.0506C149.721 73.8621 148.83 74.3807 148.927 75.1245C149.004 75.7195 150.838 75.4822 151.152 74.7862C151.262 74.4694 151.019 74.148 150.603 74.0506Z" fill="#EEF4F8"/>
<path d="M150.905 80.6675C150.44 80.5765 150.019 80.8326 149.878 81.3045C149.653 82.2916 150.157 82.6801 151.104 82.2047C151.995 81.6861 151.899 80.9423 150.905 80.6675Z" fill="#EEF4F8"/>
<path d="M51.1656 87.6486C51.4121 88.0251 51.7856 88.1391 51.9818 87.8911C52.178 87.6431 52.2228 87.2551 52.0859 87.046C51.9489 86.8368 51.5754 86.7228 51.2697 86.8035C50.9639 86.8842 50.9191 87.2721 51.1656 87.6486Z" fill="#EEF4F8"/>
<path d="M148 62.0855C147.553 62.1433 147.288 62.4297 147.426 62.7144C147.563 62.9991 147.893 63.2085 148.141 63.1764C148.389 63.1444 148.654 62.8579 148.715 62.5476C148.776 62.2372 148.446 62.0278 148 62.0855Z" fill="#EEF4F8"/>
<path d="M150.68 83.2205C150.208 83.0799 149.712 83.144 149.626 83.256C149.281 83.7041 150.189 84.494 150.933 84.3978C151.875 84.2759 151.723 83.4889 150.68 83.2205Z" fill="#EEF4F8"/>
<path d="M150.048 87.2817C149.78 87.165 149.446 87.3091 149.286 87.6323C149.016 88.2722 149.578 89.107 150.272 89.0172C150.867 88.9402 150.694 87.6014 150.048 87.2817Z" fill="#EEF4F8"/>
<path d="M144.164 127.061C143.851 127.02 143.54 127.203 143.431 127.428C143.322 127.653 143.371 128.01 143.598 128.231C143.824 128.452 144.18 128.291 144.376 127.886C144.572 127.481 144.478 127.102 144.164 127.061Z" fill="#EEF4F8"/>
<path d="M60.6225 69.0314C60.876 70.24 62.4581 70.1006 62.5104 68.8113C62.5567 68.2431 62.3809 67.7008 62.1458 67.6156C61.3585 67.2347 60.4497 68.1286 60.6225 69.0314Z" fill="#EEF4F8"/>
<path d="M70.4877 62.2727C70.7631 62.5107 71.3169 62.6262 71.6645 62.5182C72.0813 62.4245 72.1391 62.1476 71.7945 61.8952C71.5191 61.6571 70.9653 61.5416 70.6177 61.6497C70.2009 61.7433 70.1431 62.0202 70.4877 62.2727Z" fill="#EEF4F8"/>
<path d="M48.9025 87.7326C49.1779 87.9707 49.7316 88.0862 50.0792 87.9781C50.496 87.8845 50.5538 87.6076 50.2092 87.3551C49.9338 87.1171 49.38 87.0016 49.0324 87.1096C48.6156 87.2033 48.5579 87.4802 48.9025 87.7326Z" fill="#EEF4F8"/>
<path d="M160.642 89.4894C159.701 89.3671 159.086 90.2917 159.851 90.6622C160.256 90.8584 160.724 90.696 160.92 90.291C161.116 89.886 161 89.552 160.642 89.4894Z" fill="#EEF4F8"/>
<path d="M146.464 84.5161C145.861 84.1404 145.57 84.2285 145.151 84.8877C144.732 85.5469 144.808 85.7388 145.534 85.8969C146.732 86.1957 147.453 85.1445 146.464 84.5161Z" fill="#EEF4F8"/>
<path d="M46.7974 96.308C46.5375 97.554 47.3203 98.4757 48.7884 98.7097C49.8685 98.899 50.1195 98.7346 50.5712 97.7815C51.2061 96.4693 50.5776 95.3269 49.0821 95.051C47.7669 94.7767 47.0284 95.2005 46.7974 96.308Z" fill="#EEF4F8"/>
<path d="M143.987 78.2323C142.45 78.4312 142.271 78.6056 142.541 79.5285C142.926 80.9408 144.501 81.0395 145.24 79.734C146.151 78.2044 145.921 77.9821 143.987 78.2323Z" fill="#EEF4F8"/>
<path d="M158.031 91.5542C157.718 91.5134 157.407 91.6962 157.298 91.9212C157.189 92.1462 157.238 92.5033 157.465 92.7241C157.691 92.9449 158.047 92.7839 158.243 92.3789C158.439 91.9739 158.345 91.5949 158.031 91.5542Z" fill="#EEF4F8"/>
<path d="M142.4 64.8248C142.004 64.8761 141.5 64.4876 141.28 63.9614C140.835 62.8594 139.378 62.8966 138.211 64.0056C137 65.1705 138.016 66.4003 140.013 66.2429C140.955 66.121 141.953 66.0423 142.306 66.047C142.61 66.0581 142.919 65.7157 143.029 65.3989C143.083 65.0389 142.797 64.7735 142.4 64.8248Z" fill="#EEF4F8"/>
<path d="M63.3523 81.1399C63.3637 81.4313 63.7776 81.6982 64.2347 81.7574C65.2601 81.863 65.5185 80.7973 64.5927 80.3875C63.9294 80.1046 63.3164 80.4463 63.3523 81.1399Z" fill="#38A8FA"/>
<path d="M151.226 103.424C150.815 102.781 149.699 102.907 149.752 103.599C149.851 104.314 151.066 104.902 151.327 104.362C151.458 104.092 151.431 103.69 151.226 103.424Z" fill="#EEF4F8"/>
<path d="M141.553 123.851C141.368 123.317 140.451 123.373 140.168 123.958C140.059 124.183 140.287 124.515 140.647 124.69C141.322 125.017 141.808 124.586 141.553 123.851Z" fill="#EEF4F8"/>
<path d="M67.9775 68.9374C68.1359 69.9094 69.2868 69.9328 69.4889 68.9637C69.6478 68.2023 68.7379 67.543 68.1105 67.9538C67.9432 68.0634 67.8839 68.5205 67.9775 68.9374Z" fill="#EEF4F8"/>
<path d="M141.142 121.375C140.69 120.933 140.444 120.981 140.318 121.587C140.06 122.462 140.76 122.967 141.379 122.378C141.533 122.175 141.46 121.751 141.142 121.375Z" fill="#EEF4F8"/>
<path d="M62.4198 84.5594C62.6604 85.657 64.114 85.9602 64.3306 84.9219C64.5184 84.022 63.362 82.9862 62.6927 83.4245C62.4417 83.5888 62.3407 84.0734 62.4198 84.5594Z" fill="#38A8FA"/>
<path d="M142.226 83.7062C141.289 83.4746 140.51 84.0795 140.632 85.0217C140.683 85.4184 141.218 85.6517 141.962 85.5555C143.3 85.3823 143.524 83.9922 142.226 83.7062Z" fill="#EEF4F8"/>
<path d="M139.73 68.699C139.284 68.7568 139.068 69.0368 139.212 69.371C139.625 70.2251 140.735 70.2328 140.626 69.3898C140.568 68.9435 140.176 68.6413 139.73 68.699Z" fill="#EEF4F8"/>
<path d="M149.934 98.6321C149.529 98.4359 149.15 98.5301 149.11 98.8437C149.069 99.1573 149.23 99.5131 149.455 99.6221C149.68 99.7311 150.059 99.6368 150.28 99.4104C150.5 99.184 150.339 98.8283 149.934 98.6321Z" fill="#EEF4F8"/>
<path d="M142.177 114.989C141.713 113.654 140.772 113.531 140.205 114.701C139.552 116.051 140.01 116.94 141.214 116.634C142.351 116.351 142.548 116.058 142.177 114.989Z" fill="#EEF4F8"/>
<path d="M60.1645 87.7677C60.411 88.1442 60.7845 88.2582 60.9807 88.0102C61.1769 87.7622 61.2217 87.3743 61.0847 87.1651C60.9478 86.956 60.5743 86.842 60.2685 86.9226C59.9628 87.0033 59.9179 87.3912 60.1645 87.7677Z" fill="#EEF4F8"/>
<path d="M63.7584 75.4654C63.4466 76.2672 63.6623 78.6958 64.0084 78.768C64.4511 78.8965 66.201 76.914 65.9819 76.5794C65.8997 76.4539 65.6691 75.8279 65.4386 75.2019C65.087 74.1173 64.1985 74.2209 63.7584 75.4654Z" fill="#38A8FA"/>
<path d="M137.644 69.7292C137.079 69.651 136.575 69.2625 136.53 68.9154C136.415 68.0228 135.264 67.3145 134.559 67.7083C133 68.515 134.813 70.4484 137.419 70.7163C139.001 70.8645 139.245 70.0262 137.644 69.7292Z" fill="#EEF4F8"/>
<path d="M148.081 97.1835C147.271 96.7911 147.182 96.8593 147.349 97.6623C147.562 98.5988 148.437 98.8562 148.83 98.0462C148.939 97.8212 148.576 97.4232 148.081 97.1835Z" fill="#EEF4F8"/>
<path d="M61.3191 89.3417C61.6348 89.7327 62.1194 89.8337 62.3285 89.6968C62.9286 89.2441 62.1731 88.3642 61.4087 88.5659C60.9501 88.6869 60.9197 89.0056 61.3191 89.3417Z" fill="#EEF4F8"/>
<path d="M137.443 74.039C137.046 74.0904 136.744 74.4824 136.795 74.8791C136.847 75.2758 137.239 75.578 137.635 75.5266C138.032 75.4753 138.334 75.0833 138.283 74.6866C138.232 74.2899 137.84 73.9877 137.443 74.039Z" fill="#EEF4F8"/>
<path d="M144.204 105.303C144.128 104.544 143.993 104.479 142.991 104.827C141.877 105.176 141.833 105.266 142.468 105.907C143.306 106.813 144.33 106.42 144.204 105.303Z" fill="#EEF4F8"/>
<path d="M141.673 110.41C141.468 110.145 140.975 110.017 140.574 110.156C140.173 110.295 139.389 110.193 138.849 109.932C137.544 109.299 137.123 109.595 136.987 111.252L136.848 112.573L138.204 111.952C139.427 111.378 139.517 111.421 139.618 112.359C139.674 113.276 139.809 113.341 140.497 112.952C141.518 112.336 142.107 111.121 141.673 110.41Z" fill="#EEF4F8"/>
<path d="M138.037 82.5293C137.64 82.5806 137.338 82.9726 137.389 83.3693C137.44 83.766 137.833 84.0682 138.229 84.0169C138.626 83.9656 138.928 83.5735 138.877 83.1768C138.825 82.7802 138.433 82.4779 138.037 82.5293Z" fill="#EEF4F8"/>
<path d="M138.437 86.0086C137.991 86.0663 137.775 86.3463 137.919 86.6806C138.332 87.5347 139.442 87.5423 139.333 86.6993C139.275 86.2531 138.883 85.9509 138.437 86.0086Z" fill="#EEF4F8"/>
<path d="M144.263 100.94C143.993 100.81 143.45 100.325 143.066 99.9715C142.545 99.4414 142.478 99.4646 142.642 100.044C142.804 100.512 143.302 100.975 143.817 101.058C144.378 101.163 144.556 101.138 144.263 100.94Z" fill="#EEF4F8"/>
<path d="M136.888 113.98C136.483 113.783 136.105 113.989 135.977 114.483C135.657 115.717 136.627 116.353 137.15 115.273C137.412 114.733 137.338 114.198 136.888 113.98Z" fill="#EEF4F8"/>
<path d="M59.1067 95.2754C59.4353 95.7773 59.891 96.0169 60.1001 95.8799C60.3511 95.7156 60.3541 95.355 60.135 95.0204C59.9159 94.6857 59.4746 94.377 59.1415 94.4158C58.8502 94.4273 58.8054 94.8152 59.1067 95.2754Z" fill="#EEF4F8"/>
<path d="M140.073 105.8C139.618 105.135 138.658 105.281 138.266 106.091C138.091 106.451 138.366 106.917 138.861 107.157C139.805 107.615 140.644 106.687 140.073 105.8Z" fill="#EEF4F8"/>
<path d="M64.9523 92.1634C65.2003 92.3596 65.5608 92.3626 65.77 92.2257C65.9792 92.0887 66.1206 91.757 66.0399 91.4513C65.9592 91.1455 65.5713 91.1007 65.1948 91.3472C64.8183 91.5937 64.7043 91.9672 64.9523 92.1634Z" fill="#38A8FA"/>
<path d="M134.052 115.939C133.827 115.83 133.449 116.036 133.275 116.396C133.1 116.756 133.173 117.18 133.398 117.289C133.668 117.42 134 117.192 134.175 116.832C134.349 116.472 134.322 116.07 134.052 115.939Z" fill="#EEF4F8"/>
<path d="M134.473 113.921C134.248 113.812 133.871 114.018 133.696 114.378C133.522 114.738 133.595 115.162 133.819 115.271C134.089 115.401 134.422 115.174 134.596 114.814C134.771 114.454 134.743 114.051 134.473 113.921Z" fill="#EEF4F8"/>
<path d="M135.415 110.715C134.959 110.05 133.69 110.491 133.745 111.295C133.794 111.652 134.135 112.095 134.495 112.27C135.215 112.619 135.917 111.514 135.415 110.715Z" fill="#EEF4F8"/>
<path d="M127.552 125.681C126.611 125.558 125.997 126.483 126.762 126.854C127.167 127.05 127.634 126.887 127.83 126.482C128.027 126.077 127.911 125.743 127.552 125.681Z" fill="#EEF4F8"/>
<path d="M135.73 107.312C135.37 107.137 134.946 107.21 134.837 107.435C134.706 107.705 134.934 108.037 135.294 108.212C135.654 108.386 136.056 108.359 136.187 108.089C136.296 107.864 136.09 107.486 135.73 107.312Z" fill="#EEF4F8"/>
<path d="M125.618 128.075C124.586 127.797 124.104 128.564 125.007 129.223C125.413 129.531 125.837 129.459 126.055 129.009C126.273 128.559 126.112 128.203 125.618 128.075Z" fill="#EEF4F8"/>
<path d="M130.152 117.107C129.741 116.464 128.625 116.589 128.678 117.282C128.776 117.996 129.991 118.585 130.253 118.045C130.384 117.775 130.356 117.373 130.152 117.107Z" fill="#EEF4F8"/>
<path d="M130.924 114.481C130.873 114.012 130.444 113.637 129.928 113.554C129.436 113.538 129.103 113.765 129.108 114.101C129.134 114.391 128.935 114.573 128.71 114.464C128.44 114.333 128.019 114.629 127.757 115.169C127.474 115.754 127.568 116.133 128.106 116.283C128.51 116.367 128.867 116.318 128.864 116.094C128.862 115.871 129.373 115.618 129.93 115.499C130.666 115.356 130.998 115.016 130.924 114.481Z" fill="#EEF4F8"/>
<path d="M129.081 111.864C128.721 111.689 128.297 111.762 128.188 111.987C128.057 112.257 128.285 112.589 128.645 112.764C129.005 112.938 129.407 112.911 129.538 112.641C129.647 112.416 129.441 112.038 129.081 111.864Z" fill="#EEF4F8"/>
<path d="M123.277 123.613C122.784 123.485 122.249 123.671 122.075 124.031C121.901 124.391 122.086 124.925 122.493 125.233C122.989 125.584 123.323 125.468 123.65 124.793C123.977 124.118 123.861 123.784 123.277 123.613Z" fill="#EEF4F8"/>
<path d="M121.24 128.624C121.189 128.155 120.94 127.867 120.672 127.96C120.405 128.053 120.299 128.502 120.438 128.902C120.786 129.904 121.366 129.74 121.24 128.624Z" fill="#EEF4F8"/>
<path d="M127.093 113.678C126.733 113.504 126.265 113.666 126.091 114.026C125.917 114.386 126.079 114.854 126.439 115.028C126.799 115.202 127.267 115.04 127.441 114.68C127.615 114.32 127.453 113.852 127.093 113.678Z" fill="#EEF4F8"/>
<path d="M125.341 116.718C125.116 116.609 124.738 116.815 124.564 117.175C124.389 117.535 124.462 117.959 124.687 118.068C124.957 118.199 125.289 117.971 125.464 117.611C125.638 117.251 125.611 116.849 125.341 116.718Z" fill="#EEF4F8"/>
<path d="M123.836 119.939C123.71 118.822 122.032 118.731 121.733 119.809C121.605 120.302 121.88 120.88 122.33 121.098C123.32 121.578 123.94 121.1 123.836 119.939Z" fill="#EEF4F8"/>
<path d="M60.3585 100.851C60.5776 101.185 61.0622 101.287 61.3968 101.067C61.7315 100.848 61.8325 100.364 61.6134 100.029C61.3943 99.6945 60.9098 99.5934 60.5751 99.8125C60.2405 100.032 60.1394 100.516 60.3585 100.851Z" fill="#38A8FA"/>
<path d="M145.953 53.8502C146.053 54.3502 146.453 54.7502 146.853 54.7502C147.253 54.7502 147.653 54.3502 147.753 53.8502C147.853 53.2502 147.603 53.0002 146.853 53.0002C146.103 53.0002 145.853 53.2502 145.953 53.8502Z" fill="#EEF4F8"/>
<path d="M125.944 111.46C125.585 111.286 125.161 111.358 125.052 111.583C124.921 111.853 125.149 112.186 125.509 112.36C125.869 112.535 126.271 112.507 126.402 112.237C126.51 112.012 126.304 111.635 125.944 111.46Z" fill="#EEF4F8"/>
<path d="M122.312 116.087C121.901 115.444 120.785 115.57 120.838 116.262C120.937 116.977 122.152 117.565 122.413 117.025C122.544 116.755 122.517 116.353 122.312 116.087Z" fill="#EEF4F8"/>
<path d="M59.743 105.199C60.0184 105.437 60.5722 105.553 60.9198 105.445C61.3366 105.351 61.3943 105.074 61.0497 104.822C60.7743 104.584 60.2206 104.468 59.873 104.576C59.4562 104.67 59.3984 104.947 59.743 105.199Z" fill="#38A8FA"/>
<path d="M122.816 111.608C122.591 111.499 122.278 111.57 122.148 111.84C122.039 112.065 121.68 112.002 121.385 111.693C121.023 111.295 120.71 111.366 120.427 111.951C119.817 113.211 120.091 113.677 121.386 113.526C122.548 113.422 123.581 111.978 122.816 111.608Z" fill="#EEF4F8"/>
<path d="M117.874 120.435C117.02 120.133 116.643 120.339 116.231 121.417C115.928 122.159 115.736 122.899 115.805 123.1C116.082 123.79 117.883 122.939 118.406 121.86C118.842 120.96 118.749 120.692 117.874 120.435Z" fill="#EEF4F8"/>
<path d="M62.727 104.74C62.6115 105.294 63.4262 105.717 63.97 105.361C64.1791 105.224 64.1547 104.821 63.9356 104.487C63.5247 103.859 62.8858 103.979 62.727 104.74Z" fill="#38A8FA"/>
<path d="M55.3108 112.209C55.4477 112.418 55.8356 112.463 56.1703 112.244C56.4631 112.052 57.0861 112.182 57.5129 112.56C57.9397 112.938 58.6463 113.013 59.0646 112.739C59.4829 112.465 60.2747 112.305 60.7319 112.365C61.4933 112.523 61.5222 112.385 60.696 111.671C60.187 111.167 59.6233 110.58 59.459 110.329C58.9933 109.618 57.4919 110.063 57.1931 110.976C57.0358 111.557 56.7848 111.722 56.3565 111.524C55.6658 111.199 54.9547 111.665 55.3108 112.209Z" fill="#38A8FA"/>
<path d="M122.695 107.382C122.331 106.872 121.464 107.285 121.651 107.931C121.86 108.533 122.533 108.748 122.751 108.298C122.882 108.028 122.833 107.671 122.695 107.382Z" fill="#EEF4F8"/>
<path d="M147.954 59.849C147.104 60.199 147.704 60.999 148.904 60.999C149.404 60.999 149.854 60.649 149.854 60.249C149.854 59.499 149.154 59.349 147.954 59.849Z" fill="#EEF4F8"/>
<path d="M56.1078 107.127C56.3543 107.504 56.8388 107.605 57.2153 107.358C57.9264 106.893 57.1983 106.054 56.281 106.296C55.9335 106.405 55.8613 106.751 56.1078 107.127Z" fill="#EEF4F8"/>
<path d="M119.932 108.268C119.475 107.491 118.742 107.858 119.043 108.727C119.206 109.194 119.476 109.325 119.787 109.142C120.052 108.938 120.137 108.534 119.932 108.268Z" fill="#EEF4F8"/>
<path d="M64.0211 110.824C64.7651 111.413 65.7675 110.936 65.3019 110.225C65.0554 109.848 64.5708 109.747 64.1943 109.994C63.8179 110.24 63.7457 110.586 64.0211 110.824Z" fill="#EEF4F8"/>
<path d="M54.2286 117.776C54.504 118.014 55.0578 118.129 55.4053 118.021C55.8222 117.927 55.8799 117.651 55.5353 117.398C55.2599 117.16 54.7062 117.045 54.3586 117.153C53.9417 117.246 53.884 117.523 54.2286 117.776Z" fill="#EEF4F8"/>
<path d="M113.767 114.001C112.76 113.902 111.949 115.232 112.759 115.624C113.209 115.842 113.675 115.568 113.937 115.028C114.198 114.488 114.126 114.064 113.767 114.001Z" fill="#EEF4F8"/>
<path d="M115.403 109.132C114.998 108.936 114.619 109.03 114.578 109.344C114.538 109.657 114.699 110.013 114.924 110.122C115.149 110.231 115.528 110.137 115.748 109.91C115.969 109.684 115.808 109.328 115.403 109.132Z" fill="#EEF4F8"/>
<path d="M58.5338 117.046C59.2763 117.815 60.084 117.405 59.6487 116.375C59.4585 115.902 59.0576 115.746 58.6393 116.02C58.221 116.294 58.1762 116.682 58.5338 117.046Z" fill="#38A8FA"/>
<path d="M65.8156 111.918C65.9525 112.128 66.3823 112.145 66.7169 111.926C67.0516 111.707 67.2074 111.306 67.0705 111.097C66.9062 110.846 66.5038 110.87 66.1691 111.089C65.8345 111.308 65.6512 111.667 65.8156 111.918Z" fill="#EEF4F8"/>
<path d="M113.572 109.13C113.025 108.309 111.08 108.311 110.687 109.121C110.186 110.156 111.617 111.905 112.482 111.38C113.259 110.923 113.891 109.618 113.572 109.13Z" fill="#EEF4F8"/>
<path d="M128.352 68.75C128.352 69.15 128.602 69.5 128.852 69.5C129.152 69.5 129.352 69.15 129.352 68.75C129.352 68.35 129.152 68 128.852 68C128.602 68 128.352 68.35 128.352 68.75Z" fill="#EEF4F8"/>
<path d="M137.802 68.3495C137.402 68.4495 136.652 69.1995 136.202 69.9495C135.452 71.1995 135.452 71.4495 136.102 71.9995C136.952 72.6995 137.852 72.2495 137.852 71.0495C137.852 70.5495 138.202 69.8495 138.602 69.4995C139.402 68.8495 139.602 67.9495 139.002 68.0495C138.752 68.0995 138.252 68.1995 137.802 68.3495Z" fill="#EEF4F8"/>
<path d="M140.204 68.7C140.054 69.1 140.054 69.5 140.204 69.65C140.654 70.15 141.854 69.4 141.854 68.7C141.854 67.8 140.554 67.8 140.204 68.7Z" fill="#EEF4F8"/>
<path d="M151.922 76.8456C151.922 77.2956 152.172 77.5956 152.472 77.4956C152.772 77.3956 153.022 77.0956 153.022 76.8456C153.022 76.5956 152.772 76.2956 152.472 76.1956C152.172 76.0956 151.922 76.3956 151.922 76.8456Z" fill="#EEF4F8"/>
<path d="M52.3525 116.615C52.7245 116.909 53.0965 117.203 53.1513 117.287C53.2335 117.413 53.4008 117.303 53.5422 116.971C53.8106 116.377 52.6672 115.452 52.0816 115.836C51.8306 116 51.9805 116.32 52.3525 116.615Z" fill="#EEF4F8"/>
<path d="M146.672 79.5956C146.522 79.8456 145.822 80.0956 145.172 80.0956C144.072 80.0956 142.922 81.7456 143.572 82.3956C144.272 83.1456 146.572 82.7456 147.122 81.8456C147.422 81.2956 147.872 80.6956 148.122 80.5456C148.622 80.1456 148.072 79.0956 147.422 79.0956C147.172 79.0956 146.822 79.2956 146.672 79.5956Z" fill="#EEF4F8"/>
<path d="M56.4751 114.153C56.6121 114.362 57.0418 114.379 57.3765 114.16C57.7111 113.941 57.867 113.54 57.73 113.331C57.5657 113.08 57.1633 113.104 56.8287 113.324C56.494 113.543 56.3108 113.902 56.4751 114.153Z" fill="#EEF4F8"/>
<path d="M153.422 80.3457C153.422 80.7457 153.672 81.0957 153.922 81.0957C154.222 81.0957 154.422 80.7457 154.422 80.3457C154.422 79.9457 154.222 79.5957 153.922 79.5957C153.672 79.5957 153.422 79.9457 153.422 80.3457Z" fill="#EEF4F8"/>
<path d="M59.0814 114.3C59.3294 114.496 59.69 114.499 59.8991 114.362C60.1083 114.225 60.2497 113.894 60.169 113.588C60.0883 113.282 59.7004 113.237 59.3239 113.484C58.9475 113.73 58.8334 114.104 59.0814 114.3Z" fill="#38A8FA"/>
<path d="M154.522 84.0456C154.522 84.9456 154.772 85.6456 155.272 85.7956C156.972 86.4456 157.572 84.4456 156.072 83.2956C154.772 82.3456 154.572 82.4456 154.522 84.0456Z" fill="#EEF4F8"/>
<path d="M55.5133 123.092C55.5218 123.743 57.1702 123.979 57.3001 123.356C57.3853 123.121 57.2643 122.662 57.0451 122.328C56.6343 121.7 55.4645 122.287 55.5133 123.092Z" fill="#38A8FA"/>
<path d="M141.022 87.4957C140.172 88.1457 140.022 88.4957 140.472 88.9457C140.872 89.3457 141.272 89.2457 141.972 88.5457C143.722 86.7957 143.022 85.9457 141.022 87.4957Z" fill="#EEF4F8"/>
<path d="M48.5364 125.298C48.5708 126.172 49.5254 126.443 50.4875 125.813C51.0731 125.43 51.1035 125.111 50.6349 124.761C50.2629 124.466 49.8909 124.172 49.8361 124.088C49.617 123.754 48.5135 124.715 48.5364 125.298Z" fill="#38A8FA"/>
<path d="M140.472 92.5457C139.522 93.1457 140.172 94.5957 141.422 94.5957C142.222 94.5957 142.472 94.3457 142.322 93.4957C142.172 92.2457 141.472 91.8957 140.472 92.5457Z" fill="#EEF4F8"/>
<path d="M148.522 93.6957C148.872 94.6457 150.422 94.7957 150.422 93.8957C150.422 93.3957 149.972 93.0957 149.372 93.0957C148.772 93.0957 148.422 93.3457 148.522 93.6957Z" fill="#EEF4F8"/>
<path d="M142.922 95.0456C142.922 95.6956 142.672 95.9956 142.222 95.7956C141.822 95.6456 141.372 95.7956 141.172 96.0956C140.672 96.8956 141.222 97.2956 142.272 96.7956C142.772 96.5956 143.622 96.3956 144.172 96.3956C145.622 96.3456 145.522 94.3956 144.072 94.1956C143.172 94.0456 142.922 94.2956 142.922 95.0456Z" fill="#EEF4F8"/>
<path d="M138.422 97.0957C138.422 97.3457 138.772 97.5957 139.172 97.5957C139.572 97.5957 139.922 97.3457 139.922 97.0957C139.922 96.7957 139.572 96.5957 139.172 96.5957C138.772 96.5957 138.422 96.7957 138.422 97.0957Z" fill="#EEF4F8"/>
<path d="M144.472 97.5456C144.022 97.8456 143.972 98.0956 144.372 98.2956C145.022 98.6956 145.922 98.2456 145.922 97.5456C145.922 96.9956 145.372 96.9956 144.472 97.5456Z" fill="#EEF4F8"/>
<path d="M153.572 98.3957C153.172 99.4957 154.472 100.246 155.372 99.3957C155.722 98.9957 155.872 98.4457 155.722 98.1457C155.222 97.3457 153.922 97.4957 153.572 98.3957Z" fill="#EEF4F8"/>
<path d="M157.922 99.8457C157.922 100.246 158.172 100.596 158.422 100.596C158.722 100.596 158.922 100.246 158.922 99.8457C158.922 99.4457 158.722 99.0957 158.422 99.0957C158.172 99.0957 157.922 99.4457 157.922 99.8457Z" fill="#EEF4F8"/>
<path d="M142.022 100.146C142.122 100.496 142.522 100.896 142.872 100.996C143.272 101.146 143.472 100.946 143.322 100.546C143.222 100.196 142.822 99.7956 142.472 99.6956C142.072 99.5456 141.872 99.7456 142.022 100.146Z" fill="#EEF4F8"/>
<path d="M146.822 100.746C145.722 101.596 144.972 104.346 145.972 103.896C146.372 103.746 147.072 103.446 147.572 103.296C148.072 103.096 148.372 102.646 148.222 102.296C148.072 101.946 148.172 101.496 148.472 101.346C148.972 100.996 148.622 100.096 148.022 100.096C147.822 100.096 147.272 100.396 146.822 100.746Z" fill="#EEF4F8"/>
<path d="M153.55 91.8947C153.273 92.1834 153.212 92.6091 153.392 92.7821C153.609 92.9898 153.995 92.8756 154.272 92.5869C154.549 92.2982 154.647 91.9072 154.43 91.6995C154.25 91.5265 153.827 91.606 153.55 91.8947Z" fill="#EEF4F8"/>
<path d="M151.787 95.3265C151.164 95.976 150.86 96.6543 151.117 97.1086C151.894 98.7545 153.712 97.7263 153.425 95.858C153.145 94.2726 152.931 94.2063 151.787 95.3265Z" fill="#EEF4F8"/>
<path d="M139.652 88.4723C138.588 88.3531 138.238 88.5019 138.251 89.1381C138.263 89.7037 138.621 89.9084 139.611 89.8877C142.085 89.8359 142.168 88.7379 139.652 88.4723Z" fill="#EEF4F8"/>
<path d="M135.758 91.7364C134.657 91.5118 134.123 93.0083 135.025 93.8735C135.602 94.4272 135.956 94.4198 136.436 93.7025C137.193 92.6965 136.93 91.9594 135.758 91.7364Z" fill="#EEF4F8"/>
<path d="M148.976 89.4759C148.571 90.4038 149.586 91.5849 150.209 90.9354C150.555 90.5745 150.438 90.0465 150.005 89.6312C149.572 89.2159 149.146 89.1541 148.976 89.4759Z" fill="#EEF4F8"/>
<path d="M135.797 95.2392C135.347 95.7083 134.959 95.7518 134.773 95.296C134.588 94.9108 134.159 94.7076 133.807 94.7857C132.893 95.017 133.013 95.6864 134.117 96.0523C134.616 96.2541 135.368 96.6981 135.765 97.0787C136.846 98.0463 138.123 96.5697 137.215 95.4217C136.67 94.6905 136.316 94.6979 135.797 95.2392Z" fill="#EEF4F8"/>
<path d="M135.184 98.1156C134.652 98.0206 134.442 98.1664 134.593 98.5877C134.785 99.3263 135.746 99.6244 136.23 99.1192C136.611 98.7223 136.214 98.3416 135.184 98.1156Z" fill="#EEF4F8"/>
<path d="M149.371 96.3664C148.321 96.8834 148.74 98.3245 149.978 98.334C150.507 98.2876 150.996 97.9944 151.096 97.6741C151.288 96.7506 150.246 95.9591 149.371 96.3664Z" fill="#EEF4F8"/>
<path d="M151.503 100.422C151.227 100.711 151.165 101.136 151.345 101.309C151.562 101.517 151.948 101.403 152.225 101.114C152.502 100.826 152.6 100.435 152.383 100.227C152.203 100.054 151.78 100.133 151.503 100.422Z" fill="#EEF4F8"/>
<path d="M146.813 60.3062C146.018 60.7317 145.673 61.7031 146.227 62.2087C146.67 62.6132 147.917 61.2467 147.707 60.5131C147.586 60.2001 147.193 60.1118 146.813 60.3062Z" fill="#EEF4F8"/>
<path d="M151.315 65.161C150.9 65.3922 150.745 65.8594 150.942 66.3105C151.408 67.2095 152.044 67.1804 152.459 66.2059C152.804 65.2346 152.25 64.729 151.315 65.161Z" fill="#EEF4F8"/>
<path d="M152.793 67.2539C152.342 67.4515 152.005 67.8208 152.011 67.9621C152.037 68.5271 153.241 68.543 153.746 67.989C154.387 67.2874 153.762 66.785 152.793 67.2539Z" fill="#EEF4F8"/>
<path d="M154.933 70.7653C154.654 70.8489 154.492 71.1748 154.579 71.5248C154.786 72.1878 155.754 72.4621 156.226 71.9451C156.63 71.5019 155.633 70.5918 154.933 70.7653Z" fill="#EEF4F8"/>
<path d="M163.779 77.5178C162.982 78.0322 163.11 79.1349 163.934 78.9236C164.37 78.8117 164.622 78.3857 164.51 77.9498C164.398 77.5139 164.093 77.334 163.779 77.5178Z" fill="#EEF4F8"/>
<path d="M150.413 70.9704C149.71 71.0733 149.545 71.3286 149.651 72.1024C149.757 72.8761 149.938 72.974 150.595 72.6256C151.703 72.0795 151.574 70.8113 150.413 70.9704Z" fill="#EEF4F8"/>
<path d="M163.121 80.7816C162.855 80.953 162.736 81.2933 162.798 81.5355C162.861 81.7776 163.129 82.0185 163.444 82.0407C163.76 82.063 163.927 81.7103 163.816 81.2744C163.704 80.8385 163.387 80.6101 163.121 80.7816Z" fill="#EEF4F8"/>
<path d="M161.512 91.4147C161.076 91.5265 160.848 91.8433 161.02 92.109C161.191 92.3747 161.544 92.5423 161.786 92.4801C162.028 92.418 162.256 92.1012 162.279 91.7858C162.301 91.4703 161.948 91.3028 161.512 91.4147Z" fill="#EEF4F8"/>
<path d="M160.589 72.0251C160.564 72.4244 160.792 72.7892 161.042 72.8047C161.341 72.8234 161.562 72.4865 161.587 72.0872C161.612 71.688 161.434 71.3263 161.135 71.3076C160.885 71.2921 160.614 71.6259 160.589 72.0251Z" fill="#EEF4F8"/>
<path d="M161.459 75.7863C161.403 76.6846 161.609 77.3988 162.099 77.5795C163.755 78.3338 164.478 76.375 163.053 75.134C161.814 74.1051 161.608 74.1925 161.459 75.7863Z" fill="#EEF4F8"/>
<path d="M61.1266 89.0198C61.9115 88.4869 61.7576 87.3875 60.9395 87.618C60.5063 87.74 60.2643 88.1718 60.3864 88.605C60.5084 89.0381 60.8168 89.2109 61.1266 89.0198Z" fill="#EEF4F8"/>
<path d="M60.9847 85.9404C61.9411 85.4631 61.7933 84.5697 60.6803 84.6755C60.1719 84.7149 59.9028 85.0504 60.0384 85.5317C60.174 86.0129 60.5305 86.1722 60.9847 85.9404Z" fill="#EEF4F8"/>
<path d="M65.6973 87.7268C66.1514 87.4949 66.428 87.0014 66.3195 86.6164C66.211 86.2314 65.7176 85.9549 65.2092 85.9942C64.6045 86.0607 64.4317 86.3691 64.6351 87.091C64.8385 87.8129 65.1469 87.9857 65.6973 87.7268Z" fill="#38A8FA"/>
<path d="M63.8968 82.6256C64.2459 82.9428 64.6234 82.9923 64.7617 82.7456C64.9 82.4988 64.6817 82.0928 64.3116 81.8854C63.3863 81.3669 63.0616 81.8739 63.8968 82.6256Z" fill="#38A8FA"/>
<path d="M68.732 94.2518C68.9727 94.184 69.1184 93.7793 69.0099 93.3943C68.9014 93.0093 68.5659 92.7402 68.3253 92.808C68.0365 92.8894 67.9389 93.2805 68.0474 93.6655C68.1559 94.0505 68.4433 94.3332 68.732 94.2518Z" fill="#EEF4F8"/>
<path d="M67.7213 90.8473C68.5565 91.599 69.8721 90.5531 69.3813 89.5485C69.1495 89.0944 68.5598 88.8449 68.0785 88.9805C67.0197 89.2788 66.8726 90.0475 67.7213 90.8473Z" fill="#EEF4F8"/>
<path d="M66.1311 81.893C66.5852 81.6612 66.8618 81.1677 66.7533 80.7827C66.6448 80.3977 66.1513 80.1211 65.643 80.1605C65.0383 80.2269 64.8655 80.5354 65.0689 81.2573C65.2722 81.9791 65.5807 82.152 66.1311 81.893Z" fill="#38A8FA"/>
<path d="M71.4132 92.7178C72.1473 92.9266 72.899 92.0915 72.3994 91.6088C71.8517 91.1398 70.5523 91.5059 70.715 92.0834C70.7963 92.3722 71.0837 92.6548 71.4132 92.7178Z" fill="#EEF4F8"/>
<path d="M74.0131 96.401C74.2537 96.3332 74.4401 96.0729 74.3588 95.7841C74.291 95.5435 74.6008 95.3523 75.0265 95.3883C75.562 95.4452 75.7484 95.1849 75.5721 94.5592C75.1924 93.2117 74.6779 93.045 73.809 94.017C73.0092 94.8657 73.195 96.6315 74.0131 96.401Z" fill="#EEF4F8"/>
<path d="M71.8487 86.5168C72.6879 86.1765 72.8336 85.7718 72.4255 84.692C72.1604 83.9355 71.8127 83.2543 71.6276 83.1506C70.9626 82.8185 70.1798 84.6494 70.5052 85.8044C70.7764 86.7669 71.0231 86.9052 71.8487 86.5168Z" fill="#EEF4F8"/>
<path d="M71.3621 78.3414C71.9295 79.0646 72.5368 78.2702 72.2114 77.1151C72.0758 76.6339 71.6169 76.2957 71.2318 76.4041C70.5099 76.6075 70.5554 77.322 71.3621 78.3414Z" fill="#EEF4F8"/>
<path d="M79.1927 88.6042C80.0122 88.0097 79.7363 86.4771 78.87 86.7211C78.3887 86.8567 78.222 87.3712 78.3847 87.9487C78.5474 88.5262 78.883 88.7953 79.1927 88.6042Z" fill="#EEF4F8"/>
<path d="M82.2972 85.806C82.5019 86.1638 83.4272 86.6824 84.2711 86.9121C85.6777 87.295 85.9183 87.2272 86.2714 86.4525C86.7147 85.4445 86.0375 84.7002 84.8825 85.0256C84.4012 85.1612 83.6325 85.0142 83.1872 84.7241C82.3446 84.1303 81.4241 84.1819 81.683 84.7323C81.799 84.9593 82.0308 85.4135 82.2972 85.806Z" fill="#EEF4F8"/>
<path d="M81.9859 83.3997C82.4116 83.4356 82.7966 83.3271 82.9003 83.1421C83.2596 82.5733 82.2123 81.6217 81.5385 81.8115C80.6722 82.0556 81.0248 83.3069 81.9859 83.3997Z" fill="#EEF4F8"/>
<path d="M86.6453 69.9127C87.0785 69.7907 87.2994 69.4687 87.1218 69.207C86.9442 68.9454 86.5877 68.7861 86.347 68.8539C86.1064 68.9217 85.8854 69.2437 85.8705 69.5596C85.8556 69.8754 86.2122 70.0347 86.6453 69.9127Z" fill="#EEF4F8"/>
<path d="M131.343 71.0229C131.272 71.4167 131.457 71.8051 131.703 71.849C131.998 71.9017 132.257 71.5922 132.327 71.1984C132.397 70.8046 132.262 70.425 131.966 70.3723C131.72 70.3284 131.413 70.6291 131.343 71.0229Z" fill="#EEF4F8"/>
<path d="M131.779 74.8558C131.621 75.7418 131.744 76.4748 132.21 76.7103C133.769 77.6486 134.711 75.785 133.436 74.3895C132.323 73.2261 132.109 73.2894 131.779 74.8558Z" fill="#EEF4F8"/>
<path d="M72.113 79.3152C72.7381 79.9646 73.7666 80.0332 74.103 79.3629C74.3722 78.8267 72.7188 77.9968 72.0697 78.3983C71.8011 78.5991 71.8228 79.0017 72.113 79.3152Z" fill="#EEF4F8"/>
<path d="M75.5653 73.6659C75.9002 74.0018 76.3921 74.0249 76.7727 73.7125C77.5117 73.0204 77.3114 72.4164 76.2606 72.2806C75.2321 72.2119 74.8957 72.8822 75.5653 73.6659Z" fill="#EEF4F8"/>
<path d="M77.1798 71.6756C77.4922 72.0562 77.9391 72.2805 78.0733 72.236C78.6103 72.0579 78.299 70.8947 77.6287 70.5582C76.7796 70.1321 76.4655 70.8695 77.1798 71.6756Z" fill="#EEF4F8"/>
<path d="M79.9761 68.6628C80.1323 68.909 80.4899 68.9766 80.8033 68.7982C81.3852 68.419 81.3868 67.4128 80.7612 67.0987C80.2249 66.8296 79.6193 68.0361 79.9761 68.6628Z" fill="#EEF4F8"/>
<path d="M142.036 70.0561C141.161 70.4225 141.093 71.5307 141.941 71.4672C142.39 71.4335 142.712 71.0584 142.679 70.6096C142.645 70.1609 142.377 69.9303 142.036 70.0561Z" fill="#EEF4F8"/>
<path d="M81.4015 72.9559C81.6912 73.6049 81.9818 73.6947 82.6978 73.3828C83.4138 73.0708 83.4589 72.8697 82.9454 72.3322C82.1195 71.4142 80.9336 71.8819 81.4015 72.9559Z" fill="#EEF4F8"/>
<path d="M140.813 73.1542C140.521 73.2764 140.344 73.5905 140.362 73.8398C140.381 74.0891 140.603 74.3733 140.91 74.4506C141.216 74.5279 141.443 74.21 141.41 73.7613C141.376 73.3126 141.104 73.0321 140.813 73.1542Z" fill="#EEF4F8"/>
<path d="M139.861 64.0901C139.766 64.4788 139.926 64.8779 140.169 64.937C140.461 65.0079 140.738 64.7151 140.833 64.3265C140.927 63.9378 140.815 63.5504 140.524 63.4795C140.281 63.4204 139.955 63.7014 139.861 64.0901Z" fill="#EEF4F8"/>
<path d="M140.057 67.9453C139.844 68.8198 139.922 69.559 140.372 69.8229C141.87 70.8563 142.926 69.0548 141.74 67.5829C140.702 66.3525 140.484 66.4024 140.057 67.9453Z" fill="#EEF4F8"/>
<path d="M159.621 90.0509C159.154 91.1239 160.405 91.9532 161.356 91.1608C161.73 90.7833 161.914 90.2437 161.783 89.9349C161.334 89.1054 160.027 89.1744 159.621 90.0509Z" fill="#EEF4F8"/>
<path d="M163.87 91.7678C163.845 92.167 164.073 92.5319 164.322 92.5474C164.622 92.566 164.843 92.2291 164.868 91.8299C164.893 91.4307 164.715 91.0689 164.415 91.0503C164.166 91.0348 163.895 91.3686 163.87 91.7678Z" fill="#EEF4F8"/>
<path d="M142.873 93.3873C141.491 93.2393 139.046 94.705 140.079 95.0724C140.472 95.241 141.185 95.509 141.649 95.7468C142.149 95.9485 142.677 95.8314 142.811 95.475C142.945 95.1186 143.328 94.863 143.649 94.9624C144.252 95.0559 144.622 94.164 144.189 93.7487C144.045 93.6103 143.44 93.4461 142.873 93.3873Z" fill="#EEF4F8"/>
<path d="M152.272 106.396C151.622 107.046 151.922 107.596 152.972 107.596C153.522 107.596 153.922 107.346 153.822 106.996C153.572 106.296 152.722 105.946 152.272 106.396Z" fill="#EEF4F8"/>
<path d="M129.826 71.73C129.8 71.1649 128.906 70.9584 128.468 71.4386C128.299 71.6233 128.423 72.007 128.718 72.2765C129.273 72.7819 129.862 72.507 129.826 71.73Z" fill="#EEF4F8"/>
<path d="M150.372 109.395C149.922 109.945 149.922 110.295 150.322 110.695C151.022 111.395 152.422 110.845 152.422 109.895C152.422 108.895 151.072 108.545 150.372 109.395Z" fill="#EEF4F8"/>
<path d="M147.024 108.509C146.835 108.917 147.005 109.382 147.413 109.571C148.185 109.929 148.511 108.868 147.821 108.217C147.546 107.979 147.214 108.101 147.024 108.509Z" fill="#EEF4F8"/>
<path d="M147.763 111.665C147.573 112.073 147.674 112.45 147.988 112.486C148.303 112.521 148.656 112.354 148.761 112.128C148.866 111.901 148.765 111.524 148.535 111.307C148.305 111.09 147.952 111.257 147.763 111.665Z" fill="#EEF4F8"/>
<path d="M150.422 113.796C150.422 114.246 150.772 114.596 151.222 114.596C152.072 114.596 151.922 113.496 151.022 113.196C150.672 113.096 150.422 113.346 150.422 113.796Z" fill="#EEF4F8"/>
<path d="M151.533 113.637C150.963 114.034 151.572 114.978 152.33 114.889C152.976 114.802 153.037 113.839 152.402 113.544C152.176 113.439 151.819 113.494 151.533 113.637Z" fill="#EEF4F8"/>
<path d="M146.948 118.177C146.843 118.404 147.055 118.778 147.418 118.946C147.781 119.114 148.204 119.035 148.309 118.808C148.435 118.536 148.202 118.207 147.839 118.039C147.476 117.87 147.074 117.905 146.948 118.177Z" fill="#EEF4F8"/>
<path d="M116.34 64.7771C116.257 64.4978 115.9 64.4435 115.483 64.6042C114.756 64.9562 114.764 65.9114 115.541 65.8757C116.177 65.8464 116.545 65.3694 116.34 64.7771Z" fill="#EEF4F8"/>
<path d="M137.126 122.715C136.398 123.094 136.402 123.206 137.218 123.585C137.763 123.837 138.297 123.755 138.486 123.346C138.655 122.983 138.62 122.582 138.394 122.477C138.167 122.371 137.611 122.5 137.126 122.715Z" fill="#EEF4F8"/>
<path d="M36.831 119.767C37.2071 119.757 37.4884 119.486 37.5157 119.096C37.5194 118.293 37.062 118.08 36.4113 118.612C35.8113 119.167 36.0144 119.726 36.831 119.767Z" fill="#38A8FA"/>
<path d="M36.5636 117.752C36.9533 117.779 37.326 117.644 37.3735 117.542C37.5634 117.135 36.7233 116.681 36.1641 116.884C35.4559 117.141 35.7098 117.724 36.5636 117.752Z" fill="#38A8FA"/>
<path d="M36.3512 114.498C36.5782 114.543 36.8121 114.373 36.88 114.095C36.9784 113.553 36.3992 113.004 35.8773 113.194C35.43 113.356 35.7956 114.363 36.3512 114.498Z" fill="#38A8FA"/>
<path d="M27.7687 114.622C28.5181 114.554 28.834 113.732 28.1777 113.578C27.8303 113.496 27.4964 113.702 27.4146 114.05C27.3328 114.397 27.4803 114.636 27.7687 114.622Z" fill="#38A8FA"/>
<path d="M39.6045 116.02C40.1364 116.206 40.3465 116.088 40.5568 115.505C40.7671 114.923 40.6757 114.787 40.0861 114.79C39.1069 114.766 38.7304 115.704 39.6045 116.02Z" fill="#38A8FA"/>
<path d="M29.4321 112.571C29.6819 112.549 29.8909 112.354 29.9363 112.161C29.9818 111.968 29.8819 111.7 29.6685 111.568C29.4551 111.436 29.2075 111.622 29.1257 111.97C29.0438 112.317 29.1823 112.594 29.4321 112.571Z" fill="#38A8FA"/>
<path d="M32.651 102.206C33.0801 102.633 33.9227 102.343 33.7616 101.816C33.5618 101.28 32.5196 101.035 32.4104 101.498C32.3559 101.729 32.4466 102.036 32.651 102.206Z" fill="#38A8FA"/>
<path d="M37.3497 86.5669C37.7766 86.8305 37.9583 86.751 37.9516 86.2605C37.9994 85.5384 37.3704 85.268 36.9933 85.8311C36.9093 86.015 37.0386 86.3307 37.3497 86.5669Z" fill="#38A8FA"/>
<path d="M43.0265 115.913C43.7923 115.931 44.2906 115.328 44.0333 114.619C43.925 114.321 43.471 114.233 42.9118 114.436C41.9054 114.802 41.9727 115.916 43.0265 115.913Z" fill="#38A8FA"/>
<path d="M34.4776 105.693C34.825 105.775 35.1021 105.637 35.0794 105.387C35.0568 105.137 34.8706 104.889 34.6776 104.844C34.4846 104.798 34.2075 104.937 34.0758 105.15C33.944 105.364 34.1301 105.611 34.4776 105.693Z" fill="#38A8FA"/>
<path d="M37.6552 91.6886C38.2454 92.6425 38.9948 92.5745 39.2312 91.5709C39.504 90.4128 38.9954 89.804 38.1165 90.2489C37.2852 90.6643 37.183 90.9254 37.6552 91.6886Z" fill="#38A8FA"/>
<path d="M36.16 106.494C36.8548 106.657 36.9116 106.589 36.6438 105.997C36.3169 105.308 35.5948 105.261 35.4311 105.955C35.3857 106.148 35.7353 106.394 36.16 106.494Z" fill="#38A8FA"/>
<path d="M37.7568 99.5368C37.9474 100.111 38.0632 100.139 38.7787 99.696C39.5804 99.2329 39.5986 99.1557 38.9969 98.7695C38.1909 98.2129 37.4663 98.6942 37.7568 99.5368Z" fill="#38A8FA"/>
<path d="M38.835 95.147C39.0394 95.3174 39.4436 95.3311 39.7298 95.154C40.016 94.9769 40.6405 94.9203 41.1037 95.0294C42.2232 95.2931 42.498 94.9912 42.3167 93.6853L42.1966 92.6384L41.254 93.3535C40.4068 94.0096 40.3296 93.9915 40.089 93.2829C39.8871 92.5834 39.7713 92.5561 39.3056 92.9761C38.6219 93.63 38.3764 94.6723 38.835 95.147Z" fill="#38A8FA"/>
<path d="M46.4703 116.101C46.7685 115.993 46.9347 115.637 46.8264 115.339C46.718 115.041 46.3623 114.874 46.0641 114.983C45.7659 115.091 45.5997 115.447 45.7081 115.745C45.8164 116.043 46.1721 116.209 46.4703 116.101Z" fill="#38A8FA"/>
<path d="M45.5619 113.477C45.8974 113.355 46.0161 113.101 45.8468 112.867C45.3794 112.277 44.5187 112.463 44.7488 113.097C44.8707 113.432 45.2264 113.598 45.5619 113.477Z" fill="#38A8FA"/>
<path d="M38.4667 102.925C38.6984 102.98 39.2024 103.261 39.5612 103.468C40.0562 103.788 40.1039 103.759 39.8769 103.339C39.6703 103.005 39.2048 102.732 38.7915 102.757C38.3396 102.773 38.2056 102.823 38.4667 102.925Z" fill="#38A8FA"/>
<path d="M41.9204 91.5554C42.2678 91.6372 42.5245 91.4124 42.5382 91.0082C42.5725 89.9977 41.7119 89.6727 41.4937 90.5992C41.3846 91.0625 41.5344 91.4644 41.9204 91.5554Z" fill="#38A8FA"/>
<path d="M40.872 98.4388C41.3397 98.875 42.0574 98.5958 42.2211 97.901C42.2938 97.5921 42.0009 97.2787 41.5763 97.1787C40.7656 96.9877 40.2772 97.8505 40.872 98.4388Z" fill="#38A8FA"/>
<path d="M43.6255 93.8281C44.0932 94.2642 44.9995 93.7035 44.8179 93.0904C44.7181 92.8224 44.3775 92.5384 44.0687 92.4657C43.451 92.3202 43.0988 93.2966 43.6255 93.8281Z" fill="#38A8FA"/>
<path d="M43.9738 96.5174C44.2827 96.5902 44.5984 96.4608 44.6438 96.2678C44.6984 96.0362 44.4645 95.8181 44.1557 95.7454C43.8469 95.6726 43.5403 95.7634 43.4857 95.995C43.4403 96.188 43.665 96.4447 43.9738 96.5174Z" fill="#38A8FA"/>
<path d="M49.108 127.037C49.4003 126.891 49.8512 126.18 50.0699 125.522C50.4343 124.425 50.3911 124.231 49.7928 123.918C49.0138 123.523 48.3949 124.027 48.6024 124.956C48.6888 125.343 48.5389 125.945 48.2898 126.285C47.7829 126.927 47.7837 127.658 48.2309 127.477C48.4158 127.395 48.7855 127.231 49.108 127.037Z" fill="#38A8FA"/>
<path d="M40.2935 119.864C40.3664 119.645 40.865 119.33 41.3682 119.218C42.2197 119.028 42.8247 117.552 42.2091 117.161C41.5375 116.701 39.8262 117.409 39.5561 118.2C39.419 118.678 39.1744 119.22 39.0068 119.38C38.6889 119.776 39.2962 120.493 39.7994 120.381C39.9929 120.338 40.2292 120.123 40.2935 119.864Z" fill="#38A8FA"/>
<path d="M33.4478 117.778C33.2921 117.081 32.9776 116.582 32.5646 116.553C31.1362 116.343 31.0175 117.995 32.3776 118.626C33.5482 119.137 33.6857 119.025 33.4478 117.778Z" fill="#38A8FA"/>
<path d="M43.3044 112.772C43.85 112.122 43.9056 111.825 43.4794 111.555C43.1006 111.314 42.8083 111.461 42.3874 112.124C41.3353 113.781 42.0242 114.318 43.3044 112.772Z" fill="#38A8FA"/>
<path d="M42.853 108.768C43.4847 108.14 42.7308 107.13 41.7631 107.346C41.1438 107.484 40.9935 107.721 41.2566 108.353C41.5889 109.295 42.1913 109.445 42.853 108.768Z" fill="#38A8FA"/>
<path d="M36.4242 109.269C35.989 108.594 34.7632 108.746 34.9188 109.443C35.0052 109.83 35.4055 109.984 35.8699 109.881C36.3344 109.777 36.5621 109.523 36.4242 109.269Z" fill="#38A8FA"/>
<path d="M40.5232 107.256C40.4108 106.753 40.5525 106.478 40.9354 106.555C41.271 106.602 41.5934 106.408 41.6964 106.141C41.9451 105.435 41.4502 105.221 40.7238 105.789C40.3713 106.03 39.7479 106.332 39.3221 106.427C38.2083 106.717 38.6229 108.209 39.78 108.113C40.5026 108.074 40.6529 107.837 40.5232 107.256Z" fill="#38A8FA"/>
<path d="M43.655 104.89C43.6117 104.697 43.2976 104.564 42.9879 104.633C42.6783 104.702 42.4506 104.956 42.4938 105.15C42.5457 105.382 42.8512 105.476 43.1608 105.407C43.4705 105.338 43.7068 105.123 43.655 104.89Z" fill="#38A8FA"/>
<path d="M38.8938 105.59C39.1903 105.28 39.1858 105.077 38.8416 104.992C38.2692 104.795 37.6503 105.298 37.7714 105.84C37.8665 106.266 38.2922 106.171 38.8938 105.59Z" fill="#38A8FA"/>
<path d="M31.7042 106.504C31.8237 105.583 30.6877 105.228 30.1379 106.041C29.9361 106.411 29.9151 106.863 30.0831 107.069C30.6085 107.602 31.5889 107.261 31.7042 106.504Z" fill="#38A8FA"/>
<path d="M28.0849 106.134C28.0158 105.824 27.7617 105.596 27.5682 105.64C27.3359 105.692 27.2416 105.997 27.3108 106.307C27.38 106.616 27.5953 106.853 27.8275 106.801C28.0211 106.758 28.1541 106.443 28.0849 106.134Z" fill="#38A8FA"/>
<path d="M40.3418 103.153C40.2039 102.899 39.8251 102.659 39.5368 102.642C39.2012 102.595 39.081 102.784 39.2663 103.068C39.4042 103.322 39.783 103.562 40.0713 103.579C40.4068 103.626 40.5271 103.437 40.3418 103.153Z" fill="#38A8FA"/>
<path d="M36.5229 103.519C37.2274 102.67 37.3325 100.412 36.6362 100.933C36.3525 101.119 35.8625 101.472 35.5014 101.674C35.1489 101.916 34.9945 102.316 35.1711 102.561C35.3477 102.806 35.3481 103.172 35.1418 103.34C34.8153 103.697 35.2418 104.333 35.7063 104.229C35.8611 104.195 36.235 103.867 36.5229 103.519Z" fill="#38A8FA"/>
<path d="M32.8423 111.534C33.0067 111.262 32.9809 110.922 32.8114 110.819C32.6078 110.696 32.3283 110.851 32.1639 111.123C31.9995 111.394 31.9913 111.714 32.1948 111.837C32.3644 111.94 32.6779 111.805 32.8423 111.534Z" fill="#38A8FA"/>
<path d="M33.6134 108.572C33.9834 107.961 34.1015 107.383 33.8239 107.076C32.9378 105.937 31.7088 107.047 32.2537 108.443C32.7451 109.622 32.9219 109.637 33.6134 108.572Z" fill="#38A8FA"/>
<path d="M44.1943 111.779C45.0381 111.687 45.2837 111.511 45.1634 111.021C45.0565 110.585 44.744 110.489 43.9814 110.676C42.075 111.144 42.2005 112.008 44.1943 111.779Z" fill="#38A8FA"/>
<path d="M46.6447 108.58C47.5358 108.563 47.6908 107.312 46.8428 106.799C46.3001 106.47 46.0277 106.537 45.7801 107.175C45.3681 108.084 45.6991 108.61 46.6447 108.58Z" fill="#38A8FA"/>
<path d="M36.8024 112.615C36.9555 111.827 35.9656 111.088 35.5957 111.699C35.3902 112.038 35.5722 112.426 35.9792 112.673C36.3862 112.92 36.7264 112.894 36.8024 112.615Z" fill="#38A8FA"/>
<path d="M46.0072 105.875C46.2743 105.434 46.5673 105.333 46.7903 105.654C47 105.92 47.367 106.003 47.6259 105.882C48.294 105.545 48.0852 105.048 47.1674 104.955C46.746 104.885 46.0872 104.672 45.7141 104.446C44.7099 103.884 43.9762 105.247 44.8777 105.979C45.4266 106.451 45.6989 106.384 46.0072 105.875Z" fill="#38A8FA"/>
<path d="M45.9858 103.543C46.4143 103.524 46.551 103.375 46.3619 103.075C46.0853 102.536 45.2898 102.472 45.0021 102.947C44.776 103.32 45.1491 103.546 45.9858 103.543Z" fill="#38A8FA"/>
<path d="M35.3039 107.349C36.0274 106.767 35.4537 105.724 34.4938 105.931C34.092 106.058 33.7642 106.37 33.7426 106.635C33.753 107.383 34.6965 107.816 35.3039 107.349Z" fill="#38A8FA"/>
<path d="M32.9556 104.578C33.12 104.306 33.0942 103.966 32.9246 103.863C32.7211 103.74 32.4416 103.895 32.2772 104.167C32.1128 104.438 32.1046 104.758 32.3081 104.881C32.4777 104.984 32.7912 104.849 32.9556 104.578Z" fill="#38A8FA"/>
<path d="M27.3566 121.791C27.5327 121.612 27.566 121.328 27.4761 121.151C27.3861 120.975 27.1367 120.835 26.8887 120.872C26.6406 120.909 26.5719 121.211 26.7339 121.529C26.8959 121.847 27.1806 121.97 27.3566 121.791Z" fill="#38A8FA"/>
<path d="M26.7634 113.28C27.0815 113.118 27.2036 112.834 27.0249 112.658C26.8462 112.482 26.5442 112.413 26.3675 112.503C26.1908 112.593 26.0687 112.878 26.106 113.126C26.1433 113.374 26.4454 113.442 26.7634 113.28Z" fill="#38A8FA"/>
<path d="M28.4616 114.01C28.638 113.099 27.5263 112.673 26.9271 113.451C26.7027 113.808 26.6537 114.257 26.8085 114.474C27.2998 115.038 28.2995 114.759 28.4616 114.01Z" fill="#38A8FA"/>
<path d="M24.8767 113.416C24.8269 113.103 24.5875 112.86 24.3917 112.891C24.1567 112.928 24.0436 113.227 24.0934 113.541C24.1432 113.854 24.3434 114.103 24.5784 114.066C24.7743 114.035 24.9265 113.729 24.8767 113.416Z" fill="#38A8FA"/>
<path d="M40.8512 108.532C41.9468 108.408 43.5859 106.85 42.7225 106.745C42.3895 106.682 41.7913 106.598 41.3905 106.494C40.9691 106.424 40.5806 106.606 40.5385 106.905C40.4964 107.204 40.2436 107.469 39.9784 107.447C39.4954 107.479 39.3629 108.233 39.7699 108.48C39.9056 108.562 40.402 108.585 40.8512 108.532Z" fill="#38A8FA"/>
<path d="M31.3237 100.087C31.7145 99.4716 31.3872 99.0977 30.5744 99.2793C30.1486 99.3744 29.8822 99.6371 30.0201 99.8907C30.3347 100.389 31.0532 100.513 31.3237 100.087Z" fill="#38A8FA"/>
<path d="M32.2769 97.435C32.5302 96.9314 32.4697 96.6604 32.0909 96.42C31.4279 95.9991 30.4393 96.667 30.6035 97.4024C30.7765 98.1765 31.882 98.214 32.2769 97.435Z" fill="#38A8FA"/>
<path d="M35.0233 97.5433C35.0993 97.1946 34.8871 96.8642 34.5384 96.7883C33.8796 96.6447 33.8101 97.5226 34.4569 97.907C34.7113 98.0436 34.9473 97.8921 35.0233 97.5433Z" fill="#38A8FA"/>
<path d="M33.9047 95.2282C33.9807 94.8794 33.8376 94.6047 33.5882 94.6315C33.3388 94.6584 33.0944 94.8487 33.0522 95.0424C33.01 95.2362 33.1531 95.5109 33.3687 95.639C33.5843 95.7672 33.8287 95.5769 33.9047 95.2282Z" fill="#38A8FA"/>
<path d="M31.4764 94.0377C31.3986 93.6894 31.0671 93.479 30.7188 93.5568C30.0608 93.7038 30.3671 94.5294 31.1157 94.606C31.4039 94.6229 31.5542 94.3861 31.4764 94.0377Z" fill="#38A8FA"/>
<path d="M30.6463 94.3527C31.0188 93.9468 30.3839 93.3214 29.8126 93.5216C29.3272 93.7 29.4465 94.4566 29.989 94.5748C30.1828 94.617 30.4491 94.5127 30.6463 94.3527Z" fill="#38A8FA"/>
<path d="M33.4099 90.0472C33.4521 89.8534 33.223 89.6006 32.913 89.533C32.603 89.4655 32.2896 89.6001 32.2474 89.7939C32.1967 90.0264 32.4342 90.2405 32.7442 90.308C33.0542 90.3756 33.3592 90.2797 33.4099 90.0472Z" fill="#38A8FA"/>
<path d="M40.2275 84.8349C40.7247 84.4155 40.7029 84.3296 40.0054 84.1776C39.5404 84.0763 39.1409 84.2328 39.065 84.5816C38.9974 84.8916 39.0933 85.1966 39.2871 85.2388C39.4808 85.281 39.8887 85.0858 40.2275 84.8349Z" fill="#38A8FA"/>
<path d="M129.448 120.258C129.28 120.621 129.36 121.043 129.586 121.149C129.858 121.275 130.187 121.041 130.355 120.679C130.524 120.316 130.49 119.914 130.217 119.788C129.991 119.683 129.617 119.895 129.448 120.258Z" fill="#EEF4F8"/>
<path d="M132.442 121.758C131.666 122.005 131.595 122.633 132.321 122.97C132.684 123.138 133.148 122.968 133.317 122.605C133.653 121.879 133.193 121.445 132.442 121.758Z" fill="#EEF4F8"/>
<path d="M107.478 63.7337C107.183 63.4642 106.645 63.312 106.365 63.3956C106.052 63.5162 106.139 63.8661 106.546 64.2367C106.989 64.641 107.456 64.7965 107.658 64.5748C107.827 64.3901 107.774 64.0033 107.478 63.7337Z" fill="#EEF4F8"/>
<path d="M132.878 124.987C132.772 125.93 133.706 126.529 134.064 125.757C134.253 125.349 134.083 124.884 133.675 124.695C133.267 124.506 132.935 124.627 132.878 124.987Z" fill="#EEF4F8"/>
<path d="M124.799 121.96C124.631 122.323 124.71 122.746 124.937 122.851C125.209 122.977 125.538 122.744 125.706 122.381C125.875 122.018 125.84 121.616 125.568 121.49C125.341 121.385 124.967 121.597 124.799 121.96Z" fill="#EEF4F8"/>
<path d="M102.8 102.966C102.632 103.328 102.802 103.793 103.165 103.962C103.528 104.13 103.992 103.96 104.161 103.597C104.329 103.234 104.159 102.769 103.796 102.601C103.433 102.433 102.968 102.603 102.8 102.966Z" fill="#EEF4F8"/>
<path d="M117.629 119.24C117.098 119.434 117.169 120.349 117.759 120.623C117.986 120.728 118.314 120.495 118.483 120.132C118.798 119.451 118.359 118.972 117.629 119.24Z" fill="#EEF4F8"/>
<path d="M116.234 87.906C116.42 86.6193 116.63 85.4295 116.677 85.2109C116.876 84.1787 115.061 84.7487 114.414 85.8445C113.586 87.2446 113.767 88.9533 114.775 89.0557C115.309 89.1249 115.334 89.2218 114.849 89.3463C114.039 89.6064 114.384 90.55 115.208 90.3383C115.595 90.2387 116.037 89.1443 116.234 87.906Z" fill="#EEF4F8"/>
<path d="M101.262 103.906C101.073 104.314 101.173 104.691 101.487 104.727C101.802 104.762 102.155 104.595 102.26 104.369C102.365 104.142 102.265 103.765 102.034 103.548C101.804 103.331 101.451 103.498 101.262 103.906Z" fill="#EEF4F8"/>
<path d="M102.645 114.109C102.588 114.468 102.71 114.8 102.892 114.884C103.457 115.092 103.615 114.393 103.176 113.914C102.901 113.676 102.635 113.773 102.645 114.109Z" fill="#EEF4F8"/>
<path d="M118.724 121.512C118.462 121.721 118.384 122.126 118.593 122.388C119.063 123.157 119.791 122.778 119.474 121.915C119.304 121.45 119.032 121.324 118.724 121.512Z" fill="#EEF4F8"/>
<path d="M113.554 118.63C113.302 119.174 114.007 121.099 114.551 121.352C114.778 121.457 115.065 121.314 115.17 121.088C115.296 120.815 115.154 120.529 114.881 120.403C114.655 120.297 114.603 120.053 114.844 119.889C115.085 119.725 115.051 119.324 114.706 118.998C113.922 118.194 113.786 118.131 113.554 118.63Z" fill="#EEF4F8"/>
<path d="M98.2236 103.323C98.1184 103.55 98.2854 103.903 98.6483 104.071C99.0111 104.24 99.5699 104.223 99.8112 104.06C100.073 103.851 99.8855 103.543 99.3865 103.311C98.8422 103.059 98.3498 103.051 98.2236 103.323Z" fill="#EEF4F8"/>
<path d="M127.542 75.0618C127.06 73.7917 125.918 73.3628 125.609 74.3714C125.503 74.7602 125.687 75.0742 126.002 75.0964C126.317 75.1185 126.514 75.481 126.468 75.9058C126.423 76.3305 126.691 76.5713 127.175 76.4468C127.708 76.3098 127.802 75.8726 127.542 75.0618Z" fill="#EEF4F8"/>
<path d="M92.3316 109.295C91.2786 109.687 90.7066 110.855 91.2673 111.493C91.9269 112.245 93.6012 112.106 94.0467 111.249C94.5298 110.36 93.3141 108.899 92.3316 109.295Z" fill="#EEF4F8"/>
<path d="M94.6483 112.318C94.4604 112.483 94.5034 112.911 94.7672 113.211C95.0311 113.512 95.4499 113.61 95.6378 113.445C95.8632 113.247 95.7827 112.852 95.5188 112.551C95.255 112.251 94.8738 112.12 94.6483 112.318Z" fill="#EEF4F8"/>
<path d="M109.551 120.132C109.278 120.722 109.448 121.187 110.038 121.46C110.627 121.734 111.092 121.563 111.366 120.974C111.639 120.384 111.469 119.919 110.879 119.646C110.29 119.372 109.825 119.542 109.551 120.132Z" fill="#EEF4F8"/>
<path d="M98.8198 125.896C98.5192 126.16 98.421 126.579 98.5859 126.767C98.7838 126.992 99.1788 126.912 99.4794 126.648C99.7801 126.384 99.9112 126.003 99.7133 125.777C99.5484 125.589 99.1204 125.632 98.8198 125.896Z" fill="#EEF4F8"/>
<path d="M92.9431 113.482C92.5857 113.529 92.3272 113.69 92.3134 113.901C92.2813 114.395 93.7968 115.061 94.1726 114.731C94.6611 114.302 93.6955 113.354 92.9431 113.482Z" fill="#EEF4F8"/>
<path d="M96.8878 105.847C95.9793 106.142 95.9214 107.218 96.7832 107.618C97.3728 107.891 97.8376 107.721 98.1111 107.131C98.5108 106.269 97.772 105.486 96.8878 105.847Z" fill="#EEF4F8"/>
<path d="M131.966 130.862C131.435 131.057 131.507 131.972 132.096 132.246C132.323 132.351 132.652 132.117 132.82 131.755C133.136 131.074 132.697 130.595 131.966 130.862Z" fill="#EEF4F8"/>
<path d="M118.647 83.8279C118.618 83.1126 118.968 82.8677 119.974 82.764C120.847 82.746 121.246 82.4887 121.146 82.1013C121.059 81.7623 120.634 81.7166 120.09 82.0113C119.462 82.3793 118.878 82.1164 117.841 81.0926C116.193 79.5028 115.671 79.482 115.015 81.1478C114.503 82.5701 115.068 83.5608 116.771 84.3619C118.352 85.0911 118.643 85.0164 118.647 83.8279Z" fill="#EEF4F8"/>
<path d="M99.1878 107.904C98.796 108.273 98.9176 108.605 99.5073 108.878C100.006 109.11 100.562 108.982 100.73 108.619C100.898 108.256 100.773 107.812 100.411 107.644C100.048 107.476 99.5376 107.625 99.1878 107.904Z" fill="#EEF4F8"/>
<path d="M121.866 73.2696C121.848 72.3966 122.004 72.2015 122.407 72.5626C122.7 72.9002 123.064 72.9099 123.256 72.654C123.544 72.167 122.242 71.5208 121.37 71.7449C121.08 71.8196 120.609 72.1987 120.284 72.5404C119.754 73.0897 119.804 73.2834 120.766 73.8106C121.801 74.4221 121.849 74.4097 121.866 73.2696Z" fill="#EEF4F8"/>
<path d="M97.7718 115.039C97.077 115.915 99.2171 118.96 100.006 118.267C100.532 117.806 100.027 116.32 98.9054 115.042C98.5096 114.591 98.1192 114.601 97.7718 115.039Z" fill="#EEF4F8"/>
<path d="M112.048 83.8721C112.167 83.5317 112.129 83.1803 111.946 83.0724C111.52 82.8206 110.713 83.6991 110.863 84.2802C111.012 84.8613 111.835 84.6497 112.048 83.8721Z" fill="#EEF4F8"/>
<path d="M110.977 124.432C110.837 124.973 111.056 125.57 111.512 125.892C112.039 126.302 112.305 126.205 112.442 125.552C112.583 125.011 112.364 124.413 111.907 124.091C111.38 123.682 111.115 123.779 110.977 124.432Z" fill="#EEF4F8"/>
<path d="M113.888 126.226C113.72 126.588 113.712 127.081 113.83 127.301C114.252 127.937 115.649 127.538 115.584 126.847C115.467 125.911 114.246 125.454 113.888 126.226Z" fill="#EEF4F8"/>
<path d="M120.544 70.9255C120.553 70.3554 120.441 69.9196 120.295 69.957C119.811 70.0815 119.094 71.7113 119.46 71.9271C120.129 72.3229 120.551 71.9562 120.544 70.9255Z" fill="#EEF4F8"/>
<path d="M100.521 119.613C99.6037 119.554 99.3882 120.142 100.081 120.931C100.444 121.344 100.895 121.48 101.093 121.174C101.454 120.525 101.156 119.655 100.521 119.613Z" fill="#EEF4F8"/>
<path d="M127.859 69.2511C128.147 68.7641 127.29 67.642 126.758 67.779C126.516 67.8412 126.434 68.3269 126.571 68.8595C126.808 69.7796 127.427 69.9816 127.859 69.2511Z" fill="#EEF4F8"/>
<path d="M125.354 68.5521C124.84 67.7551 123.737 67.8838 123.949 68.707C124.061 69.1428 124.487 69.3946 124.923 69.2826C125.358 69.1705 125.538 68.8661 125.354 68.5521Z" fill="#EEF4F8"/>
<path d="M96.0961 119.041C95.7955 119.305 95.7633 119.799 96.0272 120.099C96.324 120.438 96.6484 120.352 96.8877 119.943C97.0564 119.529 97.1215 119.072 96.9566 118.884C96.7917 118.696 96.3967 118.777 96.0961 119.041Z" fill="#EEF4F8"/>
<path d="M108.231 127.733C107.979 128.277 108.062 128.811 108.425 128.98C109.196 129.337 109.778 127.844 109.133 127.214C108.858 126.976 108.463 127.234 108.231 127.733Z" fill="#EEF4F8"/>
<path d="M110.082 125.102C109.778 125.402 109.767 125.783 110.039 125.909C110.311 126.035 110.384 126.234 110.185 126.307C109.94 126.359 109.411 125.838 108.965 125.135C108.54 124.387 108.122 123.862 108.035 123.932C106.659 125.829 106.557 126.168 107.417 125.74C108.165 125.315 108.346 125.399 108.614 126.13C108.985 127.349 110.393 127.285 110.982 126.015C111.55 124.791 110.975 124.248 110.082 125.102Z" fill="#EEF4F8"/>
<path fill-rule="evenodd" clip-rule="evenodd" d="M61.1945 64.1544C64.84 66.7215 66.8827 70.6512 65.7514 76.1339L58.5546 113.879C57.549 120.059 51.5779 124.115 45.4496 122.974C39.6671 121.833 35.4245 116.446 36.5559 109.854L40.5471 87.9866L38.0958 89.1276C33.4446 91.1558 28.102 89.1276 25.9964 84.4372C23.9851 79.8419 25.9964 74.3592 30.6476 72.2359L49.1895 63.8058C53.6521 61.5874 57.8633 61.9043 61.1945 64.1544Z" fill="#38A8FA"/>
</svg>
