<svg width="161" height="160" viewBox="0 0 161 160" fill="none" xmlns="http://www.w3.org/2000/svg">
<g id="Frame 2087326932">
<path id="Vector" d="M74.0765 6.44026C71.8795 10.0629 69.4828 15.2956 68.6839 18.1132C65.2885 29.7862 57.4992 44.0755 47.9124 55.7484C42.3201 62.7925 38.725 68.4277 39.9233 68.4277C41.5212 68.4277 41.3214 69.6352 39.5239 71.8491C37.5266 74.0629 37.5266 74.6667 39.3242 73.6604C42.3201 71.8491 42.5198 73.0566 42.7195 94.5912C42.7195 104.252 43.5184 111.899 44.7168 112.101C45.9151 112.503 46.714 105.862 46.5143 94.9937C46.3146 85.3333 46.714 81.1069 47.1135 85.5346C48.3118 97.2076 51.7072 99.4214 51.7072 88.3522C51.7072 81.9119 52.9055 78.4906 55.502 76.0755C57.699 74.2642 59.8959 73.2579 60.4951 73.8616C61.0943 74.6667 61.6935 73.6604 61.6935 72.0503C61.6935 68.8302 76.4732 63.5975 85.6606 63.5975C88.4568 63.5975 91.8521 62.3899 93.2502 60.9811C94.6483 59.5723 96.8453 58.3648 97.8439 58.3648C100.241 58.3648 89.6551 78.8931 86.2598 81.1069C82.465 83.522 77.2721 94.1887 79.6688 94.9937C81.6661 95.5975 72.4787 116.73 70.2817 116.73C69.6825 116.73 69.6825 110.692 70.2817 103.044C71.6798 88.956 70.8809 86.1384 65.2885 83.9245C60.4951 82.1132 59.097 88.1509 60.6949 103.245C61.6935 111.899 61.0943 118.34 59.097 124.176C56.7003 131.019 56.7003 133.434 58.8973 138.667C60.2954 142.088 62.4924 144.906 63.6907 144.906C64.6894 144.906 65.8877 148.327 65.8877 152.352L66.2872 160L67.6853 151.95C68.4842 147.522 69.2831 145.107 69.4828 146.314C69.8822 150.34 73.677 149.333 73.8768 145.308C74.0765 143.094 74.6757 143.497 75.6743 146.918C77.0724 150.943 77.2721 150.138 77.4718 142.289C77.6716 134.239 78.8699 131.421 84.4622 125.182C88.257 121.157 94.0491 116.126 97.045 114.314L102.837 110.893L103.436 120.352C103.636 125.384 104.235 130.013 104.834 130.616C105.633 131.421 106.432 113.711 105.833 109.887C105.633 108.881 106.232 107.472 107.431 106.868C110.626 104.855 106.632 100.025 101.639 99.6226C99.0422 99.4214 94.848 101.434 92.2516 104.252C89.6551 106.868 87.0587 108.679 86.4595 108.277C85.6606 107.472 94.0491 89.5598 98.6428 82.5157C99.6414 80.9057 100.64 78.2893 100.84 76.8805C101.04 75.4717 103.836 70.8428 107.031 66.8176L112.624 59.3711L113.822 73.4591C115.22 90.9686 115.619 90.1635 116.219 68.6289C116.618 55.5472 117.417 51.3208 120.013 49.7107C122.81 47.6981 122.81 47.2956 119.015 44.2767C113.223 39.8491 107.63 37.8365 107.63 40.2516C107.63 41.4591 106.632 42.2642 105.234 42.2642C104.035 42.2642 101.439 43.4717 99.8411 45.0818C96.2461 48.1006 61.294 60.5786 59.8959 59.1698C59.4965 58.7673 61.4938 54.1384 64.4896 48.7044C67.4855 43.4717 71.4801 35.8239 73.2776 31.7988C75.0751 27.5723 77.2721 24.151 78.071 24.151C78.8699 24.151 79.8685 27.5723 80.268 31.5975L81.0669 39.2453L81.2666 30.7924C81.4664 26.1635 82.465 20.1258 83.4636 17.5094C85.8603 11.2704 84.0628 4.02516 80.268 4.02516C78.6702 4.02516 78.071 3.01888 78.6702 2.01259C79.2694 0.805038 79.4691 0 78.8699 0C78.4705 0 76.2735 3.01888 74.0765 6.44026Z" fill="#00A3FF"/>
</g>
</svg>
