<svg width="161" height="160" viewBox="0 0 161 160" fill="none" xmlns="http://www.w3.org/2000/svg">
<g id="Frame 2087326931">
<path id="Vector" d="M84.8928 4.67943C82.0671 10.5069 80.1833 16.1014 76.4158 33.3508L74.532 42.2086L64.4852 36.8473C48.473 28.2226 34.0307 18.6655 24.9258 10.5069C21.1582 7.01044 20.2163 7.01044 14.565 11.6725C8.91365 16.3345 8.59968 17.9662 11.7393 29.8543C13.6231 37.0804 14.8789 56.4278 14.565 72.7448C14.251 97.6866 13.6231 101.882 9.54157 100.717C5.77401 99.7845 5.14608 100.717 7.02987 106.311C8.28572 110.041 10.7974 113.771 12.6812 114.47C14.565 115.402 16.4488 125.192 17.0767 136.614C17.7046 147.803 19.9024 158.293 21.7861 159.691C24.2978 161.323 24.9258 156.661 23.6699 141.509L22.1001 120.764L32.1469 116.335C44.0775 110.973 59.1478 110.507 59.1478 115.402C59.1478 119.598 64.1712 120.064 66.3689 115.868C67.6248 113.537 68.2527 113.537 68.2527 115.868C68.5667 117.5 70.7644 118.899 73.2761 118.899C76.7297 118.899 77.9856 121.696 77.9856 129.388C77.9856 135.216 79.5554 139.878 81.1252 139.878C83.009 139.878 83.6369 136.381 82.3811 131.02C81.1252 124.493 81.7531 121.463 85.5207 119.132C88.3464 117.5 90.5441 116.801 90.5441 117.966C90.5441 119.132 92.1139 118.433 93.6837 116.568C97.7653 111.673 115.975 111.673 125.394 116.801C129.79 119.132 134.499 120.53 135.755 119.598C136.697 118.899 137.639 124.493 137.639 132.419C137.639 150.6 142.976 151.3 144.86 133.351C147.371 112.139 148.313 108.409 151.767 106.544C153.965 105.612 153.651 104.213 151.453 103.048C149.569 102.115 148.627 98.8521 149.255 95.5887C149.883 92.3252 150.511 81.6026 150.825 71.5793C150.825 61.7891 152.395 53.6305 153.965 53.6305C157.732 53.6305 155.848 43.6072 151.767 41.5093C149.883 40.3438 149.883 39.6445 152.395 39.6445C154.593 39.6445 155.848 35.6818 155.848 29.155C155.848 22.6282 154.593 18.6655 152.081 18.6655C145.488 18.6655 134.813 25.6585 136.383 28.9219C137.325 30.7867 134.813 34.0501 130.417 36.3811C126.336 38.9452 122.882 41.2762 122.568 41.9755C120.999 47.3368 117.545 51.0664 115.347 50.134C111.58 48.2692 99.963 18.1993 102.161 15.6352C103.103 14.2366 102.475 14.0034 100.591 14.9359C98.0792 16.1014 96.8234 14.2366 96.8234 9.34145C96.8234 5.37874 95.5675 2.58153 93.9977 3.28082C92.4279 4.21323 90.5441 3.28082 89.6022 1.88222C88.6603 0.0174103 86.7766 1.18292 84.8928 4.67943ZM93.6837 30.3205C93.6837 31.486 93.6837 33.1177 93.6837 33.817C93.6837 34.5163 95.5675 38.7121 98.0792 43.141C100.591 47.5699 101.847 51.2995 100.905 51.2995C99.963 51.2995 100.905 52.9312 103.103 54.7961C105.3 56.894 106.242 58.9919 105.3 59.9243C101.847 62.2553 109.696 67.6166 115.975 67.6166C119.429 67.6166 121.94 65.9849 121.94 63.4208C122.254 61.3229 126.336 55.7285 131.673 51.2995L141.092 43.141L138.894 49.6678C137.953 53.3974 136.383 63.1877 136.069 71.8124C135.755 80.4371 134.185 91.859 132.929 97.2204L130.731 106.777L116.289 103.747C108.44 101.882 101.219 100.484 100.277 100.717C99.3351 100.717 97.7653 100.717 96.8234 100.484C89.9162 98.8521 59.1478 98.8521 59.1478 100.484C59.1478 101.649 55.6942 102.115 51.6127 101.183C47.5311 100.484 43.1357 100.95 42.1938 102.115C41.2519 103.514 37.7983 103.98 34.6586 103.281C29.6352 102.349 29.0073 99.3183 29.3213 73.9103C29.3213 58.2926 30.5771 44.0734 32.1469 42.2086C34.0307 39.8776 34.0307 39.4114 31.519 40.5769C29.0073 41.7424 27.7514 40.1107 27.7514 36.3811V30.5536L38.7402 35.2156C45.0194 38.0128 51.2987 42.2086 53.1825 44.5396C54.7523 47.1037 58.2059 48.9685 60.7176 48.9685C63.2293 48.9685 66.3689 50.3671 67.6248 51.7657C72.6482 57.8264 87.0905 53.6305 86.7766 46.4044C85.8347 36.6142 87.7184 27.9895 90.5441 27.9895C92.4279 27.9895 93.6837 28.9219 93.6837 30.3205Z" fill="#00A3FF"/>
</g>
</svg>
