<svg width="161" height="160" viewBox="0 0 161 160" fill="none" xmlns="http://www.w3.org/2000/svg">
<g id="Frame 2087326932">
<g id="Vector">
<path d="M81.7177 3.31733C79.6733 4.44615 73.5401 4.89768 68.0884 4.22039C62.8639 3.76886 57.6393 3.99462 56.5036 5.12344C55.3678 6.25226 52.6419 7.38108 50.1432 7.60684C47.6445 8.05837 43.1015 10.0902 39.9213 12.3479C36.9683 14.3798 33.1067 16.1859 31.5166 16.1859C29.9265 16.1859 28.5636 16.8632 28.5636 17.7662C28.5636 18.895 23.7933 24.5391 18.1145 30.8605C5.16668 44.6321 3.34945 49.3731 2.44083 68.1115C1.98652 79.6255 2.89514 83.915 6.30246 88.656C9.70977 93.1713 11.0727 99.7185 11.9813 114.167C12.8899 125.456 14.2529 132.906 15.3886 132.228C16.7516 131.325 16.9787 124.101 16.0701 114.619C14.9343 101.299 15.1615 99.2669 17.6602 102.202C20.8403 105.814 31.2894 111.91 38.3312 114.167C41.0571 115.07 42.1928 117.78 42.1928 123.424C42.1928 132.003 41.7385 132.454 35.1511 129.068C31.7437 127.036 30.8351 127.487 30.8351 130.197C30.8351 132.454 29.6993 133.132 28.1093 132.003C26.5192 131.1 26.9735 133.132 29.245 136.518C31.2894 139.679 33.1067 144.194 33.1067 146.452C33.1067 148.709 34.0153 152.096 35.1511 153.676C36.514 155.934 36.9683 153.676 36.0597 147.355C34.9239 139.453 35.3782 137.647 37.8769 138.55C39.6941 139.001 41.2842 142.388 41.7385 145.549C42.6471 152.999 46.0545 153.676 45.8273 146.452C45.6002 142.839 46.9631 141.485 50.1432 141.485C53.5505 141.485 54.9135 143.291 55.3678 148.258C55.8221 151.87 57.185 155.934 58.5479 157.288C60.138 158.869 60.5923 156.611 59.4566 150.064C58.0936 140.582 60.8195 136.744 63.5453 143.968C65.3626 148.483 69.4514 145.774 69.4514 140.13C69.4514 136.744 70.8143 135.615 74.6759 136.292C77.8561 136.744 79.6733 138.55 79.6733 141.259C79.6733 143.742 81.0362 146 82.6263 146.452C84.2164 147.129 85.3522 145.323 85.3522 141.936C85.3522 138.324 86.9422 135.615 89.6681 134.712C96.0284 132.68 101.707 135.841 100.571 140.582C99.89 143.065 100.344 144.42 101.48 143.517C102.616 142.839 103.524 143.517 103.524 144.871C103.524 148.935 108.749 146.226 109.431 141.711C110.793 132.906 112.611 135.841 112.611 146.677C112.611 152.999 113.746 158.869 115.337 159.772C117.154 160.9 117.608 157.966 116.472 148.258C115.564 138.55 115.791 135.841 117.835 137.873C121.697 141.711 123.968 140.807 123.968 135.841C123.968 133.357 125.104 131.325 126.467 131.325C127.603 131.325 128.284 132.228 127.603 133.132C126.921 134.26 127.376 138.098 128.511 141.711L130.329 148.258L130.556 139.904C130.783 135.389 131.919 131.325 133.282 130.874C134.872 130.422 136.689 122.521 137.598 113.264C138.506 101.976 140.778 92.9455 144.412 86.1726C149.637 76.6906 150.091 76.4648 151.454 81.6574C152.817 86.3984 153.044 86.1726 153.271 78.9482C153.498 74.4329 154.407 70.1434 155.77 69.2403C156.906 68.5631 157.36 66.5312 156.451 64.7251C155.77 62.919 156.451 61.3386 157.814 61.3386C159.632 61.3386 159.859 59.984 158.269 57.0491C156.906 54.7915 156.679 52.3081 157.36 51.405C158.042 50.7277 157.133 50.0504 155.089 50.0504C152.817 50.0504 151.227 48.6958 151.227 47.1155C151.227 43.2775 133.055 24.7649 124.877 20.7011C121.243 18.895 117.608 16.4116 116.699 15.057C115.791 13.9282 114.882 13.7025 114.882 14.8313C114.882 15.7343 111.929 13.4767 108.068 9.41295C104.433 5.34921 101.253 2.8658 101.253 3.76886C101.253 4.67191 99.89 4.44615 98.2999 3.09157C94.8926 0.156639 86.9422 0.382403 81.7177 3.31733ZM62.6367 17.0889C62.6367 14.154 73.9944 13.7025 82.6263 16.4116C88.3052 18.2177 89.8952 20.0239 90.1224 24.7649L90.3495 30.8605L92.1668 25.2164C93.0754 22.0557 93.984 20.4754 94.2112 21.6042C94.4383 22.733 96.0284 22.2815 97.8456 20.7011C100.344 18.4435 102.162 18.4435 103.979 20.2496C105.342 21.6042 107.84 22.0557 109.885 21.3784C111.702 20.4754 114.428 21.3784 115.791 23.4103C117.154 25.2164 121.47 28.6029 125.558 30.8605C129.42 33.1181 133.736 37.4077 135.099 40.3426C136.462 43.0518 138.279 45.5352 139.415 45.5352C140.324 45.5352 140.778 49.1474 140.324 53.6626C139.642 59.7583 138.506 61.3386 135.553 60.2098C133.509 59.5325 134.417 60.8871 137.37 63.3705C147.592 71.0465 144.867 81.2058 130.783 88.4303C123.741 92.0425 122.378 92.0425 119.652 89.1076C116.699 85.9469 116.018 85.9469 113.292 89.7849C110.566 93.6228 110.339 93.6228 110.339 89.3333C110.339 86.3984 112.838 83.915 117.154 82.3346C126.467 78.9482 126.467 69.0146 117.381 58.8552C111.702 52.7596 110.112 52.0823 107.159 54.3399C105.115 56.146 104.206 58.1779 104.887 59.3067C105.569 60.4356 104.433 61.3386 102.616 61.3386C100.571 61.3386 98.7543 63.1447 98.7543 65.1766C97.6185 83.6892 97.8456 87.753 100.571 86.8499C102.389 86.1726 103.524 87.753 103.752 90.9137L103.979 96.332L105.796 90.6879C107.613 85.2696 107.613 85.2696 107.84 92.0425C108.068 96.1062 109.431 99.7185 111.475 100.622C113.519 101.299 114.882 104.685 114.882 108.749C114.882 113.264 115.791 115.296 117.381 114.167C118.744 113.49 119.425 110.781 118.744 108.523C118.062 106.04 118.517 104.234 119.88 104.234C123.514 104.234 119.652 120.714 115.337 123.875C109.885 128.39 108.295 127.487 106.705 118.908C105.115 110.329 103.297 109.201 98.9814 114.393C96.937 116.877 96.937 117.78 98.7543 117.78C100.344 117.78 100.799 118.908 99.6629 120.714C98.7543 122.069 97.8456 124.327 97.8456 125.681C97.8456 126.81 95.1198 128.165 91.7125 128.616C86.0336 129.294 85.3522 128.616 85.3522 122.521C85.3522 113.264 81.2634 111.458 80.3548 120.263C79.9004 125.23 78.0832 127.939 74.6759 129.294C69.6785 131.1 69.4514 130.648 69.4514 121.392C69.4514 114.619 68.3156 111.007 66.044 110.104C64.2268 109.426 62.8639 109.652 62.8639 110.555C63.091 111.458 63.091 115.748 62.8639 120.263C62.6367 127.713 61.9553 128.616 56.0492 129.519L49.2346 130.422L50.3704 119.36C50.8247 113.49 51.7333 107.62 52.1876 106.717C52.8691 105.814 50.8247 104.911 47.8717 104.685C44.9187 104.459 41.7385 105.363 40.8299 106.717C39.9213 108.297 37.4226 107.169 33.7881 103.782C30.8351 100.847 27.8821 98.8154 27.2007 99.0412C26.7463 99.4927 26.292 99.2669 26.292 98.5896C26.292 97.9123 24.2476 95.4289 21.5218 92.7198C19.0231 90.2364 17.433 86.6242 18.1145 85.0438C18.7959 83.2377 18.3416 81.6574 16.9787 81.2058C14.2529 80.3028 12.4356 55.0172 15.1615 53.2111C16.2972 52.5338 17.2059 50.2762 17.2059 47.7928C17.2059 43.2775 35.6054 22.9588 40.3756 22.0557C41.9657 21.83 46.5088 20.0239 50.1432 17.992C54.9135 15.5086 57.8665 15.057 59.9109 16.6374C61.2738 17.992 62.6367 18.2177 62.6367 17.0889ZM109.203 70.3692C108.522 71.498 108.749 72.6268 110.112 72.6268C111.248 72.6268 112.838 71.2722 113.519 69.6919C113.974 68.3373 114.201 69.4661 113.746 72.6268C113.519 76.0133 111.929 78.0451 110.112 77.5936C103.979 76.0133 102.616 68.1115 108.295 68.1115C109.658 68.1115 109.885 69.0146 109.203 70.3692ZM135.099 106.943C134.645 116.425 131.919 123.424 128.739 124.101C126.467 124.552 126.013 122.972 127.149 117.554C127.83 113.716 128.511 108.523 128.511 106.266C128.511 103.782 130.102 101.976 131.919 101.976C133.963 101.976 135.326 104.008 135.099 106.943Z" fill="#00A3FF"/>
<path d="M97.3896 35.3755C97.3896 41.4711 97.8439 43.9545 98.2982 40.3423C98.7525 36.9558 98.7525 31.989 98.2982 29.0541C97.8439 26.345 97.3896 29.0541 97.3896 35.3755Z" fill="#00A3FF"/>
<path d="M55.8238 31.5381C39.4687 36.0534 33.3356 42.149 32.1998 55.9206C31.2912 66.5315 41.5131 87.9791 48.3278 89.7852C51.0536 90.4625 53.7795 93.3974 54.2338 95.8808C54.9152 99.7188 55.3695 99.493 55.5967 94.5262C55.8238 87.076 60.3669 88.4306 60.3669 95.8808C60.3669 98.59 61.2756 102.202 62.1842 103.783C63.3199 105.363 64.0014 101.976 64.0014 96.1066C63.7742 89.5594 64.91 85.0442 66.7272 84.5926C68.5445 83.9153 69.4531 86.8503 69.4531 94.9778C69.4531 101.073 70.5889 106.943 71.7246 107.621C73.0876 108.524 73.9962 103.557 74.2233 94.752L74.4505 80.5289L77.6307 89.5594L80.5837 98.59L80.3565 86.8503C80.1294 80.0774 81.2651 73.756 83.0824 71.7241C87.3983 66.3058 84.8996 46.6643 78.7664 40.1172C76.2677 37.408 74.6777 34.2473 75.5863 33.1185C76.722 32.2154 76.0406 31.9897 74.6777 32.8927C73.0876 33.7958 70.3617 33.7958 68.9988 32.8927C65.5915 30.6351 60.3669 30.1836 55.8238 31.5381ZM67.4087 39.8914C71.0432 41.9233 73.5419 44.4067 72.8604 45.5355C71.9518 46.8901 72.4061 47.7931 73.3147 47.7931C76.2677 47.7931 80.8108 61.1132 78.3121 62.6935C77.1763 63.3708 76.722 64.7254 77.4035 65.8542C78.085 66.7573 75.8134 69.2407 72.6333 71.2726C68.3173 74.2075 64.4557 74.659 56.7325 73.5302C44.0118 71.7241 38.333 66.5315 39.6959 58.404C39.923 57.501 40.1502 55.0176 40.6045 52.7599C41.9674 44.4067 47.4191 39.8914 59.9126 36.7307C60.3669 36.5049 63.5471 38.0853 67.4087 39.8914Z" fill="#00A3FF"/>
<path d="M151.911 98.589C151.911 103.556 152.365 105.362 152.819 102.427C153.274 99.7178 153.274 95.6541 152.819 93.3964C152.138 91.3646 151.684 93.6222 151.911 98.589Z" fill="#00A3FF"/>
</g>
</g>
</svg>
