<svg width="160" height="160" viewBox="0 0 160 160" fill="none" xmlns="http://www.w3.org/2000/svg">
<g id="Frame 2087326931">
<path id="Vector" d="M71.7026 2.52316C74.4708 4.3582 74.4708 4.58757 70.5491 4.12881C68.0116 3.89943 63.6286 4.81696 60.8604 6.42261C57.8615 8.02826 55.5547 8.7164 55.5547 8.02826C55.5547 7.34012 53.2479 8.25763 50.249 10.322C47.2501 12.1571 44.0205 13.0746 43.3285 12.1571C42.4057 11.4689 41.7137 12.3865 41.7137 14.4509C41.7137 16.5153 40.7909 18.5797 39.4068 18.5797C32.2556 19.4972 20.9521 25.461 20.4907 28.443C20.4907 29.8192 20.0294 32.113 20.0294 33.4893C19.7987 34.8656 18.4146 37.6181 17.0305 39.2238C13.8009 43.3526 14.2623 48.6283 18.4146 53.6746C20.7214 56.1978 20.7214 57.3447 18.876 57.3447C17.2612 57.3447 16.7998 58.4916 17.4919 59.6385C18.4146 61.0148 17.7225 63.7673 15.8771 65.8317C14.2623 67.8961 14.0316 69.043 15.4157 68.1255C17.0305 67.208 17.9532 69.5018 18.1839 74.3187C18.4146 80.7413 17.4919 82.347 12.8782 83.4939C9.41792 84.4114 7.11108 86.7052 7.11108 89.2284C7.11108 95.4216 9.41792 96.5685 16.3384 92.8984C24.4124 88.7696 25.5658 90.834 25.5658 109.643C25.5658 126.846 27.8726 139.921 30.8715 139.921C32.2556 139.921 32.717 133.269 31.7943 120.883L30.4102 102.074L35.0238 107.808C38.4841 112.166 39.4068 116.524 39.1761 126.158C38.4841 146.802 39.1761 155.978 41.9443 155.978C43.5591 155.978 43.7898 149.096 42.8671 135.334C41.9443 121.341 42.175 114.689 43.7898 114.689C45.1739 114.689 46.3273 115.836 46.3273 116.983C46.3273 118.359 47.2501 119.048 48.1728 118.818C49.0955 118.359 53.9399 120.195 58.5536 122.718C67.5503 127.305 67.7809 128.452 68.0116 148.867C68.2423 154.831 69.3957 159.418 71.2412 159.877C73.3174 160.795 74.0094 156.666 74.0094 144.509C74.0094 130.975 74.7015 128.223 77.4697 129.14C79.3151 130.058 81.3913 129.37 82.314 127.993C83.4674 126.388 82.7754 126.158 80.9299 127.305C78.8538 128.452 78.3924 128.223 79.5458 126.617C80.4686 125.011 86.697 123.865 93.1562 123.865C99.846 123.865 106.536 122.947 108.381 121.8C110.688 120.195 112.764 120.883 114.61 123.406C117.378 126.846 117.378 126.617 116.225 122.03C114.84 116.754 118.993 114.919 120.838 119.736C121.761 121.571 122.222 121.341 122.222 119.048C122.453 116.983 123.837 114.001 125.452 112.625C127.989 110.561 128.681 112.854 129.143 124.553C129.374 132.352 130.758 139.692 131.911 141.068C133.526 142.674 133.987 138.086 133.064 127.305C132.142 113.772 132.372 111.937 134.91 115.378C136.755 117.671 139.524 118.818 141.83 117.901C146.444 116.066 146.675 111.478 142.061 107.808C139.062 105.285 139.062 104.138 143.445 97.2566C154.057 80.0532 156.594 62.391 150.596 45.1876C148.29 38.0769 147.136 32.113 148.29 32.113C149.212 32.113 150.135 30.0486 150.135 27.5255C150.135 22.7085 146.675 21.3322 144.368 25.461C143.445 26.8373 139.985 25.6904 135.141 22.0204C121.761 11.9277 101.691 4.12881 88.5425 4.3582C81.8527 4.3582 75.8549 3.44069 75.1628 2.29379C74.2401 0.917511 72.3946 0 71.0105 0C69.3957 0 69.6264 0.917511 71.7026 2.52316ZM94.771 15.3684C94.771 16.5153 98.6926 17.4328 103.306 17.6622C112.303 18.1209 122.453 22.2497 122.453 25.6904C122.453 26.6079 121.069 27.2961 119.685 26.8373C115.994 26.1492 117.147 34.1774 121.3 38.9944C123.837 41.7469 123.837 43.1232 121.53 46.3345C119.915 48.6283 117.378 50.4633 115.994 50.4633C112.303 50.4633 110.919 56.8859 114.61 58.2622C116.455 58.9504 117.839 61.9323 117.839 64.6848C117.839 67.6667 118.993 71.5662 120.377 73.4012C121.992 75.9244 122.222 74.3187 121.069 68.1255C119.915 61.0148 120.377 58.4916 124.529 54.8215L129.374 50.234L131.45 55.5097C132.603 58.4916 132.834 61.9323 132.372 63.5379C131.45 66.0611 137.217 66.2905 139.754 63.7673C140.446 63.0792 139.524 58.2622 137.909 52.9865C134.449 43.582 135.371 41.2882 140.446 46.3345C143.676 49.5458 144.137 69.2724 140.908 80.0532C138.832 87.6227 130.527 97.7154 128.912 94.5041C127.528 91.5221 114.61 83.4939 103.998 79.1357C95.6937 75.695 88.0811 75.0069 65.4741 75.0069L37.3307 75.2363L35.7159 68.3549C34.7931 63.3085 35.2545 60.7854 37.5614 59.4091C39.8682 58.0328 40.7909 54.3628 40.5602 48.3989C40.0989 41.2882 41.2523 38.0769 45.4046 34.1774C52.0944 27.9842 53.2479 28.9017 54.4013 41.5176C54.8626 47.0227 56.2467 54.1334 57.6308 57.3447C59.4763 61.9323 59.9377 58.9503 59.9377 42.8938C60.1684 31.8837 60.6297 22.9379 61.0911 22.9379C61.5525 22.9379 63.8593 22.2497 65.7048 21.5616C68.473 20.6441 69.165 21.1028 68.0116 23.626C67.3196 25.461 67.7809 27.7548 69.165 28.6724C70.5491 29.3605 71.7026 32.113 71.7026 34.6362C71.7026 37.6181 72.6253 38.765 74.7015 37.6181C76.0856 36.7006 75.1628 38.5356 72.3946 41.7469C69.3957 44.7289 67.0889 48.6283 67.0889 50.0046C67.0889 53.6746 74.0094 53.4453 74.2401 49.7752C74.4708 48.3989 75.3935 49.5458 76.3162 52.7571L78.1617 58.4916L78.3924 52.069C78.6231 48.6283 79.0844 45.8758 79.7765 45.8758C80.4686 45.8758 83.6981 48.6283 86.697 52.069C93.6175 60.3266 96.6164 57.3447 91.7721 47.0227C88.0811 38.9944 88.0811 38.9944 95.2323 30.9661C105.152 19.7266 101.691 16.974 88.7732 26.3786C84.3902 29.5899 83.6981 29.3605 78.6231 23.8554C74.0094 19.0385 73.7787 18.3503 77.239 19.7266C80.4686 20.8735 81.1606 20.6441 80.0072 18.8091C79.0844 17.2034 79.5458 16.0565 80.6992 16.0565C82.0833 16.0565 83.2368 17.4328 83.2368 18.8091C83.2368 20.4147 84.3902 19.956 85.7743 17.6622C88.0811 13.7627 94.771 12.1571 94.771 15.3684ZM107.459 90.6046C120.608 97.2566 126.375 103.22 119.685 103.22C118.07 103.22 113.918 105.056 110.919 107.12C107.689 109.414 103.306 111.249 101.23 111.478C98.9233 111.707 96.8471 111.937 96.6164 112.396C96.1551 112.625 89.9266 113.313 82.7754 114.001C69.165 115.148 53.2479 111.478 53.2479 107.349C53.2479 106.202 51.8638 105.514 50.4796 105.973C46.0967 107.579 37.1 96.3391 37.1 89.9165C37.1 85.0995 48.6342 83.0351 70.7798 83.4939C91.3107 83.7233 95.463 84.6408 107.459 90.6046Z" fill="#00A3FF"/>
</g>
</svg>
