<svg width="24" height="24" viewBox="0 0 24 24" fill="none" xmlns="http://www.w3.org/2000/svg">
<g clip-path="url(#clip0_273_1820)">
<path d="M20.3664 4.57908C18.8129 3.88154 17.1517 3.37459 15.415 3.08594C15.2017 3.45599 14.9526 3.95371 14.7808 4.34965C12.9346 4.08322 11.1055 4.08322 9.29329 4.34965C9.12152 3.95371 8.86669 3.45599 8.65149 3.08594C6.91294 3.37459 5.24989 3.8834 3.69633 4.58277C0.562776 9.12688 -0.286678 13.5581 0.138049 17.9264C2.21638 19.4158 4.23054 20.3206 6.21071 20.9127C6.69962 20.2669 7.13567 19.5805 7.51131 18.8571C6.79588 18.5962 6.11066 18.2743 5.46321 17.9005C5.63497 17.7784 5.80299 17.6507 5.96531 17.5194C9.91433 19.2919 14.205 19.2919 18.1069 17.5194C18.2711 17.6507 18.4391 17.7784 18.609 17.9005C17.9596 18.2761 17.2725 18.5981 16.5571 18.859C16.9327 19.5805 17.3669 20.2688 17.8577 20.9145C19.8398 20.3224 21.8558 19.4177 23.9341 17.9264C24.4325 12.8624 23.0828 8.4719 20.3664 4.57908ZM8.04931 15.24C6.86385 15.24 5.89168 14.1779 5.89168 12.8846C5.89168 11.5913 6.84309 10.5275 8.04931 10.5275C9.25556 10.5275 10.2277 11.5895 10.2069 12.8846C10.2088 14.1779 9.25556 15.24 8.04931 15.24ZM16.0229 15.24C14.8374 15.24 13.8653 14.1779 13.8653 12.8846C13.8653 11.5913 14.8166 10.5275 16.0229 10.5275C17.2291 10.5275 18.2013 11.5895 18.1805 12.8846C18.1805 14.1779 17.2291 15.24 16.0229 15.24Z" fill="#0C0D11"/>
</g>
<defs>
<clipPath id="clip0_273_1820">
<rect width="24" height="24" fill="white"/>
</clipPath>
</defs>
</svg>
