<svg width="24" height="24" viewBox="0 0 24 24" fill="none" xmlns="http://www.w3.org/2000/svg">
<path fill-rule="evenodd" clip-rule="evenodd" d="M21.3763 4.26303C22.4096 4.53396 23.2216 5.32934 23.4982 6.34146C23.998 8.17412 24 12.0001 24 12.0001C24 12.0001 24 15.826 23.4982 17.6587C23.2216 18.6708 22.4096 19.4662 21.3763 19.7371C19.5055 20.2286 12 20.2286 12 20.2286C12 20.2286 4.49456 20.2286 2.62364 19.7371C1.59039 19.4662 0.778399 18.6708 0.501811 17.6587C0 15.826 0 12.0001 0 12.0001C0 12.0001 0 8.17412 0.501811 6.34146C0.778399 5.32934 1.59039 4.53396 2.62364 4.26303C4.49456 3.77148 12 3.77148 12 3.77148C12 3.77148 19.5055 3.77148 21.3763 4.26303ZM15.8328 12.0004L9.5977 15.5263V8.47435L15.8328 12.0004Z" fill="#0C0D11"/>
</svg>
