<svg width="142" height="33" viewBox="0 0 142 33" fill="none" xmlns="http://www.w3.org/2000/svg">
<path d="M67.254 5.3136L57.9235 28.5644C56.925 30.8723 56.1332 32.1812 53.9985 32.1812H46.6305C44.3237 32.1812 43.0154 30.7 42.8776 28.0822L42.3956 16.3018L37.4721 28.4266C36.6458 30.39 35.8195 32.0434 33.857 32.0434H27.4875C24.8708 32.0434 23.3903 30.7345 23.3903 27.6344L23.046 19.1263L25.0085 8.48259C25.8348 3.90133 24.1822 2.11015 23.046 0.628989H28.4515C30.5862 0.628989 31.4125 1.62791 31.5502 4.24578L32.2044 18.5063L38.5739 2.76462C39.2281 1.28346 40.2265 0.628989 42.189 0.628989H46.9404C48.593 0.628989 50.0391 1.62791 50.0391 4.55579L50.6932 18.4718L57.0628 2.9024C57.7169 1.24901 58.8531 0.594543 60.6779 0.594543H65.0849C67.5983 0.594543 68.2525 2.86796 67.254 5.3136Z" fill="#EEF4F8"/>
<path d="M21.4283 7.62158L17.8131 27.1178C17.3311 30.3901 14.198 32.3535 10.9271 31.8713C7.96618 31.2168 5.6938 28.4267 6.34797 24.9822L8.48262 13.684L7.17429 14.3385C4.72976 15.4752 1.94094 14.3385 0.942477 11.8928C-0.19371 9.4472 0.942477 6.6571 3.387 5.52039L13.0618 1.11135C15.3686 -0.0253536 17.4688 0.112429 19.2936 1.28358C21.084 2.55807 22.0824 4.83148 21.4283 7.62158Z" fill="#00A3FF"/>
<path fill-rule="evenodd" clip-rule="evenodd" d="M102.581 31.5268C102.822 31.9402 103.269 32.2158 103.751 32.2158H106.919C108.193 32.2158 109.57 31.9402 110.396 29.4601L112.806 22.3299H124.478C128.61 22.3299 132.053 21.4687 134.738 19.7464C137.458 18.0242 139.455 15.4752 140.695 12.0651L140.867 11.5828C141.108 10.9283 141.28 10.205 141.418 9.44719C141.693 7.65601 141.487 6.07151 140.729 4.69369C140.041 3.28142 138.87 2.2136 137.252 1.49024C135.668 0.697994 133.705 0.319092 131.364 0.319092H107.16C107.332 0.319092 108.572 1.97248 109.088 2.97141C110.259 5.21037 110.534 7.69046 110.121 10.1705C109.983 11.135 109.708 12.0995 109.363 13.064L109.191 13.5462C108.021 16.8874 106.024 19.6087 103.166 21.5721C101.789 22.5365 100.171 22.9154 97.9672 23.4666L102.581 31.5268ZM130.676 11.5484C130.09 13.2018 128.713 14.0285 126.578 14.0285H115.94L118.143 8.48271H128.575C130.366 8.48271 131.192 9.13718 130.985 10.4461C130.951 10.7217 130.882 10.9283 130.848 11.0661L130.676 11.5484Z" fill="#00A3FF"/>
<path d="M96.8311 0.25C99.1723 0.25 101.135 0.628902 102.753 1.42115C104.371 2.2134 105.542 3.31566 106.265 4.72793C106.988 6.1402 107.229 7.7247 106.919 9.55032C106.816 10.2048 106.609 10.9281 106.334 11.7548L106.162 12.2371C105.198 14.8894 103.683 16.9561 101.582 18.3684C99.5166 19.8151 96.7622 20.6763 93.3193 20.9863L96.6934 27.4621C97.8296 29.6321 96.2458 32.2156 93.8013 32.2156H89.291C87.8793 32.2156 86.571 31.4233 85.9168 30.1488L81.3377 21.0896H78.5144L74.4517 30.011C73.8319 31.3544 72.4892 32.25 71.0087 32.25H66.4295C64.1571 32.25 62.5734 29.9766 63.3997 27.841L73.04 2.69564C73.5909 1.21448 75.0025 0.25 76.5863 0.25H96.8311ZM95.3851 11.1693C95.4883 10.8593 95.5572 10.6181 95.5916 10.4804C95.6949 9.82589 95.5228 9.34365 95.0752 9.03364C94.6276 8.68918 93.9734 8.48251 93.0438 8.48251H82.5771L80.3736 14.0283H91.1846C93.2848 14.0283 94.6276 13.236 95.2129 11.6515L95.3851 11.1693Z" fill="#00A3FF"/>
</svg>
