<svg width="24" height="24" viewBox="0 0 24 24" fill="none" xmlns="http://www.w3.org/2000/svg">
<path fill-rule="evenodd" clip-rule="evenodd" d="M2.64207 2.57078C1.09961 4.11324 1.09961 6.59577 1.09961 11.5609V12.4386C1.09961 17.4037 1.09961 19.8862 2.64207 21.4287C4.18453 22.9712 6.66706 22.9712 11.6322 22.9712H12.5099C17.475 22.9712 19.9575 22.9712 21.5 21.4287C23.0425 19.8862 23.0425 17.4037 23.0425 12.4386V11.5609C23.0425 6.59577 23.0425 4.11324 21.5 2.57078C19.9575 1.02832 17.475 1.02832 12.5099 1.02832H11.6322C6.66706 1.02832 4.18453 1.02832 2.64207 2.57078ZM4.80251 7.70265C4.92137 13.4078 7.77389 16.8364 12.775 16.8364H13.0586V13.5724C14.8963 13.7552 16.2858 15.0992 16.8436 16.8364H19.4402C18.7271 14.2398 16.8527 12.8044 15.6824 12.2558C16.8527 11.5792 18.4984 9.93351 18.8916 7.70265H16.5327C16.0207 9.51294 14.5031 11.1587 13.0586 11.3141V7.70265H10.6996V14.0295C9.23675 13.6638 7.38994 11.8901 7.30765 7.70265H4.80251Z" fill="#0C0D11"/>
</svg>
