<svg width="33" height="28" viewBox="0 0 33 28" fill="none" xmlns="http://www.w3.org/2000/svg">
<path fill-rule="evenodd" clip-rule="evenodd" d="M2.45703 12.0141C11.1204 8.23958 16.8975 5.75118 19.7879 4.54892C28.0409 1.1162 29.7559 0.5199 30.8736 0.50021C31.1194 0.495879 31.6692 0.556806 32.0252 0.845722C32.3259 1.08968 32.4086 1.41922 32.4482 1.65053C32.4878 1.88182 32.5371 2.40872 32.4978 2.82043C32.0507 7.51956 30.1155 18.9231 29.1309 24.1862C28.7143 26.4132 27.8941 27.16 27.1 27.233C25.3743 27.3919 24.0638 26.0925 22.3922 24.9968C19.7766 23.2823 18.299 22.2149 15.7601 20.5419C12.8261 18.6084 14.7281 17.5457 16.4003 15.8089C16.8378 15.3543 24.4417 8.43809 24.5889 7.81067C24.6073 7.7322 24.6244 7.4397 24.4506 7.28526C24.2768 7.13081 24.0204 7.18363 23.8353 7.22563C23.573 7.28517 19.3945 10.047 11.3 15.511C10.114 16.3254 9.03971 16.7222 8.07721 16.7014C7.01612 16.6785 4.975 16.1015 3.45765 15.6083C1.59655 15.0033 0.11739 14.6834 0.246191 13.656C0.313279 13.1209 1.05023 12.5735 2.45703 12.0141Z" fill="currentColor"/>
</svg>
