<svg width="26" height="27" viewBox="0 0 26 27" fill="none" xmlns="http://www.w3.org/2000/svg">
<path fill-rule="evenodd" clip-rule="evenodd" d="M1.81744 2.76275C1.10076e-07 4.5802 0 7.50533 0 13.3556V14.3898C0 20.2401 1.10076e-07 23.1651 1.81744 24.9826C3.63487 26.8 6.56003 26.8 12.4103 26.8H13.4445C19.2947 26.8 22.2199 26.8 24.0373 24.9826C25.8546 23.1651 25.8546 20.2401 25.8546 14.3898V13.3556C25.8546 7.50533 25.8546 4.5802 24.0373 2.76275C22.2199 0.945312 19.2947 0.945312 13.4445 0.945312H12.4103C6.56003 0.945312 3.63487 0.945312 1.81744 2.76275ZM4.36302 8.80952C4.50307 15.5317 7.86417 19.5715 13.7569 19.5715H14.0909V15.7256C16.2562 15.9411 17.8935 17.5247 18.5507 19.5715H21.6103C20.77 16.5121 18.5615 14.8207 17.1825 14.1743C18.5615 13.3772 20.5005 11.4381 20.9638 8.80952H18.1843C17.5811 10.9425 15.793 12.8816 14.0909 13.0647V8.80952H11.3114V16.2642C9.58781 15.8334 7.41173 13.7435 7.31477 8.80952H4.36302Z" fill="currentColor"/>
</svg>
