<svg width="54" height="26" viewBox="0 0 54 26" fill="none" xmlns="http://www.w3.org/2000/svg">
<path fill-rule="evenodd" clip-rule="evenodd" d="M18.4246 0.439497C18.4173 0.430842 18.4099 0.422201 18.4026 0.413574V0.439497H18.4246ZM18.4246 0.439497C19.4309 1.62767 20.602 3.09732 19.9971 6.64983L18.4415 15.0513L18.7138 21.7933C18.7656 24.2307 19.9582 25.2809 21.9676 25.2809H27.1011C28.6956 25.2809 29.3957 24.0363 30.0308 22.4934L33.9199 12.9121L34.3347 22.0785C34.3866 24.0881 35.3848 25.3328 37.2645 25.3328H43.0851C44.7314 25.3328 45.4185 24.3215 46.1574 22.5452L53.6244 4.21239C54.4411 2.33244 53.9484 0.45243 51.9261 0.45243H48.2056C46.8315 0.45243 45.8722 0.919213 45.3148 2.24168L40.272 14.5068L39.8053 3.55116C39.7146 1.21741 38.6126 0.439497 37.2774 0.439497H33.4791C31.9624 0.439497 31.0939 1.0359 30.6401 2.17684L25.5973 14.5586L25.1307 3.27888C25.0788 1.16557 24.3529 0.439497 22.6547 0.439497H19.4138H18.4246ZM15.7185 1.17851C17.2223 2.2287 18.0649 3.83637 17.5982 6.07936L14.6296 21.521C14.2147 24.0492 11.7517 25.7088 9.22381 25.242C6.83856 24.7753 5.08849 22.5712 5.55517 19.8744L7.20154 10.9284L6.19038 11.3951C4.27179 12.2249 2.068 11.3951 1.19945 9.47628C0.369788 7.59633 1.19945 5.35335 3.11804 4.48467L10.7665 1.0359C12.6073 0.128315 14.3444 0.257987 15.7185 1.17851Z" fill="currentColor"/>
</svg>
