<svg width="34" height="26" viewBox="0 0 34 26" fill="none" xmlns="http://www.w3.org/2000/svg">
<path d="M28.472 2.48226C26.3648 1.50558 24.1116 0.795773 21.7559 0.391602C21.4666 0.909736 21.1287 1.60664 20.8956 2.16102C18.3915 1.78797 15.9105 1.78797 13.4524 2.16102C13.2194 1.60664 12.8738 0.909736 12.5819 0.391602C10.2238 0.795773 7.96794 1.50819 5.86069 2.48743C1.61034 8.84999 0.458135 15.0545 1.03424 21.171C3.8533 23.2564 6.5853 24.5232 9.27121 25.3522C9.93436 24.4481 10.5258 23.487 11.0353 22.474C10.065 22.1088 9.1355 21.658 8.25729 21.1347C8.49028 20.9637 8.71817 20.7849 8.93835 20.601C14.2948 23.0829 20.1147 23.0829 25.4072 20.601C25.63 20.7849 25.8578 20.9637 26.0882 21.1347C25.2075 21.6606 24.2754 22.1114 23.3051 22.4766C23.8146 23.487 24.4035 24.4507 25.0692 25.3548C27.7577 24.5258 30.4923 23.259 33.3113 21.171C33.9873 14.0804 32.1565 7.93291 28.472 2.48226ZM11.7651 17.4094C10.1572 17.4094 8.83848 15.9224 8.83848 14.1115C8.83848 12.3006 10.129 10.8111 11.7651 10.8111C13.4012 10.8111 14.7198 12.2981 14.6917 14.1115C14.6942 15.9224 13.4012 17.4094 11.7651 17.4094ZM22.5804 17.4094C20.9725 17.4094 19.6539 15.9224 19.6539 14.1115C19.6539 12.3006 20.9443 10.8111 22.5804 10.8111C24.2165 10.8111 25.5352 12.2981 25.507 14.1115C25.507 15.9224 24.2165 17.4094 22.5804 17.4094Z" fill="currentColor"/>
</svg>
