<svg width="24" height="24" viewBox="0 0 24 24" fill="none" xmlns="http://www.w3.org/2000/svg">
<g clip-path="url(#clip0_273_2093)">
<path d="M3.53927 0C2.16452 0 1.66052 0.50775 1.66052 1.87875V18.441C1.66052 18.5977 1.66877 18.7418 1.68077 18.8752C1.71602 19.176 1.71602 19.4692 1.99652 19.797C2.02352 19.836 2.30552 20.043 2.30552 20.043C2.45777 20.1173 2.56277 20.172 2.73452 20.2418L11.0708 23.7337C11.5005 23.9295 11.685 24.012 11.997 24H12.0008C12.3165 24.012 12.501 23.9303 12.9308 23.7337L21.2625 20.2418C21.4388 20.172 21.5393 20.1165 21.6953 20.043C21.6953 20.043 21.9773 19.8277 22.0043 19.797C22.2855 19.4692 22.2855 19.176 22.32 18.8752C22.332 18.7425 22.3403 18.5985 22.3403 18.4455V1.8795C22.3403 0.5085 21.8325 0.00075 20.4615 0.00075L3.53927 0ZM16.8953 3.10875H17.574C18.7073 3.10875 19.2623 3.66 19.2623 4.809V6.68775H17.8875V4.8825C17.8875 4.51575 17.7195 4.34775 17.3633 4.34775H17.1293C16.7625 4.34775 16.5945 4.51575 16.5945 4.8825V10.6943C16.5945 11.061 16.7625 11.229 17.1293 11.229H17.391C17.742 11.229 17.91 11.061 17.91 10.6943V8.616H19.2848V10.761C19.2848 11.9047 18.723 12.468 17.586 12.468H16.8953C15.7545 12.468 15.195 11.901 15.195 10.761V4.81875C15.195 3.675 15.7538 3.10875 16.8953 3.10875ZM4.70702 3.18825H7.82027V4.4655H6.10502V7.0665H7.75802V8.34075H6.10502V11.1135H7.84427V12.3915H4.70702V3.18825ZM8.52302 3.18825H10.719C11.8553 3.18825 12.4178 3.7545 12.4178 4.89825V7.344C12.4178 8.48775 11.8545 9.051 10.719 9.051H9.92627V12.3907H8.52302V3.18825ZM13.0508 3.18825H14.4488V12.3915H13.0508V3.18825ZM9.92177 4.42575V7.81575H10.5C10.8518 7.81575 11.0198 7.64475 11.0198 7.2765V4.96425C11.0198 4.5975 10.8518 4.425 10.5 4.425L9.92177 4.42575ZM6.06602 14.5778H6.27302L6.32027 14.586H6.39527L6.43427 14.598H6.47327L6.50852 14.6093L6.54752 14.6175L6.57827 14.6257L6.64802 14.6415L6.68777 14.6528L6.71477 14.661L6.74552 14.673L6.78452 14.685L6.81152 14.6962L6.85127 14.712L6.88652 14.7277L6.91727 14.7465L6.95252 14.7623L6.97952 14.781L7.01927 14.8013L7.05002 14.82L7.08077 14.8358L7.11152 14.859L7.14377 14.8793L7.17077 14.9025L7.26452 14.9738L7.24052 15.0045L7.21352 15.0315L7.18952 15.0592L7.16252 15.09L7.14377 15.117L7.11977 15.1448L7.09277 15.1718L7.06877 15.2025L7.05002 15.2295L7.02227 15.2618L6.99902 15.2887L6.97202 15.3195L6.94802 15.3472L6.92927 15.378L6.90152 15.405L6.87827 15.4373L6.85127 15.4642L6.82727 15.4913L6.80027 15.4725L6.76952 15.4447L6.73727 15.426L6.67952 15.387L6.64427 15.3668L6.61202 15.348L6.57677 15.3278L6.54977 15.312L6.51902 15.297L6.45602 15.273L6.41702 15.2662L6.38627 15.258L6.35102 15.2498L6.31127 15.2415L6.27227 15.2377H6.23327L6.18752 15.2295H6.11252L6.07352 15.2333H6.03452L5.99552 15.2452L5.96477 15.2535L5.92952 15.2655L5.89427 15.2723L5.86202 15.288L5.82302 15.3038L5.76902 15.3428L5.73677 15.3615L5.70977 15.3855L5.68277 15.4042L5.65502 15.4282L5.63627 15.4552L5.60402 15.4823L5.56502 15.537L5.54627 15.5677L5.53052 15.603L5.51177 15.6307L5.49152 15.666L5.47952 15.7013L5.46452 15.732L5.45252 15.771L5.44877 15.81L5.43752 15.846L5.42927 15.885V15.924L5.42552 15.963V16.053L5.42927 16.092V16.1227L5.43302 16.1618L5.43977 16.197L5.45177 16.2277L5.45552 16.2675L5.46752 16.2983L5.47877 16.3253L5.49452 16.3643L5.51477 16.4032L5.52977 16.431L5.56877 16.4932L5.59277 16.524L5.61152 16.5518L5.64377 16.575L5.66252 16.602L5.68952 16.626L5.75252 16.6733L5.77952 16.6882L5.81027 16.7085L5.84627 16.7243L5.88527 16.7393L5.91227 16.755L5.99027 16.7782L6.02552 16.782L6.06452 16.794L6.10352 16.7977H6.27152L6.31877 16.794H6.35402L6.39377 16.7782L6.43277 16.7745L6.47177 16.7633L6.50252 16.755L6.53777 16.7393L6.56852 16.7243L6.60377 16.7085L6.62777 16.6927L6.65852 16.674V16.326H6.10727V15.768H7.35302V17.0182L7.32602 17.037L7.29902 17.0602L7.27127 17.0805L7.24052 17.1038L7.20977 17.1195L7.18277 17.1435L7.11977 17.1825L7.08077 17.2013L7.01852 17.2402L6.97877 17.256L6.94802 17.271L6.91277 17.2868L6.83477 17.3175L6.80402 17.3333L6.73277 17.3565L6.69752 17.3647L6.66227 17.3768L6.62327 17.3888L6.59252 17.3955L6.47552 17.4195L6.43952 17.4233L6.36152 17.4315L6.31877 17.4352L6.27977 17.4382L6.23702 17.442H6.04202L6.00302 17.4352H5.96402L5.92502 17.427H5.88977L5.85077 17.415L5.73677 17.3918L5.70602 17.3797L5.67077 17.376L5.63177 17.3602L5.56052 17.337L5.49077 17.3063L5.45177 17.2905L5.42477 17.2747L5.38577 17.2598L5.35802 17.2358L5.31902 17.2208L5.29577 17.2005L5.26502 17.1818L5.20202 17.1345L5.17127 17.1143L5.14727 17.091L5.11652 17.067L5.06552 17.0168L5.03852 16.9928L5.01527 16.9657L4.98752 16.938L4.96877 16.9072L4.94477 16.884L4.92602 16.8517L4.90202 16.821L4.88327 16.794L4.86302 16.7633L4.84427 16.7272L4.82852 16.6965L4.81277 16.6613L4.79777 16.6305L4.76702 16.5592L4.75502 16.5322L4.73927 16.497L4.73102 16.4618L4.72427 16.431L4.71602 16.392L4.70402 16.356L4.69577 16.317L4.69202 16.2863L4.68527 16.2472L4.67702 16.1775L4.66877 16.0995V15.8925L4.67702 15.8527V15.8137L4.68902 15.7748V15.7358L4.70027 15.7005L4.71227 15.6615L4.72802 15.5917L4.73927 15.5527L4.75127 15.5175L4.79852 15.4117L4.81352 15.381L4.82927 15.3458L4.84952 15.3097L4.86452 15.279L4.88477 15.252L4.92377 15.189L4.94702 15.1583L4.97102 15.1312L4.98977 15.1005L5.04077 15.0495L5.06402 15.0217L5.09177 14.9948L5.11502 14.9678L5.14727 14.9437L5.20127 14.8965L5.23202 14.8732L5.26427 14.853L5.29127 14.8298L5.32202 14.8095L5.35427 14.7945L5.38952 14.7743L5.42852 14.7555L5.45552 14.7352L5.49452 14.7203L5.52977 14.7045L5.56502 14.6857L5.59727 14.6775L5.63627 14.6655L5.66702 14.6498L5.70227 14.643L5.73752 14.631L5.77652 14.6227L5.80877 14.6108L5.84777 14.6025H5.88677L5.92202 14.5912H5.96102L6.00002 14.583H6.03527L6.06602 14.5778ZM18.0548 14.586H18.2618L18.309 14.5942H18.3833L18.4223 14.6055H18.465L18.504 14.6175L18.5738 14.6332L18.6128 14.6415L18.648 14.6483L18.6878 14.6603L18.723 14.6722L18.7538 14.6805L18.789 14.6918L18.828 14.7037L18.8588 14.7195L18.8978 14.7345L18.9338 14.7502L18.969 14.7705L18.996 14.7855L19.0313 14.8057L19.0665 14.8207L19.0988 14.841L19.134 14.8643L19.161 14.8845L19.224 14.9318L19.2548 14.9505L19.2308 14.9813L19.212 15.0135L19.1888 15.0405L19.1648 15.0712L19.146 15.1065L19.1258 15.1388L19.1025 15.1658L19.0785 15.1965L19.0598 15.2288L19.0358 15.2595L19.017 15.2865L18.993 15.3173L18.9743 15.3533L18.9503 15.384L18.927 15.411L18.903 15.4418L18.8843 15.474L18.8535 15.45L18.8175 15.4313L18.7905 15.411L18.7598 15.3923L18.7245 15.3765L18.6923 15.3563L18.657 15.3412L18.63 15.3255L18.591 15.3105L18.5633 15.2948L18.5325 15.2828L18.4628 15.2595L18.3848 15.2355L18.2678 15.2123L18.2288 15.2085L18.1575 15.2003H18.0758L18.033 15.2085L17.994 15.2167L17.9588 15.225L17.928 15.24L17.9003 15.2557L17.8695 15.2828L17.8463 15.318L17.8305 15.354V15.447L17.8508 15.4897L17.8658 15.5138L17.8898 15.537L17.9288 15.5573L17.9595 15.576L17.9948 15.5917L18.0338 15.6068L18.0848 15.6188L18.1118 15.6307L18.144 15.639L18.183 15.6473L18.2138 15.6585L18.249 15.6667L18.2918 15.6788L18.3308 15.6908L18.3735 15.702L18.4163 15.7103L18.4515 15.7222L18.4943 15.7335L18.5333 15.7418L18.5685 15.75L18.6863 15.7853L18.717 15.7972L18.756 15.8092L18.7913 15.8243L18.8303 15.8445L18.9083 15.8752L18.9435 15.8955L19.0065 15.9345L19.0643 15.9772L19.1003 16.0005L19.1273 16.0275L19.1543 16.0597L19.182 16.0868L19.2008 16.1138L19.2285 16.1528L19.2473 16.1805L19.263 16.2195L19.278 16.2428L19.29 16.2817L19.302 16.314L19.3103 16.3493L19.3253 16.4272L19.329 16.4662L19.3328 16.5015V16.5953L19.329 16.638L19.3208 16.716L19.3125 16.755L19.3013 16.7902L19.293 16.8293L19.281 16.8682L19.2698 16.9035L19.254 16.9313L19.2383 16.9665L19.2195 16.9972L19.1955 17.025L19.1565 17.0872L19.1093 17.142L19.0823 17.1608L19.0515 17.1885L19.0275 17.2118L18.9968 17.235L18.966 17.2507L18.9353 17.2747L18.8993 17.2935L18.8295 17.3288L18.7905 17.3445L18.7553 17.3595L18.7163 17.3715L18.681 17.3835L18.6488 17.3918L18.5708 17.4067L18.5438 17.415L18.5048 17.4233H18.4658L18.4305 17.4315H18.3915L18.3525 17.4398H18.0743L17.9573 17.4277L17.9183 17.4195L17.883 17.4158L17.805 17.4007L17.7623 17.3925L17.727 17.3843L17.688 17.3722L17.6483 17.364L17.613 17.3527L17.574 17.3407L17.535 17.325L17.5043 17.3137L17.4653 17.3018L17.4263 17.286L17.3985 17.271L17.3595 17.259L17.3288 17.2388L17.2898 17.2238L17.259 17.2035L17.2313 17.1847L17.1923 17.1645L17.1653 17.1495L17.1345 17.1255L17.1038 17.1068L17.0715 17.0828L17.0445 17.0595L17.0138 17.0355L16.986 17.0168L16.9553 16.989L16.9793 16.9583L17.0063 16.9313L17.0295 16.9035L17.0573 16.8727L17.076 16.8458L17.1 16.815L17.127 16.7873L17.1503 16.7603L17.178 16.7295L17.1968 16.7017L17.2245 16.6747L17.2478 16.644L17.2718 16.6163L17.2988 16.5855L17.3175 16.5585L17.3453 16.5308L17.3723 16.5L17.3993 16.524L17.4353 16.5472L17.4623 16.5705L17.5013 16.5907L17.5283 16.611L17.5635 16.6343L17.5958 16.6545L17.631 16.6695L17.658 16.6898L17.6933 16.701L17.7323 16.7167L17.7645 16.7325L17.7998 16.7438L17.8305 16.7595L17.8695 16.7715L17.9048 16.7828L17.9438 16.7948L17.9828 16.7985L18.0188 16.8105L18.0578 16.8143H18.1005L18.1358 16.8255H18.3465L18.3818 16.8187L18.4208 16.8105L18.4478 16.8068L18.48 16.7948L18.507 16.7797L18.5423 16.7557L18.5625 16.7288L18.5775 16.698L18.5895 16.662V16.572L18.5738 16.5368L18.555 16.506L18.531 16.4827L18.4958 16.4587L18.4688 16.4475L18.4335 16.4318L18.3945 16.416L18.3518 16.3973L18.324 16.389L18.2933 16.3807L18.2543 16.3688L18.2273 16.362L18.1883 16.35L18.1493 16.3463L18.1095 16.3305L18.0705 16.3267L18.0278 16.3155L17.9925 16.3073L17.9535 16.2952L17.9145 16.287L17.8755 16.2757L17.8403 16.2638L17.8013 16.2555L17.7705 16.2435L17.6993 16.2203L17.6603 16.2045L17.6213 16.1932L17.5433 16.161L17.508 16.1423L17.469 16.122L17.442 16.1033L17.406 16.083L17.379 16.0643L17.3438 16.044L17.2928 15.993L17.2658 15.9697L17.2185 15.915L17.1983 15.888L17.1833 15.861L17.1593 15.825L17.148 15.798L17.112 15.7042L17.1053 15.6652L17.097 15.63V15.5947L17.0888 15.5557V15.396L17.097 15.318L17.1053 15.2858L17.112 15.2505L17.124 15.2197L17.1323 15.1807L17.148 15.1537L17.163 15.114L17.1788 15.0833L17.1938 15.0443L17.214 15.0173L17.241 14.9865L17.2613 14.9542L17.292 14.9272L17.3153 14.9003L17.3393 14.868L17.3745 14.841L17.3985 14.8207L17.4293 14.7975L17.4915 14.7585L17.5268 14.7382L17.598 14.703L17.6288 14.6918L17.664 14.6798L17.703 14.664L17.742 14.6528L17.7698 14.6445L17.805 14.6362L17.8358 14.628L17.871 14.6198L17.91 14.6115L17.988 14.6047L18.024 14.601L18.0548 14.586ZM8.81627 14.613H9.52352L9.55577 14.6842L9.57077 14.715L9.58277 14.754L9.59852 14.7892L9.60977 14.82L9.63002 14.8552L9.65327 14.9265L9.67352 14.9618L9.70427 15.0315L9.71252 15.0623L9.77477 15.2032L9.78677 15.2385L9.80252 15.2708L9.82127 15.306L9.82952 15.3412L9.84977 15.3802L9.85652 15.4155L9.89252 15.4852L9.90752 15.513L9.92327 15.552L9.93527 15.591L9.94652 15.618L9.96677 15.657L9.97877 15.6893L9.99377 15.7283L10.0058 15.7552L10.0215 15.7943L10.0568 15.864L10.068 15.8993L10.0763 15.9352L10.092 15.9705L10.1108 16.0012L10.1265 16.0402L10.1423 16.0755L10.1535 16.1063L10.1858 16.1775L10.197 16.2127L10.2128 16.248L10.2248 16.2833L10.2398 16.314L10.26 16.35L10.275 16.3853L10.2908 16.416L10.299 16.455L10.3298 16.5247L10.3455 16.557L10.3568 16.5922L10.389 16.662L10.4078 16.701L10.416 16.7318L10.4363 16.7715L10.443 16.7985L10.4588 16.8375L10.479 16.8765L10.494 16.9035L10.506 16.9425L10.5218 16.9748L10.533 17.0138L10.5533 17.0408L10.5765 17.1188L10.5923 17.1465L10.6073 17.1855L10.6275 17.2162L10.6433 17.2552L10.65 17.2905L10.662 17.3212L10.6778 17.3565L10.6965 17.3888H9.91577L9.89702 17.3565L9.88502 17.3212L9.86927 17.286L9.85427 17.247L9.84602 17.2162L9.81377 17.1465L9.80252 17.1143L9.77177 17.0445L9.75977 17.0138L9.74402 16.9748L9.72077 16.9035L9.70502 16.8727H8.61902L8.60402 16.908L8.59202 16.9403L8.57627 16.9792L8.56127 17.0145L8.55302 17.0452L8.53727 17.0842L8.52227 17.115L8.51027 17.1502L8.49452 17.1825L8.47952 17.2215L8.46752 17.2485L8.45177 17.2875L8.44052 17.3265L8.42477 17.3542L8.41277 17.3932H7.63952L7.65077 17.3573L7.68302 17.2875L7.69427 17.2485L7.70627 17.2178L7.72652 17.1825L7.74152 17.1473L7.75727 17.115L7.76552 17.0798L7.78052 17.0408L7.80077 17.01L7.81577 16.9748L7.83977 16.9035L7.87502 16.8337L7.88702 16.7985L7.90202 16.7677L7.91402 16.7318L7.96127 16.6268L7.97702 16.5877L7.98827 16.557L8.00027 16.5217L8.02052 16.4895L8.03552 16.4505L8.04752 16.4152L8.05952 16.3845L8.07452 16.3455L8.09477 16.3177L8.10677 16.2787L8.12177 16.248L8.13377 16.2127L8.14952 16.1737L8.16827 16.143L8.18027 16.104L8.19527 16.0763L8.20727 16.0373L8.22302 15.9982L8.23802 15.9713L8.25377 15.9323L8.26577 15.9L8.28077 15.861L8.29277 15.834L8.31302 15.795L8.32802 15.756L8.34377 15.7252L8.35202 15.69L8.36702 15.654L8.38727 15.6188L8.40227 15.588L8.41052 15.549L8.42627 15.5138L8.44202 15.4815L8.47277 15.4117L8.48402 15.381L8.51627 15.303L8.53127 15.2753L8.54702 15.2362L8.55902 15.2055L8.57027 15.1665L8.58602 15.1312L8.60627 15.1005L8.62127 15.0615L8.63327 15.0338L8.64527 14.9948L8.66027 14.964L8.68052 14.9288L8.69252 14.8898L8.70377 14.8575L8.71952 14.8185L8.73452 14.7915L8.75477 14.7525L8.76677 14.7135L8.77802 14.6865L8.79377 14.6475L8.81627 14.613ZM11.0123 14.6332H11.7855L11.8095 14.664L11.8485 14.727L11.8673 14.7623L11.8875 14.7892L11.9063 14.8245L11.9265 14.8552L11.9453 14.8912L11.9655 14.922L11.9843 14.949L12.0045 14.9843L12.0233 15.0165L12.051 15.0472L12.0623 15.078L12.0863 15.1132L12.105 15.1455L12.129 15.1725L12.1448 15.2078L12.1635 15.2385L12.1875 15.2708L12.1988 15.3015L12.2265 15.3368L12.2843 15.4305L12.3 15.4613L12.3233 15.492L12.3435 15.5228L12.3623 15.5588L12.4215 15.6517L12.4403 15.6877L12.4605 15.7185L12.4838 15.6877L12.4995 15.648L12.5228 15.621L12.543 15.5858L12.5618 15.5588L12.5775 15.5198L12.6045 15.492L12.6248 15.4567L12.6405 15.4298L12.6593 15.3975L12.6833 15.3622L12.702 15.3353L12.7223 15.2963L12.741 15.2692L12.765 15.2333L12.78 15.2062L12.8003 15.1672L12.819 15.144L12.8393 15.1117L12.8625 15.0728L12.8828 15.0458L12.8978 15.0105L12.9218 14.9827L12.9405 14.9437L12.9608 14.9205L12.984 14.8898L13.0043 14.8507L13.023 14.823L13.0433 14.7877L13.062 14.7607L13.0823 14.7218L13.1055 14.694L13.1213 14.6588L13.1415 14.6318H13.9268V17.421H13.1918V15.78L13.173 15.8077L13.149 15.8468L13.1303 15.87L13.1063 15.9008L13.0913 15.9398L13.0673 15.9675L13.0485 15.9945L13.0245 16.0335L12.9855 16.0882L12.9623 16.119L12.942 16.158L12.9188 16.1857L12.8985 16.2127L12.8835 16.2518L12.8595 16.2787L12.8408 16.3065L12.8168 16.3455L12.798 16.3725L12.774 16.4032L12.7553 16.4385L12.7395 16.4662L12.7163 16.497L12.696 16.5322L12.6728 16.5592L12.6488 16.5915L12.6338 16.6222L12.6135 16.6575L12.5903 16.6852L12.5663 16.716L12.5513 16.755L12.5235 16.7782L12.5085 16.809L12.4845 16.8488L12.4658 16.8757H12.45L12.4268 16.8405L12.4065 16.8083L12.3878 16.773L12.3675 16.746L12.3443 16.7108L12.324 16.68L12.3008 16.6478L12.2805 16.617L12.2618 16.5817L12.2415 16.5548L12.2145 16.5187L12.1988 16.488L12.1755 16.4528L12.1553 16.4257L12.1365 16.3905L12.1125 16.3582L12.0938 16.3193L12.0698 16.2922L12.051 16.257L12.0308 16.2248L12.012 16.1895L11.988 16.1625L11.9693 16.1273L11.9453 16.0965L11.9303 16.0643L11.9063 16.0335L11.8875 15.9982L11.8635 15.9713L11.8448 15.9352L11.8208 15.9045L11.8058 15.8693L11.778 15.8422L11.763 15.8063L11.739 15.7755V17.4202H11.0168V14.658L11.0123 14.6332ZM14.4803 14.6332H16.68V15.2625H15.2108V15.7118H16.5308V16.3057H15.2108V16.782H16.6988V17.415H14.484V14.6572L14.4803 14.6332ZM9.15977 15.4882L9.14777 15.5235L9.13652 15.5557L9.12077 15.5947L9.10502 15.63L9.09377 15.6652L9.06152 15.735L9.04652 15.774L9.03452 15.8063L9.02252 15.8453L9.00752 15.8722L8.99552 15.9113L8.97977 15.9503L8.96477 15.978L8.95277 16.017L8.93777 16.0477L8.92577 16.0868L8.90552 16.122L8.89727 16.1528L8.88227 16.1917L8.86652 16.2277L8.85452 16.2585L8.83952 16.2975H9.48377L9.46877 16.2585L9.45677 16.2233L9.42602 16.152L9.41402 16.1168L9.39827 16.086L9.38702 16.047L9.37127 16.0118L9.35927 15.9765L9.34427 15.9443L9.33227 15.909L9.31652 15.87L9.30527 15.8392L9.27302 15.7695L9.26627 15.7335L9.25052 15.6982L9.23477 15.6593L9.22352 15.6322L9.19127 15.5543L9.18002 15.519L9.15977 15.4882ZM8.01227 20.7113H16.023L11.934 22.059L8.01227 20.7113Z" fill="currentColor"/>
</g>
<defs>
<clipPath id="clip0_273_2093">
<rect width="24" height="24" fill="white"/>
</clipPath>
</defs>
</svg>
