<svg width="24" height="24" viewBox="0 0 24 24" fill="none" xmlns="http://www.w3.org/2000/svg">
<g clip-path="url(#clip0_287_1874)">
<path d="M12 24C18.6274 24 24 18.6274 24 12C24 5.37258 18.6274 0 12 0C5.37258 0 0 5.37258 0 12C0 18.6274 5.37258 24 12 24Z" fill="#F0F0F0"/>
<path fill-rule="evenodd" clip-rule="evenodd" d="M19.3059 2.48148L19.3067 2.48206V2.48073L19.3059 2.48148ZM19.3059 2.48148C18.0794 1.5391 16.6663 0.827311 15.1307 0.414062V6.65673L19.3059 2.48148ZM0.41333 8.87072C0.826661 7.33538 1.53733 5.92206 2.47999 4.6954L6.656 8.87072H0.41333ZM21.52 4.6954C22.4761 5.93816 23.1783 7.35685 23.5867 8.87072H17.3447L21.52 4.6954ZM0.413509 15.132H6.65533L2.47999 19.3074C1.5388 18.0809 0.826868 16.6678 0.413509 15.132ZM4.69466 21.5207C5.92133 22.4634 7.33466 23.174 8.87 23.5874V17.3447L4.69466 21.5207ZM4.69466 2.48073C5.93742 1.52466 7.35613 0.822438 8.87 0.414062V6.65606L4.69466 2.48073ZM15.13 23.5874C16.6439 23.1791 18.0626 22.4768 19.3053 21.5207L15.13 17.3454V23.5874ZM21.5187 19.3067L17.3433 15.1314H23.5853C23.172 16.6667 22.4613 18.08 21.5187 19.3067Z" fill="#0052B4"/>
<path fill-rule="evenodd" clip-rule="evenodd" d="M23.8987 10.4348H13.5653V0.101509C12.5262 -0.0338362 11.4739 -0.0338362 10.4347 0.101509V10.4348H0.101326C-0.0340194 11.474 -0.0340194 12.5264 0.101326 13.5655H10.4347V23.8988C11.4739 24.0342 12.5262 24.0342 13.5653 23.8988V13.5655H23.8987C24.034 12.5264 24.034 11.474 23.8987 10.4348ZM15.1307 15.1308L20.4853 20.4855L21.1907 19.7148L16.606 15.1302H15.13L15.1307 15.1308ZM3.51466 20.4855L8.86932 15.1308H8.86999V16.6062L4.28532 21.1908L3.51466 20.4855ZM8.86932 8.8695L3.51466 3.51484L2.80932 4.28551L7.39399 8.87016H8.86999L8.86932 8.8695ZM20.4853 3.51484L15.1307 8.8695L15.13 8.87016V7.39416L19.7147 2.80951L20.4853 3.51484Z" fill="#D80027"/>
</g>
<defs>
<clipPath id="clip0_287_1874">
<rect width="24" height="24" fill="white"/>
</clipPath>
</defs>
</svg>
