<svg width="24" height="24" viewBox="0 0 24 24" fill="none" xmlns="http://www.w3.org/2000/svg">
<g clip-path="url(#clip0_273_2094)">
<path d="M13.5765 9.09668C13.5765 7.92368 14.5275 6.97268 15.6998 6.97268C16.872 6.97268 17.823 7.92368 17.823 9.09593C17.823 10.2689 16.8728 11.2192 15.6998 11.2192C15.6998 11.2192 15.6998 11.2192 15.699 11.2192C14.5268 11.2192 13.5765 10.2689 13.5765 9.09668C13.5765 9.09668 13.5758 9.09668 13.5758 9.09593L13.5765 9.09668ZM18.5183 9.10118C18.5183 7.54043 17.253 6.27518 15.6923 6.27518C14.1315 6.27518 12.8663 7.54043 12.8663 9.10118C12.8663 10.6619 14.1315 11.9272 15.6923 11.9272C17.2523 11.9249 18.516 10.6604 18.5183 9.10118ZM7.8203 17.8199L6.43955 17.2484C6.83255 18.0569 7.6478 18.6044 8.59055 18.6044C9.5783 18.6044 10.4265 18.0037 10.788 17.1472L10.794 17.1314C10.9103 16.8599 10.9785 16.5434 10.9785 16.2119C10.9785 14.8942 9.91055 13.8262 8.5928 13.8262C8.28905 13.8262 7.9988 13.8832 7.7318 13.9859L7.7483 13.9807L9.17555 14.5709C9.81455 14.8439 10.2548 15.4679 10.2548 16.1939C10.2548 17.1659 9.46655 17.9542 8.49455 17.9542C8.25155 17.9542 8.02055 17.9047 7.8098 17.8162L7.82105 17.8207L7.8203 17.8199ZM11.9805 0.75293C6.0878 0.75368 1.2548 5.28743 0.777048 11.0564L0.774048 11.0969L6.80255 13.5884C7.30355 13.2419 7.9238 13.0357 8.5928 13.0357C8.59355 13.0357 8.5943 13.0357 8.5943 13.0357C8.65355 13.0357 8.7113 13.0394 8.77055 13.0417L11.4518 9.15968V9.10418C11.454 6.76418 13.3515 4.86818 15.6915 4.86818C18.033 4.86818 19.9313 6.76643 19.9313 9.10793C19.9313 11.4494 18.033 13.3477 15.6915 13.3477H15.5933L11.7728 16.0762C11.7728 16.1249 11.7765 16.1744 11.7765 16.2254C11.7765 16.2262 11.7765 16.2269 11.7765 16.2277C11.7765 17.9842 10.3523 19.4084 8.5958 19.4084C7.06055 19.4084 5.7788 18.3202 5.48105 16.8734L5.4773 16.8532L1.16105 15.0659C2.5418 19.8247 6.8618 23.2447 11.9798 23.2447C18.1905 23.2447 23.2253 18.2099 23.2253 11.9992C23.2253 5.78843 18.1905 0.75368 11.9798 0.75368L11.9805 0.75293Z" fill="currentColor"/>
</g>
<defs>
<clipPath id="clip0_273_2094">
<rect width="24" height="24" fill="white"/>
</clipPath>
</defs>
</svg>
