<svg width="37" height="26" viewBox="0 0 37 26" fill="none" xmlns="http://www.w3.org/2000/svg">
<path d="M15.0982 18.2224V7.52388L24.3631 12.8732L15.0982 18.2224ZM35.7498 4.28961C35.3398 2.75536 34.1315 1.54689 32.5972 1.13683C29.816 0.391602 18.6643 0.391602 18.6643 0.391602C18.6643 0.391602 7.51275 0.391602 4.73162 1.13683C3.19739 1.54689 1.98892 2.75536 1.57887 4.28961C0.833649 7.07073 0.833649 12.8731 0.833649 12.8731C0.833649 12.8731 0.833649 18.6757 1.57887 21.4567C1.98892 22.9909 3.19739 24.1994 4.73162 24.6094C7.51275 25.3548 18.6643 25.3548 18.6643 25.3548C18.6643 25.3548 29.816 25.3548 32.5972 24.6094C34.1315 24.1994 35.3398 22.9909 35.7498 21.4567C36.4952 18.6757 36.4952 12.8731 36.4952 12.8731C36.4952 12.8731 36.4952 7.07073 35.7498 4.28961Z" fill="currentColor"/>
</svg>
