<svg width="65" height="468" viewBox="0 0 65 468" fill="none" xmlns="http://www.w3.org/2000/svg">
<path fill-rule="evenodd" clip-rule="evenodd" d="M9 459.5V404H1V467.5H64.5V459.5H9Z" fill="#D3FF26"/>
<path fill-rule="evenodd" clip-rule="evenodd" d="M28.5381 40.0315H50.8843L52.0761 41.2233V32.8807L42.8397 32.8807L39.2643 29.3053H32.4114L30.6237 31.093H25.8565L22.877 29.6032L22.877 27.2196L23.7709 26.3258V21.2606L24.6647 20.3668V14.1098L30.9217 7.85286H32.7094L33.9012 5.1713L39.8602 5.1713L41.052 3.9795V2.1918L39.8602 1L21.3873 1L16.0242 4.87335L13.6406 4.87335L13.6406 7.25695L10.6611 7.25695V7.85285H6.7877L5 9.64056L5 14.7057L6.7877 16.4934H9.1713V21.2606H10.6611L10.6611 55.8228H7.68155V57.6105H8.87335L10.6611 59.3982L10.6611 70.1245H8.27745L6.48975 71.9121V75.1896L8.27745 76.9773H10.6611V79.3609H13.3426V82.3404H15.7262L15.7262 96.0461H18.1098L18.1098 82.3404H20.4934V76.9773L22.877 74.5937L22.877 52.5454H29.4319L31.2196 50.7577V43.6069L28.5381 40.9253V40.0315ZM22.877 45.3946V50.4597H28.2401L29.4319 49.2679V43.9048L26.7504 41.2233H22.877V42.713H26.4524L28.836 45.0966V47.7782H28.2401L25.8565 45.3946H22.877Z" fill="#D3FF26"/>
<path fill-rule="evenodd" clip-rule="evenodd" d="M28.5381 166.078H50.8843L52.0761 167.27V158.928H42.8397L39.2643 155.352H32.4114L30.6237 157.14H25.8565L22.877 155.65L22.877 153.266L23.7709 152.373V147.307L24.6647 146.414V140.157L30.9217 133.9H32.7094L33.9012 131.218H39.8602L41.052 130.026V128.239L39.8602 127.047H21.3873L16.0242 130.92H13.6406L13.6406 133.304H10.6611V133.9H6.7877L5 135.687L5 140.753L6.7877 142.54H9.1713V147.307H10.6611L10.6611 181.87L7.68155 181.87V183.657H8.87335L10.6611 185.445L10.6611 196.171H8.27745L6.48975 197.959V201.236L8.27745 203.024L10.6611 203.024V205.408H13.3426V208.387H15.7262L15.7262 222.093H18.1098L18.1098 208.387H20.4934V203.024L22.877 200.641L22.877 178.592H29.4319L31.2196 176.805V169.654L28.5381 166.972V166.078ZM22.877 171.441V176.507H28.2401L29.4319 175.315V169.952L26.7504 167.27H22.877V168.76H26.4524L28.836 171.144V173.825H28.2401L25.8565 171.441H22.877Z" fill="#D3FF26"/>
<path fill-rule="evenodd" clip-rule="evenodd" d="M9 459.5V404H1V467.5H64.5V459.5H9Z" stroke="#D3FF26" stroke-width="0.5959"/>
<path fill-rule="evenodd" clip-rule="evenodd" d="M28.5381 40.0315H50.8843L52.0761 41.2233V32.8807L42.8397 32.8807L39.2643 29.3053H32.4114L30.6237 31.093H25.8565L22.877 29.6032L22.877 27.2196L23.7709 26.3258V21.2606L24.6647 20.3668V14.1098L30.9217 7.85286H32.7094L33.9012 5.1713L39.8602 5.1713L41.052 3.9795V2.1918L39.8602 1L21.3873 1L16.0242 4.87335L13.6406 4.87335L13.6406 7.25695L10.6611 7.25695V7.85285H6.7877L5 9.64056L5 14.7057L6.7877 16.4934H9.1713V21.2606H10.6611L10.6611 55.8228H7.68155V57.6105H8.87335L10.6611 59.3982L10.6611 70.1245H8.27745L6.48975 71.9121V75.1896L8.27745 76.9773H10.6611V79.3609H13.3426V82.3404H15.7262L15.7262 96.0461H18.1098L18.1098 82.3404H20.4934V76.9773L22.877 74.5937L22.877 52.5454H29.4319L31.2196 50.7577V43.6069L28.5381 40.9253V40.0315ZM22.877 45.3946V50.4597H28.2401L29.4319 49.2679V43.9048L26.7504 41.2233H22.877V42.713H26.4524L28.836 45.0966V47.7782H28.2401L25.8565 45.3946H22.877Z" stroke="#D3FF26" stroke-width="0.5959"/>
<path fill-rule="evenodd" clip-rule="evenodd" d="M28.5381 166.078H50.8843L52.0761 167.27V158.928H42.8397L39.2643 155.352H32.4114L30.6237 157.14H25.8565L22.877 155.65L22.877 153.266L23.7709 152.373V147.307L24.6647 146.414V140.157L30.9217 133.9H32.7094L33.9012 131.218H39.8602L41.052 130.026V128.239L39.8602 127.047H21.3873L16.0242 130.92H13.6406L13.6406 133.304H10.6611V133.9H6.7877L5 135.687L5 140.753L6.7877 142.54H9.1713V147.307H10.6611L10.6611 181.87L7.68155 181.87V183.657H8.87335L10.6611 185.445L10.6611 196.171H8.27745L6.48975 197.959V201.236L8.27745 203.024L10.6611 203.024V205.408H13.3426V208.387H15.7262L15.7262 222.093H18.1098L18.1098 208.387H20.4934V203.024L22.877 200.641L22.877 178.592H29.4319L31.2196 176.805V169.654L28.5381 166.972V166.078ZM22.877 171.441V176.507H28.2401L29.4319 175.315V169.952L26.7504 167.27H22.877V168.76H26.4524L28.836 171.144V173.825H28.2401L25.8565 171.441H22.877Z" stroke="#D3FF26" stroke-width="0.5959"/>
</svg>
