<svg width="180" height="181" viewBox="0 0 180 181" fill="none" xmlns="http://www.w3.org/2000/svg">
<g id="YouTubeLogo">
<g id="Vector">
<path fill-rule="evenodd" clip-rule="evenodd" d="M150.001 60.1201C148.568 54.7592 144.346 50.5367 138.985 49.1039C129.267 46.5 90.3022 46.5 90.3022 46.5C90.3022 46.5 51.3375 46.5 41.6199 49.1039C36.2591 50.5367 32.0366 54.7592 30.6039 60.1201C28 69.8376 28 90.1117 28 90.1117C28 90.1117 28 110.387 30.6039 120.104C32.0366 125.464 36.2591 129.687 41.6199 131.119C44.2332 131.82 48.9617 132.332 54.4787 132.706C59.8504 133.071 65.9697 133.305 71.612 133.455C81.723 133.724 90.3022 133.724 90.3022 133.724C90.3022 133.724 94.8201 133.724 101.163 133.621C105.253 133.555 109.283 134.657 112.744 136.836Lnan nanL112.744 136.836C114.348 137.845 115.556 139.377 116.131 141.182C117.157 144.405 118.339 148.36 118.339 149.3V169.106L117.978 173.081C117.549 177.8 123.115 180.609 126.656 177.461Lnan nanL126.656 177.461C128.904 175.463 129.006 171.985 126.88 169.858L126.127 169.106L121.925 151.295C121.612 149.969 121.454 148.612 121.454 147.25V142.893C121.454 141.011 122.202 139.207 123.532 137.876Lnan nanL123.532 137.876C124.216 137.192 125.033 136.655 125.933 136.298L138.985 131.119C144.346 129.687 148.568 125.464 150.001 120.104C152.605 110.387 152.605 90.1117 152.605 90.1117C152.605 90.1117 152.605 69.8376 150.001 60.1201ZM77.8419 71.4209V108.803L110.214 90.112L77.8419 71.4209Z" fill="#FF4D26"/>
<path d="M62.2666 139.954C63.4308 136.398 65.1317 134.813 71.612 133.455C65.9697 133.305 59.8504 133.071 54.4787 132.706C57.4568 133.382 57.9429 134.851 57.8505 137.058C57.7729 138.914 56.774 140.61 55.3234 141.771L53.5056 143.225C51.483 144.843 51.2036 147.815 52.8893 149.782Lnan nanL52.8893 149.782C55.3991 152.71 60.1828 151.415 60.8727 147.62L62.2666 139.954Z" fill="#FF4D26"/>
</g>
<g id="Black">
<path id="Vector_2" d="M63.6921 26.6425C63.1228 28.0182 63.8818 28.9195 65.305 28.54C67.0602 28.1131 67.1076 27.9708 66.1114 26.8797C65.1152 25.7412 64.0716 25.6463 63.6921 26.6425Z" fill="#FF4D26"/>
<path id="Vector_3" d="M81.3379 27.3072C81.1956 27.4969 81.3853 28.1136 81.7648 28.588C82.1444 29.0624 82.4764 29.2521 82.4764 28.9201C82.4764 28.6354 82.6187 28.0662 82.7611 27.6392C83.0457 26.8328 81.8123 26.5481 81.3379 27.3072Z" fill="#FF4D26"/>
<path id="Vector_4" d="M88.5011 27.1649C87.7896 27.8765 88.1691 29.2996 89.023 29.1573C89.4499 29.0624 89.8294 28.588 89.8294 28.1137C89.8294 27.1649 89.0704 26.6431 88.5011 27.1649Z" fill="#FF4D26"/>
<path id="Vector_5" d="M22.3279 28.3979C22.6125 29.2518 23.6562 29.3941 23.6562 28.5876C23.6562 28.1607 23.3241 27.8286 22.8972 27.8286C22.4702 27.8286 22.233 28.0658 22.3279 28.3979Z" fill="#FF4D26"/>
<path id="Vector_6" d="M47.8492 28.3037C47.8492 28.5409 48.1813 28.7781 48.5608 28.7781C48.9403 28.7781 49.2724 28.5409 49.2724 28.3037C49.2724 28.0191 48.9403 27.8293 48.5608 27.8293C48.1813 27.8293 47.8492 28.0191 47.8492 28.3037Z" fill="#FF4D26"/>
<path id="Vector_7" d="M68.8176 28.3503C68.9125 28.635 69.1971 28.8247 69.4343 28.8247C69.6715 28.8247 69.9561 28.635 70.051 28.3503C70.1459 28.0657 69.8612 27.8285 69.4343 27.8285C69.0074 27.8285 68.7227 28.0657 68.8176 28.3503Z" fill="#FF4D26"/>
<path id="Vector_8" d="M90.8715 28.4929C90.5868 29.2519 90.9663 29.8212 91.5356 29.4417C92.1048 29.1096 92.0574 27.8288 91.5356 27.8288C91.2984 27.8288 91.0138 28.1134 90.8715 28.4929Z" fill="#FF4D26"/>
<path id="Vector_9" d="M72.6096 28.8722C72.8943 29.7261 73.9379 29.8685 73.9379 29.062C73.9379 28.6351 73.6058 28.303 73.1789 28.303C72.7519 28.303 72.5148 28.5402 72.6096 28.8722Z" fill="#FF4D26"/>
<path id="Vector_10" d="M95.0005 29.3004C94.5261 30.1069 95.6172 31.0082 96.2814 30.344C96.8506 29.7748 96.4711 28.7786 95.7595 28.7786C95.5223 28.7786 95.1903 29.0158 95.0005 29.3004Z" fill="#FF4D26"/>
<path id="Vector_11" d="M49.8419 31.7187C49.9367 32.3354 50.3163 32.8098 50.6958 32.8098C51.0753 32.8098 51.4548 32.3354 51.5496 31.7187C51.692 30.9123 51.4548 30.6751 50.6958 30.6751C49.9367 30.6751 49.6996 30.9123 49.8419 31.7187Z" fill="#FF4D26"/>
<path id="Vector_12" d="M62.0793 31.3865C62.0793 31.8134 62.3165 32.0981 62.6012 32.0032C62.8858 31.9083 63.123 31.6237 63.123 31.3865C63.123 31.1493 62.8858 30.8647 62.6012 30.7698C62.3165 30.6749 62.0793 30.9596 62.0793 31.3865Z" fill="#FF4D26"/>
<path id="Vector_13" d="M25.5536 32.2879C25.5536 32.7148 25.8857 33.0469 26.3126 33.0469C26.7395 33.0469 26.9767 32.8097 26.8819 32.4776C26.5972 31.6237 25.5536 31.4814 25.5536 32.2879Z" fill="#FF4D26"/>
<path id="Vector_14" d="M96.2341 32.3358C96.2341 32.8102 96.5662 33.0474 97.088 32.9525C98.0842 32.7628 97.9894 31.9089 96.9931 31.7191C96.5188 31.6243 96.2341 31.8614 96.2341 32.3358Z" fill="#FF4D26"/>
<path id="Vector_15" d="M91.4422 32.8578C90.9204 33.4745 90.9678 33.6642 91.5371 34.0437C92.4858 34.613 92.7705 34.5655 93.0551 33.8065C93.482 32.7154 92.2012 31.9564 91.4422 32.8578Z" fill="#FF4D26"/>
<path id="Vector_16" d="M13.5475 33.569C12.1717 35.4665 14.1642 37.9333 16.0617 36.7474C17.2951 35.9409 17.3425 33.7113 16.1091 33.0472C14.7809 32.3356 14.3065 32.4305 13.5475 33.569Z" fill="#FF4D26"/>
<path id="Vector_17" d="M84.8047 32.8098C84.6624 32.9047 84.6624 33.806 84.7573 34.7074C84.947 36.1305 85.1368 36.4152 85.9907 36.2728C87.319 36.0831 87.651 34.1381 86.4176 33.6637C85.9432 33.474 85.4214 33.1893 85.2791 32.9522C85.1368 32.715 84.8996 32.6675 84.8047 32.8098Z" fill="#FF4D26"/>
<path id="Vector_18" d="M99.5576 33.7117C99.5576 34.1386 99.8897 34.4707 100.317 34.4707C100.744 34.4707 100.981 34.2335 100.886 33.9014C100.601 33.0476 99.5576 32.9052 99.5576 33.7117Z" fill="#FF4D26"/>
<path id="Vector_19" d="M70.6181 34.7067C70.6181 35.0862 70.1911 35.4183 69.6219 35.4183C68.8154 35.4183 68.6731 35.6555 68.8154 36.8889C68.9577 38.5967 70.286 39.7352 71.0924 38.9287C71.3771 38.6441 71.7091 37.4107 71.804 36.2247C71.9463 34.517 71.804 33.9951 71.2822 33.9951C70.9027 33.9951 70.6181 34.3272 70.6181 34.7067Z" fill="#FF4D26"/>
<path id="Vector_20" d="M42.1548 35.1817C42.1548 35.5612 42.4869 35.8933 42.8664 35.8933C43.2459 35.8933 43.5779 35.5612 43.5779 35.1817C43.5779 34.8022 43.2459 34.4702 42.8664 34.4702C42.4869 34.4702 42.1548 34.8022 42.1548 35.1817Z" fill="#FF4D26"/>
<path id="Vector_21" d="M113.644 34.8022C113.075 35.3241 113.265 35.8933 114.024 35.8933C114.403 35.8933 114.736 35.5612 114.736 35.1817C114.736 34.4227 114.166 34.233 113.644 34.8022Z" fill="#FF4D26"/>
<path id="Vector_22" d="M56.0076 35.7506C56.1025 36.225 56.482 36.6045 56.8615 36.6045C57.241 36.6045 57.6205 36.225 57.7154 35.7506C57.8103 35.1813 57.5731 34.9441 56.8615 34.9441C56.1499 34.9441 55.9127 35.1813 56.0076 35.7506Z" fill="#FF4D26"/>
<path id="Vector_23" d="M39.3093 37.0792C38.8349 37.6011 38.8349 37.9806 39.2144 38.3601C39.926 39.0717 41.3017 38.455 41.112 37.4588C40.9222 36.3677 40.0683 36.1779 39.3093 37.0792Z" fill="#FF4D26"/>
<path id="Vector_24" d="M90.4016 36.6997C89.6901 37.4112 90.0696 38.7395 91.0183 38.7395C91.7299 38.7395 91.9671 38.4074 91.9671 37.5535C91.9671 36.415 91.1132 35.9406 90.4016 36.6997Z" fill="#FF4D26"/>
<path id="Vector_25" d="M74.4127 37.8377C74.4127 38.9762 75.5038 38.8339 75.741 37.6479C75.8359 37.1735 75.5987 36.8415 75.1717 36.8415C74.6973 36.8415 74.4127 37.2684 74.4127 37.8377Z" fill="#FF4D26"/>
<path id="Vector_26" d="M109.52 38.0279C109.52 38.4074 109.852 38.7395 110.231 38.7395C110.611 38.7395 110.943 38.4074 110.943 38.0279C110.943 37.6484 110.611 37.3164 110.231 37.3164C109.852 37.3164 109.52 37.6484 109.52 38.0279Z" fill="#FF4D26"/>
<path id="Vector_27" d="M35.5159 38.5027C35.5159 38.9297 35.7531 39.2143 36.0377 39.1194C36.3223 39.0245 36.5595 38.7399 36.5595 38.5027C36.5595 38.2655 36.3223 37.9809 36.0377 37.886C35.7531 37.7911 35.5159 38.0758 35.5159 38.5027Z" fill="#FF4D26"/>
<path id="Vector_28" d="M49.27 38.7401C49.27 38.9773 48.9379 39.0722 48.5584 38.9299C48.0841 38.7401 47.8469 38.9299 47.8469 39.594C47.8469 40.1633 47.6571 40.7325 47.3725 40.8748C46.6609 41.3018 46.8032 42.0608 47.6097 42.0608C47.9892 42.0608 48.3212 41.871 48.3212 41.5864C48.3212 41.3492 48.6533 41.2543 49.0328 41.3967C49.5072 41.5864 49.7444 41.3967 49.7444 40.6851C49.7444 40.1158 49.9816 39.6889 50.2188 39.6889C50.5034 39.6889 50.6932 39.3568 50.6932 38.9773C50.6932 38.5978 50.3611 38.2657 49.9816 38.2657C49.6021 38.2657 49.27 38.4555 49.27 38.7401Z" fill="#FF4D26"/>
<path id="Vector_29" d="M75.1736 39.9253C74.7467 40.5895 74.0825 41.1113 73.7505 41.1113C72.9915 41.1113 72.3748 42.3921 72.8017 43.0563C73.6082 44.3845 76.0749 42.2024 76.2173 40.0202C76.3121 38.4547 76.1698 38.4073 75.1736 39.9253Z" fill="#FF4D26"/>
<path id="Vector_30" d="M109.234 39.8784C108.854 40.922 109.376 41.4438 110.088 40.7323C110.515 40.3053 110.515 40.0207 110.088 39.5937C109.661 39.1668 109.471 39.2617 109.234 39.8784Z" fill="#FF4D26"/>
<path id="Vector_31" d="M79.5353 39.9728C79.0135 40.4472 79.6776 41.5857 80.4366 41.5857C80.8161 41.5857 81.0533 41.2536 80.9584 40.7792C80.8161 39.9254 80.0097 39.4984 79.5353 39.9728Z" fill="#FF4D26"/>
<path id="Vector_32" d="M35.5159 40.8267C35.5159 41.2536 35.8479 41.5857 36.2749 41.5857C36.7018 41.5857 36.939 41.3485 36.8441 41.0164C36.5595 40.1625 35.5159 40.0202 35.5159 40.8267Z" fill="#FF4D26"/>
<path id="Vector_33" d="M53.0654 41.112C53.0654 42.2505 53.777 42.3928 54.204 41.3018C54.6309 40.2581 54.5835 40.1632 53.777 40.1632C53.3975 40.1632 53.0654 40.5902 53.0654 41.112Z" fill="#FF4D26"/>
<path id="Vector_34" d="M55.7736 40.4472C55.2043 41.0165 55.3941 42.4396 56.0582 42.6768C57.0544 43.0563 57.9083 42.2973 57.7186 41.3011C57.5763 40.3998 56.3429 39.878 55.7736 40.4472Z" fill="#FF4D26"/>
<path id="Vector_35" d="M88.3616 40.6852C87.8872 41.4916 88.9783 42.3929 89.6424 41.7288C90.2117 41.1595 89.8322 40.1633 89.1206 40.1633C88.8834 40.1633 88.5514 40.4005 88.3616 40.6852Z" fill="#FF4D26"/>
<path id="Vector_36" d="M92.1095 40.8744C91.9672 41.3013 91.9672 41.7282 92.1095 41.8706C92.5365 42.2975 93.3904 41.5859 93.3904 40.8269C93.3904 39.9256 92.4891 39.973 92.1095 40.8744Z" fill="#FF4D26"/>
<path id="Vector_37" d="M64.2141 41.1122C64.0243 41.3968 64.0718 41.7763 64.2141 42.0609C64.3564 42.2981 64.1667 42.5353 63.7397 42.5353C63.3128 42.5353 63.0281 42.7725 63.123 43.1046C63.5025 44.1957 64.3564 43.9585 65.068 42.5828C65.6373 41.3968 65.6847 41.1122 65.1154 40.9224C64.7834 40.7801 64.3564 40.875 64.2141 41.1122Z" fill="#FF4D26"/>
<path id="Vector_38" d="M96.9488 41.5857C96.5693 42.2024 97.1386 43.1038 97.7078 42.7717C98.2771 42.3922 98.2771 41.1114 97.7078 41.1114C97.4232 41.1114 97.0911 41.3011 96.9488 41.5857Z" fill="#FF4D26"/>
<path id="Vector_39" d="M58.6636 42.867C57.6199 43.1042 57.5251 44.7171 58.5687 45.0966C59.5649 45.4761 60.1816 45.0491 60.1816 43.958C60.1816 42.9144 59.8021 42.6298 58.6636 42.867Z" fill="#FF4D26"/>
<path id="Vector_40" d="M95.1434 42.8678C94.6215 43.3422 94.7639 43.7217 95.7126 44.8128C96.8037 46.141 98.132 46.1885 98.132 44.9076C98.132 44.3858 97.8474 43.9589 97.4679 43.9589C97.0883 43.9589 96.7088 43.6268 96.5191 43.2473C96.2345 42.4883 95.6652 42.346 95.1434 42.8678Z" fill="#FF4D26"/>
<path id="Vector_41" d="M55.1069 43.7205C54.7748 44.6693 55.2018 45.0962 56.1031 44.7642C56.53 44.5744 56.7198 44.1475 56.5775 43.7205C56.198 42.8192 55.4864 42.8192 55.1069 43.7205Z" fill="#FF4D26"/>
<path id="Vector_42" d="M100.98 43.7203C100.98 44.0998 101.217 44.4319 101.455 44.4319C101.739 44.4319 101.929 44.0998 101.929 43.7203C101.929 43.3408 101.739 43.0087 101.455 43.0087C101.217 43.0087 100.98 43.3408 100.98 43.7203Z" fill="#FF4D26"/>
<path id="Vector_43" d="M30.2957 44.3851C30.2957 44.9544 30.5328 45.3813 30.77 45.3813C31.0547 45.3813 31.2444 45.0967 31.2444 44.7172C31.2444 44.3377 31.0547 43.8633 30.77 43.721C30.5328 43.5787 30.2957 43.8633 30.2957 44.3851Z" fill="#FF4D26"/>
<path id="Vector_44" d="M51.1687 44.1957C51.1687 44.5752 51.4059 44.9072 51.6431 44.9072C51.9277 44.9072 52.1175 44.5752 52.1175 44.1957C52.1175 43.8161 51.9277 43.4841 51.6431 43.4841C51.4059 43.4841 51.1687 43.8161 51.1687 44.1957Z" fill="#FF4D26"/>
<path id="Vector_45" d="M77.1192 44.3372C75.8384 45.7603 76.0755 46.804 77.7359 46.804C79.2065 46.804 79.5385 45.9975 78.8744 44.2423C78.4949 43.2461 78.068 43.2935 77.1192 44.3372Z" fill="#FF4D26"/>
<path id="Vector_46" d="M93.0553 44.1956C92.7232 45.1444 93.1501 45.5713 94.0515 45.2393C94.4784 45.0495 94.6682 44.6226 94.5258 44.1956C94.1463 43.2943 93.4348 43.2943 93.0553 44.1956Z" fill="#FF4D26"/>
<path id="Vector_47" d="M165.116 44.0527C165.353 44.7643 166.444 44.9066 166.491 44.195C166.491 43.9104 166.159 43.6258 165.685 43.5783C165.21 43.436 164.973 43.6258 165.116 44.0527Z" fill="#FF4D26"/>
<path id="Vector_48" d="M86.746 44.9066C86.746 45.4284 86.8883 45.8553 87.1255 45.9028C87.3152 45.9028 87.8371 45.9977 88.264 46.0925C89.4974 46.3297 89.8769 45.3335 88.8807 44.5745C87.5999 43.6732 86.746 43.8155 86.746 44.9066Z" fill="#FF4D26"/>
<path id="Vector_49" d="M37.2695 44.7644C36.7002 45.2862 36.89 45.8555 37.649 45.8555C38.0285 45.8555 38.3606 45.5234 38.3606 45.1439C38.3606 44.3849 37.7913 44.1951 37.2695 44.7644Z" fill="#FF4D26"/>
<path id="Vector_50" d="M100.836 45.6654C100.456 46.0449 100.883 46.804 101.5 46.804C101.737 46.804 101.927 46.4719 101.927 46.0924C101.927 45.3808 101.358 45.1436 100.836 45.6654Z" fill="#FF4D26"/>
<path id="Vector_51" d="M39.7837 46.5675C39.7837 46.947 40.1158 47.2791 40.4953 47.2791C40.8748 47.2791 41.2068 46.947 41.2068 46.5675C41.2068 46.188 40.8748 45.8559 40.4953 45.8559C40.1158 45.8559 39.7837 46.188 39.7837 46.5675Z" fill="#FF4D26"/>
<path id="Vector_52" d="M55.2489 46.188C54.6796 46.7572 54.9642 47.7534 55.6758 47.7534C56.0553 47.7534 56.3874 47.4688 56.3874 47.0893C56.3874 46.2828 55.7233 45.761 55.2489 46.188Z" fill="#FF4D26"/>
<path id="Vector_53" d="M162.177 47.9901C162.177 48.3696 162.461 48.7017 162.841 48.7017C163.22 48.7017 163.6 48.3696 163.79 47.9901C163.979 47.5157 163.742 47.2785 163.125 47.2785C162.604 47.2785 162.177 47.6106 162.177 47.9901Z" fill="#FF4D26"/>
<path id="Vector_54" d="M143.201 48.3228C142.631 48.7023 142.679 48.7498 143.438 48.5126C144.339 48.228 144.339 48.2754 143.58 48.8447C142.726 49.5562 142.916 50.1255 144.007 50.1255C144.671 50.1255 144.861 48.4177 144.244 48.0382C144.055 47.9433 143.58 48.0382 143.201 48.3228Z" fill="#FF4D26"/>
<path id="Vector_55" d="M153.163 48.4649C152.404 49.4137 152.926 50.5996 154.064 50.5996C155.203 50.5996 155.63 49.9829 155.25 49.0341C154.871 47.9905 153.78 47.7059 153.163 48.4649Z" fill="#FF4D26"/>
<path id="Vector_56" d="M160.132 48.0851C159.516 48.7018 159.8 49.0813 160.749 48.8441C161.271 48.7018 161.698 48.4172 161.698 48.18C161.698 47.7056 160.559 47.6107 160.132 48.0851Z" fill="#FF4D26"/>
<path id="Vector_57" d="M149.747 49.5551C149.082 49.6974 148.94 50.1718 149.035 51.927C149.13 53.9669 149.225 54.1566 150.458 54.2989C151.881 54.4887 151.976 54.2989 151.217 52.9232C150.838 52.1642 150.885 51.8321 151.407 51.4052C152.024 50.8834 152.024 50.7411 151.359 50.0769C150.885 49.6974 150.173 49.4128 149.747 49.5551Z" fill="#FF4D26"/>
<path id="Vector_58" d="M23.1786 53.4455C23.1786 54.0622 23.4158 54.3943 23.7953 54.252C24.0799 54.1571 24.3645 53.7776 24.3645 53.4455C24.3645 53.1135 24.0799 52.7339 23.7953 52.5916C23.4158 52.4968 23.1786 52.8288 23.1786 53.4455Z" fill="#FF4D26"/>
<path id="Vector_59" d="M153.969 53.2556C153.305 53.9197 153.637 54.9159 154.491 54.7736C154.918 54.6788 155.297 54.2992 155.297 53.9672C155.297 53.2082 154.443 52.7812 153.969 53.2556Z" fill="#FF4D26"/>
<path id="Vector_60" d="M32.2877 56.3396C32.3826 56.6242 32.6672 56.814 32.9044 56.814C33.1416 56.814 33.4262 56.6242 33.5211 56.3396C33.616 56.055 33.3313 55.8178 32.9044 55.8178C32.4774 55.8178 32.1928 56.055 32.2877 56.3396Z" fill="#FF4D26"/>
<path id="Vector_61" d="M150.313 56.814C150.313 57.9999 151.879 57.8576 152.116 56.6242C152.211 56.055 151.974 55.8178 151.31 55.8178C150.598 55.8178 150.313 56.1024 150.313 56.814Z" fill="#FF4D26"/>
<path id="Vector_62" d="M154.111 56.5283C154.111 56.9553 154.348 57.2399 154.633 57.145C154.918 57.0502 155.155 56.7655 155.155 56.5283C155.155 56.2912 154.918 56.0065 154.633 55.9117C154.348 55.8168 154.111 56.1014 154.111 56.5283Z" fill="#FF4D26"/>
<path id="Vector_63" d="M156.721 56.3395C156.531 56.6241 156.483 56.9562 156.626 57.0985C156.958 57.4305 157.907 56.8138 157.907 56.2446C157.907 55.6753 157.1 55.6753 156.721 56.3395Z" fill="#FF4D26"/>
<path id="Vector_64" d="M19.9529 57.3354C20.2375 58.1893 21.2812 58.3316 21.2812 57.5251C21.2812 57.0982 20.9491 56.7661 20.5222 56.7661C20.0952 56.7661 19.858 57.0033 19.9529 57.3354Z" fill="#FF4D26"/>
<path id="Vector_65" d="M166.444 57.9522C166.444 58.7112 167.203 58.9009 167.583 58.2368C167.725 57.9996 167.536 57.715 167.156 57.5252C166.729 57.3829 166.444 57.5252 166.444 57.9522Z" fill="#FF4D26"/>
<path id="Vector_66" d="M22.8966 58.3794C22.5171 59.423 23.039 59.9448 23.7505 59.2332C24.1775 58.8063 24.1775 58.5217 23.7505 58.0947C23.3236 57.6678 23.1338 57.7627 22.8966 58.3794Z" fill="#FF4D26"/>
<path id="Vector_67" d="M31.2923 58.9482C30.4858 59.8496 30.7704 60.1342 32.0987 59.7547C32.668 59.6124 33.1423 59.1854 33.1423 58.8534C33.1423 57.9995 32.0987 58.0469 31.2923 58.9482Z" fill="#FF4D26"/>
<path id="Vector_68" d="M18.5318 59.233C17.5356 60.2293 17.8677 61.4627 19.2908 61.7947C20.0024 61.9845 20.7614 62.364 20.9512 62.6486C21.1883 62.9332 21.1883 62.3165 21.046 61.2729C20.6191 58.8535 19.6703 58.0945 18.5318 59.233Z" fill="#FF4D26"/>
<path id="Vector_69" d="M154.871 60.3712C154.539 61.2725 154.966 62.1264 155.583 61.7469C155.82 61.5571 156.01 61.7943 156.01 62.1738C156.01 62.6008 156.437 62.9329 156.959 62.9329C158.24 62.9329 158.145 61.9841 156.769 60.6558C155.441 59.4224 155.251 59.375 154.871 60.3712Z" fill="#FF4D26"/>
<path id="Vector_70" d="M157.905 60.7987C157.905 61.1782 158.095 61.5103 158.332 61.5103C158.569 61.5103 158.996 61.1782 159.328 60.7987C159.802 60.182 159.755 60.0871 158.901 60.0871C158.332 60.0871 157.905 60.3717 157.905 60.7987Z" fill="#FF4D26"/>
<path id="Vector_71" d="M13.2162 61.273C13.2162 61.6526 13.5483 61.9846 13.9278 61.9846C14.3073 61.9846 14.6393 61.6526 14.6393 61.273C14.6393 60.8935 14.3073 60.5615 13.9278 60.5615C13.5483 60.5615 13.2162 60.8935 13.2162 61.273Z" fill="#FF4D26"/>
<path id="Vector_72" d="M29.0151 61.1306C29.11 61.4627 29.4895 61.7473 29.8216 61.7473C30.1536 61.7473 30.5331 61.4627 30.6755 61.1306C30.7703 60.7985 30.4383 60.5614 29.8216 60.5614C29.2049 60.5614 28.8728 60.7985 29.0151 61.1306Z" fill="#FF4D26"/>
<path id="Vector_73" d="M167.393 61.273C167.393 61.6526 167.725 61.9846 168.105 61.9846C168.484 61.9846 168.816 61.6526 168.816 61.273C168.816 60.8935 168.484 60.5615 168.105 60.5615C167.725 60.5615 167.393 60.8935 167.393 61.273Z" fill="#FF4D26"/>
<path id="Vector_74" d="M24.2263 62.032C24.3212 62.3166 24.6058 62.5063 24.843 62.5063C25.0802 62.5063 25.3648 62.3166 25.4597 62.032C25.5546 61.7473 25.2699 61.5101 24.843 61.5101C24.416 61.5101 24.1314 61.7473 24.2263 62.032Z" fill="#FF4D26"/>
<path id="Vector_75" d="M152.782 62.5536C153.067 63.4075 154.111 63.5498 154.111 62.7434C154.111 62.3164 153.778 61.9844 153.352 61.9844C152.925 61.9844 152.687 62.2216 152.782 62.5536Z" fill="#FF4D26"/>
<path id="Vector_76" d="M170 62.4115C169.857 62.6487 169.952 62.9807 170.237 63.1705C170.806 63.5026 171.66 63.0756 171.66 62.4115C171.66 61.8422 170.379 61.8422 170 62.4115Z" fill="#FF4D26"/>
<path id="Vector_77" d="M20.8075 64.3564C20.8075 64.9731 21.0447 65.3052 21.4242 65.1629C21.7088 65.068 21.9935 64.6885 21.9935 64.3564C21.9935 64.0243 21.7088 63.6448 21.4242 63.5025C21.0447 63.4076 20.8075 63.7397 20.8075 64.3564Z" fill="#FF4D26"/>
<path id="Vector_78" d="M155.392 63.6923C154.776 64.309 155.06 64.8308 156.056 64.8308C156.578 64.8308 156.958 64.5936 156.863 64.2616C156.626 63.5974 155.819 63.2653 155.392 63.6923Z" fill="#FF4D26"/>
<path id="Vector_79" d="M27.5439 64.2143C26.1207 64.4989 26.4528 65.4951 28.0657 65.6849C29.1093 65.8272 29.3465 65.6374 29.3465 64.8784C29.3465 64.3092 29.2042 63.9297 29.0145 63.9297C28.7773 63.9771 28.1606 64.1194 27.5439 64.2143Z" fill="#FF4D26"/>
<path id="Vector_80" d="M8 65.02C8 65.447 8.33207 65.7791 8.75901 65.7791C9.56547 65.7791 9.42315 64.7354 8.56926 64.4508C8.23719 64.3559 8 64.5931 8 65.02Z" fill="#FF4D26"/>
<path id="Vector_81" d="M158.854 64.8307C158.237 65.2576 158.237 65.3525 158.854 65.7794C159.281 66.0641 159.708 66.0641 159.992 65.7794C160.704 65.0679 159.708 64.3089 158.854 64.8307Z" fill="#FF4D26"/>
<path id="Vector_82" d="M153.449 65.1633C152.927 65.6851 153.164 66.2544 153.876 66.2544C154.255 66.2544 154.587 66.0646 154.587 65.8274C154.587 65.2108 153.828 64.7838 153.449 65.1633Z" fill="#FF4D26"/>
<path id="Vector_83" d="M165.97 65.9693C165.97 66.3488 166.208 66.8232 166.445 66.9655C167.061 67.345 168.437 66.3014 168.058 65.7321C167.631 65.0205 165.97 65.2577 165.97 65.9693Z" fill="#FF4D26"/>
<path id="Vector_84" d="M11.985 66.3006C11.6055 66.9648 12.5068 67.8661 13.1709 67.4866C13.4556 67.2968 13.6927 66.8225 13.6927 66.443C13.6927 65.6839 12.4593 65.5416 11.985 66.3006Z" fill="#FF4D26"/>
<path id="Vector_85" d="M21.2817 66.2541C21.2817 66.4913 21.7087 66.7285 22.2779 66.7285C22.7998 66.7285 23.0844 66.4913 22.9421 66.2541C22.7998 65.9695 22.3254 65.7797 21.9459 65.7797C21.5664 65.7797 21.2817 65.9695 21.2817 66.2541Z" fill="#FF4D26"/>
<path id="Vector_86" d="M28.6854 66.9183C27.6892 68.4837 27.7366 69.3851 28.8752 70.6185C29.7765 71.5672 29.9188 71.6147 30.5829 70.9031C31.1048 70.4287 31.1996 69.9069 30.9625 69.4799C30.7253 69.1479 30.5355 68.2465 30.5355 67.4875C30.5355 65.6849 29.6816 65.4477 28.6854 66.9183Z" fill="#FF4D26"/>
<path id="Vector_87" d="M162.315 66.1108C161.983 66.2056 161.698 66.7749 161.698 67.2967C161.698 67.9609 161.983 68.1981 162.79 68.0557C163.454 67.9609 163.833 67.5814 163.833 67.0121C163.833 66.0159 163.264 65.6838 162.315 66.1108Z" fill="#FF4D26"/>
<path id="Vector_88" d="M170.712 67.2026C170.712 67.4398 171.139 67.677 171.614 67.677C172.135 67.677 172.705 67.4398 172.847 67.2026C173.037 66.918 172.61 66.7282 171.946 66.7282C171.282 66.7282 170.712 66.918 170.712 67.2026Z" fill="#FF4D26"/>
<path id="Vector_89" d="M154.535 68.3889C154.156 69.9544 154.488 70.7608 155.484 70.9031C156.386 71.0455 156.528 70.9031 156.291 70.2864C156.148 69.8595 156.006 69.3377 156.006 69.1005C156.006 68.721 154.63 68.0094 154.535 68.3889Z" fill="#FF4D26"/>
<path id="Vector_90" d="M158.379 68.8634C158.379 69.3378 158.711 69.575 159.233 69.4801C160.229 69.2904 160.134 68.4365 159.138 68.2467C158.664 68.1518 158.379 68.389 158.379 68.8634Z" fill="#FF4D26"/>
<path id="Vector_91" d="M171.33 68.9107C170.903 70.0018 171.946 70.8083 172.848 70.0492C173.417 69.5749 173.464 69.2902 173.037 68.8159C172.326 67.962 171.709 67.962 171.33 68.9107Z" fill="#FF4D26"/>
<path id="Vector_92" d="M163.741 71.7568C163.409 72.7056 163.931 73.18 165.876 73.512C167.583 73.8441 167.583 73.8916 166.919 72.2312C166.398 70.8081 164.215 70.476 163.741 71.7568Z" fill="#FF4D26"/>
<path id="Vector_93" d="M14.6429 71.8046C14.6429 72.4687 15.5443 73.6072 15.8289 73.3226C16.2084 72.9431 15.5917 71.4725 15.0699 71.4725C14.8327 71.4725 14.6429 71.6148 14.6429 71.8046Z" fill="#FF4D26"/>
<path id="Vector_94" d="M22.087 73.7019C21.5177 74.2237 21.7075 74.793 22.4665 74.793C22.846 74.793 23.1781 74.4609 23.1781 74.0814C23.1781 73.3224 22.6088 73.1326 22.087 73.7019Z" fill="#FF4D26"/>
<path id="Vector_95" d="M171.329 76.3113C171.424 76.6433 171.899 76.928 172.373 76.928C172.847 76.928 173.322 76.6433 173.464 76.3113C173.559 75.9792 173.18 75.742 172.373 75.742C171.567 75.742 171.187 75.9792 171.329 76.3113Z" fill="#FF4D26"/>
<path id="Vector_96" d="M153.163 76.9276C153.163 77.3071 153.495 77.6392 153.874 77.6392C154.254 77.6392 154.586 77.3071 154.586 76.9276C154.586 76.5481 154.254 76.216 153.874 76.216C153.495 76.216 153.163 76.5481 153.163 76.9276Z" fill="#FF4D26"/>
<path id="Vector_97" d="M158.618 77.1171C158.239 77.8286 158.761 78.5876 159.614 78.5876C160.041 78.5876 160.279 78.2556 160.184 77.7812C159.994 76.8324 159.045 76.4529 158.618 77.1171Z" fill="#FF4D26"/>
<path id="Vector_98" d="M29.8214 77.8761C29.8214 78.2556 30.1535 78.5876 30.533 78.5876C30.9125 78.5876 31.2446 78.2556 31.2446 77.8761C31.2446 77.4966 30.9125 77.1645 30.533 77.1645C30.1535 77.1645 29.8214 77.4966 29.8214 77.8761Z" fill="#FF4D26"/>
<path id="Vector_99" d="M26.502 78.3508C26.502 78.7303 26.7866 79.0623 27.1661 79.0623C27.5456 79.0623 27.9251 79.2521 28.02 79.4893C28.2572 80.1534 30.4393 80.3432 30.6291 79.679C30.724 79.3944 30.1547 79.0149 29.3957 78.8251C28.5892 78.6354 27.9251 78.3033 27.9251 78.0661C27.9251 77.8289 27.593 77.6392 27.2135 77.6392C26.834 77.6392 26.502 77.9712 26.502 78.3508Z" fill="#FF4D26"/>
<path id="Vector_100" d="M153.163 79.9632C153.163 81.1966 153.353 81.4338 154.254 81.4338C154.823 81.4338 155.582 81.0069 155.914 80.4376C156.673 79.2517 156.626 79.1568 154.681 78.7773C153.21 78.4927 153.163 78.5401 153.163 79.9632Z" fill="#FF4D26"/>
<path id="Vector_101" d="M14.2136 79.679C13.7866 80.2008 13.8341 80.4855 14.4033 80.9599C14.9726 81.4342 15.1623 81.3868 15.3995 80.7227C15.8265 79.6316 14.9251 78.8251 14.2136 79.679Z" fill="#FF4D26"/>
<path id="Vector_102" d="M20.3334 81.2912C20.3334 82.0502 21.0924 82.7618 22.136 83.0939C23.0848 83.3785 23.2271 83.2836 23.0848 82.5246C22.9899 82.0502 22.563 81.7182 22.0886 81.7182C21.6616 81.7656 21.2821 81.6233 21.2821 81.3861C21.2821 81.1489 21.0924 80.9591 20.8078 80.9591C20.5706 80.9591 20.3334 81.1015 20.3334 81.2912Z" fill="#FF4D26"/>
<path id="Vector_103" d="M160.04 81.9081C159.85 82.1927 159.518 82.2876 159.281 82.1453C158.664 81.7183 156.53 83.4261 156.482 84.3274C156.482 84.7544 156.767 85.2288 157.146 85.3711C157.905 85.6557 158.854 84.8493 158.854 83.9479C158.854 83.6159 159.044 83.3312 159.234 83.3312C160.087 83.3312 161.368 82.0504 160.847 81.7183C160.562 81.576 160.23 81.6234 160.04 81.9081Z" fill="#FF4D26"/>
<path id="Vector_104" d="M162.082 82.4302C160.943 83.0469 160.991 83.8059 162.177 83.8059C162.793 83.8059 163.125 83.4738 163.125 82.8571C163.125 81.7661 163.173 81.7661 162.082 82.4302Z" fill="#FF4D26"/>
<path id="Vector_105" d="M14.8799 82.8578C14.5004 83.4745 15.4966 84.7554 16.3505 84.7554C17.0621 84.7554 17.157 84.281 16.73 83.1425C16.3979 82.2886 15.3069 82.1463 14.8799 82.8578Z" fill="#FF4D26"/>
<path id="Vector_106" d="M28.9684 84.4697C29.0158 84.9441 29.3479 85.2761 29.5851 85.2761C30.2966 85.2287 30.1543 84.1376 29.4427 83.9004C29.0158 83.7581 28.826 83.9953 28.9684 84.4697Z" fill="#FF4D26"/>
<path id="Vector_107" d="M170.524 84.6128C170.002 85.1346 170.239 85.7039 170.951 85.7039C171.331 85.7039 171.663 85.5141 171.663 85.2769C171.663 84.6602 170.904 84.2333 170.524 84.6128Z" fill="#FF4D26"/>
<path id="Vector_108" d="M19.4821 85.7987C19.5769 86.368 20.0039 86.9373 20.4783 87.0321C21.1424 87.1745 21.3322 86.9847 21.1898 86.0834C21.095 85.5141 20.668 84.9449 20.1936 84.85C19.5295 84.7077 19.3397 84.8974 19.4821 85.7987Z" fill="#FF4D26"/>
<path id="Vector_109" d="M160.992 87.1271C160.328 87.8387 160.375 87.981 161.134 88.6926C162.368 89.8311 164.123 89.7362 164.408 88.5503C164.55 88.0284 164.977 87.6015 165.309 87.6015C165.688 87.6015 165.973 87.3169 165.973 86.9374C165.973 85.9411 161.941 86.0835 160.992 87.1271Z" fill="#FF4D26"/>
<path id="Vector_110" d="M27.07 87.2214C27.3546 88.0753 28.3982 88.2176 28.3982 87.4111C28.3982 86.9842 28.0662 86.6521 27.6392 86.6521C27.2123 86.6521 26.9751 86.8893 27.07 87.2214Z" fill="#FF4D26"/>
<path id="Vector_111" d="M170.81 89.1193C171.095 89.9732 172.138 90.1155 172.138 89.3091C172.138 88.8821 171.806 88.5501 171.379 88.5501C170.952 88.5501 170.715 88.7872 170.81 89.1193Z" fill="#FF4D26"/>
<path id="Vector_112" d="M26.2649 89.9728C25.8854 90.5895 26.8816 91.8704 27.7355 91.8704C28.542 91.8704 28.542 91.6332 27.9253 90.3998C27.356 89.4036 26.7393 89.2138 26.2649 89.9728Z" fill="#FF4D26"/>
<path id="Vector_113" d="M24.2233 90.4C24.4131 91.0167 25.0772 91.159 25.1247 90.5897C25.1247 90.4 24.8875 90.1628 24.6029 90.0205C24.2708 89.9256 24.081 90.1154 24.2233 90.4Z" fill="#FF4D26"/>
<path id="Vector_114" d="M171.331 92.0607C171.473 92.3927 171.331 92.962 171.046 93.2466C170.334 93.9582 171.758 95.4288 172.801 95.0493C173.845 94.6223 173.75 93.1992 172.611 92.203C171.473 91.2068 170.998 91.1593 171.331 92.0607Z" fill="#FF4D26"/>
<path id="Vector_115" d="M157.428 92.772C157.428 93.0567 157.143 93.1516 156.764 93.0092C155.862 92.6772 155.293 93.7208 156.005 94.3849C156.479 94.8119 156.669 94.8119 156.811 94.3375C156.953 94.0529 157.475 93.7683 157.997 93.7683C158.519 93.7683 158.851 93.5311 158.756 93.199C158.519 92.4874 157.428 92.1079 157.428 92.772Z" fill="#FF4D26"/>
<path id="Vector_116" d="M26.502 94.29C26.502 95.4286 27.593 95.2863 27.8302 94.1003C27.9251 93.6259 27.6879 93.2938 27.261 93.2938C26.7866 93.2938 26.502 93.7208 26.502 94.29Z" fill="#FF4D26"/>
<path id="Vector_117" d="M21.2817 94.4798C21.2817 94.9067 21.5189 95.1913 21.8036 95.0965C22.0882 95.0016 22.3254 94.717 22.3254 94.4798C22.3254 94.2426 22.0882 93.9579 21.8036 93.8631C21.5189 93.7682 21.2817 94.0528 21.2817 94.4798Z" fill="#FF4D26"/>
<path id="Vector_118" d="M25.3149 95.1907C25.1251 95.4754 25.1726 95.9497 25.4572 96.2344C25.7418 96.519 26.0265 96.519 26.2637 96.1395C26.4534 95.8549 26.406 95.3805 26.1214 95.0958C25.8367 94.8112 25.5521 94.8112 25.3149 95.1907Z" fill="#FF4D26"/>
<path id="Vector_119" d="M167.393 95.666C167.393 95.9032 167.725 96.1404 168.105 96.1404C168.484 96.1404 168.816 95.9032 168.816 95.666C168.816 95.3814 168.484 95.1916 168.105 95.1916C167.725 95.1916 167.393 95.3814 167.393 95.666Z" fill="#FF4D26"/>
<path id="Vector_120" d="M20.6638 95.9975C20.0471 96.5668 20.3317 97.563 21.0433 97.563C21.4228 97.563 21.7549 97.136 21.7549 96.6142C21.7549 95.6655 21.2331 95.3808 20.6638 95.9975Z" fill="#FF4D26"/>
<path id="Vector_121" d="M17.6793 97.7056C17.2998 98.7493 18.2012 99.8878 18.9127 99.1762C19.2448 98.8441 19.1499 98.3697 18.723 97.753C18.0588 96.8992 18.0114 96.8992 17.6793 97.7056Z" fill="#FF4D26"/>
<path id="Vector_122" d="M25.267 98.1798C24.8875 99.176 25.3619 99.8402 26.026 99.176C26.2632 98.9388 26.3107 98.4644 26.026 98.0375C25.6465 97.4682 25.5517 97.4682 25.267 98.1798Z" fill="#FF4D26"/>
<path id="Vector_123" d="M154.582 98.0372C154.012 98.3692 154.012 98.6539 154.392 99.318C155.151 100.551 156.242 100.362 156.242 99.0334C156.242 97.7525 155.625 97.373 154.582 98.0372Z" fill="#FF4D26"/>
<path id="Vector_124" d="M21.3285 98.9395C20.4272 99.5088 21.0439 100.979 22.0875 100.79C22.5619 100.695 22.9414 100.22 22.9414 99.746C22.9414 98.7023 22.2773 98.3703 21.3285 98.9395Z" fill="#FF4D26"/>
<path id="Vector_125" d="M156.625 100.694C156.293 101.595 157.574 103.019 158.333 102.592C159.092 102.07 158.95 100.552 158.096 100.22C157.052 99.8402 156.957 99.8402 156.625 100.694Z" fill="#FF4D26"/>
<path id="Vector_126" d="M19.5255 101.88C19.6678 103.636 20.9487 104.727 21.8026 103.873C22.2769 103.398 22.1821 103.066 21.4705 102.26C20.9961 101.691 20.6166 101.121 20.7115 100.932C20.8064 100.789 20.5217 100.6 20.1422 100.505C19.573 100.362 19.4306 100.694 19.5255 101.88Z" fill="#FF4D26"/>
<path id="Vector_127" d="M162.886 100.836C162.507 101.548 163.028 102.307 163.882 102.307C164.309 102.307 164.546 101.975 164.451 101.5C164.262 100.552 163.313 100.172 162.886 100.836Z" fill="#FF4D26"/>
<path id="Vector_128" d="M154.442 101.643C154.015 102.117 154.537 102.781 155.344 102.781C155.723 102.781 156.008 102.449 156.008 102.07C156.008 101.358 155.012 101.073 154.442 101.643Z" fill="#FF4D26"/>
<path id="Vector_129" d="M16.2998 102.354C16.1101 102.639 16.0626 102.971 16.2049 103.113C16.537 103.445 17.4858 102.829 17.4858 102.259C17.4858 101.69 16.6793 101.69 16.2998 102.354Z" fill="#FF4D26"/>
<path id="Vector_130" d="M23.0358 104.726C22.8935 105.343 22.9884 105.627 23.3205 105.485C24.032 105.248 24.3641 103.73 23.7474 103.73C23.5102 103.73 23.1782 104.157 23.0358 104.726Z" fill="#FF4D26"/>
<path id="Vector_131" d="M25.1747 104.252C25.2695 104.537 25.5542 104.727 25.7914 104.727C26.0285 104.727 26.3132 104.537 26.4081 104.252C26.5029 103.968 26.2183 103.73 25.7914 103.73C25.3644 103.73 25.0798 103.968 25.1747 104.252Z" fill="#FF4D26"/>
<path id="Vector_132" d="M156.956 104.157C156.956 104.869 157.715 105.201 158.569 104.869C159.755 104.442 159.471 103.73 158.142 103.73C157.478 103.73 156.956 103.92 156.956 104.157Z" fill="#FF4D26"/>
<path id="Vector_133" d="M20.002 105.817C18.6738 107.193 18.6263 107.525 19.7649 107.525C20.9034 107.478 22.2317 106.387 22.2317 105.438C22.2317 104.347 21.2354 104.489 20.002 105.817Z" fill="#FF4D26"/>
<path id="Vector_134" d="M154.111 106.054C154.111 106.291 154.443 106.576 154.823 106.765C155.25 106.908 155.534 106.765 155.534 106.339C155.534 105.959 155.202 105.627 154.823 105.627C154.443 105.627 154.111 105.817 154.111 106.054Z" fill="#FF4D26"/>
<path id="Vector_135" d="M24.9347 106.387C23.8436 107.478 25.2667 109.66 26.6899 109.138C27.8759 108.664 27.4963 106.387 26.2629 106.197C25.6937 106.102 25.1244 106.197 24.9347 106.387Z" fill="#FF4D26"/>
<path id="Vector_136" d="M166.444 107.479C166.444 108.617 167.061 109.044 168.105 108.665C169.196 108.238 168.769 106.862 167.488 106.672C166.729 106.53 166.444 106.767 166.444 107.479Z" fill="#FF4D26"/>
<path id="Vector_137" d="M158.809 107.857C158.335 107.952 157.861 108.426 157.718 108.853C157.576 109.28 157.291 109.944 157.149 110.229C157.007 110.609 157.196 110.846 157.623 110.846C158.05 110.846 158.382 110.656 158.382 110.419C158.382 110.182 158.667 110.039 158.999 110.087C159.284 110.087 159.568 109.944 159.568 109.755C159.568 109.517 159.948 109.138 160.422 108.901C161.94 108.047 160.802 107.288 158.809 107.857Z" fill="#FF4D26"/>
<path id="Vector_138" d="M21.1416 108.332C20.5723 108.901 20.8095 109.897 21.5211 109.897C22.3275 109.897 22.4224 109.47 21.8531 108.569C21.616 108.237 21.3313 108.142 21.1416 108.332Z" fill="#FF4D26"/>
<path id="Vector_139" d="M170.238 109.66C170.238 110.039 170.475 110.371 170.713 110.371C170.997 110.371 171.187 110.039 171.187 109.66C171.187 109.28 170.997 108.948 170.713 108.948C170.475 108.948 170.238 109.28 170.238 109.66Z" fill="#FF4D26"/>
<path id="Vector_140" d="M16.9185 111.889C16.539 112.791 16.8711 113.218 17.9147 113.218C18.3891 113.218 18.484 113.075 18.1519 112.838C17.8673 112.649 17.5352 112.174 17.3929 111.842C17.2032 111.225 17.1557 111.273 16.9185 111.889Z" fill="#FF4D26"/>
<path id="Vector_141" d="M25.5536 115.115C25.5536 115.352 25.8857 115.59 26.2652 115.59C26.6447 115.59 26.9767 115.352 26.9767 115.115C26.9767 114.831 26.6447 114.641 26.2652 114.641C25.8857 114.641 25.5536 114.831 25.5536 115.115Z" fill="#FF4D26"/>
<path id="Vector_142" d="M162.978 114.925C162.551 115.4 163.073 116.064 163.879 116.064C164.259 116.064 164.543 115.732 164.543 115.352C164.543 114.641 163.547 114.356 162.978 114.925Z" fill="#FF4D26"/>
<path id="Vector_143" d="M22.7043 116.301C22.7043 116.728 22.9415 117.013 23.2262 116.918C23.5108 116.823 23.748 116.538 23.748 116.301C23.748 116.064 23.5108 115.779 23.2262 115.685C22.9415 115.59 22.7043 115.874 22.7043 116.301Z" fill="#FF4D26"/>
<path id="Vector_144" d="M28.9699 116.492C27.9263 116.682 27.1198 117.251 26.598 118.057C25.8864 119.291 25.8864 119.433 26.598 120.145C27.3096 120.856 27.4045 120.856 27.8788 119.907C28.2109 119.386 28.7327 118.911 29.1122 118.911C29.7289 118.911 30.0136 118.342 29.8713 117.393C29.8713 117.203 30.1559 117.156 30.5354 117.298C30.9623 117.488 31.247 117.298 31.247 116.824C31.247 116.397 31.1047 116.112 30.9149 116.112C30.6777 116.16 29.8238 116.302 28.9699 116.492Z" fill="#FF4D26"/>
<path id="Vector_145" d="M151.74 117.203C151.74 117.63 152.072 117.962 152.499 117.962C153.306 117.962 153.163 116.918 152.309 116.633C151.977 116.539 151.74 116.776 151.74 117.203Z" fill="#FF4D26"/>
<path id="Vector_146" d="M160.135 117.678C159.708 118.721 160.751 119.433 161.795 118.863C162.507 118.484 162.602 118.247 162.127 117.678C161.416 116.824 160.467 116.824 160.135 117.678Z" fill="#FF4D26"/>
<path id="Vector_147" d="M153.02 119.717C152.45 120.239 152.64 120.808 153.399 120.808C153.779 120.808 154.111 120.476 154.111 120.096C154.111 119.337 153.541 119.148 153.02 119.717Z" fill="#FF4D26"/>
<path id="Vector_148" d="M18.627 120.808C18.627 121.329 18.9116 121.756 19.1962 121.756C19.5283 121.756 19.9078 122.041 20.0027 122.326C20.1924 122.8 20.2873 122.8 20.2873 122.326C20.3347 121.994 19.9552 121.329 19.4808 120.808C18.6744 119.906 18.627 119.906 18.627 120.808Z" fill="#FF4D26"/>
<path id="Vector_149" d="M22.8007 120.619C20.9031 121.9 21.9942 123.513 24.8405 123.608C25.3623 123.608 26.2162 123.323 26.6906 122.944C27.592 122.232 27.592 122.232 26.5009 121.046C25.22 119.67 24.2713 119.575 22.8007 120.619Z" fill="#FF4D26"/>
<path id="Vector_150" d="M157.054 121.852C157.291 122.563 158.382 122.705 158.43 121.994C158.43 121.709 158.098 121.425 157.623 121.377C157.149 121.235 156.912 121.425 157.054 121.852Z" fill="#FF4D26"/>
<path id="Vector_151" d="M159.327 121.994C159.327 122.374 159.659 122.706 160.039 122.706C160.418 122.706 160.751 122.374 160.751 121.994C160.751 121.615 160.418 121.283 160.039 121.283C159.659 121.283 159.327 121.615 159.327 121.994Z" fill="#FF4D26"/>
<path id="Vector_152" d="M25.6472 124.887C25.837 125.883 26.6908 125.978 26.8806 124.934C26.9755 124.46 26.7383 124.128 26.2639 124.128C25.7895 124.128 25.5523 124.413 25.6472 124.887Z" fill="#FF4D26"/>
<path id="Vector_153" d="M20.1442 126.264C20.0019 126.691 20.1442 126.976 20.5237 126.976C20.8558 126.976 21.1404 126.644 21.1404 126.264C21.1404 125.885 20.9507 125.552 20.7609 125.552C20.5712 125.552 20.334 125.885 20.1442 126.264Z" fill="#FF4D26"/>
<path id="Vector_154" d="M27.6425 126.738C27.8797 127.64 27.7848 127.829 27.2156 127.64C26.7886 127.45 26.504 127.64 26.504 128.067C26.504 128.541 26.1719 128.683 25.6026 128.541C25.1283 128.399 24.559 128.588 24.3218 128.92C24.0846 129.347 24.2269 129.395 24.7962 129.205C25.2706 129.015 26.077 129.205 26.6463 129.585C27.2156 129.964 27.4053 130.296 27.0732 130.296C26.7412 130.296 26.5989 130.533 26.7412 130.77C27.2156 131.577 27.8797 130.818 28.2118 129.11C28.3541 128.209 28.6861 127.45 28.9233 127.45C29.1605 127.45 29.3503 127.023 29.3503 126.501C29.3503 125.837 29.0182 125.552 28.3541 125.552C27.5002 125.552 27.4053 125.742 27.6425 126.738Z" fill="#FF4D26"/>
<path id="Vector_155" d="M153.163 126.975C153.163 127.592 154.491 128.161 154.965 127.734C155.108 127.544 154.965 127.212 154.586 126.975C153.637 126.358 153.163 126.406 153.163 126.975Z" fill="#FF4D26"/>
<path id="Vector_156" d="M165.496 131.956C165.496 132.336 165.733 132.668 165.97 132.668C166.255 132.668 166.445 132.336 166.445 131.956C166.445 131.577 166.255 131.245 165.97 131.245C165.733 131.245 165.496 131.577 165.496 131.956Z" fill="#FF4D26"/>
<path id="Vector_157" d="M81.5298 132.478C81.5298 133.284 82.5734 133.142 82.8581 132.288C82.9529 131.956 82.7157 131.719 82.2888 131.719C81.8619 131.719 81.5298 132.051 81.5298 132.478Z" fill="#FF4D26"/>
<path id="Vector_158" d="M92.9148 132.193C92.5353 132.43 92.3455 132.762 92.5353 132.904C93.0096 133.379 94.8597 132.667 94.5751 132.145C94.1956 131.624 93.8161 131.624 92.9148 132.193Z" fill="#FF4D26"/>
<path id="Vector_159" d="M135.609 132.668C135.609 132.905 135.941 133.142 136.321 133.142C136.7 133.142 137.032 132.905 137.032 132.668C137.032 132.383 136.7 132.194 136.321 132.194C135.941 132.194 135.609 132.383 135.609 132.668Z" fill="#FF4D26"/>
<path id="Vector_160" d="M97.3723 133.711C96.9928 134.28 98.5109 135.609 99.1276 135.229C99.3648 135.087 99.5545 134.565 99.5545 134.043C99.5545 133.047 97.9416 132.762 97.3723 133.711Z" fill="#FF4D26"/>
<path id="Vector_161" d="M144.005 133.474C143.389 134.043 143.673 134.565 144.622 134.565C145.144 134.565 145.571 134.233 145.571 133.853C145.571 133.142 144.575 132.857 144.005 133.474Z" fill="#FF4D26"/>
<path id="Vector_162" d="M88.5013 133.902C87.8846 134.518 88.1692 135.04 89.1654 135.04C89.6872 135.04 90.0667 134.803 89.9719 134.471C89.7347 133.807 88.9282 133.475 88.5013 133.902Z" fill="#FF4D26"/>
<path id="Vector_163" d="M91.1606 134.897C90.3541 136.558 90.4015 136.937 91.2554 136.937C91.6349 136.937 91.967 136.652 91.967 136.273C91.967 135.893 92.2991 135.514 92.6786 135.324C93.6748 134.945 93.5799 133.616 92.5837 133.616C92.1093 133.616 91.4452 134.186 91.1606 134.897Z" fill="#FF4D26"/>
<path id="Vector_164" d="M138.929 134.375C138.929 134.802 139.166 135.039 139.498 134.944C140.352 134.66 140.494 133.616 139.688 133.616C139.261 133.616 138.929 133.948 138.929 134.375Z" fill="#FF4D26"/>
<path id="Vector_165" d="M94.0533 134.613C93.6264 135.277 94.7175 136.273 96.3778 136.653C97.4215 136.89 97.6587 136.795 97.6587 136.131C97.6587 135.657 97.0894 134.992 96.3778 134.66C94.8124 133.949 94.4803 133.949 94.0533 134.613Z" fill="#FF4D26"/>
<path id="Vector_166" d="M101.027 134.756C100.6 135.23 100.6 135.515 100.98 135.752C101.786 136.226 102.735 135.183 102.118 134.566C101.739 134.187 101.406 134.281 101.027 134.756Z" fill="#FF4D26"/>
<path id="Vector_167" d="M131.341 134.755C131.341 135.134 131.531 135.561 131.768 135.703C132.243 136.036 132.859 134.802 132.432 134.375C131.911 133.853 131.341 134.091 131.341 134.755Z" fill="#FF4D26"/>
<path id="Vector_168" d="M111.417 136.225C111.417 137.079 111.654 137.411 112.366 137.411C113.504 137.411 113.694 135.751 112.555 135.324C111.464 134.897 111.417 134.944 111.417 136.225Z" fill="#FF4D26"/>
<path id="Vector_169" d="M133.524 135.372C133.002 135.893 133.239 136.463 133.951 136.463C134.331 136.463 134.663 136.273 134.663 136.036C134.663 135.419 133.904 134.992 133.524 135.372Z" fill="#FF4D26"/>
<path id="Vector_170" d="M135.988 136.605C136.32 136.984 136.557 137.506 136.51 137.696C136.273 138.977 136.652 139.356 137.838 139.214C138.692 139.119 139.214 138.739 139.309 138.17C139.546 137.032 139.072 136.652 137.032 136.225C135.609 135.893 135.466 135.94 135.988 136.605Z" fill="#FF4D26"/>
<path id="Vector_171" d="M140.114 136.463C139.972 136.747 140.162 137.079 140.589 137.222C141.49 137.601 142.012 137.222 141.537 136.51C141.158 135.846 140.494 135.846 140.114 136.463Z" fill="#FF4D26"/>
<path id="Vector_172" d="M98.8945 137.364C98.4676 138.076 99.9856 139.072 100.602 138.455C100.84 138.218 100.934 137.744 100.792 137.459C100.365 136.842 99.2266 136.795 98.8945 137.364Z" fill="#FF4D26"/>
<path id="Vector_173" d="M84.848 138.123C84.5634 138.456 84.7057 138.645 85.3224 138.645C85.8442 138.645 86.3186 138.408 86.4609 138.123C86.5558 137.791 86.366 137.554 85.9865 137.554C85.607 137.554 85.1326 137.791 84.848 138.123Z" fill="#FF4D26"/>
<path id="Vector_174" d="M86.746 139.025C86.746 139.357 87.078 139.641 87.4575 139.641C87.8371 139.641 88.1691 139.452 88.1691 139.262C88.1691 139.072 87.8371 138.835 87.4575 138.645C87.0306 138.503 86.746 138.645 86.746 139.025Z" fill="#FF4D26"/>
<path id="Vector_175" d="M95.0469 139.261C94.7622 139.783 95.4738 140.352 95.9482 139.925C96.3751 139.498 96.2803 138.834 95.8059 138.834C95.5212 138.834 95.2366 139.024 95.0469 139.261Z" fill="#FF4D26"/>
<path id="Vector_176" d="M113.313 140.4C113.313 141.302 114.262 142.108 115.021 141.823C115.923 141.491 115.875 140.448 114.926 140.068C113.788 139.641 113.313 139.736 113.313 140.4Z" fill="#FF4D26"/>
<path id="Vector_177" d="M138.454 140.495C138.454 140.875 138.692 141.207 138.929 141.207C139.213 141.207 139.403 140.875 139.403 140.495C139.403 140.116 139.213 139.784 138.929 139.784C138.692 139.784 138.454 140.116 138.454 140.495Z" fill="#FF4D26"/>
<path id="Vector_178" d="M96.8501 141.823C96.7077 142.155 96.7077 142.25 96.9449 142.06C97.1347 141.871 97.6091 141.918 97.9411 142.203C98.2732 142.487 98.6527 142.487 98.795 142.25C98.9373 141.966 98.6527 141.681 98.1309 141.539C97.6091 141.396 97.0398 141.539 96.8501 141.823Z" fill="#FF4D26"/>
<path id="Vector_179" d="M124.698 141.681C124.698 141.918 125.125 142.155 125.695 142.155C126.217 142.155 126.501 141.918 126.359 141.681C126.217 141.396 125.742 141.207 125.363 141.207C124.983 141.207 124.698 141.396 124.698 141.681Z" fill="#FF4D26"/>
<path id="Vector_180" d="M161.936 141.681C161.794 141.918 161.984 142.155 162.363 142.155C162.743 142.155 163.217 141.918 163.359 141.681C163.502 141.396 163.312 141.207 162.932 141.207C162.553 141.207 162.078 141.396 161.936 141.681Z" fill="#FF4D26"/>
<path id="Vector_181" d="M100.506 142.534C100.506 143.056 103.257 144.29 103.637 143.91C103.779 143.768 104.443 143.958 105.155 144.337C106.578 145.049 107.052 144.859 106.199 143.863C105.867 143.436 105.06 143.199 104.254 143.293C103.542 143.388 102.83 143.293 102.783 143.104C102.546 142.534 100.506 142.06 100.506 142.534Z" fill="#FF4D26"/>
<path id="Vector_182" d="M136.083 143.294C136.083 143.721 136.415 144.053 136.842 144.053C137.649 144.053 137.507 143.009 136.653 142.725C136.321 142.63 136.083 142.867 136.083 143.294Z" fill="#FF4D26"/>
<path id="Vector_183" d="M107.855 143.531C107.997 143.768 107.902 144.1 107.618 144.29C107.333 144.48 107.238 144.812 107.38 145.049C107.713 145.524 109.278 145.381 109.847 144.812C110.084 144.622 110.037 144.48 109.752 144.527C108.661 144.765 108.139 144.48 108.377 143.816C108.566 143.436 108.424 143.104 108.092 143.104C107.807 143.104 107.665 143.294 107.855 143.531Z" fill="#FF4D26"/>
<path id="Vector_184" d="M130.393 144.337C130.393 144.764 130.725 145.002 131.199 144.907C132.385 144.67 132.528 143.578 131.389 143.578C130.82 143.578 130.393 143.863 130.393 144.337Z" fill="#FF4D26"/>
<path id="Vector_185" d="M132.289 148.56C132.621 148.939 133.048 149.271 133.285 149.271C133.522 149.271 133.57 148.939 133.428 148.56C133.238 148.18 132.811 147.848 132.431 147.848C131.815 147.848 131.815 147.99 132.289 148.56Z" fill="#FF4D26"/>
<path id="Vector_186" d="M127.875 150.741C128.396 151.311 129.108 151.595 129.393 151.453C130.294 150.884 129.962 150.077 128.966 150.362C128.444 150.504 128.017 150.409 128.017 150.172C128.017 149.935 127.78 149.745 127.448 149.745C127.116 149.745 127.305 150.172 127.875 150.741Z" fill="#FF4D26"/>
</g>
</g>
</svg>
