<svg width="180" height="180" viewBox="0 0 180 180" fill="none" xmlns="http://www.w3.org/2000/svg">
<path fill-rule="evenodd" clip-rule="evenodd" d="M52.1313 53.1313C46 59.2627 46 69.131 46 88.8675V92.3565C46 112.093 46 121.961 52.1313 128.093C53.1011 129.062 54.1644 129.879 55.3454 130.566C59.0488 132.721 63.9101 133.607 70.6772 133.97C75.3961 134.224 81.0417 134.224 87.8676 134.224H91.3566C111.093 134.224 120.961 134.224 127.093 128.093C133.223 121.961 133.223 112.093 133.223 92.3565V88.8675C133.223 69.131 133.223 59.2627 127.093 53.1313C120.961 47 111.093 47 91.3566 47H87.8676C68.131 47 58.2627 47 52.1313 53.1313ZM60.7192 73.5308C61.1916 96.209 72.5307 109.838 92.4105 109.838H93.5372V96.8631C100.842 97.5899 106.366 102.933 108.583 109.838H118.905C116.07 99.5163 108.619 93.8103 103.967 91.6297C108.619 88.9404 115.161 82.3986 116.724 73.5308H107.347C105.312 80.7267 99.2797 87.2685 93.5372 87.8862V73.5308H84.1603V98.6802C78.3456 97.2267 71.0043 90.1762 70.6772 73.5308H60.7192Z" fill="#41BAFF"/>
<path d="M70.5394 147.829C70.0846 146.464 68.1547 146.464 67.6999 147.829C67.6099 148.099 67.5988 148.389 67.6678 148.665L69.0147 154.052C69.0844 154.331 69.1887 154.6 69.3251 154.853L69.9931 156.092C71.0387 158.032 73.8357 157.989 74.8211 156.018C75.2927 155.075 75.1767 153.944 74.5234 153.116L70.8453 148.455C70.7341 148.314 70.6482 148.155 70.5914 147.985L70.5394 147.829Z" fill="#41BAFF"/>
<path d="M55.3454 130.566C59.6689 135.312 60.225 138.575 60.1532 142.882C60.1113 145.395 59.4936 147.865 58.4731 150.161L54.7767 158.478C54.1662 159.851 54.3468 161.448 55.2487 162.65C56.8752 164.819 60.1111 164.87 61.8047 162.753L62.9632 161.305C64.0519 159.944 64.4428 158.153 64.0201 156.462L63.4434 154.155C63.2374 153.331 63.1333 152.485 63.1333 151.636V146.685V145.896C63.1333 140.343 65.1649 134.644 70.6772 133.97C63.9101 133.607 59.0488 132.721 55.3454 130.566Z" fill="#41BAFF"/>
<path d="M63.6078 39.7986C63.5239 40.9842 64.3288 41.3511 65.8331 40.8038C67.4799 40.2096 67.4643 40.1621 66.0133 39.2708C64.6885 38.4432 63.6598 38.6762 63.6078 39.7986Z" fill="#41BAFF"/>
<path d="M79.8957 34.9163C79.8762 35.8174 80.553 36.5949 81.2655 36.3606C81.8354 36.1732 81.2575 34.4158 80.5151 34.2389C80.1832 34.1901 79.9132 34.4894 79.8957 34.9163Z" fill="#41BAFF"/>
<path d="M86.3378 33.376C86.3359 33.8504 86.6665 34.2154 87.1564 34.2648C88.1682 34.3005 88.4551 33.7325 87.8103 32.8918C87.1335 32.1143 86.421 32.3486 86.3378 33.376Z" fill="#41BAFF"/>
<path d="M38.1967 63.8869C38.3373 64.3144 38.6685 64.5213 38.9222 64.3326C39.176 64.1439 39.3198 63.7808 39.2417 63.5433C39.1636 63.3058 38.8324 63.0989 38.5161 63.0976C38.1999 63.0964 38.0561 63.4595 38.1967 63.8869Z" fill="#41BAFF"/>
<path d="M68.6342 39.7248C68.7748 40.1523 69.106 40.3592 69.3597 40.1705C69.6135 39.9818 69.7573 39.6187 69.6792 39.3812C69.6011 39.1437 69.2699 38.9368 68.9536 38.9355C68.6374 38.9343 68.4936 39.2973 68.6342 39.7248Z" fill="#41BAFF"/>
<path d="M88.8854 33.1182C88.836 33.6082 88.9922 34.0832 89.1185 34.1469C89.6234 34.4019 90.2284 33.3608 89.9941 32.6484C89.6974 31.7459 88.953 32.0433 88.8854 33.1182Z" fill="#41BAFF"/>
<path d="M92.9959 32.9765C92.9315 33.2609 93.1359 33.5621 93.4833 33.6584C94.1626 33.8034 94.877 33.0948 94.6584 32.4298C94.4709 31.8599 93.1885 32.2816 92.9959 32.9765Z" fill="#41BAFF"/>
<path d="M143.22 37.7086C143.239 38.0242 143.477 38.2951 143.718 38.3599C143.96 38.4247 144.301 38.3092 144.476 38.0453C144.65 37.7815 144.425 37.4623 143.99 37.3457C143.556 37.2292 143.201 37.3929 143.22 37.7086Z" fill="#41BAFF"/>
<path d="M52.1523 48.3558C52.0841 49.5888 53.6483 49.8639 54.0328 48.6322C54.2247 48.0953 54.1954 47.526 53.9904 47.3829C53.3286 46.811 52.2193 47.439 52.1523 48.3558Z" fill="#41BAFF"/>
<path d="M63.4298 44.3838C63.6342 44.6851 64.1391 44.9401 64.5028 44.9258C64.9297 44.9433 65.0572 44.6908 64.7897 44.3577C64.5854 44.0565 64.0805 43.8014 63.7167 43.8158C63.2899 43.7982 63.1624 44.0507 63.4298 44.3838Z" fill="#41BAFF"/>
<path d="M35.9884 63.3828C36.1928 63.6841 36.6977 63.9391 37.0614 63.9248C37.4883 63.9423 37.6158 63.6898 37.3483 63.3567C37.144 63.0555 36.639 62.8004 36.2753 62.8148C35.8485 62.7973 35.721 63.0497 35.9884 63.3828Z" fill="#41BAFF"/>
<path d="M103.22 28.5853C103.277 29.5323 104.301 29.9621 104.521 29.1412C104.637 28.7065 104.39 28.2778 103.955 28.1612C103.521 28.0447 103.215 28.2214 103.22 28.5853Z" fill="#41BAFF"/>
<path d="M90.9538 37.0169C90.6981 37.6799 90.8393 37.9493 91.5655 38.2368C92.2916 38.5244 92.466 38.4144 92.4848 37.6713C92.5531 36.4383 91.3851 35.9276 90.9538 37.0169Z" fill="#41BAFF"/>
<path d="M31.7322 71.1208C31.1584 72.2569 31.6757 73.35 33.0331 73.9564C34.0273 74.4189 34.3123 74.3252 34.9954 73.5216C35.9486 72.4186 35.6375 71.1524 34.2645 70.4986C33.0653 69.8929 32.2422 70.111 31.7322 71.1208Z" fill="#41BAFF"/>
<path d="M85.2486 40.6286C85.7328 42.1011 85.9377 42.2442 86.7933 41.8049C88.1083 41.162 87.9091 39.5958 86.488 39.1157C84.8144 38.5081 84.6394 38.7762 85.2486 40.6286Z" fill="#41BAFF"/>
<path d="M105.74 30.7633C105.759 31.0789 105.997 31.3498 106.238 31.4146C106.479 31.4793 106.821 31.3639 106.995 31.1C107.17 30.8362 106.945 30.517 106.51 30.4004C106.075 30.2839 105.721 30.4476 105.74 30.7633Z" fill="#41BAFF"/>
<path d="M72.3771 44.7056C72.5021 45.0856 72.2152 45.6537 71.7395 45.968C70.7408 46.6122 71.0513 48.0365 72.3598 48.9747C73.7315 49.9447 74.7484 48.7155 74.2186 46.7844C73.9219 45.8819 73.657 44.9164 73.5951 44.5683C73.5489 44.2676 73.1546 44.0289 72.8228 43.9801C72.459 43.9944 72.2521 44.3256 72.3771 44.7056Z" fill="#41BAFF"/>
<path d="M51.6504 60.7589C51.586 61.0432 51.9165 61.4082 52.3427 61.5839C53.3057 61.9514 53.8314 60.9891 53.0434 60.3534C52.476 59.9084 51.7954 60.0796 51.6504 60.7589Z" fill="#41BAFF"/>
<path d="M118.677 35.2165C118.122 35.7407 118.456 36.8137 119.126 36.6311C119.809 36.4002 120.159 35.0962 119.579 34.9408C119.29 34.8631 118.9 34.9656 118.677 35.2165Z" fill="#41BAFF"/>
<path d="M140.56 40.8772C140.07 41.1599 140.297 42.0491 140.925 42.2175C141.167 42.2823 141.451 41.996 141.554 41.6097C141.748 40.8853 141.234 40.4884 140.56 40.8772Z" fill="#41BAFF"/>
<path d="M59.2788 50.1707C59.18 51.1506 60.2855 51.4713 60.7318 50.5877C61.0825 49.8934 60.3745 49.0209 59.662 49.2552C59.472 49.3177 59.2964 49.7439 59.2788 50.1707Z" fill="#41BAFF"/>
<path d="M138.205 41.7471C137.856 42.2748 137.949 42.5069 138.567 42.5174C139.476 42.6057 139.841 41.8235 139.146 41.3265C138.917 41.2135 138.514 41.3643 138.205 41.7471Z" fill="#41BAFF"/>
<path d="M49.8673 63.8192C49.8153 64.9416 51.1408 65.6111 51.619 64.6643C52.0334 63.8438 51.1848 62.5438 50.4248 62.7937C50.1399 62.8874 49.9167 63.3293 49.8673 63.8192Z" fill="#41BAFF"/>
<path d="M90.9537 41.3322C90.9023 42.2965 91.6428 42.9477 92.5453 42.651C92.9253 42.526 93.0541 41.9573 92.8198 41.2449C92.398 39.9624 90.9906 40.0042 90.9537 41.3322Z" fill="#41BAFF"/>
<path d="M76.6842 46.6028C76.8248 47.0303 77.1403 47.1897 77.4416 46.9854C78.2028 46.4192 78.0017 45.3274 77.1942 45.593C76.7668 45.7335 76.5436 46.1754 76.6842 46.6028Z" fill="#41BAFF"/>
<path d="M114.214 37.3838C114.098 37.8185 114.261 38.173 114.577 38.1541C114.893 38.1353 115.212 37.9103 115.277 37.6688C115.341 37.4273 115.178 37.0728 114.914 36.8985C114.65 36.7242 114.331 36.9492 114.214 37.3838Z" fill="#41BAFF"/>
<path d="M131.737 41.9274C130.512 42.6343 130.568 43.5813 131.824 43.918C133.273 44.3066 134.06 43.6893 133.533 42.5645C133.042 41.5009 132.717 41.362 131.737 41.9274Z" fill="#41BAFF"/>
<path d="M46.8569 66.3342C46.9975 66.7617 47.3287 66.9686 47.5824 66.7799C47.8362 66.5911 47.9799 66.2281 47.9018 65.9906C47.8237 65.7531 47.4925 65.5462 47.1763 65.5449C46.8601 65.5436 46.7163 65.9067 46.8569 66.3342Z" fill="#41BAFF"/>
<path d="M53.5155 55.3817C53.0067 56.0753 52.5859 58.477 52.9015 58.6363C53.2958 58.8751 55.4995 57.4136 55.3745 57.0336C55.3277 56.8911 55.2671 56.2268 55.2066 55.5624C55.1479 54.4238 54.263 54.2937 53.5155 55.3817Z" fill="#41BAFF"/>
<path d="M78.086 48.4588C78.1153 49.0282 77.8284 49.5962 77.4959 49.7055C76.641 49.9867 76.1615 51.2497 76.6808 51.8684C77.7662 53.2484 79.3244 51.1043 79.0978 48.4945C78.9461 46.9128 78.0768 46.8302 78.086 48.4588Z" fill="#41BAFF"/>
<path d="M113.138 39.476C112.905 40.3453 112.988 40.4195 113.746 40.1049C114.626 39.7197 114.714 38.8116 113.845 38.5784C113.603 38.5137 113.28 38.9448 113.138 39.476Z" fill="#41BAFF"/>
<path d="M47.562 68.154C47.7657 68.6133 48.2076 68.8365 48.445 68.7584C49.1419 68.4766 48.6401 67.431 47.8496 67.4278C47.3752 67.4259 47.2634 67.7258 47.562 68.154Z" fill="#41BAFF"/>
<path d="M82.3551 47.8434C82.48 48.2234 82.9219 48.4466 83.3019 48.3216C83.6818 48.1967 83.905 47.7548 83.78 47.3749C83.6551 46.9949 83.2132 46.7717 82.8333 46.8967C82.4533 47.0216 82.2301 47.4635 82.3551 47.8434Z" fill="#41BAFF"/>
<path d="M121.842 41.7587C121.111 41.9767 121.072 42.1215 121.602 43.0402C122.154 44.0684 122.251 44.0943 122.761 43.3511C123.493 42.3569 122.915 41.4253 121.842 41.7587Z" fill="#41BAFF"/>
<path d="M127.336 43.2842C127.113 43.5351 127.08 44.044 127.292 44.4114C127.504 44.7789 127.551 45.5681 127.396 46.1476C127.02 47.5481 127.39 47.9061 129.043 47.7281L130.367 47.6173L129.502 46.4018C128.708 45.3088 128.734 45.2122 129.636 44.9365C130.525 44.7091 130.564 44.5643 130.053 43.9612C129.256 43.0744 127.952 42.7247 127.336 43.2842Z" fill="#41BAFF"/>
<path d="M90.5856 45.6647C90.7105 46.0447 91.1523 46.2679 91.5323 46.1429C91.9123 46.0179 92.1354 45.5761 92.0105 45.1961C91.8855 44.8162 91.4437 44.593 91.0637 44.718C90.6838 44.8429 90.4606 45.2847 90.5856 45.6647Z" fill="#41BAFF"/>
<path d="M93.9264 44.6175C94.0669 45.045 94.3825 45.2044 94.6838 45C95.445 44.4339 95.2439 43.3421 94.4364 43.6076C94.0089 43.7482 93.7858 44.19 93.9264 44.6175Z" fill="#41BAFF"/>
<path d="M117.548 42.5227C117.47 42.8125 117.096 43.4368 116.822 43.8809C116.399 44.4922 116.434 44.5535 116.972 44.2837C117.401 44.0363 117.763 43.4603 117.747 42.9385C117.745 42.3684 117.687 42.1976 117.548 42.5227Z" fill="#41BAFF"/>
<path d="M131.741 47.3124C131.624 47.7471 131.898 48.0792 132.406 48.1121C133.679 48.1945 134.121 47.1226 132.962 46.8117C132.383 46.6563 131.87 46.8295 131.741 47.3124Z" fill="#41BAFF"/>
<path d="M43.8903 73.3114C44.0777 73.8814 44.4558 74.2307 44.6933 74.1526C44.9783 74.0589 45.0745 73.7115 44.9496 73.3315C44.8246 72.9515 44.4784 72.539 44.1466 72.4902C43.8622 72.4258 43.7185 72.7889 43.8903 73.3114Z" fill="#41BAFF"/>
<path d="M123.108 45.7223C122.54 46.2947 122.864 47.2099 123.734 47.443C124.12 47.5467 124.526 47.1897 124.669 46.6585C124.941 45.6444 123.873 44.9954 123.108 45.7223Z" fill="#41BAFF"/>
<path d="M50.3421 71.82C50.5308 72.0738 50.8783 72.1701 51.1158 72.092C51.3533 72.0139 51.5758 71.7301 51.5771 71.4139C51.5783 71.0977 51.2153 70.9539 50.7878 71.0945C50.3603 71.2351 50.1534 71.5663 50.3421 71.82Z" fill="#41BAFF"/>
<path d="M134.198 49.7319C134.133 49.9734 134.406 50.3055 134.793 50.4091C135.179 50.5127 135.582 50.3619 135.646 50.1205C135.724 49.8307 135.438 49.5469 135.052 49.4433C134.665 49.3396 134.275 49.4422 134.198 49.7319Z" fill="#41BAFF"/>
<path d="M132.135 49.6968C132.07 49.9382 132.344 50.2704 132.73 50.374C133.116 50.4776 133.519 50.3268 133.584 50.0853C133.662 49.7956 133.375 49.5117 132.989 49.4081C132.603 49.3045 132.213 49.407 132.135 49.6968Z" fill="#41BAFF"/>
<path d="M128.809 49.373C128.241 49.9455 128.913 51.1092 129.693 50.9042C130.034 50.7887 130.405 50.3705 130.509 49.9842C130.716 49.2115 129.499 48.7299 128.809 49.373Z" fill="#41BAFF"/>
<path d="M144.986 54.2826C145.043 55.2296 146.066 55.6594 146.286 54.8384C146.403 54.4038 146.156 53.9751 145.721 53.8585C145.286 53.7419 144.98 53.9186 144.986 54.2826Z" fill="#41BAFF"/>
<path d="M125.407 49.7033C125.303 50.0897 125.454 50.4925 125.696 50.5573C125.985 50.635 126.269 50.3487 126.373 49.9624C126.476 49.576 126.374 49.1862 126.084 49.1085C125.843 49.0437 125.511 49.317 125.407 49.7033Z" fill="#41BAFF"/>
<path d="M147.703 55.735C147.624 56.801 148.468 57.1307 148.946 56.1201C149.172 55.663 149.021 55.2602 148.538 55.1307C148.055 55.0012 147.736 55.2262 147.703 55.735Z" fill="#41BAFF"/>
<path d="M136.076 53.3415C135.521 53.8657 135.854 54.9387 136.524 54.7561C137.208 54.5252 137.557 53.2212 136.978 53.0658C136.688 52.9881 136.298 53.0906 136.076 53.3415Z" fill="#41BAFF"/>
<path d="M133.354 53.0773C132.903 53.2152 132.615 53.7075 132.631 54.2293C132.707 54.7158 132.993 54.9996 133.322 54.9324C133.602 54.8523 133.818 55.0137 133.753 55.2551C133.675 55.5449 134.045 55.9029 134.625 56.0584C135.253 56.2267 135.607 56.063 135.653 55.5058C135.66 55.0936 135.545 54.752 135.326 54.7968C135.107 54.8416 134.763 54.387 134.541 53.8617C134.262 53.1656 133.866 52.9041 133.354 53.0773Z" fill="#41BAFF"/>
<path d="M131.13 55.3801C131.026 55.7664 131.177 56.1693 131.418 56.234C131.708 56.3117 131.992 56.0255 132.095 55.6391C132.199 55.2528 132.097 54.8629 131.807 54.7852C131.565 54.7205 131.233 54.9937 131.13 55.3801Z" fill="#41BAFF"/>
<path d="M143.759 58.8705C143.726 59.3794 144.009 59.8693 144.395 59.973C144.782 60.0766 145.271 59.7938 145.498 59.3368C145.75 58.7832 145.573 58.477 144.849 58.2827C144.124 58.0884 143.818 58.2651 143.759 58.8705Z" fill="#41BAFF"/>
<path d="M149.065 59.9307C148.614 60.0686 148.379 60.3678 148.52 60.6128C148.661 60.8578 149.122 60.8777 149.489 60.6657C150.408 60.1356 150.138 59.5973 149.065 59.9307Z" fill="#41BAFF"/>
<path d="M133.286 56.9934C133.182 57.3797 133.43 57.8084 133.816 57.9121C134.202 58.0157 134.631 57.7683 134.735 57.3819C134.838 56.9956 134.591 56.5669 134.205 56.4633C133.818 56.3596 133.389 56.607 133.286 56.9934Z" fill="#41BAFF"/>
<path d="M136.6 58.1421C136.535 58.3835 136.809 58.7157 137.195 58.8193C137.581 58.9229 137.984 58.7721 138.049 58.5306C138.126 58.2409 137.84 57.957 137.454 57.8534C137.068 57.7498 136.678 57.8523 136.6 58.1421Z" fill="#41BAFF"/>
<path d="M140.045 59.0134C138.972 59.3468 139.198 61.0123 140.312 61.1041C140.821 61.137 141.337 60.7577 141.467 60.2747C141.752 59.2123 141.166 58.6929 140.045 59.0134Z" fill="#41BAFF"/>
<path d="M43.6559 79.0202C43.7808 79.4002 44.2227 79.6233 44.6026 79.4984C44.9826 79.3734 45.2058 78.9316 45.0808 78.5516C44.9559 78.1716 44.514 77.9485 44.134 78.0734C43.7541 78.1984 43.5309 78.6402 43.6559 79.0202Z" fill="#41BAFF"/>
<path d="M148.552 62.227C148.519 62.7358 148.802 63.2258 149.188 63.3294C149.575 63.433 150.064 63.1503 150.291 62.6933C150.543 62.1396 150.366 61.8334 149.641 61.6391C148.917 61.4449 148.611 61.6216 148.552 62.227Z" fill="#41BAFF"/>
<path d="M131.321 58.5363C131.217 58.9227 131.368 59.3255 131.61 59.3903C131.899 59.468 132.183 59.1817 132.287 58.7954C132.39 58.409 132.288 58.0192 131.998 57.9415C131.757 57.8767 131.425 58.15 131.321 58.5363Z" fill="#41BAFF"/>
<path d="M136.548 61.2331C135.993 61.7573 136.327 62.8303 136.997 62.6477C137.68 62.4168 138.03 61.1128 137.45 60.9574C137.161 60.8797 136.771 60.9822 136.548 61.2331Z" fill="#41BAFF"/>
<path d="M41.9337 83.0616C42.1381 83.3628 42.643 83.6178 43.0067 83.6035C43.4336 83.621 43.5611 83.3686 43.2936 83.0354C43.0893 82.7342 42.5844 82.4792 42.2206 82.4935C41.7938 82.476 41.6663 82.7284 41.9337 83.0616Z" fill="#41BAFF"/>
<path d="M132.055 61.581C131.99 61.8224 132.119 62.1157 132.408 62.1934C132.65 62.2582 132.656 62.6221 132.407 62.9696C132.085 63.4007 132.213 63.694 132.841 63.8624C134.193 64.2251 134.599 63.8681 134.208 62.6243C133.888 61.5031 132.275 60.76 132.055 61.581Z" fill="#41BAFF"/>
<path d="M141.654 64.7773C141.518 65.6724 141.791 66.0046 142.927 66.2059C143.713 66.3648 144.476 66.4142 144.66 66.3082C145.286 65.9065 144.112 64.2976 142.953 63.9868C141.987 63.7278 141.742 63.8691 141.654 64.7773Z" fill="#41BAFF"/>
<path d="M44.9361 83.3903C44.6811 83.8952 45.3585 84.5146 45.976 84.3115C46.2135 84.2334 46.2941 83.8385 46.1692 83.4585C45.9349 82.746 45.2868 82.696 44.9361 83.3903Z" fill="#41BAFF"/>
<path d="M35.8385 88.6832C35.9166 88.9207 36.2797 89.0644 36.6596 88.9395C36.9921 88.8301 37.5602 89.117 37.8745 89.5927C38.1888 90.0683 38.8518 90.3239 39.3268 90.1677C39.8018 90.0116 40.608 90.0622 41.0342 90.2379C41.7285 90.5886 41.7922 90.4623 41.1792 89.5586C40.8181 88.9405 40.4257 88.2274 40.3319 87.9424C40.0664 87.1349 38.5009 87.176 37.9759 87.9803C37.6734 88.5009 37.3884 88.5946 37.0259 88.2927C36.4429 87.8002 35.6354 88.0657 35.8385 88.6832Z" fill="#41BAFF"/>
<path d="M127.927 62.4929C127.495 62.9465 128.064 63.7203 128.663 63.4151C129.214 63.0971 129.299 62.395 128.816 62.2655C128.526 62.1878 128.185 62.3033 127.927 62.4929Z" fill="#41BAFF"/>
<path d="M148.931 68.5393C148.019 68.6572 148.391 69.5853 149.55 69.8962C150.033 70.0257 150.558 69.8042 150.662 69.4179C150.856 68.6935 150.219 68.3673 148.931 68.5393Z" fill="#41BAFF"/>
<path d="M37.9215 83.9825C38.0621 84.4099 38.5039 84.6331 38.9314 84.4925C39.7388 84.227 39.2527 83.2289 38.304 83.2251C37.9403 83.2394 37.7809 83.555 37.9215 83.9825Z" fill="#41BAFF"/>
<path d="M129.316 65.0397C128.639 65.6346 129.137 66.2859 129.934 65.8265C130.362 65.5791 130.44 65.2893 130.202 65.0184C129.951 64.7958 129.539 64.7888 129.316 65.0397Z" fill="#41BAFF"/>
<path d="M44.6102 89.6028C45.1763 90.364 46.2681 90.1629 46.0026 89.3554C45.862 88.928 45.4202 88.7048 44.9927 88.8454C44.5652 88.986 44.4058 89.3015 44.6102 89.6028Z" fill="#41BAFF"/>
<path d="M33.3517 93.7793C33.556 94.0806 34.061 94.3356 34.4247 94.3213C34.8515 94.3388 34.979 94.0863 34.7116 93.7532C34.5073 93.452 34.0023 93.1969 33.6386 93.2113C33.2118 93.1937 33.0843 93.4462 33.3517 93.7793Z" fill="#41BAFF"/>
<path d="M136.108 70.0189C136.2 71.0271 137.658 71.5735 137.891 70.7042C138.021 70.2213 137.664 69.815 137.085 69.6595C136.505 69.5041 136.102 69.6549 136.108 70.0189Z" fill="#41BAFF"/>
<path d="M131.015 69.3262C130.898 69.7609 131.062 70.1154 131.378 70.0965C131.693 70.0776 132.013 69.8526 132.077 69.6112C132.142 69.3697 131.978 69.0152 131.715 68.8409C131.451 68.6666 131.131 68.8916 131.015 69.3262Z" fill="#41BAFF"/>
<path d="M37.6977 94.1902C38.2157 95.1252 39.1019 94.939 38.9483 93.8316C38.8871 93.3254 38.5402 93.071 38.0653 93.2272C37.5903 93.3834 37.4465 93.7464 37.6977 94.1902Z" fill="#41BAFF"/>
<path d="M46.0582 91.1249C46.1363 91.3624 46.5469 91.4905 46.9269 91.3656C47.3068 91.2406 47.5612 90.8938 47.4831 90.6563C47.3894 90.3713 46.9944 90.2907 46.6145 90.4156C46.2345 90.5406 45.9645 90.8399 46.0582 91.1249Z" fill="#41BAFF"/>
<path d="M131.358 71.1268C130.655 71.8183 131.022 73.7287 131.892 73.9619C133.002 74.2598 134.451 72.5258 133.772 71.7744C133.177 71.0972 131.777 70.7216 131.358 71.1268Z" fill="#41BAFF"/>
<path d="M127.692 72.0588C127.588 72.4451 127.739 72.848 127.981 72.9127C128.27 72.9904 128.554 72.7042 128.658 72.3178C128.762 71.9315 128.659 71.5416 128.369 71.4639C128.128 71.3992 127.796 71.6725 127.692 72.0588Z" fill="#41BAFF"/>
<path d="M136.924 74.12C136.511 74.113 135.593 74.6431 134.964 75.2509C133.916 76.264 133.851 76.5054 134.336 77.205C134.976 78.1013 135.962 77.8998 136.273 76.7408C136.402 76.2579 136.921 75.6724 137.398 75.438C138.34 75.0174 138.766 74.1999 138.16 74.1411C137.906 74.1246 137.397 74.0917 136.924 74.12Z" fill="#41BAFF"/>
<path d="M139.152 75.0806C138.904 75.4281 138.8 75.8145 138.906 75.9982C139.211 76.5977 140.565 76.1841 140.746 75.508C140.979 74.6388 139.724 74.302 139.152 75.0806Z" fill="#41BAFF"/>
<path d="M148.36 85.9837C148.244 86.4183 148.407 86.7729 148.723 86.754C149.039 86.7351 149.358 86.5101 149.423 86.2686C149.487 86.0272 149.324 85.6727 149.06 85.4984C148.796 85.3241 148.477 85.5491 148.36 85.9837Z" fill="#41BAFF"/>
<path d="M41.8878 98.6028C42.1709 98.9834 42.4539 99.3641 42.4852 99.4591C42.532 99.6015 42.722 99.5391 42.9445 99.2554C43.3577 98.7511 42.4929 97.5617 41.8279 97.7804C41.5429 97.8741 41.6047 98.2222 41.8878 98.6028Z" fill="#41BAFF"/>
<path d="M142.577 87.2799C142.367 87.4825 141.626 87.5426 140.999 87.3743C139.936 87.0893 138.398 88.3851 138.857 89.1813C139.339 90.087 141.664 90.2965 142.429 89.5697C142.861 89.1162 143.451 88.6532 143.731 88.5731C144.318 88.3163 144.059 87.1596 143.431 86.9912C143.189 86.9265 142.799 87.029 142.577 87.2799Z" fill="#41BAFF"/>
<path d="M46.5074 97.2928C46.5855 97.5303 46.9961 97.6585 47.3761 97.5335C47.7561 97.4086 48.0104 97.0618 47.9323 96.8243C47.8386 96.5393 47.4437 96.4586 47.0637 96.5836C46.6837 96.7085 46.4137 97.0079 46.5074 97.2928Z" fill="#41BAFF"/>
<path d="M148.902 89.7527C148.799 90.139 148.949 90.5418 149.191 90.6066C149.481 90.6843 149.764 90.398 149.868 90.0117C149.972 89.6253 149.869 89.2355 149.579 89.1578C149.338 89.093 149.006 89.3663 148.902 89.7527Z" fill="#41BAFF"/>
<path d="M48.9867 98.1101C49.1754 98.3638 49.5228 98.4601 49.7603 98.382C49.9978 98.3039 50.2203 98.0202 50.2216 97.704C50.2229 97.3877 49.8598 97.244 49.4323 97.3845C49.0048 97.5251 48.7979 97.8563 48.9867 98.1101Z" fill="#41BAFF"/>
<path d="M149.006 93.6114C148.773 94.4807 148.833 95.2216 149.277 95.496C150.751 96.5641 151.849 94.7878 150.698 93.2885C149.688 92.0342 149.469 92.079 149.006 93.6114Z" fill="#41BAFF"/>
<path d="M43.2629 105.677C43.1023 106.309 44.6333 106.964 44.9202 106.396C45.0634 106.191 45.0653 105.716 44.9403 105.336C44.706 104.624 43.4243 104.888 43.2629 105.677Z" fill="#41BAFF"/>
<path d="M135.073 93.4465C134.084 93.8541 133.848 94.1533 134.167 94.7045C134.449 95.1945 134.862 95.2015 135.719 94.7067C137.863 93.4698 137.407 92.4675 135.073 93.4465Z" fill="#41BAFF"/>
<path d="M35.9526 106.001C35.7594 106.854 36.6112 107.364 37.7036 107.004C38.3686 106.786 38.4805 106.486 38.1187 106.026C37.8356 105.645 37.5526 105.264 37.5213 105.169C37.3964 104.789 36.0814 105.432 35.9526 106.001Z" fill="#41BAFF"/>
<path d="M133.234 98.1817C132.161 98.5151 132.413 100.084 133.621 100.408C134.393 100.615 134.699 100.438 134.775 99.5785C134.954 98.3323 134.368 97.8129 133.234 98.1817Z" fill="#41BAFF"/>
<path d="M140.711 101.378C140.803 102.386 142.261 102.932 142.495 102.063C142.624 101.58 142.267 101.174 141.688 101.018C141.108 100.863 140.705 101.014 140.711 101.378Z" fill="#41BAFF"/>
<path d="M134.953 101.231C134.784 101.859 134.465 102.084 134.082 101.774C133.735 101.526 133.261 101.554 132.99 101.792C132.3 102.435 132.728 102.964 133.872 102.753C134.406 102.689 135.279 102.716 135.81 102.859C137.224 103.186 137.632 101.277 136.284 100.708C135.453 100.33 135.147 100.507 134.953 101.231Z" fill="#41BAFF"/>
<path d="M130.075 102.045C130.011 102.287 130.284 102.619 130.67 102.723C131.057 102.826 131.459 102.675 131.524 102.434C131.602 102.144 131.316 101.86 130.929 101.757C130.543 101.653 130.153 101.756 130.075 102.045Z" fill="#41BAFF"/>
<path d="M135.802 104.047C135.29 104.22 135.177 104.449 135.511 104.746C136.036 105.3 137.021 105.099 137.203 104.423C137.345 103.892 136.814 103.749 135.802 104.047Z" fill="#41BAFF"/>
<path d="M144.371 107.226C143.7 108.184 144.762 109.246 145.851 108.658C146.293 108.362 146.58 107.87 146.513 107.541C146.237 106.639 144.943 106.447 144.371 107.226Z" fill="#41BAFF"/>
<path d="M148.197 109.753C148.094 110.139 148.245 110.542 148.486 110.607C148.776 110.684 149.06 110.398 149.163 110.012C149.267 109.625 149.164 109.235 148.875 109.158C148.633 109.093 148.301 109.366 148.197 109.753Z" fill="#41BAFF"/>
<path d="M132.762 105.924C132.768 106.288 133.051 106.778 133.363 106.965C133.711 107.214 133.956 107.072 133.914 106.647C133.908 106.283 133.626 105.793 133.314 105.606C132.966 105.357 132.721 105.499 132.762 105.924Z" fill="#41BAFF"/>
<path d="M137.243 107.747C135.96 108.283 134.524 110.745 135.606 110.569C136.031 110.528 136.785 110.419 137.307 110.404C137.842 110.34 138.248 109.983 138.194 109.606C138.14 109.23 138.353 108.821 138.681 108.754C139.255 108.545 139.15 107.585 138.571 107.43C138.377 107.378 137.768 107.525 137.243 107.747Z" fill="#41BAFF"/>
<path d="M96.868 28.6683C97.2036 28.8859 97.6332 28.8667 97.7693 28.6569C97.9326 28.4053 97.7478 28.047 97.4122 27.8293C97.0766 27.6116 96.6741 27.589 96.5109 27.8406C96.3748 28.0504 96.5324 28.4506 96.868 28.6683Z" fill="#41BAFF"/>
<path d="M100.571 29.7581C101.326 30.2479 102.049 30.4191 102.447 30.0812C103.918 29.0087 102.566 27.417 100.785 28.0496C99.2808 28.6232 99.2558 28.8454 100.571 29.7581Z" fill="#41BAFF"/>
<path d="M96.1164 42.9641C96.1992 44.0309 96.4112 44.3472 97.0336 44.2146C97.5868 44.0967 97.7206 43.7067 97.5143 42.7385C96.9985 40.318 95.9044 40.4427 96.1164 42.9641Z" fill="#41BAFF"/>
<path d="M100.055 46.1739C100.042 47.2974 101.612 47.5412 102.292 46.4925C102.728 45.8213 102.654 45.4756 101.859 45.1388C100.729 44.5844 100.054 44.9812 100.055 46.1739Z" fill="#41BAFF"/>
<path d="M105.402 40.0458C106.389 40.2692 107.359 39.0504 106.603 38.5606C106.184 38.2885 105.687 38.5028 105.361 39.0062C105.034 39.5096 105.054 39.9392 105.402 40.0458Z" fill="#41BAFF"/>
<path d="M103.488 45.4768C104.033 45.8306 104.149 46.2036 103.736 46.4723C103.393 46.7262 103.274 47.1854 103.416 47.5164C103.815 48.3713 104.45 48.1275 104.602 46.9745C104.707 46.4462 105.001 45.6242 105.301 45.1628C106.048 43.9191 104.357 42.9418 103.401 44.0495C102.785 44.7229 102.859 45.0687 103.488 45.4768Z" fill="#41BAFF"/>
<path d="M106.428 45.5398C106.435 46.0805 106.618 46.2585 107.003 46.0318C107.692 45.7042 107.805 44.7042 107.217 44.3233C106.756 44.024 106.457 44.4854 106.428 45.5398Z" fill="#41BAFF"/>
<path d="M112.094 38.3639C112.799 39.2981 114.136 38.6156 113.913 37.398C113.768 36.8867 113.388 36.4615 113.054 36.4241C112.111 36.4082 111.53 37.5805 112.094 38.3639Z" fill="#41BAFF"/>
<path d="M115.677 35.5062C116.012 35.7238 116.442 35.7046 116.578 35.4948C116.741 35.2431 116.556 34.8849 116.221 34.6672C115.885 34.4495 115.483 34.4268 115.319 34.6785C115.183 34.8883 115.341 35.2885 115.677 35.5062Z" fill="#41BAFF"/>
<path d="M147.71 68.6852C146.832 68.8904 146.247 69.7392 146.651 70.371C146.975 70.8765 148.533 69.8798 148.52 69.1167C148.485 68.7832 148.128 68.596 147.71 68.6852Z" fill="#41BAFF"/>
<path d="M150.801 74.5405C150.341 74.6566 150.069 75.0675 150.143 75.5544C150.36 76.5433 150.982 76.6799 151.636 75.8463C152.22 74.9975 151.816 74.3657 150.801 74.5405Z" fill="#41BAFF"/>
<path d="M151.686 76.9451C151.199 77.0191 150.778 77.2884 150.748 77.4266C150.626 77.979 151.785 78.3062 152.417 77.9022C153.217 77.3904 152.744 76.7433 151.686 76.9451Z" fill="#41BAFF"/>
<path d="M152.844 80.891C152.553 80.8993 152.312 81.1721 152.305 81.5326C152.333 82.2267 153.197 82.7424 153.787 82.3653C154.292 82.042 153.565 80.9047 152.844 80.891Z" fill="#41BAFF"/>
<path d="M159.639 89.7047C158.736 89.995 158.574 91.0933 159.424 91.1024C159.874 91.1073 160.228 90.7611 160.232 90.3111C160.237 89.8611 159.99 89.6084 159.639 89.7047Z" fill="#41BAFF"/>
<path d="M148.425 79.9182C147.719 79.8354 147.494 80.0392 147.396 80.814C147.298 81.5889 147.447 81.7304 148.172 81.5639C149.383 81.3235 149.587 80.0652 148.425 79.9182Z" fill="#41BAFF"/>
<path d="M158.158 92.6863C157.857 92.783 157.654 93.0809 157.651 93.3309C157.648 93.5808 157.845 93.883 158.144 93.9862C158.443 94.0894 158.696 93.7921 158.701 93.3422C158.706 92.8922 158.459 92.5895 158.158 92.6863Z" fill="#41BAFF"/>
<path d="M153.849 102.54C153.399 102.535 153.097 102.782 153.194 103.083C153.29 103.384 153.588 103.637 153.838 103.64C154.088 103.642 154.39 103.396 154.494 103.097C154.597 102.798 154.299 102.545 153.849 102.54Z" fill="#41BAFF"/>
<path d="M157.98 83.573C157.853 83.9522 157.978 84.3636 158.215 84.4432C158.5 84.5388 158.801 84.2707 158.928 83.8915C159.056 83.5124 158.978 83.1169 158.693 83.0213C158.456 82.9417 158.108 83.1938 157.98 83.573Z" fill="#41BAFF"/>
<path d="M157.846 87.4312C157.56 88.2844 157.574 89.0275 158 89.329C159.404 90.4866 160.61 88.7819 159.554 87.214C158.625 85.8994 158.403 85.9305 157.846 87.4312Z" fill="#41BAFF"/>
<path d="M152.376 100.733C151.647 101.648 152.64 102.773 153.764 102.254C154.223 101.986 154.541 101.513 154.494 101.181C154.275 100.263 152.995 99.9911 152.376 100.733Z" fill="#41BAFF"/>
<path d="M156.035 103.491C155.908 103.871 156.033 104.282 156.27 104.362C156.554 104.457 156.856 104.189 156.983 103.81C157.11 103.431 157.032 103.035 156.748 102.94C156.511 102.86 156.162 103.112 156.035 103.491Z" fill="#41BAFF"/>
<path d="M110.39 45.3062C110.504 46.6916 112.403 48.8174 112.57 47.7336C112.662 47.3163 112.791 46.5658 112.937 46.0647C113.042 45.5364 112.828 45.0398 112.452 44.9752C112.077 44.9106 111.754 44.5818 111.791 44.2485C111.77 43.6385 110.824 43.4424 110.498 43.9457C110.389 44.1135 110.341 44.7382 110.39 45.3062Z" fill="#41BAFF"/>
<path d="M141.044 114.616C140.247 115.075 140.395 115.684 141.409 115.956C141.94 116.098 142.391 115.961 142.385 115.597C142.325 114.856 141.595 114.298 141.044 114.616Z" fill="#41BAFF"/>
<path d="M42.7135 123.041C42.4585 123.546 43.1358 124.165 43.7533 123.962C43.9908 123.884 44.0715 123.489 43.9465 123.109C43.7122 122.396 43.0641 122.346 42.7135 123.041Z" fill="#41BAFF"/>
<path d="M138.431 117.021C137.854 117.436 137.763 117.774 138.046 118.264C138.541 119.121 140.036 118.953 140.282 118.035C140.541 117.069 139.328 116.381 138.431 117.021Z" fill="#41BAFF"/>
<path d="M129.777 116.667C129.661 117.102 129.908 117.531 130.343 117.647C131.164 117.867 131.304 116.766 130.512 116.243C130.2 116.056 129.894 116.233 129.777 116.667Z" fill="#41BAFF"/>
<path d="M131.049 119.648C130.932 120.083 131.096 120.437 131.412 120.419C131.727 120.4 132.046 120.175 132.111 119.933C132.176 119.692 132.012 119.337 131.748 119.163C131.484 118.989 131.165 119.214 131.049 119.648Z" fill="#41BAFF"/>
<path d="M137.34 121.284C137.223 121.718 137.471 122.147 137.905 122.264C138.726 122.484 138.866 121.383 138.075 120.86C137.763 120.672 137.456 120.849 137.34 121.284Z" fill="#41BAFF"/>
<path d="M135.102 120.942C134.608 121.431 135.37 122.257 136.102 122.039C136.724 121.843 136.619 120.883 135.943 120.702C135.701 120.637 135.36 120.753 135.102 120.942Z" fill="#41BAFF"/>
<path d="M131.361 126.203C131.297 126.445 131.57 126.777 131.956 126.88C132.343 126.984 132.745 126.833 132.81 126.592C132.888 126.302 132.602 126.018 132.215 125.914C131.829 125.811 131.439 125.913 131.361 126.203Z" fill="#41BAFF"/>
<path d="M51.0428 135.724C50.9784 136.008 51.2621 136.23 51.7045 136.295C52.5107 136.346 52.9726 135.51 52.2784 135.159C51.7103 134.872 51.1559 135.107 51.0428 135.724Z" fill="#41BAFF"/>
<path d="M122.463 132.358C121.812 132.856 121.834 132.966 122.704 133.199C123.283 133.355 123.796 133.181 123.912 132.747C124.016 132.36 123.913 131.971 123.672 131.906C123.43 131.841 122.905 132.063 122.463 132.358Z" fill="#41BAFF"/>
<path d="M114.477 131.252C114.374 131.638 114.524 132.041 114.766 132.106C115.056 132.183 115.34 131.897 115.443 131.511C115.547 131.124 115.444 130.735 115.155 130.657C114.913 130.592 114.581 130.865 114.477 131.252Z" fill="#41BAFF"/>
<path d="M117.687 132.216C116.965 132.592 117.003 133.223 117.775 133.431C118.162 133.534 118.591 133.287 118.694 132.9C118.901 132.128 118.374 131.779 117.687 132.216Z" fill="#41BAFF"/>
<path d="M58.2494 140.987C58.3743 141.367 58.768 141.764 59.0523 141.828C59.3842 141.877 59.4805 141.529 59.3086 141.007C59.1212 140.437 58.7906 140.072 58.5057 140.166C58.2682 140.244 58.1244 140.607 58.2494 140.987Z" fill="#41BAFF"/>
<path d="M118.665 135.326C118.722 136.273 119.745 136.702 119.965 135.881C120.082 135.447 119.835 135.018 119.4 134.901C118.965 134.785 118.659 134.962 118.665 135.326Z" fill="#41BAFF"/>
<path d="M110.19 133.726C110.087 134.112 110.237 134.515 110.479 134.579C110.769 134.657 111.052 134.371 111.156 133.985C111.26 133.598 111.157 133.208 110.867 133.131C110.626 133.066 110.294 133.339 110.19 133.726Z" fill="#41BAFF"/>
<path d="M112.122 134.244C111.483 134.694 111.445 134.839 112.121 135.02C112.555 135.137 112.984 134.889 113.088 134.503C113.191 134.116 113.185 133.753 113.089 133.727C112.992 133.701 112.564 133.948 112.122 134.244Z" fill="#41BAFF"/>
<path d="M114.54 134.685C114.089 134.823 113.989 135.003 114.23 135.068C114.52 135.146 114.825 135.745 114.911 136.39C115.173 138.116 116.924 138.534 117.339 136.989C117.572 136.12 117.338 135.643 116.498 135.107C115.812 134.768 114.943 134.534 114.54 134.685Z" fill="#41BAFF"/>
<path d="M85.2599 118.784C85.1562 119.17 85.4036 119.599 85.79 119.703C86.1763 119.806 86.605 119.559 86.7087 119.172C86.8123 118.786 86.5649 118.357 86.1785 118.254C85.7922 118.15 85.3635 118.398 85.2599 118.784Z" fill="#41BAFF"/>
<path d="M102.659 132.275C102.169 132.558 102.396 133.447 103.024 133.616C103.265 133.68 103.549 133.394 103.653 133.008C103.847 132.283 103.332 131.887 102.659 132.275Z" fill="#41BAFF"/>
<path d="M62.4988 115.631C61.7051 116.661 60.9372 117.593 60.7888 117.761C60.1081 118.562 61.9691 118.957 63.0715 118.321C64.4802 117.508 65.162 115.931 64.3351 115.347C63.904 115.024 63.9299 114.928 64.4128 115.057C65.2467 115.229 65.4092 114.237 64.5882 114.017C64.2019 113.914 63.2797 114.65 62.4988 115.631Z" fill="#41BAFF"/>
<path d="M83.9055 119.973C83.7889 120.408 83.9527 120.763 84.2684 120.744C84.584 120.725 84.9032 120.5 84.968 120.258C85.0327 120.017 84.869 119.662 84.6051 119.488C84.3413 119.314 84.0221 119.539 83.9055 119.973Z" fill="#41BAFF"/>
<path d="M87.0189 129.789C87.0249 130.153 87.2016 130.459 87.3947 130.511C87.9872 130.618 88.0237 129.903 87.5089 129.506C87.1968 129.319 86.9518 129.46 87.0189 129.789Z" fill="#41BAFF"/>
<path d="M104.128 134.326C103.905 134.577 103.898 134.989 104.149 135.212C104.744 135.889 105.395 135.391 104.936 134.594C104.688 134.166 104.399 134.088 104.128 134.326Z" fill="#41BAFF"/>
<path d="M98.5411 132.372C98.3857 132.951 99.4106 134.727 99.9901 134.883C100.232 134.947 100.489 134.758 100.554 134.516C100.632 134.226 100.442 133.969 100.153 133.891C99.9111 133.826 99.818 133.594 100.028 133.391C100.237 133.189 100.135 132.799 99.739 132.538C98.8285 131.879 98.6836 131.84 98.5411 132.372Z" fill="#41BAFF"/>
<path d="M80.8135 119.921C80.7488 120.162 80.9738 120.482 81.3601 120.585C81.7465 120.689 82.2942 120.577 82.5038 120.374C82.7264 120.123 82.4884 119.852 81.9572 119.71C81.3777 119.555 80.8913 119.631 80.8135 119.921Z" fill="#41BAFF"/>
<path d="M116.592 138.808C116.527 139.049 116.801 139.381 117.187 139.485C117.573 139.588 117.976 139.438 118.041 139.196C118.119 138.906 117.832 138.623 117.446 138.519C117.06 138.415 116.67 138.518 116.592 138.808Z" fill="#41BAFF"/>
<path d="M46.3397 121.26C46.1348 122.603 46.9194 123.538 47.6837 122.812C47.9676 122.525 47.9617 122.161 47.6978 121.987C47.4339 121.813 47.441 121.401 47.6895 121.053C47.938 120.706 47.8225 120.364 47.3396 120.234C46.8083 120.092 46.5116 120.427 46.3397 121.26Z" fill="#41BAFF"/>
<path d="M72.1183 118.366C71.46 119.276 71.6321 120.565 72.4531 120.785C73.4189 121.044 74.7345 119.999 74.6296 119.039C74.5376 118.031 72.7154 117.49 72.1183 118.366Z" fill="#41BAFF"/>
<path d="M75.7251 119.592C75.6604 119.833 75.9337 120.165 76.32 120.269C76.7064 120.372 77.1092 120.222 77.1739 119.98C77.2516 119.69 76.9654 119.406 76.5791 119.303C76.1927 119.199 75.8028 119.302 75.7251 119.592Z" fill="#41BAFF"/>
<path d="M35.9436 118.524C35.4537 118.807 35.6811 119.696 36.3089 119.864C36.5504 119.929 36.8342 119.643 36.9378 119.256C37.1321 118.532 36.6173 118.135 35.9436 118.524Z" fill="#41BAFF"/>
<path d="M94.8534 134.54C94.6851 135.168 94.9324 135.597 95.5603 135.765C96.1881 135.934 96.6168 135.686 96.7852 135.059C96.9535 134.431 96.7062 134.002 96.0783 133.834C95.4505 133.665 95.0218 133.913 94.8534 134.54Z" fill="#41BAFF"/>
<path d="M83.0404 132.656C82.9368 133.043 83.0876 133.445 83.3291 133.51C83.6188 133.588 83.9027 133.302 84.0063 132.915C84.1099 132.529 84.0074 132.139 83.7176 132.061C83.4762 131.997 83.144 132.27 83.0404 132.656Z" fill="#41BAFF"/>
<path d="M74.9523 121.507C74.6814 121.745 74.5554 122.022 74.6615 122.205C74.9088 122.634 76.539 122.347 76.6685 121.864C76.8369 121.236 75.507 120.983 74.9523 121.507Z" fill="#41BAFF"/>
<path d="M79.9308 122.635C79.0863 123.082 79.2136 124.151 80.1312 124.397C80.759 124.566 81.1877 124.318 81.3561 123.69C81.6022 122.773 80.74 122.127 79.9308 122.635Z" fill="#41BAFF"/>
<path d="M118.778 141.267C118.288 141.55 118.515 142.439 119.143 142.608C119.385 142.672 119.668 142.386 119.772 142C119.966 141.275 119.451 140.879 118.778 141.267Z" fill="#41BAFF"/>
<path d="M58.3963 117.999C58.0701 118.636 57.6449 118.677 56.7179 118.273C55.9487 117.86 55.4752 117.888 55.3716 118.275C55.2809 118.613 55.6284 118.861 56.2468 118.872C56.9747 118.86 57.354 119.376 57.7546 120.777C58.4085 122.972 58.8526 123.246 60.2424 122.118C61.3872 121.13 61.3823 119.99 60.2927 118.456C59.2737 117.043 58.984 116.966 58.3963 117.999Z" fill="#41BAFF"/>
<path d="M82.5481 124.269C82.2254 124.7 82.4021 125.006 83.0299 125.174C83.5612 125.317 84.0865 125.095 84.1901 124.709C84.2937 124.323 84.0946 123.907 83.7083 123.803C83.3219 123.7 82.8449 123.934 82.5481 124.269Z" fill="#41BAFF"/>
<path d="M50.4013 125.611C49.988 126.38 49.7559 126.473 49.5827 125.961C49.4932 125.523 49.181 125.335 48.8877 125.464C48.3978 125.747 49.2142 126.949 50.0834 127.182C50.3732 127.26 50.9692 127.161 51.4203 127.023C52.1517 126.805 52.2035 126.612 51.6251 125.68C51.0243 124.639 50.976 124.626 50.4013 125.611Z" fill="#41BAFF"/>
<path d="M107.758 139.502C107.597 139.718 107.809 140.085 108.301 140.373C108.793 140.66 109.241 140.728 109.306 140.487C109.461 139.907 108.226 139.11 107.758 139.502Z" fill="#41BAFF"/>
<path d="M31.773 120.563C30.7448 121.116 31.1042 122.092 32.4564 122.455C33.8086 122.817 33.8828 122.734 33.5847 121.722C33.2159 120.588 32.5209 120.091 31.773 120.563Z" fill="#41BAFF"/>
<path d="M73.5151 123.969C72.5341 125.31 72.3174 125.925 72.8969 126.081C73.3799 126.21 75.4598 124.438 75.6541 123.714C75.9261 122.7 74.2736 122.878 73.5151 123.969Z" fill="#41BAFF"/>
<path d="M76.1433 124.208C76.0515 125.322 79.5216 126.667 79.7936 125.652C79.9749 124.976 78.7298 124.021 77.0879 123.581C76.5084 123.425 76.1892 123.65 76.1433 124.208Z" fill="#41BAFF"/>
<path d="M113.221 142.107C112.518 142.798 113.382 144.014 114.24 143.519C114.975 143.095 114.86 141.977 114.136 141.783C113.894 141.718 113.492 141.869 113.221 142.107Z" fill="#41BAFF"/>
<path d="M64.1632 121.201C63.8923 121.439 63.7534 121.765 63.8594 121.948C64.1068 122.377 65.241 122.008 65.3965 121.429C65.5519 120.849 64.7309 120.629 64.1632 121.201Z" fill="#41BAFF"/>
<path d="M96.9947 138.531C96.9488 139.088 97.2669 139.64 97.7722 139.879C98.3612 140.192 98.6062 140.051 98.6296 139.384C98.6755 138.827 98.3575 138.276 97.8521 138.037C97.2632 137.723 97.0182 137.865 96.9947 138.531Z" fill="#41BAFF"/>
<path d="M70.5018 123.626C70.2816 124.447 70.3653 124.521 71.5443 124.371C72.5042 124.266 72.4346 123.368 71.3722 123.083C70.9858 122.979 70.6054 123.24 70.5018 123.626Z" fill="#41BAFF"/>
<path d="M100.173 139.798C100.069 140.185 100.146 140.671 100.3 140.868C100.825 141.422 102.133 140.79 101.95 140.12C101.675 139.217 100.393 138.977 100.173 139.798Z" fill="#41BAFF"/>
<path d="M50.4039 128.304C50.1165 128.796 50 129.231 50.1449 129.269C50.6278 129.399 52.0529 128.332 51.8408 127.964C51.4521 127.29 50.9044 127.402 50.4039 128.304Z" fill="#41BAFF"/>
<path d="M80.9683 126.485C80.1721 126.945 80.3194 127.554 81.3335 127.826C81.8648 127.968 82.3159 127.83 82.31 127.466C82.2498 126.725 81.5195 126.167 80.9683 126.485Z" fill="#41BAFF"/>
<path d="M43.2117 126.168C42.7218 126.45 42.9162 127.849 43.4475 127.991C43.6889 128.056 43.9987 127.673 44.1412 127.142C44.3872 126.224 43.9467 125.744 43.2117 126.168Z" fill="#41BAFF"/>
<path d="M45.0482 128.006C45.1048 128.953 46.1284 129.383 46.3486 128.562C46.4651 128.127 46.2178 127.698 45.7831 127.582C45.3485 127.465 45.0422 127.642 45.0482 128.006Z" fill="#41BAFF"/>
<path d="M28.9819 124.215C29.0385 125.162 30.0621 125.592 30.2823 124.771C30.3989 124.336 30.1515 123.907 29.7168 123.791C29.2822 123.674 28.976 123.851 28.9819 124.215Z" fill="#41BAFF"/>
<path d="M76.9686 128.467C76.865 128.853 77.1124 129.282 77.4987 129.385C77.9334 129.502 78.156 129.251 78.1276 128.778C78.0381 128.339 77.839 127.924 77.5975 127.859C77.3561 127.794 77.0722 128.08 76.9686 128.467Z" fill="#41BAFF"/>
<path d="M94.8553 142.254C94.6999 142.834 94.8731 143.346 95.2595 143.45C96.0804 143.67 96.3983 142.099 95.655 141.589C95.3429 141.401 94.9978 141.723 94.8553 142.254Z" fill="#41BAFF"/>
<path d="M42.9788 129.159C42.7338 129.301 42.6173 129.735 42.6585 130.161C42.6868 130.634 42.4065 130.714 41.7693 130.388C41.2639 130.149 40.6585 130.09 40.4359 130.341C40.0296 130.698 40.3288 130.933 41.6457 131.235C42.6598 131.507 44.5797 131.297 44.4772 130.907C44.3841 130.675 45.1698 130.834 46.2193 131.167C47.2688 131.501 48.032 131.55 47.9519 131.27C47.8718 130.989 46.7999 130.547 45.6279 130.284C44.4076 130.008 43.4323 129.592 43.3875 129.373C43.404 129.118 43.2108 129.066 42.9788 129.159Z" fill="#41BAFF"/>
<path d="M91.2054 141.586C90.9569 141.934 91.0111 142.311 91.3009 142.388C91.5907 142.466 91.6967 142.65 91.5129 142.756C91.2809 142.849 90.6696 142.426 90.11 141.81C89.5634 141.146 89.0616 140.701 88.9874 140.784C87.957 142.889 87.9146 143.24 88.6884 142.671C89.3527 142.125 89.5459 142.177 89.9346 142.85C90.5095 143.988 91.8852 143.684 92.2479 142.332C92.5976 141.028 91.9379 140.592 91.2054 141.586Z" fill="#41BAFF"/>
<path d="M23.0446 127.437C22.458 127.694 22.0293 127.941 22.1742 127.98C23.7609 128.819 24.0153 128.836 24.2484 127.967C24.5463 126.856 24.498 126.843 23.0446 127.437Z" fill="#41BAFF"/>
</svg>
