<svg width="180" height="180" viewBox="0 0 180 180" fill="none" xmlns="http://www.w3.org/2000/svg">
<path fill-rule="evenodd" clip-rule="evenodd" d="M150.001 59.6201C149.709 58.5282 149.301 57.4835 148.792 56.5C148.171 55.3006 147.399 54.1921 146.5 53.2C145.614 52.2221 144.606 51.3573 143.5 50.6296C142.13 49.7288 140.61 49.0382 138.985 48.6039C136.673 47.9843 132.705 47.5122 128 47.1524C112.931 46 90.3022 46 90.3022 46C90.3022 46 51.3375 46 41.6199 48.6039C36.2591 50.0367 32.0366 54.2592 30.6039 59.6201C28 69.3376 28 89.6117 28 89.6117C28 89.6117 28 109.887 30.6039 119.604C32.0366 124.964 36.2591 129.187 41.6199 130.619C44.2332 131.32 48.9617 131.832 54.4787 132.206C59.8504 132.571 65.9697 132.805 71.612 132.955C81.723 133.224 90.3022 133.224 90.3022 133.224C90.3022 133.224 94.8201 133.224 101.163 133.121C102.968 133.092 104.762 133.29 106.5 133.708C107.522 133.954 108.525 134.276 109.5 134.672C110.623 135.129 111.709 135.684 112.744 136.336C113.468 136.792 114.112 137.354 114.653 138C115.31 138.784 115.815 139.692 116.131 140.682C116.472 141.753 116.83 142.905 117.156 144C117.366 144.702 117.562 145.381 117.732 146C118.095 147.322 118.339 148.372 118.339 148.8V158.703V168.606L117.978 172.581C117.549 177.3 123.115 180.109 126.656 176.961C128.904 174.963 129.006 171.485 126.88 169.358L126.127 168.606L121.925 150.795C121.612 149.469 121.454 148.112 121.454 146.75V142.393C121.454 140.511 122.202 138.707 123.532 137.376C124.216 136.692 125.033 136.155 125.933 135.798L127 135.375L138.985 130.619C144.346 129.187 148.568 124.964 150.001 119.604C151.515 113.952 152.149 104.728 152.414 98C152.605 93.1604 152.605 89.6117 152.605 89.6117C152.605 89.6117 152.605 87.1359 152.494 83.5C152.436 81.5899 152.346 79.3597 152.211 77C152.097 75.027 151.951 72.9634 151.762 70.9209C151.575 68.89 151.346 66.8798 151.066 65C150.771 63.0191 150.42 61.183 150.001 59.6201ZM77.8419 70.9209V108.303L110.214 89.612L77.8419 70.9209Z" fill="#FF4D26"/>
<path d="M62.2666 139.454C63.4308 135.898 65.1317 134.313 71.612 132.955C65.9697 132.805 59.8504 132.571 54.4787 132.206C57.4568 132.882 57.9429 134.351 57.8505 136.558C57.7729 138.414 56.774 140.11 55.3234 141.271L53.5056 142.725C51.483 144.343 51.2036 147.315 52.8893 149.282C55.3991 152.21 60.1828 150.915 60.8727 147.12L62.2666 139.454Z" fill="#FF4D26"/>
<path d="M63.6921 26.1426C63.1228 27.5183 63.8818 28.4196 65.305 28.0401C67.0602 27.6132 67.1076 27.4709 66.1114 26.3798C65.1152 25.2413 64.0716 25.1464 63.6921 26.1426Z" fill="#FF4D26"/>
<path d="M81.3379 26.8071C81.1956 26.9968 81.3853 27.6135 81.7648 28.0879C82.1444 28.5623 82.4764 28.752 82.4764 28.42C82.4764 28.1353 82.6187 27.5661 82.7611 27.1391C83.0457 26.3327 81.8123 26.048 81.3379 26.8071Z" fill="#FF4D26"/>
<path d="M88.5012 26.6648C87.7896 27.3764 88.1691 28.7995 89.023 28.6572C89.45 28.5623 89.8295 28.0879 89.8295 27.6136C89.8295 26.6648 89.0705 26.143 88.5012 26.6648Z" fill="#FF4D26"/>
<path d="M22.3279 27.8979C22.6125 28.7518 23.6562 28.8941 23.6562 28.0876C23.6562 27.6607 23.3241 27.3286 22.8972 27.3286C22.4702 27.3286 22.233 27.5658 22.3279 27.8979Z" fill="#FF4D26"/>
<path d="M47.8492 27.8037C47.8492 28.0409 48.1813 28.2781 48.5608 28.2781C48.9403 28.2781 49.2724 28.0409 49.2724 27.8037C49.2724 27.5191 48.9403 27.3293 48.5608 27.3293C48.1813 27.3293 47.8492 27.5191 47.8492 27.8037Z" fill="#FF4D26"/>
<path d="M68.8175 27.8504C68.9124 28.1351 69.197 28.3248 69.4342 28.3248C69.6714 28.3248 69.9561 28.1351 70.0509 27.8504C70.1458 27.5658 69.8612 27.3286 69.4342 27.3286C69.0073 27.3286 68.7227 27.5658 68.8175 27.8504Z" fill="#FF4D26"/>
<path d="M90.8715 27.993C90.5869 28.752 90.9664 29.3213 91.5356 28.9418C92.1049 28.6097 92.0575 27.3289 91.5356 27.3289C91.2985 27.3289 91.0138 27.6135 90.8715 27.993Z" fill="#FF4D26"/>
<path d="M72.6096 28.3722C72.8943 29.2261 73.9379 29.3685 73.9379 28.562C73.9379 28.1351 73.6058 27.803 73.1789 27.803C72.7519 27.803 72.5148 28.0402 72.6096 28.3722Z" fill="#FF4D26"/>
<path d="M95.0005 28.8004C94.5261 29.6069 95.6172 30.5082 96.2813 29.844C96.8506 29.2748 96.471 28.2786 95.7595 28.2786C95.5223 28.2786 95.1902 28.5158 95.0005 28.8004Z" fill="#FF4D26"/>
<path d="M49.8419 31.2186C49.9368 31.8353 50.3163 32.3097 50.6958 32.3097C51.0753 32.3097 51.4548 31.8353 51.5497 31.2186C51.692 30.4122 51.4548 30.175 50.6958 30.175C49.9368 30.175 49.6996 30.4122 49.8419 31.2186Z" fill="#FF4D26"/>
<path d="M62.0793 30.8865C62.0793 31.3134 62.3165 31.5981 62.6012 31.5032C62.8858 31.4083 63.123 31.1237 63.123 30.8865C63.123 30.6493 62.8858 30.3647 62.6012 30.2698C62.3165 30.1749 62.0793 30.4596 62.0793 30.8865Z" fill="#FF4D26"/>
<path d="M25.5536 31.7879C25.5536 32.2148 25.8857 32.5469 26.3126 32.5469C26.7395 32.5469 26.9767 32.3097 26.8819 31.9776C26.5972 31.1237 25.5536 30.9814 25.5536 31.7879Z" fill="#FF4D26"/>
<path d="M96.2341 31.8358C96.2341 32.3102 96.5662 32.5474 97.088 32.4525C98.0842 32.2628 97.9894 31.4089 96.9931 31.2191C96.5188 31.1243 96.2341 31.3614 96.2341 31.8358Z" fill="#FF4D26"/>
<path d="M91.4421 32.3579C90.9203 32.9746 90.9677 33.1643 91.537 33.5438C92.4858 34.1131 92.7704 34.0656 93.055 33.3066C93.482 32.2155 92.2011 31.4565 91.4421 32.3579Z" fill="#FF4D26"/>
<path d="M13.5475 33.0691C12.1717 34.9666 14.1642 37.4334 16.0617 36.2475C17.2951 35.441 17.3425 33.2114 16.1091 32.5473C14.7809 31.8357 14.3065 31.9306 13.5475 33.0691Z" fill="#FF4D26"/>
<path d="M84.8047 32.3098C84.6624 32.4047 84.6624 33.306 84.7573 34.2074C84.947 35.6305 85.1368 35.9152 85.9907 35.7728C87.319 35.5831 87.651 33.6381 86.4176 33.1637C85.9432 32.974 85.4214 32.6893 85.2791 32.4522C85.1368 32.215 84.8996 32.1675 84.8047 32.3098Z" fill="#FF4D26"/>
<path d="M99.5576 33.2117C99.5576 33.6386 99.8897 33.9707 100.317 33.9707C100.744 33.9707 100.981 33.7335 100.886 33.4014C100.601 32.5476 99.5576 32.4052 99.5576 33.2117Z" fill="#FF4D26"/>
<path d="M70.6181 34.2067C70.6181 34.5862 70.1911 34.9183 69.6219 34.9183C68.8154 34.9183 68.6731 35.1555 68.8154 36.3889C68.9577 38.0967 70.286 39.2352 71.0924 38.4287C71.3771 38.1441 71.7091 36.9107 71.804 35.7247C71.9463 34.017 71.804 33.4951 71.2822 33.4951C70.9027 33.4951 70.6181 33.8272 70.6181 34.2067Z" fill="#FF4D26"/>
<path d="M42.1548 34.6817C42.1548 35.0612 42.4869 35.3933 42.8664 35.3933C43.2459 35.3933 43.5779 35.0612 43.5779 34.6817C43.5779 34.3022 43.2459 33.9702 42.8664 33.9702C42.4869 33.9702 42.1548 34.3022 42.1548 34.6817Z" fill="#FF4D26"/>
<path d="M113.645 34.3022C113.075 34.8241 113.265 35.3933 114.024 35.3933C114.404 35.3933 114.736 35.0612 114.736 34.6817C114.736 33.9227 114.166 33.733 113.645 34.3022Z" fill="#FF4D26"/>
<path d="M56.0076 35.2506C56.1025 35.725 56.482 36.1045 56.8615 36.1045C57.241 36.1045 57.6205 35.725 57.7154 35.2506C57.8103 34.6813 57.5731 34.4441 56.8615 34.4441C56.1499 34.4441 55.9127 34.6813 56.0076 35.2506Z" fill="#FF4D26"/>
<path d="M39.3094 36.5791C38.835 37.101 38.835 37.4805 39.2145 37.86C39.9261 38.5716 41.3018 37.9549 41.112 36.9587C40.9223 35.8676 40.0684 35.6778 39.3094 36.5791Z" fill="#FF4D26"/>
<path d="M90.4017 36.1996C89.6901 36.9111 90.0696 38.2394 91.0184 38.2394C91.73 38.2394 91.9672 37.9073 91.9672 37.0534C91.9672 35.9149 91.1133 35.4405 90.4017 36.1996Z" fill="#FF4D26"/>
<path d="M74.4127 37.3378C74.4127 38.4763 75.5038 38.334 75.741 37.148C75.8359 36.6736 75.5987 36.3416 75.1717 36.3416C74.6973 36.3416 74.4127 36.7685 74.4127 37.3378Z" fill="#FF4D26"/>
<path d="M109.52 37.5279C109.52 37.9074 109.852 38.2395 110.231 38.2395C110.611 38.2395 110.943 37.9074 110.943 37.5279C110.943 37.1484 110.611 36.8164 110.231 36.8164C109.852 36.8164 109.52 37.1484 109.52 37.5279Z" fill="#FF4D26"/>
<path d="M35.5159 38.0027C35.5159 38.4297 35.7531 38.7143 36.0378 38.6194C36.3224 38.5245 36.5596 38.2399 36.5596 38.0027C36.5596 37.7655 36.3224 37.4809 36.0378 37.386C35.7531 37.2911 35.5159 37.5758 35.5159 38.0027Z" fill="#FF4D26"/>
<path d="M49.27 38.24C49.27 38.4772 48.9379 38.5721 48.5584 38.4298C48.0841 38.24 47.8469 38.4298 47.8469 39.0939C47.8469 39.6632 47.6571 40.2324 47.3725 40.3747C46.6609 40.8017 46.8032 41.5607 47.6097 41.5607C47.9892 41.5607 48.3212 41.3709 48.3212 41.0863C48.3212 40.8491 48.6533 40.7542 49.0328 40.8966C49.5072 41.0863 49.7444 40.8966 49.7444 40.185C49.7444 39.6157 49.9816 39.1888 50.2188 39.1888C50.5034 39.1888 50.6932 38.8567 50.6932 38.4772C50.6932 38.0977 50.3611 37.7656 49.9816 37.7656C49.6021 37.7656 49.27 37.9554 49.27 38.24Z" fill="#FF4D26"/>
<path d="M75.1737 39.4254C74.7467 40.0896 74.0826 40.6114 73.7505 40.6114C72.9915 40.6114 72.3748 41.8922 72.8018 42.5564C73.6082 43.8846 76.075 41.7025 76.2173 39.5203C76.3122 37.9548 76.1699 37.9074 75.1737 39.4254Z" fill="#FF4D26"/>
<path d="M109.234 39.3784C108.854 40.422 109.376 40.9438 110.088 40.2323C110.515 39.8053 110.515 39.5207 110.088 39.0937C109.661 38.6668 109.471 38.7617 109.234 39.3784Z" fill="#FF4D26"/>
<path d="M79.5353 39.4728C79.0135 39.9472 79.6776 41.0857 80.4366 41.0857C80.8161 41.0857 81.0533 40.7536 80.9584 40.2792C80.8161 39.4254 80.0097 38.9984 79.5353 39.4728Z" fill="#FF4D26"/>
<path d="M35.5159 40.3267C35.5159 40.7536 35.848 41.0857 36.2749 41.0857C36.7019 41.0857 36.9391 40.8485 36.8442 40.5164C36.5596 39.6625 35.5159 39.5202 35.5159 40.3267Z" fill="#FF4D26"/>
<path d="M53.0655 40.6119C53.0655 41.7504 53.7771 41.8927 54.204 40.8017C54.631 39.758 54.5835 39.6631 53.7771 39.6631C53.3976 39.6631 53.0655 40.0901 53.0655 40.6119Z" fill="#FF4D26"/>
<path d="M55.7735 39.9473C55.2043 40.5166 55.394 41.9397 56.0582 42.1769C57.0544 42.5564 57.9083 41.7974 57.7185 40.8012C57.5762 39.8999 56.3428 39.3781 55.7735 39.9473Z" fill="#FF4D26"/>
<path d="M88.3617 40.1852C87.8873 40.9916 88.9784 41.8929 89.6425 41.2288C90.2118 40.6595 89.8323 39.6633 89.1207 39.6633C88.8835 39.6633 88.5514 39.9005 88.3617 40.1852Z" fill="#FF4D26"/>
<path d="M92.1095 40.3743C91.9672 40.8012 91.9672 41.2281 92.1095 41.3705C92.5365 41.7974 93.3904 41.0858 93.3904 40.3268C93.3904 39.4255 92.4891 39.4729 92.1095 40.3743Z" fill="#FF4D26"/>
<path d="M64.2142 40.6121C64.0244 40.8967 64.0718 41.2762 64.2142 41.5608C64.3565 41.798 64.1667 42.0352 63.7398 42.0352C63.3128 42.0352 63.0282 42.2724 63.1231 42.6045C63.5026 43.6956 64.3565 43.4584 65.0681 42.0827C65.6373 40.8967 65.6848 40.6121 65.1155 40.4223C64.7834 40.28 64.3565 40.3749 64.2142 40.6121Z" fill="#FF4D26"/>
<path d="M96.9487 41.0856C96.5692 41.7023 97.1385 42.6037 97.7078 42.2716C98.277 41.8921 98.277 40.6113 97.7078 40.6113C97.4231 40.6113 97.0911 40.801 96.9487 41.0856Z" fill="#FF4D26"/>
<path d="M58.6636 42.3671C57.6199 42.6043 57.5251 44.2172 58.5687 44.5967C59.5649 44.9762 60.1816 44.5492 60.1816 43.4581C60.1816 42.4145 59.8021 42.1299 58.6636 42.3671Z" fill="#FF4D26"/>
<path d="M95.1433 42.3678C94.6215 42.8422 94.7638 43.2217 95.7126 44.3128C96.8037 45.641 98.1319 45.6885 98.1319 44.4076C98.1319 43.8858 97.8473 43.4589 97.4678 43.4589C97.0883 43.4589 96.7088 43.1268 96.519 42.7473C96.2344 41.9883 95.6651 41.846 95.1433 42.3678Z" fill="#FF4D26"/>
<path d="M55.1068 43.2204C54.7748 44.1692 55.2017 44.5961 56.103 44.2641C56.53 44.0743 56.7197 43.6474 56.5774 43.2204C56.1979 42.3191 55.4863 42.3191 55.1068 43.2204Z" fill="#FF4D26"/>
<path d="M100.98 43.2204C100.98 43.5999 101.217 43.932 101.455 43.932C101.739 43.932 101.929 43.5999 101.929 43.2204C101.929 42.8409 101.739 42.5088 101.455 42.5088C101.217 42.5088 100.98 42.8409 100.98 43.2204Z" fill="#FF4D26"/>
<path d="M30.2957 43.8852C30.2957 44.4545 30.5328 44.8814 30.77 44.8814C31.0547 44.8814 31.2444 44.5968 31.2444 44.2173C31.2444 43.8378 31.0547 43.3634 30.77 43.2211C30.5328 43.0788 30.2957 43.3634 30.2957 43.8852Z" fill="#FF4D26"/>
<path d="M51.1686 43.6957C51.1686 44.0752 51.4058 44.4072 51.643 44.4072C51.9277 44.4072 52.1174 44.0752 52.1174 43.6957C52.1174 43.3161 51.9277 42.9841 51.643 42.9841C51.4058 42.9841 51.1686 43.3161 51.1686 43.6957Z" fill="#FF4D26"/>
<path d="M77.1192 43.8373C75.8384 45.2604 76.0755 46.3041 77.7359 46.3041C79.2065 46.3041 79.5385 45.4976 78.8744 43.7424C78.4949 42.7462 78.068 42.7936 77.1192 43.8373Z" fill="#FF4D26"/>
<path d="M93.0553 43.6955C92.7232 44.6443 93.1501 45.0712 94.0515 44.7392C94.4784 44.5494 94.6682 44.1225 94.5258 43.6955C94.1463 42.7942 93.4348 42.7942 93.0553 43.6955Z" fill="#FF4D26"/>
<path d="M165.116 43.5526C165.353 44.2642 166.444 44.4065 166.491 43.6949C166.491 43.4103 166.159 43.1257 165.685 43.0782C165.21 42.9359 164.973 43.1257 165.116 43.5526Z" fill="#FF4D26"/>
<path d="M86.746 44.4067C86.746 44.9285 86.8883 45.3554 87.1255 45.4029C87.3153 45.4029 87.8371 45.4978 88.2641 45.5926C89.4975 45.8298 89.877 44.8336 88.8808 44.0746C87.5999 43.1733 86.746 43.3156 86.746 44.4067Z" fill="#FF4D26"/>
<path d="M37.2695 44.2644C36.7003 44.7862 36.89 45.3555 37.649 45.3555C38.0285 45.3555 38.3606 45.0234 38.3606 44.6439C38.3606 43.8849 37.7914 43.6951 37.2695 44.2644Z" fill="#FF4D26"/>
<path d="M100.836 45.1654C100.456 45.5449 100.883 46.304 101.5 46.304C101.737 46.304 101.927 45.9719 101.927 45.5924C101.927 44.8808 101.358 44.6436 100.836 45.1654Z" fill="#FF4D26"/>
<path d="M39.7838 46.0676C39.7838 46.4471 40.1158 46.7792 40.4953 46.7792C40.8748 46.7792 41.2069 46.4471 41.2069 46.0676C41.2069 45.6881 40.8748 45.356 40.4953 45.356C40.1158 45.356 39.7838 45.6881 39.7838 46.0676Z" fill="#FF4D26"/>
<path d="M55.2489 45.6879C54.6796 46.2571 54.9642 47.2533 55.6758 47.2533C56.0553 47.2533 56.3874 46.9687 56.3874 46.5892C56.3874 45.7827 55.7233 45.2609 55.2489 45.6879Z" fill="#FF4D26"/>
<path d="M162.177 47.4902C162.177 47.8697 162.461 48.2018 162.841 48.2018C163.22 48.2018 163.6 47.8697 163.79 47.4902C163.979 47.0158 163.742 46.7786 163.125 46.7786C162.604 46.7786 162.177 47.1107 162.177 47.4902Z" fill="#FF4D26"/>
<path d="M143.201 47.8229C142.631 48.2024 142.679 48.2499 143.438 48.0127C144.339 47.7281 144.339 47.7755 143.58 48.3448C142.726 49.0563 142.916 49.6256 144.007 49.6256C144.671 49.6256 144.861 47.9178 144.244 47.5383C144.055 47.4434 143.58 47.5383 143.201 47.8229Z" fill="#FF4D26"/>
<path d="M153.163 47.965C152.404 48.9138 152.926 50.0997 154.064 50.0997C155.203 50.0997 155.63 49.483 155.25 48.5342C154.871 47.4906 153.78 47.206 153.163 47.965Z" fill="#FF4D26"/>
<path d="M160.132 47.5851C159.516 48.2018 159.8 48.5813 160.749 48.3441C161.271 48.2018 161.698 47.9172 161.698 47.68C161.698 47.2056 160.559 47.1107 160.132 47.5851Z" fill="#FF4D26"/>
<path d="M149.747 49.0551C149.082 49.1974 148.94 49.6718 149.035 51.427C149.13 53.4669 149.225 53.6566 150.458 53.7989C151.881 53.9887 151.976 53.7989 151.217 52.4232C150.838 51.6642 150.885 51.3321 151.407 50.9052C152.024 50.3834 152.024 50.2411 151.359 49.5769C150.885 49.1974 150.173 48.9128 149.747 49.0551Z" fill="#FF4D26"/>
<path d="M23.1785 52.9456C23.1785 53.5623 23.4157 53.8944 23.7952 53.7521C24.0799 53.6572 24.3645 53.2777 24.3645 52.9456C24.3645 52.6136 24.0799 52.234 23.7952 52.0917C23.4157 51.9969 23.1785 52.3289 23.1785 52.9456Z" fill="#FF4D26"/>
<path d="M153.969 52.7556C153.305 53.4197 153.637 54.4159 154.491 54.2736C154.918 54.1788 155.297 53.7992 155.297 53.4672C155.297 52.7082 154.443 52.2812 153.969 52.7556Z" fill="#FF4D26"/>
<path d="M32.2878 55.8397C32.3826 56.1243 32.6673 56.3141 32.9045 56.3141C33.1416 56.3141 33.4263 56.1243 33.5211 55.8397C33.616 55.5551 33.3314 55.3179 32.9045 55.3179C32.4775 55.3179 32.1929 55.5551 32.2878 55.8397Z" fill="#FF4D26"/>
<path d="M150.313 56.3141C150.313 57.5 151.879 57.3577 152.116 56.1243C152.211 55.5551 151.974 55.3179 151.31 55.3179C150.598 55.3179 150.313 55.6025 150.313 56.3141Z" fill="#FF4D26"/>
<path d="M154.111 56.0282C154.111 56.4552 154.348 56.7398 154.633 56.6449C154.918 56.5501 155.155 56.2654 155.155 56.0282C155.155 55.7911 154.918 55.5064 154.633 55.4116C154.348 55.3167 154.111 55.6013 154.111 56.0282Z" fill="#FF4D26"/>
<path d="M156.721 55.8396C156.531 56.1242 156.483 56.4563 156.626 56.5986C156.958 56.9306 157.907 56.3139 157.907 55.7447C157.907 55.1754 157.1 55.1754 156.721 55.8396Z" fill="#FF4D26"/>
<path d="M19.9528 56.8354C20.2375 57.6893 21.2811 57.8316 21.2811 57.0251C21.2811 56.5982 20.949 56.2661 20.5221 56.2661C20.0951 56.2661 19.858 56.5033 19.9528 56.8354Z" fill="#FF4D26"/>
<path d="M166.445 57.4523C166.445 58.2113 167.204 58.401 167.583 57.7369C167.725 57.4997 167.536 57.2151 167.156 57.0253C166.729 56.883 166.445 57.0253 166.445 57.4523Z" fill="#FF4D26"/>
<path d="M22.8966 57.8794C22.5171 58.923 23.039 59.4448 23.7505 58.7332C24.1775 58.3063 24.1775 58.0217 23.7505 57.5947C23.3236 57.1678 23.1338 57.2627 22.8966 57.8794Z" fill="#FF4D26"/>
<path d="M31.2923 58.4481C30.4858 59.3495 30.7704 59.6341 32.0987 59.2546C32.668 59.1123 33.1423 58.6853 33.1423 58.3533C33.1423 57.4994 32.0987 57.5468 31.2923 58.4481Z" fill="#FF4D26"/>
<path d="M18.5318 58.733C17.5356 59.7293 17.8677 60.9627 19.2908 61.2947C20.0024 61.4845 20.7614 61.864 20.9512 62.1486C21.1883 62.4332 21.1883 61.8165 21.046 60.7729C20.6191 58.3535 19.6703 57.5945 18.5318 58.733Z" fill="#FF4D26"/>
<path d="M154.871 59.8713C154.539 60.7726 154.966 61.6265 155.583 61.247C155.82 61.0572 156.01 61.2944 156.01 61.6739C156.01 62.1009 156.437 62.433 156.959 62.433C158.24 62.433 158.145 61.4842 156.769 60.1559C155.441 58.9225 155.251 58.8751 154.871 59.8713Z" fill="#FF4D26"/>
<path d="M157.905 60.2988C157.905 60.6783 158.095 61.0104 158.332 61.0104C158.569 61.0104 158.996 60.6783 159.328 60.2988C159.802 59.6821 159.755 59.5872 158.901 59.5872C158.332 59.5872 157.905 59.8718 157.905 60.2988Z" fill="#FF4D26"/>
<path d="M13.2162 60.773C13.2162 61.1526 13.5483 61.4846 13.9278 61.4846C14.3073 61.4846 14.6394 61.1526 14.6394 60.773C14.6394 60.3935 14.3073 60.0615 13.9278 60.0615C13.5483 60.0615 13.2162 60.3935 13.2162 60.773Z" fill="#FF4D26"/>
<path d="M29.0152 60.6307C29.1101 60.9628 29.4896 61.2474 29.8216 61.2474C30.1537 61.2474 30.5332 60.9628 30.6755 60.6307C30.7704 60.2986 30.4383 60.0615 29.8216 60.0615C29.2049 60.0615 28.8729 60.2986 29.0152 60.6307Z" fill="#FF4D26"/>
<path d="M167.393 60.773C167.393 61.1526 167.725 61.4846 168.105 61.4846C168.484 61.4846 168.816 61.1526 168.816 60.773C168.816 60.3935 168.484 60.0615 168.105 60.0615C167.725 60.0615 167.393 60.3935 167.393 60.773Z" fill="#FF4D26"/>
<path d="M24.2263 61.5319C24.3212 61.8165 24.6058 62.0062 24.843 62.0062C25.0802 62.0062 25.3648 61.8165 25.4597 61.5319C25.5546 61.2472 25.2699 61.01 24.843 61.01C24.416 61.01 24.1314 61.2472 24.2263 61.5319Z" fill="#FF4D26"/>
<path d="M152.782 62.0536C153.067 62.9075 154.111 63.0498 154.111 62.2434C154.111 61.8164 153.779 61.4844 153.352 61.4844C152.925 61.4844 152.687 61.7216 152.782 62.0536Z" fill="#FF4D26"/>
<path d="M170 61.9116C169.857 62.1488 169.952 62.4808 170.237 62.6706C170.806 63.0027 171.66 62.5757 171.66 61.9116C171.66 61.3423 170.379 61.3423 170 61.9116Z" fill="#FF4D26"/>
<path d="M20.8076 63.8565C20.8076 64.4732 21.0447 64.8053 21.4243 64.663C21.7089 64.5681 21.9935 64.1886 21.9935 63.8565C21.9935 63.5244 21.7089 63.1449 21.4243 63.0026C21.0447 62.9077 20.8076 63.2398 20.8076 63.8565Z" fill="#FF4D26"/>
<path d="M155.392 63.1922C154.775 63.8089 155.06 64.3307 156.056 64.3307C156.578 64.3307 156.958 64.0935 156.863 63.7615C156.626 63.0973 155.819 62.7652 155.392 63.1922Z" fill="#FF4D26"/>
<path d="M27.5438 63.7143C26.1207 63.9989 26.4527 64.9951 28.0656 65.1849C29.1093 65.3272 29.3465 65.1374 29.3465 64.3784C29.3465 63.8092 29.2042 63.4297 29.0144 63.4297C28.7772 63.4771 28.1605 63.6194 27.5438 63.7143Z" fill="#FF4D26"/>
<path d="M8 64.5199C8 64.9469 8.33207 65.279 8.75901 65.279C9.56547 65.279 9.42315 64.2353 8.56926 63.9507C8.23719 63.8558 8 64.093 8 64.5199Z" fill="#FF4D26"/>
<path d="M158.854 64.3307C158.237 64.7576 158.237 64.8525 158.854 65.2794C159.281 65.5641 159.708 65.5641 159.992 65.2794C160.704 64.5679 159.708 63.8089 158.854 64.3307Z" fill="#FF4D26"/>
<path d="M153.449 64.6633C152.927 65.1851 153.164 65.7544 153.876 65.7544C154.255 65.7544 154.587 65.5646 154.587 65.3274C154.587 64.7108 153.828 64.2838 153.449 64.6633Z" fill="#FF4D26"/>
<path d="M165.97 65.4694C165.97 65.8489 166.208 66.3233 166.445 66.4656C167.061 66.8451 168.437 65.8015 168.058 65.2322C167.631 64.5206 165.97 64.7578 165.97 65.4694Z" fill="#FF4D26"/>
<path d="M11.985 65.8007C11.6055 66.4649 12.5068 67.3662 13.171 66.9867C13.4556 66.7969 13.6928 66.3226 13.6928 65.9431C13.6928 65.184 12.4594 65.0417 11.985 65.8007Z" fill="#FF4D26"/>
<path d="M21.2817 65.7542C21.2817 65.9914 21.7087 66.2286 22.2779 66.2286C22.7998 66.2286 23.0844 65.9914 22.9421 65.7542C22.7998 65.4696 22.3254 65.2798 21.9459 65.2798C21.5664 65.2798 21.2817 65.4696 21.2817 65.7542Z" fill="#FF4D26"/>
<path d="M28.6854 66.4182C27.6892 67.9836 27.7366 68.885 28.8752 70.1184C29.7765 71.0671 29.9188 71.1146 30.5829 70.403C31.1048 69.9286 31.1996 69.4068 30.9625 68.9798C30.7253 68.6478 30.5355 67.7464 30.5355 66.9874C30.5355 65.1848 29.6816 64.9476 28.6854 66.4182Z" fill="#FF4D26"/>
<path d="M162.315 65.6108C161.983 65.7056 161.698 66.2749 161.698 66.7967C161.698 67.4609 161.983 67.6981 162.79 67.5557C163.454 67.4609 163.833 67.0814 163.833 66.5121C163.833 65.5159 163.264 65.1838 162.315 65.6108Z" fill="#FF4D26"/>
<path d="M170.712 66.7027C170.712 66.9399 171.139 67.1771 171.614 67.1771C172.135 67.1771 172.705 66.9399 172.847 66.7027C173.037 66.4181 172.61 66.2283 171.946 66.2283C171.282 66.2283 170.712 66.4181 170.712 66.7027Z" fill="#FF4D26"/>
<path d="M154.535 67.8889C154.156 69.4544 154.488 70.2608 155.484 70.4031C156.386 70.5455 156.528 70.4031 156.291 69.7864C156.148 69.3595 156.006 68.8377 156.006 68.6005C156.006 68.221 154.63 67.5094 154.535 67.8889Z" fill="#FF4D26"/>
<path d="M158.379 68.3634C158.379 68.8378 158.711 69.075 159.233 68.9801C160.229 68.7904 160.134 67.9365 159.138 67.7467C158.664 67.6518 158.379 67.889 158.379 68.3634Z" fill="#FF4D26"/>
<path d="M171.33 68.4106C170.903 69.5017 171.946 70.3082 172.848 69.5491C173.417 69.0748 173.464 68.7901 173.038 68.3158C172.326 67.4619 171.709 67.4619 171.33 68.4106Z" fill="#FF4D26"/>
<path d="M163.741 71.2569C163.409 72.2057 163.931 72.6801 165.876 73.0121C167.583 73.3442 167.583 73.3917 166.919 71.7313C166.398 70.3082 164.215 69.9761 163.741 71.2569Z" fill="#FF4D26"/>
<path d="M14.6429 71.3045C14.6429 71.9686 15.5442 73.1071 15.8288 72.8225C16.2083 72.443 15.5917 70.9724 15.0698 70.9724C14.8326 70.9724 14.6429 71.1147 14.6429 71.3045Z" fill="#FF4D26"/>
<path d="M22.0869 73.2019C21.5177 73.7237 21.7074 74.293 22.4664 74.293C22.8459 74.293 23.178 73.9609 23.178 73.5814C23.178 72.8224 22.6087 72.6326 22.0869 73.2019Z" fill="#FF4D26"/>
<path d="M171.329 75.8112C171.424 76.1432 171.899 76.4279 172.373 76.4279C172.847 76.4279 173.322 76.1432 173.464 75.8112C173.559 75.4791 173.18 75.2419 172.373 75.2419C171.567 75.2419 171.187 75.4791 171.329 75.8112Z" fill="#FF4D26"/>
<path d="M153.163 76.4277C153.163 76.8072 153.495 77.1393 153.874 77.1393C154.254 77.1393 154.586 76.8072 154.586 76.4277C154.586 76.0482 154.254 75.7161 153.874 75.7161C153.495 75.7161 153.163 76.0482 153.163 76.4277Z" fill="#FF4D26"/>
<path d="M158.618 76.6172C158.239 77.3287 158.761 78.0877 159.614 78.0877C160.041 78.0877 160.279 77.7557 160.184 77.2813C159.994 76.3325 159.045 75.953 158.618 76.6172Z" fill="#FF4D26"/>
<path d="M29.8214 77.3762C29.8214 77.7557 30.1535 78.0877 30.533 78.0877C30.9125 78.0877 31.2446 77.7557 31.2446 77.3762C31.2446 76.9967 30.9125 76.6646 30.533 76.6646C30.1535 76.6646 29.8214 76.9967 29.8214 77.3762Z" fill="#FF4D26"/>
<path d="M26.502 77.8508C26.502 78.2303 26.7866 78.5623 27.1662 78.5623C27.5457 78.5623 27.9252 78.7521 28.02 78.9893C28.2572 79.6534 30.4394 79.8432 30.6292 79.179C30.724 78.8944 30.1548 78.5149 29.3958 78.3251C28.5893 78.1354 27.9252 77.8033 27.9252 77.5661C27.9252 77.3289 27.5931 77.1392 27.2136 77.1392C26.8341 77.1392 26.502 77.4712 26.502 77.8508Z" fill="#FF4D26"/>
<path d="M153.163 79.4632C153.163 80.6966 153.353 80.9338 154.254 80.9338C154.823 80.9338 155.582 80.5069 155.914 79.9376C156.673 78.7517 156.626 78.6568 154.681 78.2773C153.21 77.9927 153.163 78.0401 153.163 79.4632Z" fill="#FF4D26"/>
<path d="M14.2136 79.1791C13.7866 79.7009 13.8341 79.9856 14.4033 80.46C14.9726 80.9343 15.1623 80.8869 15.3995 80.2228C15.8265 79.1317 14.9251 78.3252 14.2136 79.1791Z" fill="#FF4D26"/>
<path d="M20.3333 80.7911C20.3333 81.5501 21.0923 82.2617 22.136 82.5938C23.0847 82.8784 23.2271 82.7835 23.0847 82.0245C22.9899 81.5501 22.5629 81.2181 22.0885 81.2181C21.6616 81.2655 21.2821 81.1232 21.2821 80.886C21.2821 80.6488 21.0923 80.459 20.8077 80.459C20.5705 80.459 20.3333 80.6014 20.3333 80.7911Z" fill="#FF4D26"/>
<path d="M160.04 81.4081C159.85 81.6927 159.518 81.7876 159.281 81.6453C158.664 81.2183 156.53 82.9261 156.482 83.8274C156.482 84.2544 156.767 84.7288 157.146 84.8711C157.905 85.1557 158.854 84.3493 158.854 83.4479C158.854 83.1159 159.044 82.8312 159.234 82.8312C160.087 82.8312 161.368 81.5504 160.847 81.2183C160.562 81.076 160.23 81.1234 160.04 81.4081Z" fill="#FF4D26"/>
<path d="M162.082 81.9301C160.943 82.5468 160.991 83.3058 162.177 83.3058C162.793 83.3058 163.125 82.9737 163.125 82.357C163.125 81.266 163.173 81.266 162.082 81.9301Z" fill="#FF4D26"/>
<path d="M14.88 82.3579C14.5005 82.9746 15.4967 84.2555 16.3506 84.2555C17.0621 84.2555 17.157 83.7811 16.7301 82.6426C16.398 81.7887 15.3069 81.6464 14.88 82.3579Z" fill="#FF4D26"/>
<path d="M28.9684 83.9697C29.0159 84.4441 29.3479 84.7761 29.5851 84.7761C30.2967 84.7287 30.1544 83.6376 29.4428 83.4004C29.0159 83.2581 28.8261 83.4953 28.9684 83.9697Z" fill="#FF4D26"/>
<path d="M170.524 84.1128C170.002 84.6346 170.239 85.2039 170.951 85.2039C171.331 85.2039 171.663 85.0141 171.663 84.7769C171.663 84.1602 170.904 83.7333 170.524 84.1128Z" fill="#FF4D26"/>
<path d="M19.4821 85.2986C19.5769 85.8679 20.0039 86.4372 20.4783 86.532C21.1424 86.6744 21.3322 86.4846 21.1898 85.5833C21.095 85.014 20.668 84.4448 20.1936 84.3499C19.5295 84.2076 19.3397 84.3973 19.4821 85.2986Z" fill="#FF4D26"/>
<path d="M160.992 86.6271C160.328 87.3387 160.375 87.481 161.134 88.1926C162.368 89.3311 164.123 89.2362 164.408 88.0503C164.55 87.5284 164.977 87.1015 165.309 87.1015C165.688 87.1015 165.973 86.8169 165.973 86.4374C165.973 85.4411 161.941 85.5835 160.992 86.6271Z" fill="#FF4D26"/>
<path d="M27.07 86.7214C27.3546 87.5753 28.3982 87.7176 28.3982 86.9111C28.3982 86.4842 28.0662 86.1521 27.6392 86.1521C27.2123 86.1521 26.9751 86.3893 27.07 86.7214Z" fill="#FF4D26"/>
<path d="M170.81 88.6192C171.095 89.4731 172.138 89.6154 172.138 88.809C172.138 88.382 171.806 88.05 171.379 88.05C170.952 88.05 170.715 88.2871 170.81 88.6192Z" fill="#FF4D26"/>
<path d="M26.2649 89.4727C25.8854 90.0894 26.8816 91.3703 27.7355 91.3703C28.5419 91.3703 28.5419 91.1331 27.9252 89.8997C27.3559 88.9035 26.7392 88.7137 26.2649 89.4727Z" fill="#FF4D26"/>
<path d="M24.2234 89.9C24.4132 90.5167 25.0773 90.659 25.1247 90.0897C25.1247 89.9 24.8875 89.6628 24.6029 89.5205C24.2708 89.4256 24.0811 89.6154 24.2234 89.9Z" fill="#FF4D26"/>
<path d="M171.331 91.5607C171.473 91.8927 171.331 92.462 171.046 92.7466C170.334 93.4582 171.757 94.9288 172.801 94.5493C173.845 94.1223 173.75 92.6992 172.611 91.703C171.473 90.7068 170.998 90.6593 171.331 91.5607Z" fill="#FF4D26"/>
<path d="M157.428 92.2719C157.428 92.5566 157.143 92.6515 156.764 92.5091C155.862 92.1771 155.293 93.2207 156.005 93.8848C156.479 94.3118 156.669 94.3118 156.811 93.8374C156.953 93.5528 157.475 93.2682 157.997 93.2682C158.519 93.2682 158.851 93.031 158.756 92.6989C158.519 91.9873 157.428 91.6078 157.428 92.2719Z" fill="#FF4D26"/>
<path d="M26.502 93.7899C26.502 94.9285 27.5931 94.7862 27.8303 93.6002C27.9252 93.1258 27.688 92.7937 27.261 92.7937C26.7866 92.7937 26.502 93.2207 26.502 93.7899Z" fill="#FF4D26"/>
<path d="M21.2817 93.9797C21.2817 94.4066 21.5189 94.6912 21.8036 94.5964C22.0882 94.5015 22.3254 94.2169 22.3254 93.9797C22.3254 93.7425 22.0882 93.4578 21.8036 93.363C21.5189 93.2681 21.2817 93.5527 21.2817 93.9797Z" fill="#FF4D26"/>
<path d="M25.3148 94.6906C25.1251 94.9753 25.1725 95.4496 25.4572 95.7343C25.7418 96.0189 26.0264 96.0189 26.2636 95.6394C26.4534 95.3548 26.4059 94.8804 26.1213 94.5957C25.8367 94.3111 25.552 94.3111 25.3148 94.6906Z" fill="#FF4D26"/>
<path d="M167.393 95.1661C167.393 95.4033 167.725 95.6405 168.105 95.6405C168.484 95.6405 168.816 95.4033 168.816 95.1661C168.816 94.8815 168.484 94.6917 168.105 94.6917C167.725 94.6917 167.393 94.8815 167.393 95.1661Z" fill="#FF4D26"/>
<path d="M20.6638 95.4975C20.0471 96.0668 20.3317 97.0631 21.0433 97.0631C21.4228 97.0631 21.7549 96.636 21.7549 96.1142C21.7549 95.1655 21.2331 94.8808 20.6638 95.4975Z" fill="#FF4D26"/>
<path d="M17.6793 97.2057C17.2998 98.2494 18.2011 99.3879 18.9127 98.6763C19.2447 98.3442 19.1499 97.8698 18.7229 97.2531C18.0588 96.3993 18.0113 96.3993 17.6793 97.2057Z" fill="#FF4D26"/>
<path d="M25.267 97.6799C24.8875 98.6761 25.3619 99.3403 26.026 98.6761C26.2632 98.4389 26.3107 97.9645 26.026 97.5376C25.6465 96.9683 25.5517 96.9683 25.267 97.6799Z" fill="#FF4D26"/>
<path d="M154.582 97.5371C154.012 97.8691 154.012 98.1538 154.392 98.8179C155.151 100.051 156.242 99.8616 156.242 98.5333C156.242 97.2524 155.625 96.8729 154.582 97.5371Z" fill="#FF4D26"/>
<path d="M21.3284 98.4395C20.4271 99.0088 21.0438 100.479 22.0875 100.29C22.5618 100.195 22.9413 99.7204 22.9413 99.246C22.9413 98.2023 22.2772 97.8703 21.3284 98.4395Z" fill="#FF4D26"/>
<path d="M156.625 100.194C156.293 101.095 157.574 102.519 158.333 102.092C159.092 101.57 158.95 100.052 158.096 99.7197C157.052 99.3402 156.957 99.3402 156.625 100.194Z" fill="#FF4D26"/>
<path d="M19.5255 101.38C19.6678 103.136 20.9487 104.227 21.8026 103.373C22.2769 102.898 22.1821 102.566 21.4705 101.76C20.9961 101.191 20.6166 100.621 20.7115 100.432C20.8064 100.289 20.5217 100.1 20.1422 100.005C19.573 99.8622 19.4306 100.194 19.5255 101.38Z" fill="#FF4D26"/>
<path d="M162.886 100.336C162.507 101.048 163.028 101.807 163.882 101.807C164.309 101.807 164.546 101.475 164.452 101C164.262 100.052 163.313 99.6723 162.886 100.336Z" fill="#FF4D26"/>
<path d="M154.442 101.143C154.015 101.617 154.537 102.281 155.344 102.281C155.723 102.281 156.008 101.949 156.008 101.57C156.008 100.858 155.012 100.573 154.442 101.143Z" fill="#FF4D26"/>
<path d="M16.2999 101.854C16.1101 102.139 16.0627 102.471 16.205 102.613C16.5371 102.945 17.4858 102.329 17.4858 101.759C17.4858 101.19 16.6794 101.19 16.2999 101.854Z" fill="#FF4D26"/>
<path d="M23.0359 104.226C22.8936 104.843 22.9885 105.127 23.3205 104.985C24.0321 104.748 24.3642 103.23 23.7475 103.23C23.5103 103.23 23.1782 103.657 23.0359 104.226Z" fill="#FF4D26"/>
<path d="M25.1747 103.752C25.2696 104.037 25.5542 104.227 25.7914 104.227C26.0286 104.227 26.3132 104.037 26.4081 103.752C26.503 103.468 26.2184 103.23 25.7914 103.23C25.3645 103.23 25.0798 103.468 25.1747 103.752Z" fill="#FF4D26"/>
<path d="M156.956 103.657C156.956 104.369 157.715 104.701 158.569 104.369C159.755 103.942 159.471 103.23 158.142 103.23C157.478 103.23 156.956 103.42 156.956 103.657Z" fill="#FF4D26"/>
<path d="M20.002 105.317C18.6738 106.693 18.6263 107.025 19.7649 107.025C20.9034 106.978 22.2317 105.887 22.2317 104.938C22.2317 103.847 21.2354 103.989 20.002 105.317Z" fill="#FF4D26"/>
<path d="M154.111 105.554C154.111 105.791 154.443 106.076 154.823 106.265C155.25 106.408 155.534 106.265 155.534 105.839C155.534 105.459 155.202 105.127 154.823 105.127C154.443 105.127 154.111 105.317 154.111 105.554Z" fill="#FF4D26"/>
<path d="M24.9347 105.887C23.8436 106.978 25.2667 109.16 26.6899 108.638C27.8759 108.164 27.4963 105.887 26.2629 105.697C25.6937 105.602 25.1244 105.697 24.9347 105.887Z" fill="#FF4D26"/>
<path d="M166.445 106.979C166.445 108.117 167.061 108.544 168.105 108.165C169.196 107.738 168.769 106.362 167.488 106.172C166.729 106.03 166.445 106.267 166.445 106.979Z" fill="#FF4D26"/>
<path d="M158.809 107.357C158.335 107.452 157.861 107.926 157.718 108.353C157.576 108.78 157.291 109.444 157.149 109.729C157.007 110.109 157.196 110.346 157.623 110.346C158.05 110.346 158.382 110.156 158.382 109.919C158.382 109.682 158.667 109.539 158.999 109.587C159.284 109.587 159.568 109.444 159.568 109.255C159.568 109.017 159.948 108.638 160.422 108.401C161.94 107.547 160.802 106.788 158.809 107.357Z" fill="#FF4D26"/>
<path d="M21.1416 107.832C20.5723 108.401 20.8095 109.397 21.5211 109.397C22.3275 109.397 22.4224 108.97 21.8531 108.069C21.616 107.737 21.3313 107.642 21.1416 107.832Z" fill="#FF4D26"/>
<path d="M170.238 109.16C170.238 109.539 170.475 109.871 170.713 109.871C170.997 109.871 171.187 109.539 171.187 109.16C171.187 108.78 170.997 108.448 170.713 108.448C170.475 108.448 170.238 108.78 170.238 109.16Z" fill="#FF4D26"/>
<path d="M16.9185 111.389C16.539 112.291 16.871 112.718 17.9147 112.718C18.3891 112.718 18.4839 112.575 18.1519 112.338C17.8672 112.149 17.5352 111.674 17.3928 111.342C17.2031 110.725 17.1557 110.773 16.9185 111.389Z" fill="#FF4D26"/>
<path d="M25.5536 114.615C25.5536 114.852 25.8857 115.09 26.2652 115.09C26.6447 115.09 26.9767 114.852 26.9767 114.615C26.9767 114.331 26.6447 114.141 26.2652 114.141C25.8857 114.141 25.5536 114.331 25.5536 114.615Z" fill="#FF4D26"/>
<path d="M162.978 114.425C162.551 114.9 163.073 115.564 163.879 115.564C164.259 115.564 164.543 115.232 164.543 114.852C164.543 114.141 163.547 113.856 162.978 114.425Z" fill="#FF4D26"/>
<path d="M22.7043 115.801C22.7043 116.228 22.9415 116.513 23.2262 116.418C23.5108 116.323 23.748 116.038 23.748 115.801C23.748 115.564 23.5108 115.279 23.2262 115.185C22.9415 115.09 22.7043 115.374 22.7043 115.801Z" fill="#FF4D26"/>
<path d="M28.9699 115.992C27.9262 116.182 27.1198 116.751 26.598 117.557C25.8864 118.791 25.8864 118.933 26.598 119.645C27.3095 120.356 27.4044 120.356 27.8788 119.407C28.2109 118.886 28.7327 118.411 29.1122 118.411C29.7289 118.411 30.0135 117.842 29.8712 116.893C29.8712 116.703 30.1558 116.656 30.5353 116.798C30.9623 116.988 31.2469 116.798 31.2469 116.324C31.2469 115.897 31.1046 115.612 30.9148 115.612C30.6777 115.66 29.8238 115.802 28.9699 115.992Z" fill="#FF4D26"/>
<path d="M151.74 116.703C151.74 117.13 152.072 117.462 152.499 117.462C153.306 117.462 153.163 116.418 152.309 116.133C151.977 116.039 151.74 116.276 151.74 116.703Z" fill="#FF4D26"/>
<path d="M160.135 117.178C159.708 118.221 160.751 118.933 161.795 118.363C162.507 117.984 162.602 117.747 162.127 117.178C161.416 116.324 160.467 116.324 160.135 117.178Z" fill="#FF4D26"/>
<path d="M153.02 119.217C152.45 119.739 152.64 120.308 153.399 120.308C153.779 120.308 154.111 119.976 154.111 119.596C154.111 118.837 153.541 118.648 153.02 119.217Z" fill="#FF4D26"/>
<path d="M18.627 120.308C18.627 120.829 18.9116 121.256 19.1963 121.256C19.5283 121.256 19.9079 121.541 20.0027 121.826C20.1925 122.3 20.2874 122.3 20.2874 121.826C20.3348 121.494 19.9553 120.829 19.4809 120.308C18.6745 119.406 18.627 119.406 18.627 120.308Z" fill="#FF4D26"/>
<path d="M22.8007 120.119C20.9032 121.4 21.9943 123.013 24.8406 123.108C25.3624 123.108 26.2163 122.823 26.6907 122.444C27.592 121.732 27.592 121.732 26.5009 120.546C25.2201 119.17 24.2713 119.075 22.8007 120.119Z" fill="#FF4D26"/>
<path d="M157.054 121.352C157.291 122.063 158.382 122.205 158.43 121.494C158.43 121.209 158.098 120.925 157.623 120.877C157.149 120.735 156.912 120.925 157.054 121.352Z" fill="#FF4D26"/>
<path d="M159.327 121.494C159.327 121.874 159.659 122.206 160.039 122.206C160.418 122.206 160.751 121.874 160.751 121.494C160.751 121.115 160.418 120.783 160.039 120.783C159.659 120.783 159.327 121.115 159.327 121.494Z" fill="#FF4D26"/>
<path d="M25.6472 124.387C25.837 125.383 26.6908 125.478 26.8806 124.434C26.9755 123.96 26.7383 123.628 26.2639 123.628C25.7895 123.628 25.5523 123.913 25.6472 124.387Z" fill="#FF4D26"/>
<path d="M20.1443 125.764C20.002 126.191 20.1443 126.476 20.5238 126.476C20.8559 126.476 21.1405 126.144 21.1405 125.764C21.1405 125.385 20.9507 125.052 20.761 125.052C20.5712 125.052 20.334 125.385 20.1443 125.764Z" fill="#FF4D26"/>
<path d="M27.6425 126.238C27.8797 127.14 27.7848 127.329 27.2156 127.14C26.7886 126.95 26.504 127.14 26.504 127.567C26.504 128.041 26.1719 128.183 25.6026 128.041C25.1283 127.899 24.559 128.088 24.3218 128.42C24.0846 128.847 24.2269 128.895 24.7962 128.705C25.2706 128.515 26.077 128.705 26.6463 129.085C27.2156 129.464 27.4053 129.796 27.0732 129.796C26.7412 129.796 26.5989 130.033 26.7412 130.27C27.2156 131.077 27.8797 130.318 28.2118 128.61C28.3541 127.709 28.6861 126.95 28.9233 126.95C29.1605 126.95 29.3503 126.523 29.3503 126.001C29.3503 125.337 29.0182 125.052 28.3541 125.052C27.5002 125.052 27.4053 125.242 27.6425 126.238Z" fill="#FF4D26"/>
<path d="M153.163 126.475C153.163 127.092 154.491 127.661 154.965 127.234C155.108 127.044 154.965 126.712 154.586 126.475C153.637 125.858 153.163 125.906 153.163 126.475Z" fill="#FF4D26"/>
<path d="M165.496 131.456C165.496 131.836 165.733 132.168 165.97 132.168C166.255 132.168 166.445 131.836 166.445 131.456C166.445 131.077 166.255 130.745 165.97 130.745C165.733 130.745 165.496 131.077 165.496 131.456Z" fill="#FF4D26"/>
<path d="M81.5298 131.978C81.5298 132.784 82.5734 132.642 82.8581 131.788C82.9529 131.456 82.7157 131.219 82.2888 131.219C81.8619 131.219 81.5298 131.551 81.5298 131.978Z" fill="#FF4D26"/>
<path d="M92.9147 131.693C92.5352 131.93 92.3454 132.262 92.5352 132.404C93.0096 132.879 94.8597 132.167 94.575 131.645C94.1955 131.124 93.816 131.124 92.9147 131.693Z" fill="#FF4D26"/>
<path d="M135.609 132.168C135.609 132.405 135.941 132.642 136.321 132.642C136.7 132.642 137.032 132.405 137.032 132.168C137.032 131.883 136.7 131.694 136.321 131.694C135.941 131.694 135.609 131.883 135.609 132.168Z" fill="#FF4D26"/>
<path d="M97.3723 133.211C96.9928 133.78 98.5109 135.109 99.1276 134.729C99.3648 134.587 99.5545 134.065 99.5545 133.543C99.5545 132.547 97.9416 132.262 97.3723 133.211Z" fill="#FF4D26"/>
<path d="M144.005 132.974C143.389 133.543 143.673 134.065 144.622 134.065C145.144 134.065 145.571 133.733 145.571 133.353C145.571 132.642 144.575 132.357 144.005 132.974Z" fill="#FF4D26"/>
<path d="M88.5013 133.402C87.8846 134.018 88.1692 134.54 89.1654 134.54C89.6872 134.54 90.0667 134.303 89.9719 133.971C89.7347 133.307 88.9282 132.975 88.5013 133.402Z" fill="#FF4D26"/>
<path d="M91.1606 134.397C90.3541 136.058 90.4015 136.437 91.2554 136.437C91.6349 136.437 91.967 136.152 91.967 135.773C91.967 135.393 92.2991 135.014 92.6786 134.824C93.6748 134.445 93.5799 133.116 92.5837 133.116C92.1093 133.116 91.4452 133.686 91.1606 134.397Z" fill="#FF4D26"/>
<path d="M138.929 133.875C138.929 134.302 139.166 134.539 139.498 134.444C140.352 134.16 140.494 133.116 139.688 133.116C139.261 133.116 138.929 133.448 138.929 133.875Z" fill="#FF4D26"/>
<path d="M94.0533 134.113C93.6263 134.777 94.7174 135.773 96.3778 136.153C97.4214 136.39 97.6586 136.295 97.6586 135.631C97.6586 135.157 97.0893 134.492 96.3778 134.16C94.8123 133.449 94.4802 133.449 94.0533 134.113Z" fill="#FF4D26"/>
<path d="M101.027 134.256C100.6 134.73 100.6 135.015 100.98 135.252C101.786 135.726 102.735 134.683 102.118 134.066C101.739 133.687 101.406 133.781 101.027 134.256Z" fill="#FF4D26"/>
<path d="M131.341 134.255C131.341 134.634 131.531 135.061 131.768 135.203C132.243 135.536 132.859 134.302 132.432 133.875C131.911 133.353 131.341 133.591 131.341 134.255Z" fill="#FF4D26"/>
<path d="M111.417 135.725C111.417 136.579 111.654 136.911 112.366 136.911C113.504 136.911 113.694 135.251 112.555 134.824C111.464 134.397 111.417 134.444 111.417 135.725Z" fill="#FF4D26"/>
<path d="M133.524 134.872C133.002 135.393 133.239 135.963 133.951 135.963C134.331 135.963 134.663 135.773 134.663 135.536C134.663 134.919 133.904 134.492 133.524 134.872Z" fill="#FF4D26"/>
<path d="M135.988 136.105C136.32 136.484 136.557 137.006 136.51 137.196C136.273 138.477 136.652 138.856 137.838 138.714C138.692 138.619 139.214 138.239 139.309 137.67C139.546 136.532 139.072 136.152 137.032 135.725C135.609 135.393 135.466 135.44 135.988 136.105Z" fill="#FF4D26"/>
<path d="M140.114 135.963C139.972 136.247 140.162 136.579 140.589 136.722C141.49 137.101 142.012 136.722 141.537 136.01C141.158 135.346 140.494 135.346 140.114 135.963Z" fill="#FF4D26"/>
<path d="M98.8945 136.864C98.4676 137.576 99.9856 138.572 100.602 137.955C100.84 137.718 100.934 137.244 100.792 136.959C100.365 136.342 99.2266 136.295 98.8945 136.864Z" fill="#FF4D26"/>
<path d="M84.8479 137.623C84.5633 137.956 84.7056 138.145 85.3223 138.145C85.8441 138.145 86.3185 137.908 86.4608 137.623C86.5557 137.291 86.366 137.054 85.9865 137.054C85.607 137.054 85.1326 137.291 84.8479 137.623Z" fill="#FF4D26"/>
<path d="M86.746 138.525C86.746 138.857 87.0781 139.141 87.4576 139.141C87.8371 139.141 88.1692 138.952 88.1692 138.762C88.1692 138.572 87.8371 138.335 87.4576 138.145C87.0307 138.003 86.746 138.145 86.746 138.525Z" fill="#FF4D26"/>
<path d="M95.0469 138.761C94.7623 139.283 95.4739 139.852 95.9483 139.425C96.3752 138.998 96.2803 138.334 95.8059 138.334C95.5213 138.334 95.2367 138.524 95.0469 138.761Z" fill="#FF4D26"/>
<path d="M113.314 139.9C113.314 140.802 114.262 141.608 115.021 141.323C115.923 140.991 115.875 139.948 114.926 139.568C113.788 139.141 113.314 139.236 113.314 139.9Z" fill="#FF4D26"/>
<path d="M138.454 139.995C138.454 140.375 138.692 140.707 138.929 140.707C139.213 140.707 139.403 140.375 139.403 139.995C139.403 139.616 139.213 139.284 138.929 139.284C138.692 139.284 138.454 139.616 138.454 139.995Z" fill="#FF4D26"/>
<path d="M96.8501 141.323C96.7077 141.655 96.7077 141.75 96.9449 141.56C97.1347 141.371 97.6091 141.418 97.9411 141.703C98.2732 141.987 98.6527 141.987 98.795 141.75C98.9373 141.466 98.6527 141.181 98.1309 141.039C97.6091 140.896 97.0398 141.039 96.8501 141.323Z" fill="#FF4D26"/>
<path d="M124.698 141.181C124.698 141.418 125.125 141.655 125.695 141.655C126.217 141.655 126.501 141.418 126.359 141.181C126.217 140.896 125.742 140.707 125.363 140.707C124.983 140.707 124.698 140.896 124.698 141.181Z" fill="#FF4D26"/>
<path d="M161.936 141.181C161.794 141.418 161.984 141.655 162.363 141.655C162.743 141.655 163.217 141.418 163.359 141.181C163.502 140.896 163.312 140.707 162.932 140.707C162.553 140.707 162.078 140.896 161.936 141.181Z" fill="#FF4D26"/>
<path d="M100.506 142.034C100.506 142.556 103.257 143.79 103.637 143.41C103.779 143.268 104.443 143.458 105.155 143.837C106.578 144.549 107.052 144.359 106.199 143.363C105.867 142.936 105.06 142.699 104.254 142.793C103.542 142.888 102.83 142.793 102.783 142.604C102.546 142.034 100.506 141.56 100.506 142.034Z" fill="#FF4D26"/>
<path d="M136.083 142.794C136.083 143.221 136.415 143.553 136.842 143.553C137.649 143.553 137.507 142.509 136.653 142.225C136.321 142.13 136.083 142.367 136.083 142.794Z" fill="#FF4D26"/>
<path d="M107.855 143.031C107.997 143.268 107.902 143.6 107.618 143.79C107.333 143.98 107.238 144.312 107.38 144.549C107.713 145.024 109.278 144.881 109.847 144.312C110.084 144.122 110.037 143.98 109.752 144.027C108.661 144.265 108.139 143.98 108.377 143.316C108.566 142.936 108.424 142.604 108.092 142.604C107.807 142.604 107.665 142.794 107.855 143.031Z" fill="#FF4D26"/>
<path d="M130.393 143.837C130.393 144.264 130.725 144.502 131.199 144.407C132.385 144.17 132.528 143.078 131.389 143.078C130.82 143.078 130.393 143.363 130.393 143.837Z" fill="#FF4D26"/>
<path d="M132.289 148.06C132.621 148.439 133.048 148.771 133.285 148.771C133.522 148.771 133.57 148.439 133.428 148.06C133.238 147.68 132.811 147.348 132.431 147.348C131.815 147.348 131.815 147.49 132.289 148.06Z" fill="#FF4D26"/>
<path d="M127.875 150.241C128.396 150.811 129.108 151.095 129.393 150.953C130.294 150.384 129.962 149.577 128.966 149.862C128.444 150.004 128.017 149.909 128.017 149.672C128.017 149.435 127.78 149.245 127.448 149.245C127.116 149.245 127.305 149.672 127.875 150.241Z" fill="#FF4D26"/>
</svg>
