<svg width="180" height="180" viewBox="0 0 180 180" fill="none" xmlns="http://www.w3.org/2000/svg">
<path fill-rule="evenodd" clip-rule="evenodd" d="M43.353 86.0238C70.1821 74.3348 88.0725 66.6287 97.0238 62.9055C122.582 52.275 127.893 50.4283 131.354 50.3673C132.115 50.3539 133.818 50.5426 134.921 51.4373C135.852 52.1928 136.108 53.2134 136.23 53.9297C136.353 54.6459 136.506 56.2777 136.384 57.5526C134.999 72.105 129.006 107.42 125.957 123.719C124.667 130.615 122.127 132.928 119.668 133.154C115.788 133.511 112.585 131.488 109.141 129.054C107.841 128.135 106.507 127.159 105.089 126.229C101.715 124.017 98.9521 122.153 96.3088 120.357C92.6063 117.84 89.1377 115.456 84.5504 112.433C75.4641 106.445 81.3543 103.154 86.5327 97.7755C87.8878 96.368 111.436 74.9496 111.891 73.0065C111.948 72.7635 112.001 71.8577 111.463 71.3795C110.925 70.9011 110.131 71.0647 109.558 71.1948C108.745 71.3792 95.8054 79.932 70.7382 96.8531C67.0653 99.3752 63.7384 100.604 60.7577 100.539C58.5584 100.492 54.9996 99.6758 51.4774 98.6833C49.7371 98.1929 48.0057 97.6594 46.4518 97.1543C42.1541 95.7572 38.5142 94.8511 37.106 93.1614C36.6257 92.5851 36.405 91.9176 36.5065 91.1084C36.7142 89.4512 38.9964 87.7563 43.353 86.0238Z" fill="#259AE7"/>
<path d="M105.089 126.229C101.715 124.017 98.9521 122.153 96.3088 120.357C97.8836 121.614 100.189 124.605 101.614 127.014C102.808 129.031 102.745 131.844 102.745 134.189V134.857C102.745 135.588 102.673 136.317 102.529 137.034L101.573 141.816C101.443 142.467 101.647 143.14 102.116 143.61C103.367 144.861 105.506 143.975 105.506 142.206V141.478V134.576C105.506 132.739 105.273 130.69 106.358 129.208C106.912 128.452 107.729 128.477 109.141 129.054C107.841 128.135 106.507 127.159 105.089 126.229Z" fill="#259AE7"/>
<path d="M46.4518 97.1543C42.1541 95.7572 38.5142 94.8511 37.106 93.1614L41.0081 100.883C42.5807 103.995 43.6057 107.354 44.0382 110.814L44.4959 114.476C44.6743 115.903 44.6342 117.349 44.3769 118.765L42.7369 127.784C42.3247 130.051 43.7428 132.249 45.9783 132.808C49.1805 133.609 52.0811 130.708 51.2805 127.506L48.9065 118.01L48.1288 111.01C47.7301 107.423 47.9743 103.793 48.8498 100.291L48.9065 100.064C49.4921 98.4839 50.2293 98.5679 51.4774 98.6833C49.7371 98.1929 48.0057 97.6594 46.4518 97.1543Z" fill="#259AE7"/>
<path d="M91.6547 42.7337C91.0982 43.7839 91.6857 44.4452 93.2828 44.5535C95.0292 44.6767 95.0342 44.6269 94.068 43.2246C93.1915 41.9316 92.1565 41.7284 91.6547 42.7337Z" fill="#259AE7"/>
<path d="M108.525 44.8618C108.142 45.678 108.446 46.6628 109.193 46.737C109.79 46.7962 109.973 44.9553 109.365 44.493C109.082 44.3141 108.714 44.4786 108.525 44.8618Z" fill="#259AE7"/>
<path d="M115.042 46.0603C114.848 46.4933 115.002 46.9608 115.43 47.2043C116.341 47.6465 116.833 47.2432 116.584 46.2135C116.28 45.2286 115.533 45.1545 115.042 46.0603Z" fill="#259AE7"/>
<path d="M58.6688 54.4771C58.6243 54.9249 58.8435 55.2481 59.1519 55.1782C59.4603 55.1084 59.7387 54.8345 59.7634 54.5858C59.7881 54.337 59.569 54.0138 59.2803 53.8846C58.9917 53.7554 58.7133 54.0293 58.6688 54.4771Z" fill="#259AE7"/>
<path d="M96.2821 44.7007C96.2376 45.1485 96.4567 45.4717 96.7652 45.4019C97.0736 45.332 97.352 45.0582 97.3767 44.8094C97.4014 44.5606 97.1823 44.2374 96.8936 44.1082C96.605 43.9791 96.3265 44.2529 96.2821 44.7007Z" fill="#259AE7"/>
<path d="M117.476 46.8561C117.232 47.2841 117.183 47.7816 117.272 47.891C117.631 48.3286 118.605 47.6214 118.68 46.8751C118.773 45.9298 117.972 45.9005 117.476 46.8561Z" fill="#259AE7"/>
<path d="M121.29 48.3902C121.116 48.6242 121.181 48.9824 121.459 49.211C122.022 49.6186 122.962 49.2597 123.031 48.5632C123.09 47.9661 121.747 47.8327 121.29 48.3902Z" fill="#259AE7"/>
<path d="M158.716 63.0973C158.605 63.3936 158.713 63.7376 158.908 63.8945C159.102 64.0515 159.461 64.0841 159.728 63.9134C159.994 63.7427 159.917 63.3597 159.567 63.0772C159.217 62.7947 158.826 62.801 158.716 63.0973Z" fill="#259AE7"/>
<path d="M77.7176 45.9226C77.1562 47.0226 78.4752 47.9072 79.3253 46.9365C79.7181 46.5233 79.9217 45.9908 79.7922 45.7769C79.4185 44.9861 78.1499 45.1114 77.7176 45.9226Z" fill="#259AE7"/>
<path d="M89.6396 46.8551C89.7045 47.2133 90.063 47.6509 90.4014 47.785C90.7846 47.9738 91.0034 47.7945 90.8937 47.3816C90.8288 47.0235 90.4702 46.5859 90.1318 46.4518C89.7486 46.263 89.5298 46.4423 89.6396 46.8551Z" fill="#259AE7"/>
<path d="M56.8544 53.1217C56.9193 53.4799 57.2779 53.9175 57.6163 54.0516C57.9995 54.2404 58.2183 54.0611 58.1085 53.6482C58.0436 53.2901 57.6851 52.8525 57.3467 52.7184C56.9635 52.5296 56.7447 52.7089 56.8544 53.1217Z" fill="#259AE7"/>
<path d="M125.831 38.5655C125.499 39.4544 126.261 40.2617 126.795 39.6001C127.078 39.2498 127.025 38.7577 126.675 38.4752C126.324 38.1927 125.973 38.2303 125.831 38.5655Z" fill="#259AE7"/>
<path d="M117.789 51.2576C117.287 51.7605 117.307 52.0639 117.855 52.6208C118.403 53.1776 118.607 53.1476 118.925 52.4757C119.486 51.3758 118.625 50.4361 117.789 51.2576Z" fill="#259AE7"/>
<path d="M49.8324 58.475C48.8479 59.2817 48.8786 60.4906 49.8744 61.5944C50.5963 62.4198 50.8949 62.4494 51.8448 61.9911C53.1628 61.3682 53.3908 60.0845 52.3999 58.9309C51.5484 57.8917 50.7075 57.758 49.8324 58.475Z" fill="#259AE7"/>
<path d="M111.109 52.252C110.955 53.7945 111.085 54.0083 112.045 53.9529C113.508 53.8972 113.959 52.3844 112.854 51.3702C111.57 50.1373 111.301 50.3116 111.109 52.252Z" fill="#259AE7"/>
<path d="M127.253 41.5768C127.143 41.8731 127.251 42.2171 127.445 42.374C127.64 42.531 127.999 42.5636 128.265 42.3929C128.531 42.2222 128.455 41.8392 128.104 41.5567C127.754 41.2742 127.364 41.2805 127.253 41.5768Z" fill="#259AE7"/>
<path d="M97.6879 50.7708C97.6483 51.1688 97.1561 51.5722 96.5939 51.6671C95.4199 51.852 95.1274 53.2801 95.9443 54.6676C96.806 56.1098 98.2334 55.3973 98.5305 53.417C98.6244 52.4717 98.773 51.4815 98.8573 51.1382C98.9367 50.8446 98.6727 50.4666 98.389 50.2877C98.0506 50.1536 97.7274 50.3728 97.6879 50.7708Z" fill="#259AE7"/>
<path d="M72.2408 57.0615C72.0668 57.2954 72.2214 57.763 72.54 58.0961C73.2719 58.822 74.142 58.1547 73.6787 57.2545C73.34 56.6179 72.6483 56.499 72.2408 57.0615Z" fill="#259AE7"/>
<path d="M137.281 50.885C136.562 51.1399 136.432 52.256 137.119 52.3602C137.837 52.4256 138.685 51.3747 138.218 50.9981C137.984 50.8097 137.586 50.7457 137.281 50.885Z" fill="#259AE7"/>
<path d="M155.001 64.9181C154.438 64.9783 154.286 65.8835 154.792 66.2916C154.987 66.4486 155.362 66.3017 155.613 65.9903C156.084 65.4065 155.774 64.8353 155.001 64.9181Z" fill="#259AE7"/>
<path d="M83.5017 50.4669C83.0147 51.3229 83.8958 52.0636 84.6616 51.4362C85.2632 50.9433 84.969 49.8589 84.2226 49.7848C84.0236 49.765 83.6905 50.0836 83.5017 50.4669Z" fill="#259AE7"/>
<path d="M152.495 64.7603C151.962 65.1018 151.954 65.3516 152.515 65.6115C153.309 66.0598 153.96 65.4923 153.525 64.7566C153.362 64.5607 152.933 64.5356 152.495 64.7603Z" fill="#259AE7"/>
<path d="M69.3683 59.1377C68.8665 60.1431 69.8076 61.2917 70.628 60.6195C71.3391 60.0369 71.0893 58.5047 70.2932 58.4257C69.9947 58.396 69.6118 58.7097 69.3683 59.1377Z" fill="#259AE7"/>
<path d="M116.043 55.2037C115.606 56.0647 116.019 56.96 116.965 57.0538C117.363 57.0934 117.711 56.6254 117.785 55.8791C117.918 54.5357 116.614 54.0043 116.043 55.2037Z" fill="#259AE7"/>
<path d="M100.859 54.2488C100.815 54.6966 101.039 54.9701 101.397 54.9052C102.322 54.6956 102.58 53.6158 101.735 53.5318C101.287 53.4873 100.904 53.801 100.859 54.2488Z" fill="#259AE7"/>
<path d="M132.323 51.0606C132.04 51.4109 132.047 51.8013 132.343 51.9118C132.639 52.0223 133.022 51.9458 133.179 51.7512C133.336 51.5566 133.33 51.1661 133.159 50.8999C132.988 50.6338 132.605 50.7103 132.323 51.0606Z" fill="#259AE7"/>
<path d="M146.507 62.3074C145.101 62.4579 144.77 63.3468 145.782 64.163C146.949 65.1046 147.918 64.8586 147.892 63.6169C147.873 62.4455 147.632 62.1869 146.507 62.3074Z" fill="#259AE7"/>
<path d="M65.5985 60.2193C65.554 60.6671 65.7731 60.9903 66.0816 60.9204C66.39 60.8506 66.6684 60.5767 66.6931 60.328C66.7178 60.0792 66.4987 59.7559 66.21 59.6268C65.9214 59.4976 65.6429 59.7715 65.5985 60.2193Z" fill="#259AE7"/>
<path d="M76.1193 52.8994C75.3733 53.3278 74.0165 55.3537 74.2406 55.6271C74.5045 56.0051 77.1112 55.5605 77.1507 55.1624C77.1655 55.0132 77.379 54.3812 77.5925 53.7492C77.9998 52.6842 77.2432 52.2071 76.1193 52.8994Z" fill="#259AE7"/>
<path d="M101.392 56.5132C101.189 57.0457 100.696 57.449 100.348 57.4144C99.4524 57.3255 98.5028 58.2864 98.7272 59.0623C99.1613 60.7636 101.454 59.4336 102.303 56.9554C102.804 55.4475 102.043 55.0202 101.392 56.5132Z" fill="#259AE7"/>
<path d="M130.492 52.5383C129.927 53.2388 129.973 53.3405 130.793 53.3594C131.754 53.3632 132.202 52.5685 131.501 52.0035C131.307 51.8465 130.837 52.1102 130.492 52.5383Z" fill="#259AE7"/>
<path d="M65.5091 62.1693C65.5094 62.6718 65.8231 63.0546 66.0719 63.0793C66.8232 63.1037 66.7876 61.9445 66.0659 61.6216C65.633 61.4279 65.4092 61.6569 65.5091 62.1693Z" fill="#259AE7"/>
<path d="M105.544 57.678C105.504 58.076 105.818 58.4589 106.216 58.4984C106.614 58.538 106.997 58.2243 107.037 57.8262C107.076 57.4282 106.762 57.0453 106.364 57.0058C105.966 56.9662 105.583 57.2799 105.544 57.678Z" fill="#259AE7"/>
<path d="M137.527 58.1484C136.77 58.0517 136.676 58.1685 136.789 59.2231C136.878 60.3869 136.956 60.4497 137.723 59.9764C138.795 59.3638 138.644 58.2778 137.527 58.1484Z" fill="#259AE7"/>
<path d="M141.934 61.7669C141.629 61.9062 141.393 62.3582 141.438 62.78C141.483 63.2019 141.207 63.9426 140.83 64.4096C139.92 65.5383 140.113 66.0154 141.696 66.5214L142.952 66.9559L142.653 65.4945C142.369 64.1737 142.432 64.0958 143.369 64.2089C144.274 64.3609 144.368 64.2441 144.145 63.4858C143.774 62.352 142.723 61.5045 141.934 61.7669Z" fill="#259AE7"/>
<path d="M113.95 59.0169C113.911 59.4149 114.224 59.7978 114.622 59.8373C115.02 59.8768 115.403 59.5631 115.443 59.1651C115.482 58.767 115.169 58.3842 114.771 58.3446C114.373 58.3051 113.99 58.6188 113.95 59.0169Z" fill="#259AE7"/>
<path d="M117.43 59.4109C117.385 59.8587 117.609 60.1322 117.968 60.0673C118.893 59.8577 119.151 58.7779 118.305 58.6939C117.857 58.6494 117.474 58.9631 117.43 59.4109Z" fill="#259AE7"/>
<path d="M133.292 57.1092C133.104 57.3428 132.508 57.7621 132.078 58.0571C131.444 58.445 131.451 58.5153 132.053 58.4865C132.545 58.4338 133.109 58.0534 133.306 57.57C133.534 57.0477 133.551 56.8682 133.292 57.1092Z" fill="#259AE7"/>
<path d="M144.332 67.2332C144.049 67.5835 144.165 67.9978 144.617 68.2339C145.747 68.824 146.585 68.023 145.651 67.2697C145.184 66.893 144.646 66.844 144.332 67.2332Z" fill="#259AE7"/>
<path d="M60.0619 65.399C60.0026 65.9961 60.2069 66.4686 60.4557 66.4933C60.7542 66.5229 60.9829 66.2441 61.0224 65.8461C61.0619 65.448 60.9123 64.9307 60.6286 64.7518C60.3947 64.5779 60.1162 64.8517 60.0619 65.399Z" fill="#259AE7"/>
<path d="M137.081 62.2853C136.33 62.579 136.256 63.547 136.957 64.112C137.268 64.3631 137.784 64.2012 138.129 63.7731C138.789 62.9558 138.074 61.93 137.081 62.2853Z" fill="#259AE7"/>
<path d="M66.5658 66.6464C66.6356 66.9549 66.9144 67.1835 67.1632 67.2082C67.412 67.2329 67.7303 67.0636 67.8594 66.7749C67.9886 66.4863 67.7147 66.2078 67.2669 66.1634C66.8191 66.1189 66.4959 66.338 66.5658 66.6464Z" fill="#259AE7"/>
<path d="M145.599 70.4402C145.442 70.6348 145.558 71.0491 145.869 71.3002C146.18 71.5513 146.61 71.5764 146.767 71.3818C146.955 71.1483 146.808 70.7729 146.497 70.5218C146.185 70.2707 145.787 70.2066 145.599 70.4402Z" fill="#259AE7"/>
<path d="M143.727 69.5732C143.57 69.7678 143.686 70.1821 143.997 70.4332C144.308 70.6844 144.738 70.7095 144.895 70.5149C145.083 70.2814 144.936 69.906 144.625 69.6549C144.314 69.4037 143.916 69.3397 143.727 69.5732Z" fill="#259AE7"/>
<path d="M140.817 67.9309C140.066 68.2247 140.209 69.5606 141.005 69.6887C141.364 69.7213 141.872 69.4891 142.124 69.1777C142.626 68.555 141.708 67.6221 140.817 67.9309Z" fill="#259AE7"/>
<path d="M153.623 78.9679C153.291 79.8567 154.053 80.6641 154.587 80.0024C154.869 79.6522 154.816 79.16 154.466 78.8775C154.116 78.595 153.764 78.6326 153.623 78.9679Z" fill="#259AE7"/>
<path d="M137.572 66.8562C137.321 67.1675 137.296 67.5969 137.49 67.7538C137.724 67.9422 138.099 67.7953 138.35 67.4839C138.601 67.1726 138.666 66.7746 138.432 66.5863C138.237 66.4293 137.823 66.5448 137.572 66.8562Z" fill="#259AE7"/>
<path d="M155.519 81.3956C155.016 82.3385 155.654 82.9813 156.5 82.2507C156.891 81.9243 156.917 81.4949 156.527 81.181C156.138 80.8671 155.755 80.9437 155.519 81.3956Z" fill="#259AE7"/>
<path d="M145.855 74.5008C145.136 74.7556 145.006 75.8717 145.693 75.976C146.411 76.0413 147.259 74.9905 146.792 74.6138C146.558 74.4255 146.16 74.3614 145.855 74.5008Z" fill="#259AE7"/>
<path d="M143.473 73.1578C143.005 73.1013 142.543 73.4352 142.346 73.9186C142.219 74.3944 142.366 74.7698 142.694 74.8414C142.982 74.8816 143.114 75.1163 142.957 75.3109C142.769 75.5445 142.962 76.0216 143.429 76.3982C143.935 76.8063 144.326 76.8 144.593 76.3091C144.766 75.935 144.799 75.5759 144.581 75.5282C144.362 75.4805 144.232 74.9256 144.242 74.3556C144.268 73.606 144.012 73.2068 143.473 73.1578Z" fill="#259AE7"/>
<path d="M140.507 74.3632C140.256 74.6746 140.231 75.104 140.426 75.2609C140.659 75.4493 141.035 75.3024 141.286 74.991C141.537 74.6797 141.601 74.2817 141.367 74.0933C141.173 73.9364 140.759 74.0519 140.507 74.3632Z" fill="#259AE7"/>
<path d="M150.644 82.6666C150.408 83.1186 150.468 83.6811 150.779 83.9322C151.09 84.1833 151.653 84.1231 152.045 83.7967C152.499 83.3924 152.462 83.0409 151.878 82.57C151.294 82.0992 150.942 82.1368 150.644 82.6666Z" fill="#259AE7"/>
<path d="M155.067 85.7838C154.599 85.7273 154.262 85.9055 154.292 86.1868C154.322 86.468 154.735 86.6727 155.157 86.6275C156.212 86.5146 156.183 85.9132 155.067 85.7838Z" fill="#259AE7"/>
<path d="M141.826 76.7111C141.575 77.0225 141.628 77.5146 141.939 77.7658C142.251 78.0169 142.743 77.9642 142.994 77.6528C143.245 77.3415 143.192 76.8493 142.881 76.5982C142.57 76.3471 142.077 76.3998 141.826 76.7111Z" fill="#259AE7"/>
<path d="M144.392 79.103C144.235 79.2976 144.35 79.7119 144.662 79.963C144.973 80.2141 145.403 80.2393 145.559 80.0447C145.748 79.8112 145.601 79.4358 145.29 79.1846C144.978 78.9335 144.58 78.8695 144.392 79.103Z" fill="#259AE7"/>
<path d="M147.189 81.2939C146.073 81.1645 145.606 82.7791 146.588 83.3139C147.04 83.55 147.665 83.4119 147.979 83.0227C148.67 82.1665 148.345 81.4546 147.189 81.2939Z" fill="#259AE7"/>
<path d="M57.5361 70.5247C57.4966 70.9227 57.8103 71.3056 58.2084 71.3451C58.6064 71.3846 58.9893 71.0709 59.0288 70.6729C59.0683 70.2748 58.7546 69.892 58.3566 69.8524C57.9585 69.8129 57.5757 70.1266 57.5361 70.5247Z" fill="#259AE7"/>
<path d="M153.668 87.6757C153.432 88.1277 153.492 88.6901 153.804 88.9412C154.115 89.1924 154.677 89.1321 155.069 88.8057C155.524 88.4015 155.486 88.0499 154.902 87.5791C154.318 87.1082 153.967 87.1459 153.668 87.6757Z" fill="#259AE7"/>
<path d="M139.405 77.3269C139.154 77.6382 139.129 78.0676 139.323 78.2245C139.557 78.4129 139.932 78.266 140.183 77.9546C140.435 77.6433 140.499 77.2453 140.265 77.057C140.07 76.9 139.656 77.0155 139.405 77.3269Z" fill="#259AE7"/>
<path d="M143.094 81.9085C142.374 82.1633 142.245 83.2794 142.932 83.3837C143.65 83.449 144.497 82.3982 144.03 82.0215C143.797 81.8332 143.399 81.7691 143.094 81.9085Z" fill="#259AE7"/>
<path d="M54.3271 73.5231C54.392 73.8813 54.7505 74.3188 55.0889 74.4529C55.4721 74.6417 55.6909 74.4625 55.5812 74.0496C55.5163 73.6914 55.1577 73.2539 54.8193 73.1198C54.4361 72.931 54.2173 73.1102 54.3271 73.5231Z" fill="#259AE7"/>
<path d="M138.844 80.4081C138.687 80.6027 138.686 80.9228 138.919 81.1112C139.114 81.2681 138.972 81.6033 138.604 81.8205C138.135 82.0841 138.133 82.4043 138.639 82.8124C139.729 83.6913 140.245 83.5293 140.391 82.2337C140.551 81.0786 139.378 79.7465 138.844 80.4081Z" fill="#259AE7"/>
<path d="M146.328 87.2158C145.841 87.9791 145.956 88.3935 146.914 89.0376C147.568 89.5009 148.246 89.855 148.457 89.8324C149.192 89.7182 148.77 87.7721 147.836 87.0188C147.058 86.391 146.776 86.4211 146.328 87.2158Z" fill="#259AE7"/>
<path d="M56.938 75.0391C56.5004 75.3976 56.8691 76.2381 57.516 76.3024C57.7647 76.3271 57.9983 75.9985 58.0379 75.6005C58.112 74.8542 57.5396 74.5461 56.938 75.0391Z" fill="#259AE7"/>
<path d="M46.4767 76.1966C46.452 76.4453 46.7258 76.7238 47.1238 76.7633C47.4721 76.7979 47.8754 77.2901 47.9704 77.8523C48.0653 78.4144 48.5681 78.9165 49.0657 78.9659C49.5632 79.0153 50.2799 79.388 50.5986 79.7211C51.0915 80.3228 51.2009 80.2331 51.0061 79.1586C50.926 78.4472 50.8558 77.6363 50.8855 77.3378C50.9695 76.492 49.5213 75.8959 48.7157 76.4189C48.2283 76.7725 47.9298 76.7428 47.7205 76.3201C47.3867 75.6337 46.5409 75.5497 46.4767 76.1966Z" fill="#259AE7"/>
<path d="M134.7 79.5712C134.121 79.811 134.328 80.7488 135 80.7125C135.633 80.6447 135.994 80.037 135.605 79.7231C135.372 79.5348 135.013 79.5022 134.7 79.5712Z" fill="#259AE7"/>
<path d="M151.459 93.6011C150.578 93.3399 150.543 94.3393 151.477 95.0926C151.866 95.4065 152.436 95.4166 152.687 95.1053C153.158 94.5215 152.707 93.9653 151.459 93.6011Z" fill="#259AE7"/>
<path d="M50.2872 72.7415C50.2427 73.1893 50.5564 73.5722 51.0042 73.6166C51.8501 73.7006 51.8095 72.5912 50.9435 72.2037C50.6051 72.0696 50.3316 72.2937 50.2872 72.7415Z" fill="#259AE7"/>
<path d="M134.94 82.4626C134.08 82.7325 134.272 83.5298 135.186 83.4319C135.678 83.3792 135.866 83.1456 135.758 82.8016C135.619 82.4965 135.245 82.3233 134.94 82.4626Z" fill="#259AE7"/>
<path d="M54.1256 80.5874C54.3352 81.5126 55.415 81.7706 55.499 80.9247C55.5434 80.4769 55.2297 80.094 54.7819 80.0496C54.3342 80.0051 54.0607 80.2292 54.1256 80.5874Z" fill="#259AE7"/>
<path d="M42.1396 79.8502C42.2045 80.2084 42.563 80.646 42.9014 80.7801C43.2846 80.9689 43.5034 80.7896 43.3937 80.3767C43.3288 80.0186 42.9702 79.581 42.6318 79.4469C42.2486 79.2581 42.0298 79.4374 42.1396 79.8502Z" fill="#259AE7"/>
<path d="M139.135 89.7645C138.811 90.7236 139.924 91.8135 140.489 91.1129C140.802 90.7237 140.641 90.2077 140.174 89.831C139.706 89.4544 139.277 89.4292 139.135 89.7645Z" fill="#259AE7"/>
<path d="M134.758 87.0696C134.476 87.4199 134.482 87.8104 134.778 87.9209C135.075 88.0314 135.457 87.9548 135.614 87.7602C135.771 87.5656 135.765 87.1751 135.594 86.909C135.424 86.6428 135.041 86.7194 134.758 87.0696Z" fill="#259AE7"/>
<path d="M45.9487 81.985C46.044 83.0496 46.9297 83.2381 47.2374 82.1632C47.3863 81.6756 47.1721 81.3026 46.6746 81.2532C46.177 81.2038 45.8986 81.4776 45.9487 81.985Z" fill="#259AE7"/>
<path d="M54.8357 82.5654C54.811 82.8142 55.1345 83.0976 55.5326 83.1371C55.9306 83.1766 56.3036 82.9624 56.3283 82.7137C56.358 82.4151 56.0294 82.1815 55.6314 82.142C55.2334 82.1025 54.8653 82.2669 54.8357 82.5654Z" fill="#259AE7"/>
<path d="M134.343 88.8551C133.42 89.2028 132.983 91.0986 133.684 91.6636C134.579 92.3856 136.605 91.3863 136.289 90.4246C136.019 89.5645 134.89 88.6542 134.343 88.8551Z" fill="#259AE7"/>
<path d="M130.614 88.2236C130.363 88.5349 130.337 88.9643 130.532 89.1213C130.766 89.3096 131.141 89.1627 131.392 88.8514C131.643 88.54 131.707 88.142 131.474 87.9537C131.279 87.7967 130.865 87.9122 130.614 88.2236Z" fill="#259AE7"/>
<path d="M138.221 93.8448C137.847 93.6716 136.792 93.7845 135.971 94.0858C134.603 94.5879 134.446 94.7825 134.606 95.6187C134.829 96.6972 135.812 96.9119 136.565 95.9779C136.879 95.5887 137.591 95.2635 138.122 95.2422C139.153 95.2385 139.873 94.6635 139.344 94.3647C139.118 94.2466 138.666 94.0106 138.221 93.8448Z" fill="#259AE7"/>
<path d="M139.87 95.6251C139.503 95.8423 139.251 96.1536 139.274 96.3646C139.31 97.0363 140.715 97.2058 141.155 96.661C141.72 95.9604 140.708 95.1443 139.87 95.6251Z" fill="#259AE7"/>
<path d="M143.878 109.322C143.595 109.672 143.601 110.063 143.898 110.173C144.194 110.284 144.577 110.207 144.734 110.012C144.891 109.818 144.884 109.427 144.714 109.161C144.543 108.895 144.16 108.972 143.878 109.322Z" fill="#259AE7"/>
<path d="M41.408 77.7689C41.5128 78.2315 41.6176 78.6941 41.6077 78.7936C41.5929 78.9429 41.7919 78.9627 42.1102 78.7933C42.6921 78.4994 42.3827 77.0617 41.6861 76.9926C41.3876 76.9629 41.3032 77.3063 41.408 77.7689Z" fill="#259AE7"/>
<path d="M138.065 108.167C137.791 108.267 137.089 108.022 136.583 107.614C135.727 106.923 133.796 107.486 133.894 108.4C133.968 109.423 136.009 110.556 137.002 110.2C137.581 109.961 138.308 109.776 138.597 109.816C139.237 109.819 139.468 108.656 138.962 108.248C138.768 108.091 138.37 108.027 138.065 108.167Z" fill="#259AE7"/>
<path d="M46.1625 78.4407C46.1378 78.6895 46.4614 78.9728 46.8594 79.0123C47.2575 79.0519 47.6305 78.8377 47.6552 78.5889C47.6848 78.2904 47.3563 78.0568 46.9583 78.0172C46.5602 77.9777 46.1922 78.1421 46.1625 78.4407Z" fill="#259AE7"/>
<path d="M142.848 112.988C142.597 113.299 142.572 113.728 142.766 113.885C143 114.074 143.375 113.927 143.626 113.616C143.877 113.304 143.941 112.906 143.708 112.718C143.513 112.561 143.099 112.676 142.848 112.988Z" fill="#259AE7"/>
<path d="M48.0989 80.1914C48.1687 80.4998 48.4475 80.7284 48.6963 80.7531C48.9451 80.7778 49.2634 80.6085 49.3925 80.3198C49.5217 80.0312 49.2478 79.7528 48.8 79.7083C48.3522 79.6638 48.029 79.8829 48.0989 80.1914Z" fill="#259AE7"/>
<path d="M141.381 116.559C140.816 117.259 140.571 117.961 140.866 118.392C141.782 119.965 143.504 118.785 143.059 116.948C142.643 115.392 142.425 115.345 141.381 116.559Z" fill="#259AE7"/>
<path d="M39.8022 84.7947C39.3995 85.3074 40.5347 86.5256 41.027 86.1222C41.2408 85.9927 41.4346 85.5598 41.4741 85.1617C41.5482 84.4154 40.2694 84.1377 39.8022 84.7947Z" fill="#259AE7"/>
<path d="M128.707 110.769C127.637 110.741 127.301 110.919 127.369 111.552C127.429 112.114 127.803 112.288 128.787 112.182C131.248 111.919 131.237 110.818 128.707 110.769Z" fill="#259AE7"/>
<path d="M32.9863 82.1319C32.4644 82.8338 33.0371 83.6443 34.1815 83.758C34.8781 83.8271 35.1018 83.5981 34.9571 83.031C34.8523 82.5684 34.7475 82.1058 34.7574 82.0063C34.7969 81.6082 33.3343 81.664 32.9863 82.1319Z" fill="#259AE7"/>
<path d="M125.109 114.354C123.993 114.225 123.588 115.762 124.561 116.546C125.184 117.049 125.535 117.011 125.952 116.255C126.62 115.188 126.295 114.476 125.109 114.354Z" fill="#259AE7"/>
<path d="M130.653 120.303C130.329 121.262 131.441 122.352 132.006 121.652C132.32 121.262 132.158 120.746 131.691 120.37C131.224 119.993 130.795 119.968 130.653 120.303Z" fill="#259AE7"/>
<path d="M125.446 117.838C125.038 118.344 124.655 118.421 124.431 117.983C124.213 117.615 123.769 117.449 123.425 117.557C122.534 117.866 122.711 118.522 123.842 118.792C124.356 118.951 125.144 119.329 125.572 119.674C126.732 120.545 127.878 118.965 126.875 117.899C126.269 117.217 125.917 117.255 125.446 117.838Z" fill="#259AE7"/>
<path d="M120.657 116.609C120.5 116.803 120.615 117.218 120.926 117.469C121.238 117.72 121.667 117.745 121.824 117.551C122.013 117.317 121.866 116.942 121.554 116.691C121.243 116.439 120.845 116.375 120.657 116.609Z" fill="#259AE7"/>
<path d="M125.083 120.757C124.545 120.708 124.349 120.871 124.535 121.278C124.789 121.998 125.773 122.212 126.212 121.668C126.557 121.239 126.129 120.894 125.083 120.757Z" fill="#259AE7"/>
<path d="M131.633 127.132C130.631 127.737 131.172 129.137 132.406 129.04C132.93 128.949 133.392 128.615 133.463 128.287C133.576 127.35 132.47 126.651 131.633 127.132Z" fill="#259AE7"/>
<path d="M134.109 130.991C133.858 131.303 133.832 131.732 134.027 131.889C134.26 132.077 134.636 131.931 134.887 131.619C135.138 131.308 135.202 130.91 134.969 130.722C134.774 130.565 134.36 130.68 134.109 130.991Z" fill="#259AE7"/>
<path d="M121.544 121.243C121.402 121.578 121.462 122.141 121.672 122.438C121.889 122.806 122.17 122.776 122.305 122.37C122.447 122.035 122.386 121.473 122.177 121.175C121.96 120.807 121.678 120.837 121.544 121.243Z" fill="#259AE7"/>
<path d="M124.904 124.723C123.514 124.694 121.204 126.364 122.264 126.642C122.67 126.776 123.403 126.982 123.886 127.179C124.401 127.337 124.917 127.175 125.02 126.809C125.123 126.442 125.484 126.155 125.811 126.226C126.42 126.268 126.713 125.348 126.246 124.971C126.09 124.845 125.474 124.733 124.904 124.723Z" fill="#259AE7"/>
<path d="M126.575 46.0171C126.794 46.352 127.195 46.5083 127.404 46.3716C127.655 46.2075 127.631 45.8051 127.412 45.4702C127.194 45.1353 126.835 44.9517 126.584 45.1158C126.374 45.2525 126.357 45.6823 126.575 46.0171Z" fill="#259AE7"/>
<path d="M129.521 48.5121C130.014 49.2656 130.606 49.7149 131.106 49.567C132.885 49.1814 132.294 47.1789 130.409 47.0365C128.801 46.9522 128.688 47.1453 129.521 48.5121Z" fill="#259AE7"/>
<path d="M120.104 58.7861C119.748 59.7951 119.813 60.1702 120.436 60.3008C120.99 60.4169 121.27 60.1144 121.473 59.1455C121.981 56.7233 120.93 56.3946 120.104 58.7861Z" fill="#259AE7"/>
<path d="M122.404 63.3154C121.937 64.3373 123.274 65.1957 124.321 64.5121C124.991 64.0745 125.063 63.7285 124.473 63.0989C123.663 62.1345 122.886 62.2243 122.404 63.3154Z" fill="#259AE7"/>
<path d="M123.187 49.928C124 50.5319 125.38 49.8097 124.887 49.0563C124.614 48.6377 124.073 48.6326 123.571 48.9608C123.068 49.2889 122.912 49.6896 123.187 49.928Z" fill="#259AE7"/>
<path d="M125.826 64.0669C126.182 64.6111 126.136 64.999 125.65 65.0776C125.233 65.1708 124.939 65.5425 124.935 65.9031C124.954 66.8463 125.633 66.8803 126.239 65.8875C126.548 65.4466 127.15 64.8143 127.611 64.5135C128.797 63.6786 127.647 62.1008 126.324 62.7264C125.488 63.093 125.416 63.439 125.826 64.0669Z" fill="#259AE7"/>
<path d="M128.491 65.3144C128.279 65.8116 128.374 66.0483 128.818 65.9969C129.581 65.9763 130.088 65.1074 129.705 64.5213C129.405 64.0609 128.944 64.3617 128.491 65.3144Z" fill="#259AE7"/>
<path d="M129.988 51.0987C130.255 52.2384 131.753 52.1553 132.042 50.9515C132.116 50.4252 131.941 49.8827 131.651 49.7136C130.795 49.3173 129.789 50.1539 129.988 51.0987Z" fill="#259AE7"/>
<path d="M134.42 49.9353C134.639 50.2702 135.04 50.4265 135.249 50.2898C135.5 50.1257 135.476 49.7233 135.257 49.3884C135.039 49.0536 134.68 48.8699 134.429 49.034C134.219 49.1707 134.202 49.6005 134.42 49.9353Z" fill="#259AE7"/>
<path d="M150.284 93.2403C149.398 93.0727 148.52 93.6122 148.634 94.3535C148.725 94.9465 150.554 94.6659 150.85 93.9628C150.953 93.6435 150.702 93.3279 150.284 93.2403Z" fill="#259AE7"/>
<path d="M150.741 99.8454C150.273 99.7654 149.859 100.031 149.729 100.506C149.527 101.499 150.04 101.875 150.976 101.377C151.854 100.838 151.74 100.097 150.741 99.8454Z" fill="#259AE7"/>
<path d="M150.577 102.403C150.102 102.273 149.608 102.349 149.524 102.463C149.189 102.919 150.117 103.688 150.858 103.574C151.797 103.43 151.626 102.647 150.577 102.403Z" fill="#259AE7"/>
<path d="M150.039 106.48C149.769 106.37 149.438 106.521 149.286 106.848C149.031 107.494 149.613 108.316 150.304 108.21C150.897 108.119 150.693 106.784 150.039 106.48Z" fill="#259AE7"/>
<path d="M152.685 117.289C151.742 117.189 151.149 118.128 151.923 118.48C152.332 118.667 152.796 118.494 152.983 118.084C153.169 117.674 153.045 117.343 152.685 117.289Z" fill="#259AE7"/>
<path d="M146.392 103.802C145.78 103.44 145.491 103.535 145.088 104.204C144.685 104.873 144.764 105.063 145.494 105.204C146.699 105.474 147.395 104.406 146.392 103.802Z" fill="#259AE7"/>
<path d="M150.124 119.416C149.81 119.383 149.503 119.573 149.4 119.801C149.296 120.028 149.354 120.384 149.585 120.599C149.817 120.815 150.169 120.645 150.355 120.236C150.542 119.826 150.439 119.45 150.124 119.416Z" fill="#259AE7"/>
<path d="M142.196 126.683C141.787 126.496 141.41 126.6 141.377 126.914C141.344 127.228 141.513 127.58 141.74 127.684C141.968 127.788 142.345 127.684 142.56 127.453C142.775 127.221 142.606 126.87 142.196 126.683Z" fill="#259AE7"/>
<path d="M153.65 111.011C153.38 111.306 153.329 111.733 153.513 111.902C153.734 112.104 154.118 111.981 154.388 111.686C154.658 111.391 154.747 110.998 154.525 110.795C154.341 110.626 153.92 110.716 153.65 111.011Z" fill="#259AE7"/>
<path d="M151.966 114.485C151.359 115.149 151.071 115.834 151.338 116.282C152.154 117.909 153.947 116.839 153.616 114.978C153.298 113.399 153.083 113.338 151.966 114.485Z" fill="#259AE7"/>
<path d="M65.5614 61.7979C66.5068 61.8759 67.0773 60.9235 66.2957 60.5893C65.882 60.4123 65.4226 60.5965 65.2456 61.0103C65.0687 61.424 65.2003 61.7522 65.5614 61.7979Z" fill="#259AE7"/>
<path d="M67.3842 59.3117C68.4283 59.5407 68.8741 58.7525 67.9413 58.1361C67.5209 57.8476 67.1008 57.9398 66.9042 58.3995C66.7076 58.8593 66.8851 59.2071 67.3842 59.3117Z" fill="#259AE7"/>
<path d="M69.931 63.6607C70.43 63.7654 70.9551 63.5549 71.1123 63.1871C71.2696 62.8193 71.0591 62.2943 70.6387 62.0057C70.1263 61.6779 69.7982 61.8094 69.5033 62.499C69.2084 63.1886 69.34 63.5168 69.931 63.6607Z" fill="#259AE7"/>
<path d="M71.7319 58.5597C71.8045 59.0258 72.0673 59.3014 72.3298 59.1961C72.5924 59.0909 72.6774 58.6378 72.5195 58.244C72.1248 57.2595 71.5537 57.4503 71.7319 58.5597Z" fill="#259AE7"/>
<path d="M68.1967 70.645C68.4266 70.7433 68.7941 70.5197 68.9514 70.152C69.1086 69.7842 69.0164 69.3641 68.7865 69.2658C68.5107 69.1478 68.1892 69.391 68.0319 69.7588C67.8746 70.1266 67.9209 70.527 68.1967 70.645Z" fill="#259AE7"/>
<path d="M69.5474 67.3604C69.7255 68.4698 71.4063 68.4816 71.6549 67.3915C71.7595 66.8925 71.4571 66.3281 70.9974 66.1315C69.9859 65.699 69.3889 66.205 69.5474 67.3604Z" fill="#259AE7"/>
<path d="M73.931 59.3922C74.43 59.4968 74.9551 59.2863 75.1123 58.9186C75.2696 58.5508 75.0591 58.0257 74.6387 57.7372C74.1263 57.4093 73.7982 57.5409 73.5033 58.2305C73.2084 58.9201 73.34 59.2482 73.931 59.3922Z" fill="#259AE7"/>
<path d="M71.2468 71.134C71.6871 71.7574 72.7965 71.5793 72.7106 70.89C72.5788 70.181 71.3375 69.6502 71.1016 70.2019C70.9836 70.4777 71.0299 70.8782 71.2468 71.134Z" fill="#259AE7"/>
<path d="M70.9582 75.6333C71.188 75.7316 71.4965 75.646 71.6145 75.3702C71.7128 75.1403 72.0739 75.186 72.3827 75.4812C72.7638 75.8617 73.0723 75.7761 73.3279 75.1784C73.8784 73.8912 73.5826 73.4384 72.2959 73.6495C71.1405 73.808 70.1766 75.2991 70.9582 75.6333Z" fill="#259AE7"/>
<path d="M75.4786 66.5808C76.3455 66.8428 76.7129 66.6193 77.0732 65.5226C77.3417 64.7673 77.4987 64.0188 77.4198 63.8219C77.1107 63.1459 75.3519 64.0796 74.8801 65.1829C74.4869 66.1024 74.5921 66.3649 75.4786 66.5808Z" fill="#259AE7"/>
<path d="M80.2323 59.9117C80.2199 60.8308 81.1914 60.5937 81.6632 59.4904C81.8598 59.0306 81.7149 58.4793 81.3472 58.322C80.6576 58.0271 80.2444 58.6117 80.2323 59.9117Z" fill="#259AE7"/>
<path d="M79.8847 72.8161C80.8958 72.8678 81.6431 71.5017 80.8156 71.1478C80.3559 70.9512 79.9031 71.247 79.6672 71.7987C79.4313 72.3504 79.5235 72.7705 79.8847 72.8161Z" fill="#259AE7"/>
<path d="M84.0578 72.587C83.9925 72.9941 84.3872 73.9786 84.8998 74.6873C85.7543 75.8683 85.9841 75.9666 86.7454 75.5852C87.7232 75.0789 87.6633 74.0745 86.56 73.6027C86.1003 73.4061 85.5943 72.809 85.4297 72.3036C85.1466 71.3125 84.3978 70.7747 84.2538 71.3657C84.2015 71.6152 84.0968 72.1143 84.0578 72.587Z" fill="#259AE7"/>
<path d="M85.3263 70.5185C85.6351 70.8137 86.0029 70.9709 86.1998 70.892C86.8364 70.6748 86.6187 69.2766 85.975 69.0014C85.1475 68.6475 84.6364 69.8428 85.3263 70.5185Z" fill="#259AE7"/>
<path d="M97.42 62.9456C97.8338 63.1225 98.2079 63.0106 98.2339 62.6955C98.2599 62.3803 98.0824 62.0325 97.8525 61.9342C97.6226 61.8359 97.2485 61.9478 97.0386 62.1843C96.8287 62.4208 97.0062 62.7687 97.42 62.9456Z" fill="#259AE7"/>
<path d="M97.8846 68.8531C98.0555 69.0893 98.0101 69.8312 97.7546 70.4289C97.3221 71.4403 98.387 73.1464 99.2402 72.8044C100.205 72.4556 100.742 70.1836 100.13 69.324C99.7426 68.8319 99.3679 68.1823 99.3282 67.8934C99.157 67.2764 97.9754 67.3693 97.7198 67.9669C97.6215 68.1968 97.6678 68.5972 97.8846 68.8531Z" fill="#259AE7"/>
<path d="M101.229 62.9441C101.596 63.1014 102.016 63.0091 102.115 62.7793C102.233 62.5034 101.99 62.1819 101.622 62.0247C101.254 61.8674 100.854 61.9137 100.736 62.1895C100.637 62.4194 100.861 62.7868 101.229 62.9441Z" fill="#259AE7"/>
<path d="M105.063 63.3848C105.891 63.7387 106.633 63.784 106.967 63.3833C108.233 62.0758 106.63 60.7377 104.983 61.6648C103.599 62.4865 103.612 62.7097 105.063 63.3848Z" fill="#259AE7"/>
<path d="M80.2055 61.1411C80.2844 62.039 81.0418 62.7382 81.7245 62.4276C82.2706 62.1792 81.5047 60.4952 80.7474 60.4003C80.4122 60.3879 80.1764 60.7149 80.2055 61.1411Z" fill="#259AE7"/>
<path d="M86.4393 58.9111C86.4891 59.3828 86.8575 59.7096 87.3499 59.7053C88.3596 59.6306 88.5829 59.0346 87.8502 58.2693C87.0928 57.5702 86.4101 57.8807 86.4393 58.9111Z" fill="#259AE7"/>
<path d="M88.9455 58.3753C88.9498 58.8678 89.1568 59.3229 89.2893 59.3725C89.819 59.571 90.307 58.4701 89.9964 57.7874C89.6031 56.9227 88.8956 57.2995 88.9455 58.3753Z" fill="#259AE7"/>
<path d="M93.0135 57.7859C92.9805 58.0755 93.2164 58.3527 93.5723 58.4106C94.2634 58.4807 94.8963 57.6984 94.6064 57.0613C94.358 56.5151 93.1292 57.0741 93.0135 57.7859Z" fill="#259AE7"/>
<path d="M102.7 52.3068C102.86 53.242 103.924 53.5577 104.054 52.7176C104.122 52.2729 103.83 51.8737 103.385 51.8052C102.94 51.7366 102.655 51.9457 102.7 52.3068Z" fill="#259AE7"/>
<path d="M91.4278 62.0225C91.2459 62.7094 91.4156 62.9618 92.1688 63.1685C92.922 63.3752 93.0833 63.2469 93.0211 62.5062C92.9545 61.2731 91.7378 60.8927 91.4278 62.0225Z" fill="#259AE7"/>
<path d="M105.443 54.196C105.496 54.5077 105.762 54.7511 106.009 54.7891C106.256 54.8272 106.583 54.6752 106.728 54.3939C106.872 54.1127 106.614 53.8199 106.169 53.7514C105.724 53.6829 105.39 53.8843 105.443 54.196Z" fill="#259AE7"/>
<path d="M96.3967 53.0806C96.754 53.2604 97.179 53.1944 97.2914 52.9711C97.4262 52.7031 97.2035 52.3671 96.8462 52.1873C96.4889 52.0075 96.0863 52.0288 95.9515 52.2968C95.8391 52.5201 96.0394 52.9008 96.3967 53.0806Z" fill="#259AE7"/>
<path d="M100.199 53.7595C101.003 54.1641 101.74 54.2554 102.099 53.8762C103.444 52.6499 101.927 51.2149 100.225 52.0378C98.7924 52.772 98.7918 52.9956 100.199 53.7595Z" fill="#259AE7"/>
<path d="M141.581 124.435C140.543 124.976 140.996 126.407 142.234 126.387C142.762 126.328 143.244 126.024 143.336 125.701C143.507 124.773 142.446 124.007 141.581 124.435Z" fill="#259AE7"/>
<path d="M143.81 128.438C143.54 128.733 143.488 129.16 143.673 129.329C143.894 129.531 144.278 129.408 144.548 129.113C144.818 128.818 144.906 128.424 144.685 128.222C144.501 128.053 144.08 128.143 143.81 128.438Z" fill="#259AE7"/>
<path d="M125.62 56.7571C125.164 58.0703 126.04 60.7828 126.631 59.8591C126.884 59.5148 127.306 58.8808 127.642 58.4817C127.951 58.0408 127.956 57.5 127.639 57.289C127.322 57.0781 127.16 56.6466 127.329 56.357C127.556 55.7905 126.771 55.2285 126.269 55.5566C126.101 55.666 125.805 56.218 125.62 56.7571Z" fill="#259AE7"/>
<path d="M125.599 132.543C124.685 132.641 124.573 133.257 125.39 133.916C125.818 134.261 126.287 134.318 126.429 133.983C126.673 133.281 126.232 132.475 125.599 132.543Z" fill="#259AE7"/>
<path d="M32.2723 100.45C31.8347 100.808 32.2035 101.649 32.8503 101.713C33.0991 101.738 33.3327 101.409 33.3722 101.011C33.4463 100.265 32.874 99.957 32.2723 100.45Z" fill="#259AE7"/>
<path d="M122.236 133.685C121.541 133.831 121.321 134.103 121.381 134.666C121.487 135.65 122.922 136.101 123.518 135.361C124.146 134.583 123.315 133.463 122.236 133.685Z" fill="#259AE7"/>
<path d="M120.187 130.894C119.784 131.093 119.625 131.561 119.823 131.965C120.199 132.727 121.12 132.107 120.991 131.167C120.926 130.809 120.591 130.695 120.187 130.894Z" fill="#259AE7"/>
<path d="M118.781 133.814C118.377 134.013 118.219 134.37 118.441 134.594C118.663 134.819 119.043 134.911 119.267 134.801C119.492 134.69 119.65 134.333 119.607 134.02C119.564 133.707 119.185 133.615 118.781 133.814Z" fill="#259AE7"/>
<path d="M119.513 137.141C119.231 137.492 119.283 137.984 119.634 138.266C120.295 138.8 120.869 137.85 120.357 137.051C120.147 136.754 119.796 136.791 119.513 137.141Z" fill="#259AE7"/>
<path d="M120.477 137.715C119.785 137.667 119.666 138.784 120.312 139.19C120.869 139.529 121.522 138.817 121.213 138.189C121.102 137.965 120.79 137.784 120.477 137.715Z" fill="#259AE7"/>
<path d="M114.059 138.371C113.835 138.482 113.765 138.906 113.942 139.265C114.119 139.624 114.498 139.827 114.722 139.717C114.991 139.584 115.016 139.182 114.839 138.823C114.662 138.464 114.328 138.238 114.059 138.371Z" fill="#259AE7"/>
<path d="M34.7557 115.419C34.5818 115.653 34.7511 115.971 35.1294 116.21C35.8461 116.582 36.6069 116.005 36.114 115.403C35.7106 114.911 35.1086 114.901 34.7557 115.419Z" fill="#259AE7"/>
<path d="M103.564 135.737C102.76 135.576 102.692 135.665 103.09 136.472C103.355 137.011 103.823 137.282 104.227 137.083C104.586 136.906 104.811 136.572 104.701 136.348C104.59 136.123 104.077 135.874 103.564 135.737Z" fill="#259AE7"/>
<path d="M99.1309 129.005C98.7721 129.181 98.5686 129.56 98.6791 129.785C98.8117 130.054 99.2141 130.079 99.5729 129.902C99.9317 129.725 100.157 129.391 100.025 129.122C99.9142 128.897 99.4897 128.828 99.1309 129.005Z" fill="#259AE7"/>
<path d="M100.519 132.052C99.7604 131.757 99.3105 132.201 99.6641 132.919C99.8409 133.278 100.31 133.437 100.668 133.26C101.386 132.907 101.3 132.28 100.519 132.052Z" fill="#259AE7"/>
<path d="M39.2156 123.148C39.176 123.546 39.3754 124.069 39.6094 124.243C39.8931 124.421 40.1217 124.143 40.1761 123.595C40.2354 122.998 40.0808 122.531 39.7823 122.501C39.5335 122.476 39.2551 122.75 39.2156 123.148Z" fill="#259AE7"/>
<path d="M98.8317 134.839C98.157 135.506 98.5086 136.559 99.2711 136.183C99.6747 135.984 99.834 135.516 99.6351 135.112C99.4362 134.708 99.1015 134.595 98.8317 134.839Z" fill="#259AE7"/>
<path d="M94.4434 127.411C94.0846 127.588 93.8811 127.967 93.9916 128.191C94.1242 128.46 94.5266 128.485 94.8854 128.308C95.2442 128.131 95.4698 127.797 95.3372 127.528C95.2267 127.304 94.8022 127.234 94.4434 127.411Z" fill="#259AE7"/>
<path d="M89.2442 98.8152C88.8854 98.992 88.7261 99.4607 88.9029 99.8195C89.0797 100.178 89.5483 100.338 89.9071 100.161C90.266 99.984 90.4252 99.5154 90.2484 99.1565C90.0716 98.7977 89.603 98.6385 89.2442 98.8152Z" fill="#259AE7"/>
<path d="M90.5701 120.792C90.0345 120.61 89.5157 121.367 89.803 121.95C89.9135 122.174 90.3159 122.199 90.6747 122.022C91.3475 121.691 91.3065 121.042 90.5701 120.792Z" fill="#259AE7"/>
<path d="M53.3637 101.682C52.2212 102.302 51.1414 102.844 50.938 102.937C49.9914 103.394 51.5331 104.509 52.7986 104.374C54.4157 104.2 55.6776 103.034 55.1578 102.165C54.8942 101.696 54.957 101.618 55.3462 101.932C56.0392 102.426 56.5891 101.585 55.9275 101.052C55.6161 100.801 54.4749 101.101 53.3637 101.682Z" fill="#259AE7"/>
<path d="M87.4569 98.5814C87.0533 98.7803 86.8946 99.1371 87.1169 99.362C87.3392 99.587 87.7188 99.6786 87.9431 99.5681C88.1673 99.4576 88.326 99.1008 88.2831 98.7875C88.2402 98.4742 87.8606 98.3825 87.4569 98.5814Z" fill="#259AE7"/>
<path d="M82.128 107.392C81.8582 107.636 81.7445 107.971 81.8329 108.15C82.1429 108.666 82.7045 108.222 82.6636 107.574C82.5986 107.215 82.3308 107.124 82.128 107.392Z" fill="#259AE7"/>
<path d="M89.9961 123.249C89.6607 123.247 89.3461 123.513 89.3441 123.849C89.2271 124.742 90.0311 124.904 90.3269 124.033C90.4862 123.565 90.3536 123.295 89.9961 123.249Z" fill="#259AE7"/>
<path d="M87.7814 117.759C87.2432 118.024 86.5834 119.966 86.8485 120.504C86.959 120.728 87.2717 120.797 87.496 120.687C87.7651 120.554 87.834 120.242 87.7014 119.973C87.5909 119.748 87.704 119.525 87.9946 119.549C88.2851 119.573 88.5107 119.239 88.4463 118.769C88.3411 117.651 88.2748 117.516 87.7814 117.759Z" fill="#259AE7"/>
<path d="M85.4574 96.2207C85.2332 96.3312 85.1415 96.7108 85.3183 97.0696C85.4951 97.4284 85.9403 97.7664 86.2309 97.7905C86.5663 97.7924 86.6131 97.4349 86.37 96.9416C86.1048 96.4033 85.7265 96.0881 85.4574 96.2207Z" fill="#259AE7"/>
<path d="M36.3088 100.289C35.578 101.434 35.917 102.607 36.9101 102.252C37.2855 102.105 37.4274 101.77 37.2566 101.504C37.0859 101.237 37.2592 100.863 37.627 100.646C37.9949 100.429 38.0276 100.07 37.6384 99.7559C37.2103 99.4106 36.8035 99.5964 36.3088 100.289Z" fill="#259AE7"/>
<path d="M77.1222 97.1701C76.0564 96.8141 74.8783 97.3637 74.9137 98.2129C74.9553 99.2121 76.3458 100.155 77.2304 99.7678C78.165 99.3786 78.1359 97.4781 77.1222 97.1701Z" fill="#259AE7"/>
<path d="M77.028 100.977C76.7782 100.987 76.543 101.347 76.5597 101.747C76.5763 102.147 76.8407 102.486 77.0905 102.476C77.3902 102.463 77.5755 102.105 77.5588 101.706C77.5421 101.306 77.3277 100.964 77.028 100.977Z" fill="#259AE7"/>
<path d="M83.7223 116.416C83.1393 116.703 82.98 117.172 83.2673 117.755C83.5546 118.338 84.0232 118.497 84.6063 118.21C85.1894 117.922 85.3486 117.454 85.0613 116.871C84.7741 116.288 84.3054 116.128 83.7223 116.416Z" fill="#259AE7"/>
<path d="M71.7504 114.165C71.3508 114.182 71.0115 114.446 71.0219 114.696C71.0344 114.996 71.3924 115.181 71.7921 115.164C72.1917 115.148 72.5331 114.933 72.5206 114.633C72.5102 114.384 72.1501 114.148 71.7504 114.165Z" fill="#259AE7"/>
<path d="M74.9697 100.813C74.6617 100.625 74.3598 100.588 74.2162 100.744C73.8811 101.108 74.6429 102.578 75.1425 102.557C75.7919 102.53 75.6358 101.185 74.9697 100.813Z" fill="#259AE7"/>
<path d="M82.8331 97.3467C81.9407 97.006 81.2204 97.8068 81.6403 98.659C81.9276 99.242 82.3962 99.4013 82.9793 99.114C83.8315 98.6942 83.7483 97.6203 82.8331 97.3467Z" fill="#259AE7"/>
<path d="M94.4334 138.84C93.8978 138.658 93.379 139.415 93.6663 139.998C93.7768 140.222 94.1791 140.247 94.538 140.07C95.2107 139.739 95.1698 139.09 94.4334 138.84Z" fill="#259AE7"/>
<path d="M48.6539 102.187C48.0977 102.637 47.6922 102.503 47.008 101.758C46.4719 101.069 46.0274 100.903 45.7763 101.215C45.5566 101.487 45.7738 101.855 46.335 102.115C47.0054 102.399 47.1435 103.024 46.9425 104.468C46.6524 106.739 46.9474 107.17 48.675 106.7C50.1214 106.261 50.5784 105.216 50.2031 103.372C49.8429 101.668 49.6094 101.48 48.6539 102.187Z" fill="#259AE7"/>
<path d="M83.3325 100.391C82.7956 100.433 82.6818 100.768 82.9691 101.351C83.2122 101.844 83.725 102.093 84.0838 101.916C84.4427 101.739 84.624 101.316 84.4472 100.957C84.2704 100.598 83.7797 100.394 83.3325 100.391Z" fill="#259AE7"/>
<path d="M38.2621 105.912C37.5728 106.448 37.3229 106.439 37.3719 105.9C37.4674 105.463 37.2577 105.166 36.9375 105.165C36.3751 105.225 36.6349 106.655 37.3354 107.22C37.569 107.408 38.154 107.559 38.6223 107.615C39.3794 107.712 39.5049 107.556 39.3531 106.47C39.2251 105.275 39.1862 105.244 38.2621 105.912Z" fill="#259AE7"/>
<path d="M77.7506 105.056C76.6599 105.302 76.4143 109.015 77.4634 108.972C78.1628 108.943 78.7019 107.469 78.6311 105.77C78.6061 105.171 78.296 104.933 77.7506 105.056Z" fill="#259AE7"/>
<path d="M52.6312 107.449C52.2872 107.557 52.0285 107.798 52.0511 108.009C52.1038 108.501 53.2903 108.623 53.6669 108.156C54.0436 107.689 53.382 107.155 52.6312 107.449Z" fill="#259AE7"/>
<path d="M82.1332 120.658C81.684 120.99 81.4792 121.593 81.6326 122.131C81.7853 122.78 82.0531 122.871 82.5699 122.449C83.0191 122.116 83.2239 121.514 83.0705 120.976C82.9177 120.327 82.6499 120.236 82.1332 120.658Z" fill="#259AE7"/>
<path d="M83.2727 123.881C82.9139 124.058 82.5987 124.436 82.5525 124.682C82.481 125.442 83.8193 126.009 84.2029 125.43C84.6995 124.628 84.0352 123.506 83.2727 123.881Z" fill="#259AE7"/>
<path d="M37.1747 108.375C36.7126 108.709 36.4301 109.059 36.5469 109.153C36.9361 109.467 38.6712 109.068 38.626 108.646C38.5432 107.873 37.9971 107.754 37.1747 108.375Z" fill="#259AE7"/>
<path d="M77.019 110.343C76.3425 109.72 75.8055 110.043 75.8492 111.092C75.8721 111.641 76.1385 112.031 76.484 111.916C77.173 111.637 77.4873 110.773 77.019 110.343Z" fill="#259AE7"/>
<path d="M31.4624 103.511C30.8999 103.571 30.5119 104.928 30.94 105.273C31.1346 105.43 31.5728 105.206 31.9181 104.778C32.5145 104.038 32.3061 103.42 31.4624 103.511Z" fill="#259AE7"/>
<path d="M32.3976 105.935C32.0661 106.824 32.8282 107.632 33.3618 106.97C33.6443 106.62 33.5916 106.128 33.2413 105.845C32.891 105.563 32.5395 105.6 32.3976 105.935Z" fill="#259AE7"/>
<path d="M73.934 107.119C73.5344 107.136 73.1993 107.5 73.2159 107.9C73.2346 108.349 73.5406 108.487 73.984 108.318C74.3753 108.102 74.7125 107.787 74.7021 107.538C74.6917 107.288 74.3337 107.103 73.934 107.119Z" fill="#259AE7"/>
<path d="M77.9234 121.503C77.3852 121.768 77.1142 122.236 77.2909 122.595C77.6666 123.357 79.0577 122.561 78.9511 121.666C78.8861 121.307 78.4168 121.26 77.9234 121.503Z" fill="#259AE7"/>
<path d="M81.0156 120.618C80.5905 120.66 80.3428 120.949 80.4754 121.218C80.608 121.487 80.5397 121.688 80.3389 121.62C80.1159 121.507 80.0308 120.768 80.1251 119.942C80.2642 119.093 80.2681 118.422 80.1563 118.421C77.8943 119.034 77.6024 119.234 78.5404 119.44C79.3893 119.58 79.4777 119.759 79.2274 120.495C78.7509 121.678 79.8864 122.512 81.1423 121.893C82.3533 121.296 82.246 120.513 81.0156 120.618Z" fill="#259AE7"/>
</svg>
