<svg width="65" height="319" viewBox="0 0 65 319" fill="none" xmlns="http://www.w3.org/2000/svg">
<path fill-rule="evenodd" clip-rule="evenodd" d="M56 310V254.5H64V318H0.5V310H56Z" fill="#EEF4F8"/>
<path fill-rule="evenodd" clip-rule="evenodd" d="M40.501 183.061H18.1547L16.9629 181.869V190.212H26.1994L29.7748 193.787H36.6276L38.4153 191.999H43.1825L46.1621 193.489V195.873L45.2682 196.766V201.832L44.3744 202.725V208.982L38.1174 215.239H36.3297L35.1379 217.921H29.1789L27.9871 219.113V220.9L29.1789 222.092H47.6518L53.0149 218.219H55.3985V215.835H58.378V215.239H62.2514L64.0391 213.452V208.387L62.2514 206.599H59.8678V201.832H58.378V167.269H61.3575V165.482H60.1657L58.378 163.694V152.968H60.7616L62.5493 151.18V147.903L60.7616 146.115H58.378L58.378 143.731H55.6965V140.752H53.3129V127.046H50.9293V140.752L48.5457 140.752V146.115L46.1621 148.499V170.547H39.6071L37.8194 172.335V179.485L40.501 182.167V183.061ZM46.1621 177.698V172.633H40.799L39.6071 173.824V179.187L42.2887 181.869H46.1621V180.379H42.5866L40.203 177.996V175.314H40.799L43.1826 177.698H46.1621Z" fill="#EEF4F8"/>
<path fill-rule="evenodd" clip-rule="evenodd" d="M40.501 57.0144H18.1547L16.9629 55.8226V64.1652H26.1994L29.7748 67.7406H36.6276L38.4153 65.9529H43.1825L46.1621 67.4427V69.8263L45.2682 70.7201V75.7853L44.3744 76.6791V82.9361L38.1174 89.193H36.3297L35.1379 91.8746H29.1789L27.9871 93.0664V94.8541L29.1789 96.0459H47.6518L53.0149 92.1725H55.3985V89.7889H58.378V89.193H62.2514L64.0391 87.4053V82.3402L62.2514 80.5525H59.8678V75.7853H58.378V41.223H61.3575V39.4353H60.1657L58.378 37.6476V26.9214H60.7616L62.5493 25.1337V21.8563L60.7616 20.0686H58.378L58.378 17.685H55.6965V14.7055H53.3129V0.999756L50.9293 0.999756V14.7055H48.5457V20.0686L46.1621 22.4522V44.5005H39.6071L37.8194 46.2882V53.439L40.501 56.1205V57.0144ZM46.1621 51.6513V46.5861H40.799L39.6071 47.7779V53.141L42.2887 55.8226H46.1621V54.3328H42.5866L40.203 51.9492V49.2677H40.799L43.1826 51.6513H46.1621Z" fill="#EEF4F8"/>
<path fill-rule="evenodd" clip-rule="evenodd" d="M56 310V254.5H64V318H0.5V310H56Z" stroke="#EEF4F8" stroke-width="0.5959"/>
<path fill-rule="evenodd" clip-rule="evenodd" d="M40.501 183.061H18.1547L16.9629 181.869V190.212H26.1994L29.7748 193.787H36.6276L38.4153 191.999H43.1825L46.1621 193.489V195.873L45.2682 196.766V201.832L44.3744 202.725V208.982L38.1174 215.239H36.3297L35.1379 217.921H29.1789L27.9871 219.113V220.9L29.1789 222.092H47.6518L53.0149 218.219H55.3985V215.835H58.378V215.239H62.2514L64.0391 213.452V208.387L62.2514 206.599H59.8678V201.832H58.378V167.269H61.3575V165.482H60.1657L58.378 163.694V152.968H60.7616L62.5493 151.18V147.903L60.7616 146.115H58.378L58.378 143.731H55.6965V140.752H53.3129V127.046H50.9293V140.752L48.5457 140.752V146.115L46.1621 148.499V170.547H39.6071L37.8194 172.335V179.485L40.501 182.167V183.061ZM46.1621 177.698V172.633H40.799L39.6071 173.824V179.187L42.2887 181.869H46.1621V180.379H42.5866L40.203 177.996V175.314H40.799L43.1826 177.698H46.1621Z" stroke="#EEF4F8" stroke-width="0.5959"/>
<path fill-rule="evenodd" clip-rule="evenodd" d="M40.501 57.0144H18.1547L16.9629 55.8226V64.1652H26.1994L29.7748 67.7406H36.6276L38.4153 65.9529H43.1825L46.1621 67.4427V69.8263L45.2682 70.7201V75.7853L44.3744 76.6791V82.9361L38.1174 89.193H36.3297L35.1379 91.8746H29.1789L27.9871 93.0664V94.8541L29.1789 96.0459H47.6518L53.0149 92.1725H55.3985V89.7889H58.378V89.193H62.2514L64.0391 87.4053V82.3402L62.2514 80.5525H59.8678V75.7853H58.378V41.223H61.3575V39.4353H60.1657L58.378 37.6476V26.9214H60.7616L62.5493 25.1337V21.8563L60.7616 20.0686H58.378L58.378 17.685H55.6965V14.7055H53.3129V0.999756L50.9293 0.999756V14.7055H48.5457V20.0686L46.1621 22.4522V44.5005H39.6071L37.8194 46.2882V53.439L40.501 56.1205V57.0144ZM46.1621 51.6513V46.5861H40.799L39.6071 47.7779V53.141L42.2887 55.8226H46.1621V54.3328H42.5866L40.203 51.9492V49.2677H40.799L43.1826 51.6513H46.1621Z" stroke="#EEF4F8" stroke-width="0.5959"/>
</svg>
