<svg width="161" height="160" viewBox="0 0 161 160" fill="none" xmlns="http://www.w3.org/2000/svg">
<g id="Frame 2087326931">
<path id="Vector" d="M80.2303 3.83727C79.1935 6.10947 78.1568 9.62106 78.1568 11.8933C78.1568 13.9589 75.8759 18.2968 72.9729 21.3952C70.07 24.4937 67.7891 27.3856 67.7891 28.0053C67.7891 30.8972 59.9096 38.9532 58.4582 37.5073C57.4214 36.681 57.4214 37.0941 58.0435 38.3335C59.4949 40.8123 53.067 49.488 49.7493 49.488C47.0537 49.488 42.6993 54.4456 42.0772 58.1637C41.6625 59.6097 40.8331 62.5016 40.0037 64.3606C39.1743 66.2197 38.9669 68.6985 39.589 69.9379C40.4184 70.9707 38.1375 74.8954 34.6125 78.6136C30.0507 83.7777 29.0139 86.0499 30.8801 88.1156C32.1242 89.5615 32.3316 90.8009 31.5022 90.8009C30.6728 90.8009 31.0875 92.0403 32.3316 93.6928C33.9904 95.5519 34.4051 99.4766 33.5757 104.021C32.7463 107.946 32.9536 112.49 33.9904 113.936C35.0272 115.589 36.064 112.077 36.686 104.228C37.5154 93.0731 38.1375 91.8337 42.2846 92.0403C44.7728 92.0403 46.4316 91.6272 46.0169 90.8009C45.6022 90.1812 51.4081 89.3549 58.8729 89.1484C66.545 88.7353 73.3876 88.1156 74.217 87.4959C75.0465 87.0827 76.4979 87.7024 77.3274 88.9418C78.1568 90.3878 77.9494 90.8009 76.7053 90.1812C75.4612 89.3549 74.6318 93.2797 74.4244 99.8897C74.217 110.631 72.9729 114.762 66.3376 126.743C63.642 131.907 63.4347 133.973 65.7155 139.137C67.167 142.649 69.0332 148.846 70.07 152.77L71.7288 160L71.3141 151.531C70.8994 144.714 71.5215 143.268 73.8023 144.095C75.6685 144.714 76.2906 144.301 75.2538 142.855C74.4244 141.616 75.6685 138.724 78.1568 136.245C80.4377 133.973 82.3038 131.081 82.3038 129.842C82.3038 126.743 106.357 90.8009 107.808 92.0403C108.223 92.66 109.26 90.5943 110.089 87.7024C110.919 84.8105 112.785 82.5383 114.444 82.5383C116.103 82.5383 117.554 81.2989 117.554 79.853C117.554 74.8954 121.701 83.5711 121.701 88.7353C121.908 97.6175 125.848 88.7353 125.848 79.4399C125.848 74.8954 127.3 69.5248 128.958 67.2526C133.935 60.8491 129.373 55.4784 120.042 56.5112C115.895 56.9243 110.711 56.3046 108.43 55.2718C105.527 53.6193 104.905 53.8259 106.15 56.0981C107.394 58.1637 107.186 58.1637 105.113 56.3046C103.247 54.6521 101.173 54.4456 98.4774 55.8915C95.9892 57.3375 94.7451 57.1309 94.7451 55.6849C94.7451 54.239 92.2568 53.8259 88.5245 54.4456C82.9259 55.2718 82.3038 54.8587 82.3038 49.9011C82.3038 46.8027 83.3406 40.6057 84.5847 36.0613C85.6215 31.5169 86.8656 25.7331 87.2803 23.2543C87.695 20.7755 89.1465 15.818 90.598 12.513C92.6715 7.34886 92.6715 5.48978 90.598 3.011C87.073 -1.32686 82.9259 -0.913727 80.2303 3.83727ZM78.9862 22.8412C78.3641 24.0806 77.7421 29.0381 77.7421 33.5825C77.9494 38.3335 76.4979 44.3239 74.8391 47.0092C72.9729 49.6946 72.1435 54.6521 72.5582 59.4031C73.3876 66.6329 73.8023 67.046 80.023 66.6329C83.548 66.4263 86.4509 67.2526 86.4509 68.6985C86.4509 70.351 87.073 70.351 88.9392 68.4919C92.0495 65.3935 95.5745 65.1869 93.5009 68.2854C92.4642 69.9379 93.2936 69.9379 96.4039 68.2854C102.002 65.3935 103.661 65.3935 101.795 68.4919C100.551 70.5576 100.966 70.5576 103.247 68.6985C104.698 67.2526 108.016 66.0132 110.711 66.0132C116.932 66.0132 115.48 69.7313 102.002 87.7024C95.9892 95.5519 88.1098 106.706 84.5847 112.49L77.9494 122.818L79.1935 115.589C79.8156 111.664 80.645 104.847 81.2671 100.303C81.6818 95.965 83.548 90.1812 85.2068 87.7024C89.5612 81.0924 86.2436 76.7545 78.7788 79.6464C71.1067 82.5383 44.9802 83.3646 44.9802 80.8858C44.9802 79.6464 45.6022 77.1676 46.2243 75.3086C47.2611 72.6232 47.8831 72.4167 49.3346 74.6889C50.5787 76.548 51.2008 75.5151 51.2008 71.5904C51.2008 65.3935 58.4582 49.488 61.3611 49.488C62.3979 49.488 63.642 47.4224 64.4714 44.737C65.5082 39.986 77.7421 20.569 79.6082 20.569C80.023 20.569 79.8156 21.6018 78.9862 22.8412Z" fill="#00A3FF"/>
</g>
</svg>
