<svg width="160" height="160" viewBox="0 0 160 160" fill="none" xmlns="http://www.w3.org/2000/svg">
<g id="Frame 2087326931">
<g id="Group 2087326928">
<path id="Vector" d="M30.441 6.20886C27.9002 11.0457 26.5143 30.8537 28.5931 30.8537C28.8241 30.8537 29.5171 33.8479 29.9791 37.7635C30.672 41.4487 32.2889 45.8248 33.6749 47.4371C35.2918 49.51 35.2918 52.5043 32.9819 57.8018C29.0551 67.9361 29.2861 67.9361 24.6664 62.1779C20.5086 57.1108 20.5086 57.1108 17.7367 61.7173C15.1959 65.6328 15.6579 67.2451 20.5086 72.0819C26.9762 78.5311 30.672 91.4293 29.5171 105.249C29.0551 110.546 29.7481 115.383 30.903 116.074C32.2889 116.995 33.4439 122.984 33.4439 129.433C33.6749 136.112 34.1368 138.876 34.8298 135.652C35.2918 132.427 36.2157 127.36 36.9087 124.366C38.0636 119.299 38.2946 119.068 41.2974 123.214C43.3763 126.208 47.3031 127.59 53.3088 127.59C61.1623 127.59 62.0863 128.051 61.6243 133.349L60.9313 139.107L63.7032 134.04C65.0891 131.045 68.0919 128.742 70.4018 128.742C72.7117 128.742 74.7906 130.815 75.4835 134.04C76.4075 138.646 76.4075 138.646 76.8695 134.27C77.1004 130.585 79.4103 129.203 88.4188 127.36L99.5062 125.057L98.5823 134.5C98.1203 139.567 98.5823 148.32 99.7372 154.078C101.816 163.521 102.047 162.83 102.278 143.483C102.509 120.911 104.126 117.226 114.289 117.226C122.605 117.226 127.918 124.826 127.918 136.112C127.918 140.719 129.073 145.325 130.228 146.016C132.537 147.398 133.692 139.798 132.768 128.281C132.537 124.826 133.923 118.838 136.002 114.922C140.16 107.091 139.005 100.873 132.999 96.0358C129.535 93.5022 129.535 93.5022 131.844 96.4965C134.154 99.4907 133.923 100.182 130.458 100.182C126.07 100.182 125.377 95.1145 129.304 92.3506C131.613 90.508 131.613 68.3967 129.304 59.414C128.149 55.2682 128.611 52.7346 131.151 50.6617C134.385 47.8978 134.847 49.0494 134.847 59.8747C134.847 66.7845 136.002 73.9246 137.157 75.7672C138.774 78.0704 139.005 73.2336 138.081 60.3354C137.157 49.9707 137.388 39.6061 138.312 37.3028C143.163 26.2472 144.087 14.2702 140.622 11.276C138.543 9.43341 137.157 9.43341 136.002 11.276C135.309 12.658 133.461 13.1186 132.306 12.4276C131.151 11.5063 130.228 13.1186 130.228 15.6522C130.228 20.7194 117.985 28.5504 114.058 26.2472C112.672 25.3259 111.056 26.2472 110.363 28.3201C109.208 31.084 107.591 31.084 98.3513 26.9382C85.878 21.6407 73.6356 21.18 62.0863 26.0168C52.1538 30.1627 48.689 27.6291 44.3003 12.8883C40.1425 -1.62221 35.2918 -3.92546 30.441 6.20886ZM128.611 36.6118C127.918 38.9151 126.07 42.37 124.222 43.7519C121.681 45.8248 120.988 45.5945 120.988 42.6003C120.988 40.0667 119.833 39.1454 118.216 40.297C116.599 41.2183 115.906 41.2183 116.83 40.0667C117.754 39.1454 120.988 36.8422 123.76 35.2299C126.763 33.8479 129.304 32.466 129.535 32.2356C129.535 32.0053 129.304 34.0782 128.611 36.6118ZM79.4103 36.3815C79.4103 37.3028 83.5681 37.7635 88.6498 37.3028C94.6555 36.6118 97.8893 37.0725 97.8893 38.9151C97.8893 40.297 99.0442 40.7577 100.199 40.0667C101.585 39.3757 103.202 40.297 103.895 42.1396C104.588 44.2126 106.205 45.3642 107.129 44.6732C108.053 43.9822 110.594 46.0552 112.672 49.2797C114.982 52.7346 115.444 55.2682 113.827 56.1895C112.441 57.1108 113.365 59.1837 115.906 61.7173C119.371 64.4812 120.526 68.1664 120.295 76.4581C120.064 82.4466 119.14 87.2834 117.985 87.2834C117.061 87.2834 116.599 88.2047 117.292 89.126C117.985 90.2777 116.599 93.2719 114.058 96.0358C107.822 102.715 82.1822 102.485 77.3314 95.8055C75.2526 93.0416 72.2497 91.8899 68.7849 92.5809C65.7821 93.0416 63.2412 92.5809 63.2412 91.4293C63.2412 90.2777 62.3173 90.0473 60.9313 90.7383C58.1595 92.5809 40.6045 78.7614 38.9876 73.4639C36.9087 67.0148 49.382 43.5216 54.9257 43.5216C56.3116 43.5216 56.0806 44.4429 54.2327 45.5945C49.844 48.3584 50.3059 65.1722 54.9257 72.3123C62.0863 83.3679 77.5624 82.4466 78.9483 70.7C79.6413 64.2509 65.7821 42.1396 61.3933 42.8306C59.7764 43.2913 58.6215 42.37 58.6215 40.988C58.6215 39.6061 60.2384 38.9151 62.0863 39.8364C63.9342 40.5274 65.5511 39.8364 65.5511 38.6848C65.5511 37.3028 67.63 36.6118 70.1708 37.3028C72.7117 37.9938 74.3286 37.5331 73.4047 36.3815C72.7117 35.2299 73.8666 34.3086 75.7145 34.3086C77.7934 34.3086 79.4103 35.2299 79.4103 36.3815ZM47.5341 96.4965C53.7707 96.4965 65.3201 113.31 60.9313 116.074C59.5454 116.765 57.6975 114.922 56.3116 111.698C55.1567 108.473 51.4609 104.097 48.227 102.024C44.9932 99.9513 41.2974 96.0358 39.9115 93.2719C37.8326 88.8957 37.8326 88.6654 40.8355 92.3506C42.6834 94.6538 45.6862 96.4965 47.5341 96.4965ZM88.6498 115.153C88.6498 116.765 82.6441 119.529 79.1793 119.529C76.8695 119.529 76.4075 111.928 78.4864 109.625C80.1033 108.243 88.6498 112.85 88.6498 115.153ZM74.7906 116.304C74.7906 118.377 73.1737 119.529 70.8638 119.068C65.0891 117.917 64.3961 112.619 69.9398 112.619C72.7117 112.619 74.7906 114.001 74.7906 116.304Z" fill="#00A3FF"/>
<path id="Vector_2" d="M99.195 61.7797C91.336 66.4772 84.8639 74.6978 85.095 79.865C85.3262 82.6835 84.4016 85.0323 83.2459 85.0323C82.0901 85.0323 81.859 85.9718 82.5524 87.381C83.2459 88.5554 87.4065 89.7297 91.7983 89.7297C106.823 89.7297 120.692 67.8865 109.365 61.5449C104.049 58.7264 104.28 58.7264 99.195 61.7797Z" fill="#00A3FF"/>
<path id="Vector_3" d="M141.622 56.7978C141.622 61.0946 142.287 62.9038 143.285 60.6423C143.95 58.607 143.95 54.9886 143.285 52.7271C142.287 50.6918 141.622 52.501 141.622 56.7978Z" fill="#00A3FF"/>
</g>
</g>
</svg>
