<svg width="79" height="41" viewBox="0 0 79 41" fill="none" xmlns="http://www.w3.org/2000/svg">
<path id="Vector" d="M34.1523 39.2459C36.7973 38.8162 39.4342 38.3468 42.0597 37.7805C43.9141 37.4053 45.5572 36.4298 46.809 34.9755C46.0562 34.3263 45.316 33.6993 44.593 33.0768C43.8435 33.5366 43.124 34.023 42.4171 34.5316C42.0511 35.1488 41.7024 35.7706 41.3837 36.4191C39.0013 36.9744 36.5687 37.1595 34.1956 36.628C34.6359 36.4999 35.5165 36.2437 35.9395 36.111C35.5508 35.4827 35.1574 34.8719 34.764 34.2611C33.224 33.7237 31.538 33.8804 29.94 33.7033C31.4221 32.4975 33.2743 31.9903 35.1115 31.6106L32.0876 30.8136C32.4521 30.5528 32.8337 30.2966 33.2108 30.0579C35.2729 28.404 37.6732 27.29 40.2135 26.6261C41.0596 26.3608 41.8976 26.0558 42.7184 25.7463C41.4077 25.2506 40.1142 24.7594 38.785 24.3339C37.8852 24.1719 37.0108 24.0541 36.1351 24.0111C31.2713 24.025 26.4857 22.2002 21.9938 20.4528C15.4262 18.0269 8.65783 15.9424 2.56856 12.403C2.02397 12.0153 1.47938 11.6276 0.952069 11.2445C1.16962 10.4191 1.37451 9.57158 1.57015 8.75922C2.5347 8.67538 3.49924 8.59155 4.47644 8.52983C4.65357 7.78771 4.82606 7.06314 5.01584 6.34313C11.0925 8.80871 17.6813 9.68143 23.6885 12.4104C23.8379 12.8254 24.1193 13.6508 24.2686 14.0658C33.0843 14.3423 41.2733 17.6275 49.6453 20.0783C52.0196 20.5351 54.4402 20.8163 56.8796 20.7456C55.3489 19.1213 53.6568 17.5485 51.3803 17.2114C47.5006 16.2263 43.4557 15.5171 39.9494 13.466C29.2275 9.34408 15.9914 10.3441 7.40384 1.77015C13.8982 4.68391 20.8435 6.3079 27.6153 8.44962C30.6231 9.16727 33.7817 9.94346 36.7951 8.7469C36.7976 9.64905 36.8 10.5512 36.845 11.5021L37.4646 11.8157C38.0669 12.1247 38.6692 12.4337 39.3014 12.7693C41.0744 13.124 42.8195 13.5839 44.5496 14.1714C44.3241 12.8536 44.1205 11.5228 43.7993 10.2174L43.073 8.4859C43.9638 8.40141 44.8512 8.25969 45.7559 8.12251C45.5507 7.14816 45.3455 6.1738 45.1749 5.20856C45.9475 5.7127 46.7201 6.21683 47.4835 6.7561C47.8997 6.50896 48.316 6.26183 48.7495 6.01926C48.2885 5.03382 47.8575 4.07506 47.4092 3.11174C47.5981 2.1849 47.8042 1.2626 48.0449 0.34942C48.97 -0.496068 49.9505 0.551194 50.7404 1.05989C52.9391 2.9541 55.8571 3.59174 58.1805 5.29344C59.1028 5.93092 59.98 6.66923 60.9056 7.36396C63.6977 9.32065 66.2901 11.544 68.7672 13.9248C71.2723 15.9185 73.8715 18.2563 77.1851 18.5851C77.0656 20.3002 76.8771 21.9972 76.7058 23.6987C77.0973 23.8958 77.8758 24.3076 78.2627 24.5223C77.9924 26.1789 78.1772 27.8615 78.7804 29.4291C78.6693 29.8506 78.499 30.7072 78.4051 31.1332C74.0229 36.4014 66.2036 33.3262 60.4169 35.3694C55.9817 36.4917 51.6292 37.8612 47.1585 38.7675C46.4359 38.9151 45.7086 39.0803 44.9986 39.25C41.8646 40.133 38.6199 40.1042 35.4368 40.5423L34.3374 40.647C34.2998 40.299 34.2418 39.6076 34.2042 39.2596L34.1523 39.2459Z" fill="#D3FF26"/>
</svg>
